G04 #@! TF.GenerationSoftware,KiCad,Pcbnew,(5.1.4)-1*
G04 #@! TF.CreationDate,2020-06-04T10:58:22-03:00*
G04 #@! TF.ProjectId,Mod_Temp_Driver,4d6f645f-5465-46d7-905f-447269766572,rev?*
G04 #@! TF.SameCoordinates,Original*
G04 #@! TF.FileFunction,Copper,L1,Top*
G04 #@! TF.FilePolarity,Positive*
%FSLAX46Y46*%
G04 Gerber Fmt 4.6, Leading zero omitted, Abs format (unit mm)*
G04 Created by KiCad (PCBNEW (5.1.4)-1) date 2020-06-04 10:58:22*
%MOMM*%
%LPD*%
G04 APERTURE LIST*
%ADD10O,2.200000X2.200000*%
%ADD11R,2.200000X2.200000*%
%ADD12C,4.000500*%
%ADD13C,0.100000*%
%ADD14C,1.150000*%
%ADD15O,1.600000X1.600000*%
%ADD16C,1.600000*%
%ADD17R,1.700000X1.300000*%
%ADD18R,1.600000X1.600000*%
%ADD19C,0.600000*%
%ADD20O,2.400000X2.400000*%
%ADD21C,2.400000*%
%ADD22R,0.900000X0.800000*%
%ADD23O,2.500000X2.500000*%
%ADD24R,2.500000X2.500000*%
%ADD25C,3.000000*%
%ADD26R,3.000000X3.000000*%
%ADD27O,1.700000X1.700000*%
%ADD28R,1.700000X1.700000*%
%ADD29C,2.200000*%
%ADD30C,1.500000*%
%ADD31C,2.000000*%
%ADD32C,2.000000*%
%ADD33C,0.500000*%
%ADD34C,1.000000*%
%ADD35C,0.700000*%
%ADD36C,3.000000*%
%ADD37C,1.500000*%
G04 APERTURE END LIST*
D10*
X88840000Y-66500000D03*
D11*
X99000000Y-66500000D03*
D10*
X115000000Y-111660000D03*
D11*
X115000000Y-101500000D03*
D10*
X115000000Y-124660000D03*
D11*
X115000000Y-114500000D03*
D10*
X75840000Y-130500000D03*
D11*
X86000000Y-130500000D03*
D12*
X76000000Y-100000000D03*
X81500000Y-100000000D03*
X87000000Y-100000000D03*
X91000000Y-137500000D03*
X85500000Y-137500000D03*
X80000000Y-137500000D03*
D13*
G36*
X97824505Y-121801204D02*
G01*
X97848773Y-121804804D01*
X97872572Y-121810765D01*
X97895671Y-121819030D01*
X97917850Y-121829520D01*
X97938893Y-121842132D01*
X97958599Y-121856747D01*
X97976777Y-121873223D01*
X97993253Y-121891401D01*
X98007868Y-121911107D01*
X98020480Y-121932150D01*
X98030970Y-121954329D01*
X98039235Y-121977428D01*
X98045196Y-122001227D01*
X98048796Y-122025495D01*
X98050000Y-122049999D01*
X98050000Y-122950001D01*
X98048796Y-122974505D01*
X98045196Y-122998773D01*
X98039235Y-123022572D01*
X98030970Y-123045671D01*
X98020480Y-123067850D01*
X98007868Y-123088893D01*
X97993253Y-123108599D01*
X97976777Y-123126777D01*
X97958599Y-123143253D01*
X97938893Y-123157868D01*
X97917850Y-123170480D01*
X97895671Y-123180970D01*
X97872572Y-123189235D01*
X97848773Y-123195196D01*
X97824505Y-123198796D01*
X97800001Y-123200000D01*
X97149999Y-123200000D01*
X97125495Y-123198796D01*
X97101227Y-123195196D01*
X97077428Y-123189235D01*
X97054329Y-123180970D01*
X97032150Y-123170480D01*
X97011107Y-123157868D01*
X96991401Y-123143253D01*
X96973223Y-123126777D01*
X96956747Y-123108599D01*
X96942132Y-123088893D01*
X96929520Y-123067850D01*
X96919030Y-123045671D01*
X96910765Y-123022572D01*
X96904804Y-122998773D01*
X96901204Y-122974505D01*
X96900000Y-122950001D01*
X96900000Y-122049999D01*
X96901204Y-122025495D01*
X96904804Y-122001227D01*
X96910765Y-121977428D01*
X96919030Y-121954329D01*
X96929520Y-121932150D01*
X96942132Y-121911107D01*
X96956747Y-121891401D01*
X96973223Y-121873223D01*
X96991401Y-121856747D01*
X97011107Y-121842132D01*
X97032150Y-121829520D01*
X97054329Y-121819030D01*
X97077428Y-121810765D01*
X97101227Y-121804804D01*
X97125495Y-121801204D01*
X97149999Y-121800000D01*
X97800001Y-121800000D01*
X97824505Y-121801204D01*
X97824505Y-121801204D01*
G37*
D14*
X97475000Y-122500000D03*
D13*
G36*
X99874505Y-121801204D02*
G01*
X99898773Y-121804804D01*
X99922572Y-121810765D01*
X99945671Y-121819030D01*
X99967850Y-121829520D01*
X99988893Y-121842132D01*
X100008599Y-121856747D01*
X100026777Y-121873223D01*
X100043253Y-121891401D01*
X100057868Y-121911107D01*
X100070480Y-121932150D01*
X100080970Y-121954329D01*
X100089235Y-121977428D01*
X100095196Y-122001227D01*
X100098796Y-122025495D01*
X100100000Y-122049999D01*
X100100000Y-122950001D01*
X100098796Y-122974505D01*
X100095196Y-122998773D01*
X100089235Y-123022572D01*
X100080970Y-123045671D01*
X100070480Y-123067850D01*
X100057868Y-123088893D01*
X100043253Y-123108599D01*
X100026777Y-123126777D01*
X100008599Y-123143253D01*
X99988893Y-123157868D01*
X99967850Y-123170480D01*
X99945671Y-123180970D01*
X99922572Y-123189235D01*
X99898773Y-123195196D01*
X99874505Y-123198796D01*
X99850001Y-123200000D01*
X99199999Y-123200000D01*
X99175495Y-123198796D01*
X99151227Y-123195196D01*
X99127428Y-123189235D01*
X99104329Y-123180970D01*
X99082150Y-123170480D01*
X99061107Y-123157868D01*
X99041401Y-123143253D01*
X99023223Y-123126777D01*
X99006747Y-123108599D01*
X98992132Y-123088893D01*
X98979520Y-123067850D01*
X98969030Y-123045671D01*
X98960765Y-123022572D01*
X98954804Y-122998773D01*
X98951204Y-122974505D01*
X98950000Y-122950001D01*
X98950000Y-122049999D01*
X98951204Y-122025495D01*
X98954804Y-122001227D01*
X98960765Y-121977428D01*
X98969030Y-121954329D01*
X98979520Y-121932150D01*
X98992132Y-121911107D01*
X99006747Y-121891401D01*
X99023223Y-121873223D01*
X99041401Y-121856747D01*
X99061107Y-121842132D01*
X99082150Y-121829520D01*
X99104329Y-121819030D01*
X99127428Y-121810765D01*
X99151227Y-121804804D01*
X99175495Y-121801204D01*
X99199999Y-121800000D01*
X99850001Y-121800000D01*
X99874505Y-121801204D01*
X99874505Y-121801204D01*
G37*
D14*
X99525000Y-122500000D03*
D13*
G36*
X97824505Y-124301204D02*
G01*
X97848773Y-124304804D01*
X97872572Y-124310765D01*
X97895671Y-124319030D01*
X97917850Y-124329520D01*
X97938893Y-124342132D01*
X97958599Y-124356747D01*
X97976777Y-124373223D01*
X97993253Y-124391401D01*
X98007868Y-124411107D01*
X98020480Y-124432150D01*
X98030970Y-124454329D01*
X98039235Y-124477428D01*
X98045196Y-124501227D01*
X98048796Y-124525495D01*
X98050000Y-124549999D01*
X98050000Y-125450001D01*
X98048796Y-125474505D01*
X98045196Y-125498773D01*
X98039235Y-125522572D01*
X98030970Y-125545671D01*
X98020480Y-125567850D01*
X98007868Y-125588893D01*
X97993253Y-125608599D01*
X97976777Y-125626777D01*
X97958599Y-125643253D01*
X97938893Y-125657868D01*
X97917850Y-125670480D01*
X97895671Y-125680970D01*
X97872572Y-125689235D01*
X97848773Y-125695196D01*
X97824505Y-125698796D01*
X97800001Y-125700000D01*
X97149999Y-125700000D01*
X97125495Y-125698796D01*
X97101227Y-125695196D01*
X97077428Y-125689235D01*
X97054329Y-125680970D01*
X97032150Y-125670480D01*
X97011107Y-125657868D01*
X96991401Y-125643253D01*
X96973223Y-125626777D01*
X96956747Y-125608599D01*
X96942132Y-125588893D01*
X96929520Y-125567850D01*
X96919030Y-125545671D01*
X96910765Y-125522572D01*
X96904804Y-125498773D01*
X96901204Y-125474505D01*
X96900000Y-125450001D01*
X96900000Y-124549999D01*
X96901204Y-124525495D01*
X96904804Y-124501227D01*
X96910765Y-124477428D01*
X96919030Y-124454329D01*
X96929520Y-124432150D01*
X96942132Y-124411107D01*
X96956747Y-124391401D01*
X96973223Y-124373223D01*
X96991401Y-124356747D01*
X97011107Y-124342132D01*
X97032150Y-124329520D01*
X97054329Y-124319030D01*
X97077428Y-124310765D01*
X97101227Y-124304804D01*
X97125495Y-124301204D01*
X97149999Y-124300000D01*
X97800001Y-124300000D01*
X97824505Y-124301204D01*
X97824505Y-124301204D01*
G37*
D14*
X97475000Y-125000000D03*
D13*
G36*
X99874505Y-124301204D02*
G01*
X99898773Y-124304804D01*
X99922572Y-124310765D01*
X99945671Y-124319030D01*
X99967850Y-124329520D01*
X99988893Y-124342132D01*
X100008599Y-124356747D01*
X100026777Y-124373223D01*
X100043253Y-124391401D01*
X100057868Y-124411107D01*
X100070480Y-124432150D01*
X100080970Y-124454329D01*
X100089235Y-124477428D01*
X100095196Y-124501227D01*
X100098796Y-124525495D01*
X100100000Y-124549999D01*
X100100000Y-125450001D01*
X100098796Y-125474505D01*
X100095196Y-125498773D01*
X100089235Y-125522572D01*
X100080970Y-125545671D01*
X100070480Y-125567850D01*
X100057868Y-125588893D01*
X100043253Y-125608599D01*
X100026777Y-125626777D01*
X100008599Y-125643253D01*
X99988893Y-125657868D01*
X99967850Y-125670480D01*
X99945671Y-125680970D01*
X99922572Y-125689235D01*
X99898773Y-125695196D01*
X99874505Y-125698796D01*
X99850001Y-125700000D01*
X99199999Y-125700000D01*
X99175495Y-125698796D01*
X99151227Y-125695196D01*
X99127428Y-125689235D01*
X99104329Y-125680970D01*
X99082150Y-125670480D01*
X99061107Y-125657868D01*
X99041401Y-125643253D01*
X99023223Y-125626777D01*
X99006747Y-125608599D01*
X98992132Y-125588893D01*
X98979520Y-125567850D01*
X98969030Y-125545671D01*
X98960765Y-125522572D01*
X98954804Y-125498773D01*
X98951204Y-125474505D01*
X98950000Y-125450001D01*
X98950000Y-124549999D01*
X98951204Y-124525495D01*
X98954804Y-124501227D01*
X98960765Y-124477428D01*
X98969030Y-124454329D01*
X98979520Y-124432150D01*
X98992132Y-124411107D01*
X99006747Y-124391401D01*
X99023223Y-124373223D01*
X99041401Y-124356747D01*
X99061107Y-124342132D01*
X99082150Y-124329520D01*
X99104329Y-124319030D01*
X99127428Y-124310765D01*
X99151227Y-124304804D01*
X99175495Y-124301204D01*
X99199999Y-124300000D01*
X99850001Y-124300000D01*
X99874505Y-124301204D01*
X99874505Y-124301204D01*
G37*
D14*
X99525000Y-125000000D03*
D15*
X103380000Y-105000000D03*
D16*
X111000000Y-105000000D03*
D15*
X103380000Y-108000000D03*
D16*
X111000000Y-108000000D03*
D15*
X103380000Y-114000000D03*
D16*
X111000000Y-114000000D03*
D15*
X103380000Y-102000000D03*
D16*
X111000000Y-102000000D03*
D15*
X103380000Y-111000000D03*
D16*
X111000000Y-111000000D03*
D17*
X102000000Y-63250000D03*
X102000000Y-59750000D03*
D15*
X87500000Y-78620000D03*
D16*
X87500000Y-71000000D03*
D15*
X90880000Y-71500000D03*
D16*
X98500000Y-71500000D03*
D15*
X94380000Y-76500000D03*
D16*
X102000000Y-76500000D03*
D15*
X109000000Y-117380000D03*
D16*
X109000000Y-125000000D03*
D15*
X99000000Y-119620000D03*
D16*
X99000000Y-112000000D03*
D15*
X98620000Y-109000000D03*
D16*
X91000000Y-109000000D03*
D15*
X88000000Y-109000000D03*
D16*
X80380000Y-109000000D03*
D15*
X102500000Y-65380000D03*
X105040000Y-73000000D03*
X105040000Y-65380000D03*
D18*
X102500000Y-73000000D03*
D13*
G36*
X136239703Y-133930722D02*
G01*
X136254264Y-133932882D01*
X136268543Y-133936459D01*
X136282403Y-133941418D01*
X136295710Y-133947712D01*
X136308336Y-133955280D01*
X136320159Y-133964048D01*
X136331066Y-133973934D01*
X136340952Y-133984841D01*
X136349720Y-133996664D01*
X136357288Y-134009290D01*
X136363582Y-134022597D01*
X136368541Y-134036457D01*
X136372118Y-134050736D01*
X136374278Y-134065297D01*
X136375000Y-134080000D01*
X136375000Y-134380000D01*
X136374278Y-134394703D01*
X136372118Y-134409264D01*
X136368541Y-134423543D01*
X136363582Y-134437403D01*
X136357288Y-134450710D01*
X136349720Y-134463336D01*
X136340952Y-134475159D01*
X136331066Y-134486066D01*
X136320159Y-134495952D01*
X136308336Y-134504720D01*
X136295710Y-134512288D01*
X136282403Y-134518582D01*
X136268543Y-134523541D01*
X136254264Y-134527118D01*
X136239703Y-134529278D01*
X136225000Y-134530000D01*
X134775000Y-134530000D01*
X134760297Y-134529278D01*
X134745736Y-134527118D01*
X134731457Y-134523541D01*
X134717597Y-134518582D01*
X134704290Y-134512288D01*
X134691664Y-134504720D01*
X134679841Y-134495952D01*
X134668934Y-134486066D01*
X134659048Y-134475159D01*
X134650280Y-134463336D01*
X134642712Y-134450710D01*
X134636418Y-134437403D01*
X134631459Y-134423543D01*
X134627882Y-134409264D01*
X134625722Y-134394703D01*
X134625000Y-134380000D01*
X134625000Y-134080000D01*
X134625722Y-134065297D01*
X134627882Y-134050736D01*
X134631459Y-134036457D01*
X134636418Y-134022597D01*
X134642712Y-134009290D01*
X134650280Y-133996664D01*
X134659048Y-133984841D01*
X134668934Y-133973934D01*
X134679841Y-133964048D01*
X134691664Y-133955280D01*
X134704290Y-133947712D01*
X134717597Y-133941418D01*
X134731457Y-133936459D01*
X134745736Y-133932882D01*
X134760297Y-133930722D01*
X134775000Y-133930000D01*
X136225000Y-133930000D01*
X136239703Y-133930722D01*
X136239703Y-133930722D01*
G37*
D19*
X135500000Y-134230000D03*
D13*
G36*
X136239703Y-135200722D02*
G01*
X136254264Y-135202882D01*
X136268543Y-135206459D01*
X136282403Y-135211418D01*
X136295710Y-135217712D01*
X136308336Y-135225280D01*
X136320159Y-135234048D01*
X136331066Y-135243934D01*
X136340952Y-135254841D01*
X136349720Y-135266664D01*
X136357288Y-135279290D01*
X136363582Y-135292597D01*
X136368541Y-135306457D01*
X136372118Y-135320736D01*
X136374278Y-135335297D01*
X136375000Y-135350000D01*
X136375000Y-135650000D01*
X136374278Y-135664703D01*
X136372118Y-135679264D01*
X136368541Y-135693543D01*
X136363582Y-135707403D01*
X136357288Y-135720710D01*
X136349720Y-135733336D01*
X136340952Y-135745159D01*
X136331066Y-135756066D01*
X136320159Y-135765952D01*
X136308336Y-135774720D01*
X136295710Y-135782288D01*
X136282403Y-135788582D01*
X136268543Y-135793541D01*
X136254264Y-135797118D01*
X136239703Y-135799278D01*
X136225000Y-135800000D01*
X134775000Y-135800000D01*
X134760297Y-135799278D01*
X134745736Y-135797118D01*
X134731457Y-135793541D01*
X134717597Y-135788582D01*
X134704290Y-135782288D01*
X134691664Y-135774720D01*
X134679841Y-135765952D01*
X134668934Y-135756066D01*
X134659048Y-135745159D01*
X134650280Y-135733336D01*
X134642712Y-135720710D01*
X134636418Y-135707403D01*
X134631459Y-135693543D01*
X134627882Y-135679264D01*
X134625722Y-135664703D01*
X134625000Y-135650000D01*
X134625000Y-135350000D01*
X134625722Y-135335297D01*
X134627882Y-135320736D01*
X134631459Y-135306457D01*
X134636418Y-135292597D01*
X134642712Y-135279290D01*
X134650280Y-135266664D01*
X134659048Y-135254841D01*
X134668934Y-135243934D01*
X134679841Y-135234048D01*
X134691664Y-135225280D01*
X134704290Y-135217712D01*
X134717597Y-135211418D01*
X134731457Y-135206459D01*
X134745736Y-135202882D01*
X134760297Y-135200722D01*
X134775000Y-135200000D01*
X136225000Y-135200000D01*
X136239703Y-135200722D01*
X136239703Y-135200722D01*
G37*
D19*
X135500000Y-135500000D03*
D13*
G36*
X136239703Y-136470722D02*
G01*
X136254264Y-136472882D01*
X136268543Y-136476459D01*
X136282403Y-136481418D01*
X136295710Y-136487712D01*
X136308336Y-136495280D01*
X136320159Y-136504048D01*
X136331066Y-136513934D01*
X136340952Y-136524841D01*
X136349720Y-136536664D01*
X136357288Y-136549290D01*
X136363582Y-136562597D01*
X136368541Y-136576457D01*
X136372118Y-136590736D01*
X136374278Y-136605297D01*
X136375000Y-136620000D01*
X136375000Y-136920000D01*
X136374278Y-136934703D01*
X136372118Y-136949264D01*
X136368541Y-136963543D01*
X136363582Y-136977403D01*
X136357288Y-136990710D01*
X136349720Y-137003336D01*
X136340952Y-137015159D01*
X136331066Y-137026066D01*
X136320159Y-137035952D01*
X136308336Y-137044720D01*
X136295710Y-137052288D01*
X136282403Y-137058582D01*
X136268543Y-137063541D01*
X136254264Y-137067118D01*
X136239703Y-137069278D01*
X136225000Y-137070000D01*
X134775000Y-137070000D01*
X134760297Y-137069278D01*
X134745736Y-137067118D01*
X134731457Y-137063541D01*
X134717597Y-137058582D01*
X134704290Y-137052288D01*
X134691664Y-137044720D01*
X134679841Y-137035952D01*
X134668934Y-137026066D01*
X134659048Y-137015159D01*
X134650280Y-137003336D01*
X134642712Y-136990710D01*
X134636418Y-136977403D01*
X134631459Y-136963543D01*
X134627882Y-136949264D01*
X134625722Y-136934703D01*
X134625000Y-136920000D01*
X134625000Y-136620000D01*
X134625722Y-136605297D01*
X134627882Y-136590736D01*
X134631459Y-136576457D01*
X134636418Y-136562597D01*
X134642712Y-136549290D01*
X134650280Y-136536664D01*
X134659048Y-136524841D01*
X134668934Y-136513934D01*
X134679841Y-136504048D01*
X134691664Y-136495280D01*
X134704290Y-136487712D01*
X134717597Y-136481418D01*
X134731457Y-136476459D01*
X134745736Y-136472882D01*
X134760297Y-136470722D01*
X134775000Y-136470000D01*
X136225000Y-136470000D01*
X136239703Y-136470722D01*
X136239703Y-136470722D01*
G37*
D19*
X135500000Y-136770000D03*
D13*
G36*
X136239703Y-137740722D02*
G01*
X136254264Y-137742882D01*
X136268543Y-137746459D01*
X136282403Y-137751418D01*
X136295710Y-137757712D01*
X136308336Y-137765280D01*
X136320159Y-137774048D01*
X136331066Y-137783934D01*
X136340952Y-137794841D01*
X136349720Y-137806664D01*
X136357288Y-137819290D01*
X136363582Y-137832597D01*
X136368541Y-137846457D01*
X136372118Y-137860736D01*
X136374278Y-137875297D01*
X136375000Y-137890000D01*
X136375000Y-138190000D01*
X136374278Y-138204703D01*
X136372118Y-138219264D01*
X136368541Y-138233543D01*
X136363582Y-138247403D01*
X136357288Y-138260710D01*
X136349720Y-138273336D01*
X136340952Y-138285159D01*
X136331066Y-138296066D01*
X136320159Y-138305952D01*
X136308336Y-138314720D01*
X136295710Y-138322288D01*
X136282403Y-138328582D01*
X136268543Y-138333541D01*
X136254264Y-138337118D01*
X136239703Y-138339278D01*
X136225000Y-138340000D01*
X134775000Y-138340000D01*
X134760297Y-138339278D01*
X134745736Y-138337118D01*
X134731457Y-138333541D01*
X134717597Y-138328582D01*
X134704290Y-138322288D01*
X134691664Y-138314720D01*
X134679841Y-138305952D01*
X134668934Y-138296066D01*
X134659048Y-138285159D01*
X134650280Y-138273336D01*
X134642712Y-138260710D01*
X134636418Y-138247403D01*
X134631459Y-138233543D01*
X134627882Y-138219264D01*
X134625722Y-138204703D01*
X134625000Y-138190000D01*
X134625000Y-137890000D01*
X134625722Y-137875297D01*
X134627882Y-137860736D01*
X134631459Y-137846457D01*
X134636418Y-137832597D01*
X134642712Y-137819290D01*
X134650280Y-137806664D01*
X134659048Y-137794841D01*
X134668934Y-137783934D01*
X134679841Y-137774048D01*
X134691664Y-137765280D01*
X134704290Y-137757712D01*
X134717597Y-137751418D01*
X134731457Y-137746459D01*
X134745736Y-137742882D01*
X134760297Y-137740722D01*
X134775000Y-137740000D01*
X136225000Y-137740000D01*
X136239703Y-137740722D01*
X136239703Y-137740722D01*
G37*
D19*
X135500000Y-138040000D03*
D13*
G36*
X131089703Y-137740722D02*
G01*
X131104264Y-137742882D01*
X131118543Y-137746459D01*
X131132403Y-137751418D01*
X131145710Y-137757712D01*
X131158336Y-137765280D01*
X131170159Y-137774048D01*
X131181066Y-137783934D01*
X131190952Y-137794841D01*
X131199720Y-137806664D01*
X131207288Y-137819290D01*
X131213582Y-137832597D01*
X131218541Y-137846457D01*
X131222118Y-137860736D01*
X131224278Y-137875297D01*
X131225000Y-137890000D01*
X131225000Y-138190000D01*
X131224278Y-138204703D01*
X131222118Y-138219264D01*
X131218541Y-138233543D01*
X131213582Y-138247403D01*
X131207288Y-138260710D01*
X131199720Y-138273336D01*
X131190952Y-138285159D01*
X131181066Y-138296066D01*
X131170159Y-138305952D01*
X131158336Y-138314720D01*
X131145710Y-138322288D01*
X131132403Y-138328582D01*
X131118543Y-138333541D01*
X131104264Y-138337118D01*
X131089703Y-138339278D01*
X131075000Y-138340000D01*
X129625000Y-138340000D01*
X129610297Y-138339278D01*
X129595736Y-138337118D01*
X129581457Y-138333541D01*
X129567597Y-138328582D01*
X129554290Y-138322288D01*
X129541664Y-138314720D01*
X129529841Y-138305952D01*
X129518934Y-138296066D01*
X129509048Y-138285159D01*
X129500280Y-138273336D01*
X129492712Y-138260710D01*
X129486418Y-138247403D01*
X129481459Y-138233543D01*
X129477882Y-138219264D01*
X129475722Y-138204703D01*
X129475000Y-138190000D01*
X129475000Y-137890000D01*
X129475722Y-137875297D01*
X129477882Y-137860736D01*
X129481459Y-137846457D01*
X129486418Y-137832597D01*
X129492712Y-137819290D01*
X129500280Y-137806664D01*
X129509048Y-137794841D01*
X129518934Y-137783934D01*
X129529841Y-137774048D01*
X129541664Y-137765280D01*
X129554290Y-137757712D01*
X129567597Y-137751418D01*
X129581457Y-137746459D01*
X129595736Y-137742882D01*
X129610297Y-137740722D01*
X129625000Y-137740000D01*
X131075000Y-137740000D01*
X131089703Y-137740722D01*
X131089703Y-137740722D01*
G37*
D19*
X130350000Y-138040000D03*
D13*
G36*
X131089703Y-136470722D02*
G01*
X131104264Y-136472882D01*
X131118543Y-136476459D01*
X131132403Y-136481418D01*
X131145710Y-136487712D01*
X131158336Y-136495280D01*
X131170159Y-136504048D01*
X131181066Y-136513934D01*
X131190952Y-136524841D01*
X131199720Y-136536664D01*
X131207288Y-136549290D01*
X131213582Y-136562597D01*
X131218541Y-136576457D01*
X131222118Y-136590736D01*
X131224278Y-136605297D01*
X131225000Y-136620000D01*
X131225000Y-136920000D01*
X131224278Y-136934703D01*
X131222118Y-136949264D01*
X131218541Y-136963543D01*
X131213582Y-136977403D01*
X131207288Y-136990710D01*
X131199720Y-137003336D01*
X131190952Y-137015159D01*
X131181066Y-137026066D01*
X131170159Y-137035952D01*
X131158336Y-137044720D01*
X131145710Y-137052288D01*
X131132403Y-137058582D01*
X131118543Y-137063541D01*
X131104264Y-137067118D01*
X131089703Y-137069278D01*
X131075000Y-137070000D01*
X129625000Y-137070000D01*
X129610297Y-137069278D01*
X129595736Y-137067118D01*
X129581457Y-137063541D01*
X129567597Y-137058582D01*
X129554290Y-137052288D01*
X129541664Y-137044720D01*
X129529841Y-137035952D01*
X129518934Y-137026066D01*
X129509048Y-137015159D01*
X129500280Y-137003336D01*
X129492712Y-136990710D01*
X129486418Y-136977403D01*
X129481459Y-136963543D01*
X129477882Y-136949264D01*
X129475722Y-136934703D01*
X129475000Y-136920000D01*
X129475000Y-136620000D01*
X129475722Y-136605297D01*
X129477882Y-136590736D01*
X129481459Y-136576457D01*
X129486418Y-136562597D01*
X129492712Y-136549290D01*
X129500280Y-136536664D01*
X129509048Y-136524841D01*
X129518934Y-136513934D01*
X129529841Y-136504048D01*
X129541664Y-136495280D01*
X129554290Y-136487712D01*
X129567597Y-136481418D01*
X129581457Y-136476459D01*
X129595736Y-136472882D01*
X129610297Y-136470722D01*
X129625000Y-136470000D01*
X131075000Y-136470000D01*
X131089703Y-136470722D01*
X131089703Y-136470722D01*
G37*
D19*
X130350000Y-136770000D03*
D13*
G36*
X131089703Y-135200722D02*
G01*
X131104264Y-135202882D01*
X131118543Y-135206459D01*
X131132403Y-135211418D01*
X131145710Y-135217712D01*
X131158336Y-135225280D01*
X131170159Y-135234048D01*
X131181066Y-135243934D01*
X131190952Y-135254841D01*
X131199720Y-135266664D01*
X131207288Y-135279290D01*
X131213582Y-135292597D01*
X131218541Y-135306457D01*
X131222118Y-135320736D01*
X131224278Y-135335297D01*
X131225000Y-135350000D01*
X131225000Y-135650000D01*
X131224278Y-135664703D01*
X131222118Y-135679264D01*
X131218541Y-135693543D01*
X131213582Y-135707403D01*
X131207288Y-135720710D01*
X131199720Y-135733336D01*
X131190952Y-135745159D01*
X131181066Y-135756066D01*
X131170159Y-135765952D01*
X131158336Y-135774720D01*
X131145710Y-135782288D01*
X131132403Y-135788582D01*
X131118543Y-135793541D01*
X131104264Y-135797118D01*
X131089703Y-135799278D01*
X131075000Y-135800000D01*
X129625000Y-135800000D01*
X129610297Y-135799278D01*
X129595736Y-135797118D01*
X129581457Y-135793541D01*
X129567597Y-135788582D01*
X129554290Y-135782288D01*
X129541664Y-135774720D01*
X129529841Y-135765952D01*
X129518934Y-135756066D01*
X129509048Y-135745159D01*
X129500280Y-135733336D01*
X129492712Y-135720710D01*
X129486418Y-135707403D01*
X129481459Y-135693543D01*
X129477882Y-135679264D01*
X129475722Y-135664703D01*
X129475000Y-135650000D01*
X129475000Y-135350000D01*
X129475722Y-135335297D01*
X129477882Y-135320736D01*
X129481459Y-135306457D01*
X129486418Y-135292597D01*
X129492712Y-135279290D01*
X129500280Y-135266664D01*
X129509048Y-135254841D01*
X129518934Y-135243934D01*
X129529841Y-135234048D01*
X129541664Y-135225280D01*
X129554290Y-135217712D01*
X129567597Y-135211418D01*
X129581457Y-135206459D01*
X129595736Y-135202882D01*
X129610297Y-135200722D01*
X129625000Y-135200000D01*
X131075000Y-135200000D01*
X131089703Y-135200722D01*
X131089703Y-135200722D01*
G37*
D19*
X130350000Y-135500000D03*
D13*
G36*
X131089703Y-133930722D02*
G01*
X131104264Y-133932882D01*
X131118543Y-133936459D01*
X131132403Y-133941418D01*
X131145710Y-133947712D01*
X131158336Y-133955280D01*
X131170159Y-133964048D01*
X131181066Y-133973934D01*
X131190952Y-133984841D01*
X131199720Y-133996664D01*
X131207288Y-134009290D01*
X131213582Y-134022597D01*
X131218541Y-134036457D01*
X131222118Y-134050736D01*
X131224278Y-134065297D01*
X131225000Y-134080000D01*
X131225000Y-134380000D01*
X131224278Y-134394703D01*
X131222118Y-134409264D01*
X131218541Y-134423543D01*
X131213582Y-134437403D01*
X131207288Y-134450710D01*
X131199720Y-134463336D01*
X131190952Y-134475159D01*
X131181066Y-134486066D01*
X131170159Y-134495952D01*
X131158336Y-134504720D01*
X131145710Y-134512288D01*
X131132403Y-134518582D01*
X131118543Y-134523541D01*
X131104264Y-134527118D01*
X131089703Y-134529278D01*
X131075000Y-134530000D01*
X129625000Y-134530000D01*
X129610297Y-134529278D01*
X129595736Y-134527118D01*
X129581457Y-134523541D01*
X129567597Y-134518582D01*
X129554290Y-134512288D01*
X129541664Y-134504720D01*
X129529841Y-134495952D01*
X129518934Y-134486066D01*
X129509048Y-134475159D01*
X129500280Y-134463336D01*
X129492712Y-134450710D01*
X129486418Y-134437403D01*
X129481459Y-134423543D01*
X129477882Y-134409264D01*
X129475722Y-134394703D01*
X129475000Y-134380000D01*
X129475000Y-134080000D01*
X129475722Y-134065297D01*
X129477882Y-134050736D01*
X129481459Y-134036457D01*
X129486418Y-134022597D01*
X129492712Y-134009290D01*
X129500280Y-133996664D01*
X129509048Y-133984841D01*
X129518934Y-133973934D01*
X129529841Y-133964048D01*
X129541664Y-133955280D01*
X129554290Y-133947712D01*
X129567597Y-133941418D01*
X129581457Y-133936459D01*
X129595736Y-133932882D01*
X129610297Y-133930722D01*
X129625000Y-133930000D01*
X131075000Y-133930000D01*
X131089703Y-133930722D01*
X131089703Y-133930722D01*
G37*
D19*
X130350000Y-134230000D03*
D13*
G36*
X113569703Y-136700722D02*
G01*
X113584264Y-136702882D01*
X113598543Y-136706459D01*
X113612403Y-136711418D01*
X113625710Y-136717712D01*
X113638336Y-136725280D01*
X113650159Y-136734048D01*
X113661066Y-136743934D01*
X113670952Y-136754841D01*
X113679720Y-136766664D01*
X113687288Y-136779290D01*
X113693582Y-136792597D01*
X113698541Y-136806457D01*
X113702118Y-136820736D01*
X113704278Y-136835297D01*
X113705000Y-136850000D01*
X113705000Y-138300000D01*
X113704278Y-138314703D01*
X113702118Y-138329264D01*
X113698541Y-138343543D01*
X113693582Y-138357403D01*
X113687288Y-138370710D01*
X113679720Y-138383336D01*
X113670952Y-138395159D01*
X113661066Y-138406066D01*
X113650159Y-138415952D01*
X113638336Y-138424720D01*
X113625710Y-138432288D01*
X113612403Y-138438582D01*
X113598543Y-138443541D01*
X113584264Y-138447118D01*
X113569703Y-138449278D01*
X113555000Y-138450000D01*
X113255000Y-138450000D01*
X113240297Y-138449278D01*
X113225736Y-138447118D01*
X113211457Y-138443541D01*
X113197597Y-138438582D01*
X113184290Y-138432288D01*
X113171664Y-138424720D01*
X113159841Y-138415952D01*
X113148934Y-138406066D01*
X113139048Y-138395159D01*
X113130280Y-138383336D01*
X113122712Y-138370710D01*
X113116418Y-138357403D01*
X113111459Y-138343543D01*
X113107882Y-138329264D01*
X113105722Y-138314703D01*
X113105000Y-138300000D01*
X113105000Y-136850000D01*
X113105722Y-136835297D01*
X113107882Y-136820736D01*
X113111459Y-136806457D01*
X113116418Y-136792597D01*
X113122712Y-136779290D01*
X113130280Y-136766664D01*
X113139048Y-136754841D01*
X113148934Y-136743934D01*
X113159841Y-136734048D01*
X113171664Y-136725280D01*
X113184290Y-136717712D01*
X113197597Y-136711418D01*
X113211457Y-136706459D01*
X113225736Y-136702882D01*
X113240297Y-136700722D01*
X113255000Y-136700000D01*
X113555000Y-136700000D01*
X113569703Y-136700722D01*
X113569703Y-136700722D01*
G37*
D19*
X113405000Y-137575000D03*
D13*
G36*
X112299703Y-136700722D02*
G01*
X112314264Y-136702882D01*
X112328543Y-136706459D01*
X112342403Y-136711418D01*
X112355710Y-136717712D01*
X112368336Y-136725280D01*
X112380159Y-136734048D01*
X112391066Y-136743934D01*
X112400952Y-136754841D01*
X112409720Y-136766664D01*
X112417288Y-136779290D01*
X112423582Y-136792597D01*
X112428541Y-136806457D01*
X112432118Y-136820736D01*
X112434278Y-136835297D01*
X112435000Y-136850000D01*
X112435000Y-138300000D01*
X112434278Y-138314703D01*
X112432118Y-138329264D01*
X112428541Y-138343543D01*
X112423582Y-138357403D01*
X112417288Y-138370710D01*
X112409720Y-138383336D01*
X112400952Y-138395159D01*
X112391066Y-138406066D01*
X112380159Y-138415952D01*
X112368336Y-138424720D01*
X112355710Y-138432288D01*
X112342403Y-138438582D01*
X112328543Y-138443541D01*
X112314264Y-138447118D01*
X112299703Y-138449278D01*
X112285000Y-138450000D01*
X111985000Y-138450000D01*
X111970297Y-138449278D01*
X111955736Y-138447118D01*
X111941457Y-138443541D01*
X111927597Y-138438582D01*
X111914290Y-138432288D01*
X111901664Y-138424720D01*
X111889841Y-138415952D01*
X111878934Y-138406066D01*
X111869048Y-138395159D01*
X111860280Y-138383336D01*
X111852712Y-138370710D01*
X111846418Y-138357403D01*
X111841459Y-138343543D01*
X111837882Y-138329264D01*
X111835722Y-138314703D01*
X111835000Y-138300000D01*
X111835000Y-136850000D01*
X111835722Y-136835297D01*
X111837882Y-136820736D01*
X111841459Y-136806457D01*
X111846418Y-136792597D01*
X111852712Y-136779290D01*
X111860280Y-136766664D01*
X111869048Y-136754841D01*
X111878934Y-136743934D01*
X111889841Y-136734048D01*
X111901664Y-136725280D01*
X111914290Y-136717712D01*
X111927597Y-136711418D01*
X111941457Y-136706459D01*
X111955736Y-136702882D01*
X111970297Y-136700722D01*
X111985000Y-136700000D01*
X112285000Y-136700000D01*
X112299703Y-136700722D01*
X112299703Y-136700722D01*
G37*
D19*
X112135000Y-137575000D03*
D13*
G36*
X111029703Y-136700722D02*
G01*
X111044264Y-136702882D01*
X111058543Y-136706459D01*
X111072403Y-136711418D01*
X111085710Y-136717712D01*
X111098336Y-136725280D01*
X111110159Y-136734048D01*
X111121066Y-136743934D01*
X111130952Y-136754841D01*
X111139720Y-136766664D01*
X111147288Y-136779290D01*
X111153582Y-136792597D01*
X111158541Y-136806457D01*
X111162118Y-136820736D01*
X111164278Y-136835297D01*
X111165000Y-136850000D01*
X111165000Y-138300000D01*
X111164278Y-138314703D01*
X111162118Y-138329264D01*
X111158541Y-138343543D01*
X111153582Y-138357403D01*
X111147288Y-138370710D01*
X111139720Y-138383336D01*
X111130952Y-138395159D01*
X111121066Y-138406066D01*
X111110159Y-138415952D01*
X111098336Y-138424720D01*
X111085710Y-138432288D01*
X111072403Y-138438582D01*
X111058543Y-138443541D01*
X111044264Y-138447118D01*
X111029703Y-138449278D01*
X111015000Y-138450000D01*
X110715000Y-138450000D01*
X110700297Y-138449278D01*
X110685736Y-138447118D01*
X110671457Y-138443541D01*
X110657597Y-138438582D01*
X110644290Y-138432288D01*
X110631664Y-138424720D01*
X110619841Y-138415952D01*
X110608934Y-138406066D01*
X110599048Y-138395159D01*
X110590280Y-138383336D01*
X110582712Y-138370710D01*
X110576418Y-138357403D01*
X110571459Y-138343543D01*
X110567882Y-138329264D01*
X110565722Y-138314703D01*
X110565000Y-138300000D01*
X110565000Y-136850000D01*
X110565722Y-136835297D01*
X110567882Y-136820736D01*
X110571459Y-136806457D01*
X110576418Y-136792597D01*
X110582712Y-136779290D01*
X110590280Y-136766664D01*
X110599048Y-136754841D01*
X110608934Y-136743934D01*
X110619841Y-136734048D01*
X110631664Y-136725280D01*
X110644290Y-136717712D01*
X110657597Y-136711418D01*
X110671457Y-136706459D01*
X110685736Y-136702882D01*
X110700297Y-136700722D01*
X110715000Y-136700000D01*
X111015000Y-136700000D01*
X111029703Y-136700722D01*
X111029703Y-136700722D01*
G37*
D19*
X110865000Y-137575000D03*
D13*
G36*
X109759703Y-136700722D02*
G01*
X109774264Y-136702882D01*
X109788543Y-136706459D01*
X109802403Y-136711418D01*
X109815710Y-136717712D01*
X109828336Y-136725280D01*
X109840159Y-136734048D01*
X109851066Y-136743934D01*
X109860952Y-136754841D01*
X109869720Y-136766664D01*
X109877288Y-136779290D01*
X109883582Y-136792597D01*
X109888541Y-136806457D01*
X109892118Y-136820736D01*
X109894278Y-136835297D01*
X109895000Y-136850000D01*
X109895000Y-138300000D01*
X109894278Y-138314703D01*
X109892118Y-138329264D01*
X109888541Y-138343543D01*
X109883582Y-138357403D01*
X109877288Y-138370710D01*
X109869720Y-138383336D01*
X109860952Y-138395159D01*
X109851066Y-138406066D01*
X109840159Y-138415952D01*
X109828336Y-138424720D01*
X109815710Y-138432288D01*
X109802403Y-138438582D01*
X109788543Y-138443541D01*
X109774264Y-138447118D01*
X109759703Y-138449278D01*
X109745000Y-138450000D01*
X109445000Y-138450000D01*
X109430297Y-138449278D01*
X109415736Y-138447118D01*
X109401457Y-138443541D01*
X109387597Y-138438582D01*
X109374290Y-138432288D01*
X109361664Y-138424720D01*
X109349841Y-138415952D01*
X109338934Y-138406066D01*
X109329048Y-138395159D01*
X109320280Y-138383336D01*
X109312712Y-138370710D01*
X109306418Y-138357403D01*
X109301459Y-138343543D01*
X109297882Y-138329264D01*
X109295722Y-138314703D01*
X109295000Y-138300000D01*
X109295000Y-136850000D01*
X109295722Y-136835297D01*
X109297882Y-136820736D01*
X109301459Y-136806457D01*
X109306418Y-136792597D01*
X109312712Y-136779290D01*
X109320280Y-136766664D01*
X109329048Y-136754841D01*
X109338934Y-136743934D01*
X109349841Y-136734048D01*
X109361664Y-136725280D01*
X109374290Y-136717712D01*
X109387597Y-136711418D01*
X109401457Y-136706459D01*
X109415736Y-136702882D01*
X109430297Y-136700722D01*
X109445000Y-136700000D01*
X109745000Y-136700000D01*
X109759703Y-136700722D01*
X109759703Y-136700722D01*
G37*
D19*
X109595000Y-137575000D03*
D13*
G36*
X109759703Y-131550722D02*
G01*
X109774264Y-131552882D01*
X109788543Y-131556459D01*
X109802403Y-131561418D01*
X109815710Y-131567712D01*
X109828336Y-131575280D01*
X109840159Y-131584048D01*
X109851066Y-131593934D01*
X109860952Y-131604841D01*
X109869720Y-131616664D01*
X109877288Y-131629290D01*
X109883582Y-131642597D01*
X109888541Y-131656457D01*
X109892118Y-131670736D01*
X109894278Y-131685297D01*
X109895000Y-131700000D01*
X109895000Y-133150000D01*
X109894278Y-133164703D01*
X109892118Y-133179264D01*
X109888541Y-133193543D01*
X109883582Y-133207403D01*
X109877288Y-133220710D01*
X109869720Y-133233336D01*
X109860952Y-133245159D01*
X109851066Y-133256066D01*
X109840159Y-133265952D01*
X109828336Y-133274720D01*
X109815710Y-133282288D01*
X109802403Y-133288582D01*
X109788543Y-133293541D01*
X109774264Y-133297118D01*
X109759703Y-133299278D01*
X109745000Y-133300000D01*
X109445000Y-133300000D01*
X109430297Y-133299278D01*
X109415736Y-133297118D01*
X109401457Y-133293541D01*
X109387597Y-133288582D01*
X109374290Y-133282288D01*
X109361664Y-133274720D01*
X109349841Y-133265952D01*
X109338934Y-133256066D01*
X109329048Y-133245159D01*
X109320280Y-133233336D01*
X109312712Y-133220710D01*
X109306418Y-133207403D01*
X109301459Y-133193543D01*
X109297882Y-133179264D01*
X109295722Y-133164703D01*
X109295000Y-133150000D01*
X109295000Y-131700000D01*
X109295722Y-131685297D01*
X109297882Y-131670736D01*
X109301459Y-131656457D01*
X109306418Y-131642597D01*
X109312712Y-131629290D01*
X109320280Y-131616664D01*
X109329048Y-131604841D01*
X109338934Y-131593934D01*
X109349841Y-131584048D01*
X109361664Y-131575280D01*
X109374290Y-131567712D01*
X109387597Y-131561418D01*
X109401457Y-131556459D01*
X109415736Y-131552882D01*
X109430297Y-131550722D01*
X109445000Y-131550000D01*
X109745000Y-131550000D01*
X109759703Y-131550722D01*
X109759703Y-131550722D01*
G37*
D19*
X109595000Y-132425000D03*
D13*
G36*
X111029703Y-131550722D02*
G01*
X111044264Y-131552882D01*
X111058543Y-131556459D01*
X111072403Y-131561418D01*
X111085710Y-131567712D01*
X111098336Y-131575280D01*
X111110159Y-131584048D01*
X111121066Y-131593934D01*
X111130952Y-131604841D01*
X111139720Y-131616664D01*
X111147288Y-131629290D01*
X111153582Y-131642597D01*
X111158541Y-131656457D01*
X111162118Y-131670736D01*
X111164278Y-131685297D01*
X111165000Y-131700000D01*
X111165000Y-133150000D01*
X111164278Y-133164703D01*
X111162118Y-133179264D01*
X111158541Y-133193543D01*
X111153582Y-133207403D01*
X111147288Y-133220710D01*
X111139720Y-133233336D01*
X111130952Y-133245159D01*
X111121066Y-133256066D01*
X111110159Y-133265952D01*
X111098336Y-133274720D01*
X111085710Y-133282288D01*
X111072403Y-133288582D01*
X111058543Y-133293541D01*
X111044264Y-133297118D01*
X111029703Y-133299278D01*
X111015000Y-133300000D01*
X110715000Y-133300000D01*
X110700297Y-133299278D01*
X110685736Y-133297118D01*
X110671457Y-133293541D01*
X110657597Y-133288582D01*
X110644290Y-133282288D01*
X110631664Y-133274720D01*
X110619841Y-133265952D01*
X110608934Y-133256066D01*
X110599048Y-133245159D01*
X110590280Y-133233336D01*
X110582712Y-133220710D01*
X110576418Y-133207403D01*
X110571459Y-133193543D01*
X110567882Y-133179264D01*
X110565722Y-133164703D01*
X110565000Y-133150000D01*
X110565000Y-131700000D01*
X110565722Y-131685297D01*
X110567882Y-131670736D01*
X110571459Y-131656457D01*
X110576418Y-131642597D01*
X110582712Y-131629290D01*
X110590280Y-131616664D01*
X110599048Y-131604841D01*
X110608934Y-131593934D01*
X110619841Y-131584048D01*
X110631664Y-131575280D01*
X110644290Y-131567712D01*
X110657597Y-131561418D01*
X110671457Y-131556459D01*
X110685736Y-131552882D01*
X110700297Y-131550722D01*
X110715000Y-131550000D01*
X111015000Y-131550000D01*
X111029703Y-131550722D01*
X111029703Y-131550722D01*
G37*
D19*
X110865000Y-132425000D03*
D13*
G36*
X112299703Y-131550722D02*
G01*
X112314264Y-131552882D01*
X112328543Y-131556459D01*
X112342403Y-131561418D01*
X112355710Y-131567712D01*
X112368336Y-131575280D01*
X112380159Y-131584048D01*
X112391066Y-131593934D01*
X112400952Y-131604841D01*
X112409720Y-131616664D01*
X112417288Y-131629290D01*
X112423582Y-131642597D01*
X112428541Y-131656457D01*
X112432118Y-131670736D01*
X112434278Y-131685297D01*
X112435000Y-131700000D01*
X112435000Y-133150000D01*
X112434278Y-133164703D01*
X112432118Y-133179264D01*
X112428541Y-133193543D01*
X112423582Y-133207403D01*
X112417288Y-133220710D01*
X112409720Y-133233336D01*
X112400952Y-133245159D01*
X112391066Y-133256066D01*
X112380159Y-133265952D01*
X112368336Y-133274720D01*
X112355710Y-133282288D01*
X112342403Y-133288582D01*
X112328543Y-133293541D01*
X112314264Y-133297118D01*
X112299703Y-133299278D01*
X112285000Y-133300000D01*
X111985000Y-133300000D01*
X111970297Y-133299278D01*
X111955736Y-133297118D01*
X111941457Y-133293541D01*
X111927597Y-133288582D01*
X111914290Y-133282288D01*
X111901664Y-133274720D01*
X111889841Y-133265952D01*
X111878934Y-133256066D01*
X111869048Y-133245159D01*
X111860280Y-133233336D01*
X111852712Y-133220710D01*
X111846418Y-133207403D01*
X111841459Y-133193543D01*
X111837882Y-133179264D01*
X111835722Y-133164703D01*
X111835000Y-133150000D01*
X111835000Y-131700000D01*
X111835722Y-131685297D01*
X111837882Y-131670736D01*
X111841459Y-131656457D01*
X111846418Y-131642597D01*
X111852712Y-131629290D01*
X111860280Y-131616664D01*
X111869048Y-131604841D01*
X111878934Y-131593934D01*
X111889841Y-131584048D01*
X111901664Y-131575280D01*
X111914290Y-131567712D01*
X111927597Y-131561418D01*
X111941457Y-131556459D01*
X111955736Y-131552882D01*
X111970297Y-131550722D01*
X111985000Y-131550000D01*
X112285000Y-131550000D01*
X112299703Y-131550722D01*
X112299703Y-131550722D01*
G37*
D19*
X112135000Y-132425000D03*
D13*
G36*
X113569703Y-131550722D02*
G01*
X113584264Y-131552882D01*
X113598543Y-131556459D01*
X113612403Y-131561418D01*
X113625710Y-131567712D01*
X113638336Y-131575280D01*
X113650159Y-131584048D01*
X113661066Y-131593934D01*
X113670952Y-131604841D01*
X113679720Y-131616664D01*
X113687288Y-131629290D01*
X113693582Y-131642597D01*
X113698541Y-131656457D01*
X113702118Y-131670736D01*
X113704278Y-131685297D01*
X113705000Y-131700000D01*
X113705000Y-133150000D01*
X113704278Y-133164703D01*
X113702118Y-133179264D01*
X113698541Y-133193543D01*
X113693582Y-133207403D01*
X113687288Y-133220710D01*
X113679720Y-133233336D01*
X113670952Y-133245159D01*
X113661066Y-133256066D01*
X113650159Y-133265952D01*
X113638336Y-133274720D01*
X113625710Y-133282288D01*
X113612403Y-133288582D01*
X113598543Y-133293541D01*
X113584264Y-133297118D01*
X113569703Y-133299278D01*
X113555000Y-133300000D01*
X113255000Y-133300000D01*
X113240297Y-133299278D01*
X113225736Y-133297118D01*
X113211457Y-133293541D01*
X113197597Y-133288582D01*
X113184290Y-133282288D01*
X113171664Y-133274720D01*
X113159841Y-133265952D01*
X113148934Y-133256066D01*
X113139048Y-133245159D01*
X113130280Y-133233336D01*
X113122712Y-133220710D01*
X113116418Y-133207403D01*
X113111459Y-133193543D01*
X113107882Y-133179264D01*
X113105722Y-133164703D01*
X113105000Y-133150000D01*
X113105000Y-131700000D01*
X113105722Y-131685297D01*
X113107882Y-131670736D01*
X113111459Y-131656457D01*
X113116418Y-131642597D01*
X113122712Y-131629290D01*
X113130280Y-131616664D01*
X113139048Y-131604841D01*
X113148934Y-131593934D01*
X113159841Y-131584048D01*
X113171664Y-131575280D01*
X113184290Y-131567712D01*
X113197597Y-131561418D01*
X113211457Y-131556459D01*
X113225736Y-131552882D01*
X113240297Y-131550722D01*
X113255000Y-131550000D01*
X113555000Y-131550000D01*
X113569703Y-131550722D01*
X113569703Y-131550722D01*
G37*
D19*
X113405000Y-132425000D03*
D13*
G36*
X105569703Y-132650722D02*
G01*
X105584264Y-132652882D01*
X105598543Y-132656459D01*
X105612403Y-132661418D01*
X105625710Y-132667712D01*
X105638336Y-132675280D01*
X105650159Y-132684048D01*
X105661066Y-132693934D01*
X105670952Y-132704841D01*
X105679720Y-132716664D01*
X105687288Y-132729290D01*
X105693582Y-132742597D01*
X105698541Y-132756457D01*
X105702118Y-132770736D01*
X105704278Y-132785297D01*
X105705000Y-132800000D01*
X105705000Y-134250000D01*
X105704278Y-134264703D01*
X105702118Y-134279264D01*
X105698541Y-134293543D01*
X105693582Y-134307403D01*
X105687288Y-134320710D01*
X105679720Y-134333336D01*
X105670952Y-134345159D01*
X105661066Y-134356066D01*
X105650159Y-134365952D01*
X105638336Y-134374720D01*
X105625710Y-134382288D01*
X105612403Y-134388582D01*
X105598543Y-134393541D01*
X105584264Y-134397118D01*
X105569703Y-134399278D01*
X105555000Y-134400000D01*
X105255000Y-134400000D01*
X105240297Y-134399278D01*
X105225736Y-134397118D01*
X105211457Y-134393541D01*
X105197597Y-134388582D01*
X105184290Y-134382288D01*
X105171664Y-134374720D01*
X105159841Y-134365952D01*
X105148934Y-134356066D01*
X105139048Y-134345159D01*
X105130280Y-134333336D01*
X105122712Y-134320710D01*
X105116418Y-134307403D01*
X105111459Y-134293543D01*
X105107882Y-134279264D01*
X105105722Y-134264703D01*
X105105000Y-134250000D01*
X105105000Y-132800000D01*
X105105722Y-132785297D01*
X105107882Y-132770736D01*
X105111459Y-132756457D01*
X105116418Y-132742597D01*
X105122712Y-132729290D01*
X105130280Y-132716664D01*
X105139048Y-132704841D01*
X105148934Y-132693934D01*
X105159841Y-132684048D01*
X105171664Y-132675280D01*
X105184290Y-132667712D01*
X105197597Y-132661418D01*
X105211457Y-132656459D01*
X105225736Y-132652882D01*
X105240297Y-132650722D01*
X105255000Y-132650000D01*
X105555000Y-132650000D01*
X105569703Y-132650722D01*
X105569703Y-132650722D01*
G37*
D19*
X105405000Y-133525000D03*
D13*
G36*
X104299703Y-132650722D02*
G01*
X104314264Y-132652882D01*
X104328543Y-132656459D01*
X104342403Y-132661418D01*
X104355710Y-132667712D01*
X104368336Y-132675280D01*
X104380159Y-132684048D01*
X104391066Y-132693934D01*
X104400952Y-132704841D01*
X104409720Y-132716664D01*
X104417288Y-132729290D01*
X104423582Y-132742597D01*
X104428541Y-132756457D01*
X104432118Y-132770736D01*
X104434278Y-132785297D01*
X104435000Y-132800000D01*
X104435000Y-134250000D01*
X104434278Y-134264703D01*
X104432118Y-134279264D01*
X104428541Y-134293543D01*
X104423582Y-134307403D01*
X104417288Y-134320710D01*
X104409720Y-134333336D01*
X104400952Y-134345159D01*
X104391066Y-134356066D01*
X104380159Y-134365952D01*
X104368336Y-134374720D01*
X104355710Y-134382288D01*
X104342403Y-134388582D01*
X104328543Y-134393541D01*
X104314264Y-134397118D01*
X104299703Y-134399278D01*
X104285000Y-134400000D01*
X103985000Y-134400000D01*
X103970297Y-134399278D01*
X103955736Y-134397118D01*
X103941457Y-134393541D01*
X103927597Y-134388582D01*
X103914290Y-134382288D01*
X103901664Y-134374720D01*
X103889841Y-134365952D01*
X103878934Y-134356066D01*
X103869048Y-134345159D01*
X103860280Y-134333336D01*
X103852712Y-134320710D01*
X103846418Y-134307403D01*
X103841459Y-134293543D01*
X103837882Y-134279264D01*
X103835722Y-134264703D01*
X103835000Y-134250000D01*
X103835000Y-132800000D01*
X103835722Y-132785297D01*
X103837882Y-132770736D01*
X103841459Y-132756457D01*
X103846418Y-132742597D01*
X103852712Y-132729290D01*
X103860280Y-132716664D01*
X103869048Y-132704841D01*
X103878934Y-132693934D01*
X103889841Y-132684048D01*
X103901664Y-132675280D01*
X103914290Y-132667712D01*
X103927597Y-132661418D01*
X103941457Y-132656459D01*
X103955736Y-132652882D01*
X103970297Y-132650722D01*
X103985000Y-132650000D01*
X104285000Y-132650000D01*
X104299703Y-132650722D01*
X104299703Y-132650722D01*
G37*
D19*
X104135000Y-133525000D03*
D13*
G36*
X103029703Y-132650722D02*
G01*
X103044264Y-132652882D01*
X103058543Y-132656459D01*
X103072403Y-132661418D01*
X103085710Y-132667712D01*
X103098336Y-132675280D01*
X103110159Y-132684048D01*
X103121066Y-132693934D01*
X103130952Y-132704841D01*
X103139720Y-132716664D01*
X103147288Y-132729290D01*
X103153582Y-132742597D01*
X103158541Y-132756457D01*
X103162118Y-132770736D01*
X103164278Y-132785297D01*
X103165000Y-132800000D01*
X103165000Y-134250000D01*
X103164278Y-134264703D01*
X103162118Y-134279264D01*
X103158541Y-134293543D01*
X103153582Y-134307403D01*
X103147288Y-134320710D01*
X103139720Y-134333336D01*
X103130952Y-134345159D01*
X103121066Y-134356066D01*
X103110159Y-134365952D01*
X103098336Y-134374720D01*
X103085710Y-134382288D01*
X103072403Y-134388582D01*
X103058543Y-134393541D01*
X103044264Y-134397118D01*
X103029703Y-134399278D01*
X103015000Y-134400000D01*
X102715000Y-134400000D01*
X102700297Y-134399278D01*
X102685736Y-134397118D01*
X102671457Y-134393541D01*
X102657597Y-134388582D01*
X102644290Y-134382288D01*
X102631664Y-134374720D01*
X102619841Y-134365952D01*
X102608934Y-134356066D01*
X102599048Y-134345159D01*
X102590280Y-134333336D01*
X102582712Y-134320710D01*
X102576418Y-134307403D01*
X102571459Y-134293543D01*
X102567882Y-134279264D01*
X102565722Y-134264703D01*
X102565000Y-134250000D01*
X102565000Y-132800000D01*
X102565722Y-132785297D01*
X102567882Y-132770736D01*
X102571459Y-132756457D01*
X102576418Y-132742597D01*
X102582712Y-132729290D01*
X102590280Y-132716664D01*
X102599048Y-132704841D01*
X102608934Y-132693934D01*
X102619841Y-132684048D01*
X102631664Y-132675280D01*
X102644290Y-132667712D01*
X102657597Y-132661418D01*
X102671457Y-132656459D01*
X102685736Y-132652882D01*
X102700297Y-132650722D01*
X102715000Y-132650000D01*
X103015000Y-132650000D01*
X103029703Y-132650722D01*
X103029703Y-132650722D01*
G37*
D19*
X102865000Y-133525000D03*
D13*
G36*
X101759703Y-132650722D02*
G01*
X101774264Y-132652882D01*
X101788543Y-132656459D01*
X101802403Y-132661418D01*
X101815710Y-132667712D01*
X101828336Y-132675280D01*
X101840159Y-132684048D01*
X101851066Y-132693934D01*
X101860952Y-132704841D01*
X101869720Y-132716664D01*
X101877288Y-132729290D01*
X101883582Y-132742597D01*
X101888541Y-132756457D01*
X101892118Y-132770736D01*
X101894278Y-132785297D01*
X101895000Y-132800000D01*
X101895000Y-134250000D01*
X101894278Y-134264703D01*
X101892118Y-134279264D01*
X101888541Y-134293543D01*
X101883582Y-134307403D01*
X101877288Y-134320710D01*
X101869720Y-134333336D01*
X101860952Y-134345159D01*
X101851066Y-134356066D01*
X101840159Y-134365952D01*
X101828336Y-134374720D01*
X101815710Y-134382288D01*
X101802403Y-134388582D01*
X101788543Y-134393541D01*
X101774264Y-134397118D01*
X101759703Y-134399278D01*
X101745000Y-134400000D01*
X101445000Y-134400000D01*
X101430297Y-134399278D01*
X101415736Y-134397118D01*
X101401457Y-134393541D01*
X101387597Y-134388582D01*
X101374290Y-134382288D01*
X101361664Y-134374720D01*
X101349841Y-134365952D01*
X101338934Y-134356066D01*
X101329048Y-134345159D01*
X101320280Y-134333336D01*
X101312712Y-134320710D01*
X101306418Y-134307403D01*
X101301459Y-134293543D01*
X101297882Y-134279264D01*
X101295722Y-134264703D01*
X101295000Y-134250000D01*
X101295000Y-132800000D01*
X101295722Y-132785297D01*
X101297882Y-132770736D01*
X101301459Y-132756457D01*
X101306418Y-132742597D01*
X101312712Y-132729290D01*
X101320280Y-132716664D01*
X101329048Y-132704841D01*
X101338934Y-132693934D01*
X101349841Y-132684048D01*
X101361664Y-132675280D01*
X101374290Y-132667712D01*
X101387597Y-132661418D01*
X101401457Y-132656459D01*
X101415736Y-132652882D01*
X101430297Y-132650722D01*
X101445000Y-132650000D01*
X101745000Y-132650000D01*
X101759703Y-132650722D01*
X101759703Y-132650722D01*
G37*
D19*
X101595000Y-133525000D03*
D13*
G36*
X101759703Y-127500722D02*
G01*
X101774264Y-127502882D01*
X101788543Y-127506459D01*
X101802403Y-127511418D01*
X101815710Y-127517712D01*
X101828336Y-127525280D01*
X101840159Y-127534048D01*
X101851066Y-127543934D01*
X101860952Y-127554841D01*
X101869720Y-127566664D01*
X101877288Y-127579290D01*
X101883582Y-127592597D01*
X101888541Y-127606457D01*
X101892118Y-127620736D01*
X101894278Y-127635297D01*
X101895000Y-127650000D01*
X101895000Y-129100000D01*
X101894278Y-129114703D01*
X101892118Y-129129264D01*
X101888541Y-129143543D01*
X101883582Y-129157403D01*
X101877288Y-129170710D01*
X101869720Y-129183336D01*
X101860952Y-129195159D01*
X101851066Y-129206066D01*
X101840159Y-129215952D01*
X101828336Y-129224720D01*
X101815710Y-129232288D01*
X101802403Y-129238582D01*
X101788543Y-129243541D01*
X101774264Y-129247118D01*
X101759703Y-129249278D01*
X101745000Y-129250000D01*
X101445000Y-129250000D01*
X101430297Y-129249278D01*
X101415736Y-129247118D01*
X101401457Y-129243541D01*
X101387597Y-129238582D01*
X101374290Y-129232288D01*
X101361664Y-129224720D01*
X101349841Y-129215952D01*
X101338934Y-129206066D01*
X101329048Y-129195159D01*
X101320280Y-129183336D01*
X101312712Y-129170710D01*
X101306418Y-129157403D01*
X101301459Y-129143543D01*
X101297882Y-129129264D01*
X101295722Y-129114703D01*
X101295000Y-129100000D01*
X101295000Y-127650000D01*
X101295722Y-127635297D01*
X101297882Y-127620736D01*
X101301459Y-127606457D01*
X101306418Y-127592597D01*
X101312712Y-127579290D01*
X101320280Y-127566664D01*
X101329048Y-127554841D01*
X101338934Y-127543934D01*
X101349841Y-127534048D01*
X101361664Y-127525280D01*
X101374290Y-127517712D01*
X101387597Y-127511418D01*
X101401457Y-127506459D01*
X101415736Y-127502882D01*
X101430297Y-127500722D01*
X101445000Y-127500000D01*
X101745000Y-127500000D01*
X101759703Y-127500722D01*
X101759703Y-127500722D01*
G37*
D19*
X101595000Y-128375000D03*
D13*
G36*
X103029703Y-127500722D02*
G01*
X103044264Y-127502882D01*
X103058543Y-127506459D01*
X103072403Y-127511418D01*
X103085710Y-127517712D01*
X103098336Y-127525280D01*
X103110159Y-127534048D01*
X103121066Y-127543934D01*
X103130952Y-127554841D01*
X103139720Y-127566664D01*
X103147288Y-127579290D01*
X103153582Y-127592597D01*
X103158541Y-127606457D01*
X103162118Y-127620736D01*
X103164278Y-127635297D01*
X103165000Y-127650000D01*
X103165000Y-129100000D01*
X103164278Y-129114703D01*
X103162118Y-129129264D01*
X103158541Y-129143543D01*
X103153582Y-129157403D01*
X103147288Y-129170710D01*
X103139720Y-129183336D01*
X103130952Y-129195159D01*
X103121066Y-129206066D01*
X103110159Y-129215952D01*
X103098336Y-129224720D01*
X103085710Y-129232288D01*
X103072403Y-129238582D01*
X103058543Y-129243541D01*
X103044264Y-129247118D01*
X103029703Y-129249278D01*
X103015000Y-129250000D01*
X102715000Y-129250000D01*
X102700297Y-129249278D01*
X102685736Y-129247118D01*
X102671457Y-129243541D01*
X102657597Y-129238582D01*
X102644290Y-129232288D01*
X102631664Y-129224720D01*
X102619841Y-129215952D01*
X102608934Y-129206066D01*
X102599048Y-129195159D01*
X102590280Y-129183336D01*
X102582712Y-129170710D01*
X102576418Y-129157403D01*
X102571459Y-129143543D01*
X102567882Y-129129264D01*
X102565722Y-129114703D01*
X102565000Y-129100000D01*
X102565000Y-127650000D01*
X102565722Y-127635297D01*
X102567882Y-127620736D01*
X102571459Y-127606457D01*
X102576418Y-127592597D01*
X102582712Y-127579290D01*
X102590280Y-127566664D01*
X102599048Y-127554841D01*
X102608934Y-127543934D01*
X102619841Y-127534048D01*
X102631664Y-127525280D01*
X102644290Y-127517712D01*
X102657597Y-127511418D01*
X102671457Y-127506459D01*
X102685736Y-127502882D01*
X102700297Y-127500722D01*
X102715000Y-127500000D01*
X103015000Y-127500000D01*
X103029703Y-127500722D01*
X103029703Y-127500722D01*
G37*
D19*
X102865000Y-128375000D03*
D13*
G36*
X104299703Y-127500722D02*
G01*
X104314264Y-127502882D01*
X104328543Y-127506459D01*
X104342403Y-127511418D01*
X104355710Y-127517712D01*
X104368336Y-127525280D01*
X104380159Y-127534048D01*
X104391066Y-127543934D01*
X104400952Y-127554841D01*
X104409720Y-127566664D01*
X104417288Y-127579290D01*
X104423582Y-127592597D01*
X104428541Y-127606457D01*
X104432118Y-127620736D01*
X104434278Y-127635297D01*
X104435000Y-127650000D01*
X104435000Y-129100000D01*
X104434278Y-129114703D01*
X104432118Y-129129264D01*
X104428541Y-129143543D01*
X104423582Y-129157403D01*
X104417288Y-129170710D01*
X104409720Y-129183336D01*
X104400952Y-129195159D01*
X104391066Y-129206066D01*
X104380159Y-129215952D01*
X104368336Y-129224720D01*
X104355710Y-129232288D01*
X104342403Y-129238582D01*
X104328543Y-129243541D01*
X104314264Y-129247118D01*
X104299703Y-129249278D01*
X104285000Y-129250000D01*
X103985000Y-129250000D01*
X103970297Y-129249278D01*
X103955736Y-129247118D01*
X103941457Y-129243541D01*
X103927597Y-129238582D01*
X103914290Y-129232288D01*
X103901664Y-129224720D01*
X103889841Y-129215952D01*
X103878934Y-129206066D01*
X103869048Y-129195159D01*
X103860280Y-129183336D01*
X103852712Y-129170710D01*
X103846418Y-129157403D01*
X103841459Y-129143543D01*
X103837882Y-129129264D01*
X103835722Y-129114703D01*
X103835000Y-129100000D01*
X103835000Y-127650000D01*
X103835722Y-127635297D01*
X103837882Y-127620736D01*
X103841459Y-127606457D01*
X103846418Y-127592597D01*
X103852712Y-127579290D01*
X103860280Y-127566664D01*
X103869048Y-127554841D01*
X103878934Y-127543934D01*
X103889841Y-127534048D01*
X103901664Y-127525280D01*
X103914290Y-127517712D01*
X103927597Y-127511418D01*
X103941457Y-127506459D01*
X103955736Y-127502882D01*
X103970297Y-127500722D01*
X103985000Y-127500000D01*
X104285000Y-127500000D01*
X104299703Y-127500722D01*
X104299703Y-127500722D01*
G37*
D19*
X104135000Y-128375000D03*
D13*
G36*
X105569703Y-127500722D02*
G01*
X105584264Y-127502882D01*
X105598543Y-127506459D01*
X105612403Y-127511418D01*
X105625710Y-127517712D01*
X105638336Y-127525280D01*
X105650159Y-127534048D01*
X105661066Y-127543934D01*
X105670952Y-127554841D01*
X105679720Y-127566664D01*
X105687288Y-127579290D01*
X105693582Y-127592597D01*
X105698541Y-127606457D01*
X105702118Y-127620736D01*
X105704278Y-127635297D01*
X105705000Y-127650000D01*
X105705000Y-129100000D01*
X105704278Y-129114703D01*
X105702118Y-129129264D01*
X105698541Y-129143543D01*
X105693582Y-129157403D01*
X105687288Y-129170710D01*
X105679720Y-129183336D01*
X105670952Y-129195159D01*
X105661066Y-129206066D01*
X105650159Y-129215952D01*
X105638336Y-129224720D01*
X105625710Y-129232288D01*
X105612403Y-129238582D01*
X105598543Y-129243541D01*
X105584264Y-129247118D01*
X105569703Y-129249278D01*
X105555000Y-129250000D01*
X105255000Y-129250000D01*
X105240297Y-129249278D01*
X105225736Y-129247118D01*
X105211457Y-129243541D01*
X105197597Y-129238582D01*
X105184290Y-129232288D01*
X105171664Y-129224720D01*
X105159841Y-129215952D01*
X105148934Y-129206066D01*
X105139048Y-129195159D01*
X105130280Y-129183336D01*
X105122712Y-129170710D01*
X105116418Y-129157403D01*
X105111459Y-129143543D01*
X105107882Y-129129264D01*
X105105722Y-129114703D01*
X105105000Y-129100000D01*
X105105000Y-127650000D01*
X105105722Y-127635297D01*
X105107882Y-127620736D01*
X105111459Y-127606457D01*
X105116418Y-127592597D01*
X105122712Y-127579290D01*
X105130280Y-127566664D01*
X105139048Y-127554841D01*
X105148934Y-127543934D01*
X105159841Y-127534048D01*
X105171664Y-127525280D01*
X105184290Y-127517712D01*
X105197597Y-127511418D01*
X105211457Y-127506459D01*
X105225736Y-127502882D01*
X105240297Y-127500722D01*
X105255000Y-127500000D01*
X105555000Y-127500000D01*
X105569703Y-127500722D01*
X105569703Y-127500722D01*
G37*
D19*
X105405000Y-128375000D03*
D20*
X73500000Y-78820000D03*
D21*
X73500000Y-58500000D03*
D13*
G36*
X105974505Y-59876204D02*
G01*
X105998773Y-59879804D01*
X106022572Y-59885765D01*
X106045671Y-59894030D01*
X106067850Y-59904520D01*
X106088893Y-59917132D01*
X106108599Y-59931747D01*
X106126777Y-59948223D01*
X106143253Y-59966401D01*
X106157868Y-59986107D01*
X106170480Y-60007150D01*
X106180970Y-60029329D01*
X106189235Y-60052428D01*
X106195196Y-60076227D01*
X106198796Y-60100495D01*
X106200000Y-60124999D01*
X106200000Y-60775001D01*
X106198796Y-60799505D01*
X106195196Y-60823773D01*
X106189235Y-60847572D01*
X106180970Y-60870671D01*
X106170480Y-60892850D01*
X106157868Y-60913893D01*
X106143253Y-60933599D01*
X106126777Y-60951777D01*
X106108599Y-60968253D01*
X106088893Y-60982868D01*
X106067850Y-60995480D01*
X106045671Y-61005970D01*
X106022572Y-61014235D01*
X105998773Y-61020196D01*
X105974505Y-61023796D01*
X105950001Y-61025000D01*
X105049999Y-61025000D01*
X105025495Y-61023796D01*
X105001227Y-61020196D01*
X104977428Y-61014235D01*
X104954329Y-61005970D01*
X104932150Y-60995480D01*
X104911107Y-60982868D01*
X104891401Y-60968253D01*
X104873223Y-60951777D01*
X104856747Y-60933599D01*
X104842132Y-60913893D01*
X104829520Y-60892850D01*
X104819030Y-60870671D01*
X104810765Y-60847572D01*
X104804804Y-60823773D01*
X104801204Y-60799505D01*
X104800000Y-60775001D01*
X104800000Y-60124999D01*
X104801204Y-60100495D01*
X104804804Y-60076227D01*
X104810765Y-60052428D01*
X104819030Y-60029329D01*
X104829520Y-60007150D01*
X104842132Y-59986107D01*
X104856747Y-59966401D01*
X104873223Y-59948223D01*
X104891401Y-59931747D01*
X104911107Y-59917132D01*
X104932150Y-59904520D01*
X104954329Y-59894030D01*
X104977428Y-59885765D01*
X105001227Y-59879804D01*
X105025495Y-59876204D01*
X105049999Y-59875000D01*
X105950001Y-59875000D01*
X105974505Y-59876204D01*
X105974505Y-59876204D01*
G37*
D14*
X105500000Y-60450000D03*
D13*
G36*
X105974505Y-61926204D02*
G01*
X105998773Y-61929804D01*
X106022572Y-61935765D01*
X106045671Y-61944030D01*
X106067850Y-61954520D01*
X106088893Y-61967132D01*
X106108599Y-61981747D01*
X106126777Y-61998223D01*
X106143253Y-62016401D01*
X106157868Y-62036107D01*
X106170480Y-62057150D01*
X106180970Y-62079329D01*
X106189235Y-62102428D01*
X106195196Y-62126227D01*
X106198796Y-62150495D01*
X106200000Y-62174999D01*
X106200000Y-62825001D01*
X106198796Y-62849505D01*
X106195196Y-62873773D01*
X106189235Y-62897572D01*
X106180970Y-62920671D01*
X106170480Y-62942850D01*
X106157868Y-62963893D01*
X106143253Y-62983599D01*
X106126777Y-63001777D01*
X106108599Y-63018253D01*
X106088893Y-63032868D01*
X106067850Y-63045480D01*
X106045671Y-63055970D01*
X106022572Y-63064235D01*
X105998773Y-63070196D01*
X105974505Y-63073796D01*
X105950001Y-63075000D01*
X105049999Y-63075000D01*
X105025495Y-63073796D01*
X105001227Y-63070196D01*
X104977428Y-63064235D01*
X104954329Y-63055970D01*
X104932150Y-63045480D01*
X104911107Y-63032868D01*
X104891401Y-63018253D01*
X104873223Y-63001777D01*
X104856747Y-62983599D01*
X104842132Y-62963893D01*
X104829520Y-62942850D01*
X104819030Y-62920671D01*
X104810765Y-62897572D01*
X104804804Y-62873773D01*
X104801204Y-62849505D01*
X104800000Y-62825001D01*
X104800000Y-62174999D01*
X104801204Y-62150495D01*
X104804804Y-62126227D01*
X104810765Y-62102428D01*
X104819030Y-62079329D01*
X104829520Y-62057150D01*
X104842132Y-62036107D01*
X104856747Y-62016401D01*
X104873223Y-61998223D01*
X104891401Y-61981747D01*
X104911107Y-61967132D01*
X104932150Y-61954520D01*
X104954329Y-61944030D01*
X104977428Y-61935765D01*
X105001227Y-61929804D01*
X105025495Y-61926204D01*
X105049999Y-61925000D01*
X105950001Y-61925000D01*
X105974505Y-61926204D01*
X105974505Y-61926204D01*
G37*
D14*
X105500000Y-62500000D03*
D13*
G36*
X88974505Y-61376204D02*
G01*
X88998773Y-61379804D01*
X89022572Y-61385765D01*
X89045671Y-61394030D01*
X89067850Y-61404520D01*
X89088893Y-61417132D01*
X89108599Y-61431747D01*
X89126777Y-61448223D01*
X89143253Y-61466401D01*
X89157868Y-61486107D01*
X89170480Y-61507150D01*
X89180970Y-61529329D01*
X89189235Y-61552428D01*
X89195196Y-61576227D01*
X89198796Y-61600495D01*
X89200000Y-61624999D01*
X89200000Y-62275001D01*
X89198796Y-62299505D01*
X89195196Y-62323773D01*
X89189235Y-62347572D01*
X89180970Y-62370671D01*
X89170480Y-62392850D01*
X89157868Y-62413893D01*
X89143253Y-62433599D01*
X89126777Y-62451777D01*
X89108599Y-62468253D01*
X89088893Y-62482868D01*
X89067850Y-62495480D01*
X89045671Y-62505970D01*
X89022572Y-62514235D01*
X88998773Y-62520196D01*
X88974505Y-62523796D01*
X88950001Y-62525000D01*
X88049999Y-62525000D01*
X88025495Y-62523796D01*
X88001227Y-62520196D01*
X87977428Y-62514235D01*
X87954329Y-62505970D01*
X87932150Y-62495480D01*
X87911107Y-62482868D01*
X87891401Y-62468253D01*
X87873223Y-62451777D01*
X87856747Y-62433599D01*
X87842132Y-62413893D01*
X87829520Y-62392850D01*
X87819030Y-62370671D01*
X87810765Y-62347572D01*
X87804804Y-62323773D01*
X87801204Y-62299505D01*
X87800000Y-62275001D01*
X87800000Y-61624999D01*
X87801204Y-61600495D01*
X87804804Y-61576227D01*
X87810765Y-61552428D01*
X87819030Y-61529329D01*
X87829520Y-61507150D01*
X87842132Y-61486107D01*
X87856747Y-61466401D01*
X87873223Y-61448223D01*
X87891401Y-61431747D01*
X87911107Y-61417132D01*
X87932150Y-61404520D01*
X87954329Y-61394030D01*
X87977428Y-61385765D01*
X88001227Y-61379804D01*
X88025495Y-61376204D01*
X88049999Y-61375000D01*
X88950001Y-61375000D01*
X88974505Y-61376204D01*
X88974505Y-61376204D01*
G37*
D14*
X88500000Y-61950000D03*
D13*
G36*
X88974505Y-63426204D02*
G01*
X88998773Y-63429804D01*
X89022572Y-63435765D01*
X89045671Y-63444030D01*
X89067850Y-63454520D01*
X89088893Y-63467132D01*
X89108599Y-63481747D01*
X89126777Y-63498223D01*
X89143253Y-63516401D01*
X89157868Y-63536107D01*
X89170480Y-63557150D01*
X89180970Y-63579329D01*
X89189235Y-63602428D01*
X89195196Y-63626227D01*
X89198796Y-63650495D01*
X89200000Y-63674999D01*
X89200000Y-64325001D01*
X89198796Y-64349505D01*
X89195196Y-64373773D01*
X89189235Y-64397572D01*
X89180970Y-64420671D01*
X89170480Y-64442850D01*
X89157868Y-64463893D01*
X89143253Y-64483599D01*
X89126777Y-64501777D01*
X89108599Y-64518253D01*
X89088893Y-64532868D01*
X89067850Y-64545480D01*
X89045671Y-64555970D01*
X89022572Y-64564235D01*
X88998773Y-64570196D01*
X88974505Y-64573796D01*
X88950001Y-64575000D01*
X88049999Y-64575000D01*
X88025495Y-64573796D01*
X88001227Y-64570196D01*
X87977428Y-64564235D01*
X87954329Y-64555970D01*
X87932150Y-64545480D01*
X87911107Y-64532868D01*
X87891401Y-64518253D01*
X87873223Y-64501777D01*
X87856747Y-64483599D01*
X87842132Y-64463893D01*
X87829520Y-64442850D01*
X87819030Y-64420671D01*
X87810765Y-64397572D01*
X87804804Y-64373773D01*
X87801204Y-64349505D01*
X87800000Y-64325001D01*
X87800000Y-63674999D01*
X87801204Y-63650495D01*
X87804804Y-63626227D01*
X87810765Y-63602428D01*
X87819030Y-63579329D01*
X87829520Y-63557150D01*
X87842132Y-63536107D01*
X87856747Y-63516401D01*
X87873223Y-63498223D01*
X87891401Y-63481747D01*
X87911107Y-63467132D01*
X87932150Y-63454520D01*
X87954329Y-63444030D01*
X87977428Y-63435765D01*
X88001227Y-63429804D01*
X88025495Y-63426204D01*
X88049999Y-63425000D01*
X88950001Y-63425000D01*
X88974505Y-63426204D01*
X88974505Y-63426204D01*
G37*
D14*
X88500000Y-64000000D03*
D13*
G36*
X91324505Y-58801204D02*
G01*
X91348773Y-58804804D01*
X91372572Y-58810765D01*
X91395671Y-58819030D01*
X91417850Y-58829520D01*
X91438893Y-58842132D01*
X91458599Y-58856747D01*
X91476777Y-58873223D01*
X91493253Y-58891401D01*
X91507868Y-58911107D01*
X91520480Y-58932150D01*
X91530970Y-58954329D01*
X91539235Y-58977428D01*
X91545196Y-59001227D01*
X91548796Y-59025495D01*
X91550000Y-59049999D01*
X91550000Y-59950001D01*
X91548796Y-59974505D01*
X91545196Y-59998773D01*
X91539235Y-60022572D01*
X91530970Y-60045671D01*
X91520480Y-60067850D01*
X91507868Y-60088893D01*
X91493253Y-60108599D01*
X91476777Y-60126777D01*
X91458599Y-60143253D01*
X91438893Y-60157868D01*
X91417850Y-60170480D01*
X91395671Y-60180970D01*
X91372572Y-60189235D01*
X91348773Y-60195196D01*
X91324505Y-60198796D01*
X91300001Y-60200000D01*
X90649999Y-60200000D01*
X90625495Y-60198796D01*
X90601227Y-60195196D01*
X90577428Y-60189235D01*
X90554329Y-60180970D01*
X90532150Y-60170480D01*
X90511107Y-60157868D01*
X90491401Y-60143253D01*
X90473223Y-60126777D01*
X90456747Y-60108599D01*
X90442132Y-60088893D01*
X90429520Y-60067850D01*
X90419030Y-60045671D01*
X90410765Y-60022572D01*
X90404804Y-59998773D01*
X90401204Y-59974505D01*
X90400000Y-59950001D01*
X90400000Y-59049999D01*
X90401204Y-59025495D01*
X90404804Y-59001227D01*
X90410765Y-58977428D01*
X90419030Y-58954329D01*
X90429520Y-58932150D01*
X90442132Y-58911107D01*
X90456747Y-58891401D01*
X90473223Y-58873223D01*
X90491401Y-58856747D01*
X90511107Y-58842132D01*
X90532150Y-58829520D01*
X90554329Y-58819030D01*
X90577428Y-58810765D01*
X90601227Y-58804804D01*
X90625495Y-58801204D01*
X90649999Y-58800000D01*
X91300001Y-58800000D01*
X91324505Y-58801204D01*
X91324505Y-58801204D01*
G37*
D14*
X90975000Y-59500000D03*
D13*
G36*
X93374505Y-58801204D02*
G01*
X93398773Y-58804804D01*
X93422572Y-58810765D01*
X93445671Y-58819030D01*
X93467850Y-58829520D01*
X93488893Y-58842132D01*
X93508599Y-58856747D01*
X93526777Y-58873223D01*
X93543253Y-58891401D01*
X93557868Y-58911107D01*
X93570480Y-58932150D01*
X93580970Y-58954329D01*
X93589235Y-58977428D01*
X93595196Y-59001227D01*
X93598796Y-59025495D01*
X93600000Y-59049999D01*
X93600000Y-59950001D01*
X93598796Y-59974505D01*
X93595196Y-59998773D01*
X93589235Y-60022572D01*
X93580970Y-60045671D01*
X93570480Y-60067850D01*
X93557868Y-60088893D01*
X93543253Y-60108599D01*
X93526777Y-60126777D01*
X93508599Y-60143253D01*
X93488893Y-60157868D01*
X93467850Y-60170480D01*
X93445671Y-60180970D01*
X93422572Y-60189235D01*
X93398773Y-60195196D01*
X93374505Y-60198796D01*
X93350001Y-60200000D01*
X92699999Y-60200000D01*
X92675495Y-60198796D01*
X92651227Y-60195196D01*
X92627428Y-60189235D01*
X92604329Y-60180970D01*
X92582150Y-60170480D01*
X92561107Y-60157868D01*
X92541401Y-60143253D01*
X92523223Y-60126777D01*
X92506747Y-60108599D01*
X92492132Y-60088893D01*
X92479520Y-60067850D01*
X92469030Y-60045671D01*
X92460765Y-60022572D01*
X92454804Y-59998773D01*
X92451204Y-59974505D01*
X92450000Y-59950001D01*
X92450000Y-59049999D01*
X92451204Y-59025495D01*
X92454804Y-59001227D01*
X92460765Y-58977428D01*
X92469030Y-58954329D01*
X92479520Y-58932150D01*
X92492132Y-58911107D01*
X92506747Y-58891401D01*
X92523223Y-58873223D01*
X92541401Y-58856747D01*
X92561107Y-58842132D01*
X92582150Y-58829520D01*
X92604329Y-58819030D01*
X92627428Y-58810765D01*
X92651227Y-58804804D01*
X92675495Y-58801204D01*
X92699999Y-58800000D01*
X93350001Y-58800000D01*
X93374505Y-58801204D01*
X93374505Y-58801204D01*
G37*
D14*
X93025000Y-59500000D03*
D13*
G36*
X133799505Y-139301204D02*
G01*
X133823773Y-139304804D01*
X133847572Y-139310765D01*
X133870671Y-139319030D01*
X133892850Y-139329520D01*
X133913893Y-139342132D01*
X133933599Y-139356747D01*
X133951777Y-139373223D01*
X133968253Y-139391401D01*
X133982868Y-139411107D01*
X133995480Y-139432150D01*
X134005970Y-139454329D01*
X134014235Y-139477428D01*
X134020196Y-139501227D01*
X134023796Y-139525495D01*
X134025000Y-139549999D01*
X134025000Y-140450001D01*
X134023796Y-140474505D01*
X134020196Y-140498773D01*
X134014235Y-140522572D01*
X134005970Y-140545671D01*
X133995480Y-140567850D01*
X133982868Y-140588893D01*
X133968253Y-140608599D01*
X133951777Y-140626777D01*
X133933599Y-140643253D01*
X133913893Y-140657868D01*
X133892850Y-140670480D01*
X133870671Y-140680970D01*
X133847572Y-140689235D01*
X133823773Y-140695196D01*
X133799505Y-140698796D01*
X133775001Y-140700000D01*
X133124999Y-140700000D01*
X133100495Y-140698796D01*
X133076227Y-140695196D01*
X133052428Y-140689235D01*
X133029329Y-140680970D01*
X133007150Y-140670480D01*
X132986107Y-140657868D01*
X132966401Y-140643253D01*
X132948223Y-140626777D01*
X132931747Y-140608599D01*
X132917132Y-140588893D01*
X132904520Y-140567850D01*
X132894030Y-140545671D01*
X132885765Y-140522572D01*
X132879804Y-140498773D01*
X132876204Y-140474505D01*
X132875000Y-140450001D01*
X132875000Y-139549999D01*
X132876204Y-139525495D01*
X132879804Y-139501227D01*
X132885765Y-139477428D01*
X132894030Y-139454329D01*
X132904520Y-139432150D01*
X132917132Y-139411107D01*
X132931747Y-139391401D01*
X132948223Y-139373223D01*
X132966401Y-139356747D01*
X132986107Y-139342132D01*
X133007150Y-139329520D01*
X133029329Y-139319030D01*
X133052428Y-139310765D01*
X133076227Y-139304804D01*
X133100495Y-139301204D01*
X133124999Y-139300000D01*
X133775001Y-139300000D01*
X133799505Y-139301204D01*
X133799505Y-139301204D01*
G37*
D14*
X133450000Y-140000000D03*
D13*
G36*
X135849505Y-139301204D02*
G01*
X135873773Y-139304804D01*
X135897572Y-139310765D01*
X135920671Y-139319030D01*
X135942850Y-139329520D01*
X135963893Y-139342132D01*
X135983599Y-139356747D01*
X136001777Y-139373223D01*
X136018253Y-139391401D01*
X136032868Y-139411107D01*
X136045480Y-139432150D01*
X136055970Y-139454329D01*
X136064235Y-139477428D01*
X136070196Y-139501227D01*
X136073796Y-139525495D01*
X136075000Y-139549999D01*
X136075000Y-140450001D01*
X136073796Y-140474505D01*
X136070196Y-140498773D01*
X136064235Y-140522572D01*
X136055970Y-140545671D01*
X136045480Y-140567850D01*
X136032868Y-140588893D01*
X136018253Y-140608599D01*
X136001777Y-140626777D01*
X135983599Y-140643253D01*
X135963893Y-140657868D01*
X135942850Y-140670480D01*
X135920671Y-140680970D01*
X135897572Y-140689235D01*
X135873773Y-140695196D01*
X135849505Y-140698796D01*
X135825001Y-140700000D01*
X135174999Y-140700000D01*
X135150495Y-140698796D01*
X135126227Y-140695196D01*
X135102428Y-140689235D01*
X135079329Y-140680970D01*
X135057150Y-140670480D01*
X135036107Y-140657868D01*
X135016401Y-140643253D01*
X134998223Y-140626777D01*
X134981747Y-140608599D01*
X134967132Y-140588893D01*
X134954520Y-140567850D01*
X134944030Y-140545671D01*
X134935765Y-140522572D01*
X134929804Y-140498773D01*
X134926204Y-140474505D01*
X134925000Y-140450001D01*
X134925000Y-139549999D01*
X134926204Y-139525495D01*
X134929804Y-139501227D01*
X134935765Y-139477428D01*
X134944030Y-139454329D01*
X134954520Y-139432150D01*
X134967132Y-139411107D01*
X134981747Y-139391401D01*
X134998223Y-139373223D01*
X135016401Y-139356747D01*
X135036107Y-139342132D01*
X135057150Y-139329520D01*
X135079329Y-139319030D01*
X135102428Y-139310765D01*
X135126227Y-139304804D01*
X135150495Y-139301204D01*
X135174999Y-139300000D01*
X135825001Y-139300000D01*
X135849505Y-139301204D01*
X135849505Y-139301204D01*
G37*
D14*
X135500000Y-140000000D03*
D13*
G36*
X92974505Y-129926204D02*
G01*
X92998773Y-129929804D01*
X93022572Y-129935765D01*
X93045671Y-129944030D01*
X93067850Y-129954520D01*
X93088893Y-129967132D01*
X93108599Y-129981747D01*
X93126777Y-129998223D01*
X93143253Y-130016401D01*
X93157868Y-130036107D01*
X93170480Y-130057150D01*
X93180970Y-130079329D01*
X93189235Y-130102428D01*
X93195196Y-130126227D01*
X93198796Y-130150495D01*
X93200000Y-130174999D01*
X93200000Y-130825001D01*
X93198796Y-130849505D01*
X93195196Y-130873773D01*
X93189235Y-130897572D01*
X93180970Y-130920671D01*
X93170480Y-130942850D01*
X93157868Y-130963893D01*
X93143253Y-130983599D01*
X93126777Y-131001777D01*
X93108599Y-131018253D01*
X93088893Y-131032868D01*
X93067850Y-131045480D01*
X93045671Y-131055970D01*
X93022572Y-131064235D01*
X92998773Y-131070196D01*
X92974505Y-131073796D01*
X92950001Y-131075000D01*
X92049999Y-131075000D01*
X92025495Y-131073796D01*
X92001227Y-131070196D01*
X91977428Y-131064235D01*
X91954329Y-131055970D01*
X91932150Y-131045480D01*
X91911107Y-131032868D01*
X91891401Y-131018253D01*
X91873223Y-131001777D01*
X91856747Y-130983599D01*
X91842132Y-130963893D01*
X91829520Y-130942850D01*
X91819030Y-130920671D01*
X91810765Y-130897572D01*
X91804804Y-130873773D01*
X91801204Y-130849505D01*
X91800000Y-130825001D01*
X91800000Y-130174999D01*
X91801204Y-130150495D01*
X91804804Y-130126227D01*
X91810765Y-130102428D01*
X91819030Y-130079329D01*
X91829520Y-130057150D01*
X91842132Y-130036107D01*
X91856747Y-130016401D01*
X91873223Y-129998223D01*
X91891401Y-129981747D01*
X91911107Y-129967132D01*
X91932150Y-129954520D01*
X91954329Y-129944030D01*
X91977428Y-129935765D01*
X92001227Y-129929804D01*
X92025495Y-129926204D01*
X92049999Y-129925000D01*
X92950001Y-129925000D01*
X92974505Y-129926204D01*
X92974505Y-129926204D01*
G37*
D14*
X92500000Y-130500000D03*
D13*
G36*
X92974505Y-127876204D02*
G01*
X92998773Y-127879804D01*
X93022572Y-127885765D01*
X93045671Y-127894030D01*
X93067850Y-127904520D01*
X93088893Y-127917132D01*
X93108599Y-127931747D01*
X93126777Y-127948223D01*
X93143253Y-127966401D01*
X93157868Y-127986107D01*
X93170480Y-128007150D01*
X93180970Y-128029329D01*
X93189235Y-128052428D01*
X93195196Y-128076227D01*
X93198796Y-128100495D01*
X93200000Y-128124999D01*
X93200000Y-128775001D01*
X93198796Y-128799505D01*
X93195196Y-128823773D01*
X93189235Y-128847572D01*
X93180970Y-128870671D01*
X93170480Y-128892850D01*
X93157868Y-128913893D01*
X93143253Y-128933599D01*
X93126777Y-128951777D01*
X93108599Y-128968253D01*
X93088893Y-128982868D01*
X93067850Y-128995480D01*
X93045671Y-129005970D01*
X93022572Y-129014235D01*
X92998773Y-129020196D01*
X92974505Y-129023796D01*
X92950001Y-129025000D01*
X92049999Y-129025000D01*
X92025495Y-129023796D01*
X92001227Y-129020196D01*
X91977428Y-129014235D01*
X91954329Y-129005970D01*
X91932150Y-128995480D01*
X91911107Y-128982868D01*
X91891401Y-128968253D01*
X91873223Y-128951777D01*
X91856747Y-128933599D01*
X91842132Y-128913893D01*
X91829520Y-128892850D01*
X91819030Y-128870671D01*
X91810765Y-128847572D01*
X91804804Y-128823773D01*
X91801204Y-128799505D01*
X91800000Y-128775001D01*
X91800000Y-128124999D01*
X91801204Y-128100495D01*
X91804804Y-128076227D01*
X91810765Y-128052428D01*
X91819030Y-128029329D01*
X91829520Y-128007150D01*
X91842132Y-127986107D01*
X91856747Y-127966401D01*
X91873223Y-127948223D01*
X91891401Y-127931747D01*
X91911107Y-127917132D01*
X91932150Y-127904520D01*
X91954329Y-127894030D01*
X91977428Y-127885765D01*
X92001227Y-127879804D01*
X92025495Y-127876204D01*
X92049999Y-127875000D01*
X92950001Y-127875000D01*
X92974505Y-127876204D01*
X92974505Y-127876204D01*
G37*
D14*
X92500000Y-128450000D03*
D13*
G36*
X92699505Y-131801204D02*
G01*
X92723773Y-131804804D01*
X92747572Y-131810765D01*
X92770671Y-131819030D01*
X92792850Y-131829520D01*
X92813893Y-131842132D01*
X92833599Y-131856747D01*
X92851777Y-131873223D01*
X92868253Y-131891401D01*
X92882868Y-131911107D01*
X92895480Y-131932150D01*
X92905970Y-131954329D01*
X92914235Y-131977428D01*
X92920196Y-132001227D01*
X92923796Y-132025495D01*
X92925000Y-132049999D01*
X92925000Y-132950001D01*
X92923796Y-132974505D01*
X92920196Y-132998773D01*
X92914235Y-133022572D01*
X92905970Y-133045671D01*
X92895480Y-133067850D01*
X92882868Y-133088893D01*
X92868253Y-133108599D01*
X92851777Y-133126777D01*
X92833599Y-133143253D01*
X92813893Y-133157868D01*
X92792850Y-133170480D01*
X92770671Y-133180970D01*
X92747572Y-133189235D01*
X92723773Y-133195196D01*
X92699505Y-133198796D01*
X92675001Y-133200000D01*
X92024999Y-133200000D01*
X92000495Y-133198796D01*
X91976227Y-133195196D01*
X91952428Y-133189235D01*
X91929329Y-133180970D01*
X91907150Y-133170480D01*
X91886107Y-133157868D01*
X91866401Y-133143253D01*
X91848223Y-133126777D01*
X91831747Y-133108599D01*
X91817132Y-133088893D01*
X91804520Y-133067850D01*
X91794030Y-133045671D01*
X91785765Y-133022572D01*
X91779804Y-132998773D01*
X91776204Y-132974505D01*
X91775000Y-132950001D01*
X91775000Y-132049999D01*
X91776204Y-132025495D01*
X91779804Y-132001227D01*
X91785765Y-131977428D01*
X91794030Y-131954329D01*
X91804520Y-131932150D01*
X91817132Y-131911107D01*
X91831747Y-131891401D01*
X91848223Y-131873223D01*
X91866401Y-131856747D01*
X91886107Y-131842132D01*
X91907150Y-131829520D01*
X91929329Y-131819030D01*
X91952428Y-131810765D01*
X91976227Y-131804804D01*
X92000495Y-131801204D01*
X92024999Y-131800000D01*
X92675001Y-131800000D01*
X92699505Y-131801204D01*
X92699505Y-131801204D01*
G37*
D14*
X92350000Y-132500000D03*
D13*
G36*
X94749505Y-131801204D02*
G01*
X94773773Y-131804804D01*
X94797572Y-131810765D01*
X94820671Y-131819030D01*
X94842850Y-131829520D01*
X94863893Y-131842132D01*
X94883599Y-131856747D01*
X94901777Y-131873223D01*
X94918253Y-131891401D01*
X94932868Y-131911107D01*
X94945480Y-131932150D01*
X94955970Y-131954329D01*
X94964235Y-131977428D01*
X94970196Y-132001227D01*
X94973796Y-132025495D01*
X94975000Y-132049999D01*
X94975000Y-132950001D01*
X94973796Y-132974505D01*
X94970196Y-132998773D01*
X94964235Y-133022572D01*
X94955970Y-133045671D01*
X94945480Y-133067850D01*
X94932868Y-133088893D01*
X94918253Y-133108599D01*
X94901777Y-133126777D01*
X94883599Y-133143253D01*
X94863893Y-133157868D01*
X94842850Y-133170480D01*
X94820671Y-133180970D01*
X94797572Y-133189235D01*
X94773773Y-133195196D01*
X94749505Y-133198796D01*
X94725001Y-133200000D01*
X94074999Y-133200000D01*
X94050495Y-133198796D01*
X94026227Y-133195196D01*
X94002428Y-133189235D01*
X93979329Y-133180970D01*
X93957150Y-133170480D01*
X93936107Y-133157868D01*
X93916401Y-133143253D01*
X93898223Y-133126777D01*
X93881747Y-133108599D01*
X93867132Y-133088893D01*
X93854520Y-133067850D01*
X93844030Y-133045671D01*
X93835765Y-133022572D01*
X93829804Y-132998773D01*
X93826204Y-132974505D01*
X93825000Y-132950001D01*
X93825000Y-132049999D01*
X93826204Y-132025495D01*
X93829804Y-132001227D01*
X93835765Y-131977428D01*
X93844030Y-131954329D01*
X93854520Y-131932150D01*
X93867132Y-131911107D01*
X93881747Y-131891401D01*
X93898223Y-131873223D01*
X93916401Y-131856747D01*
X93936107Y-131842132D01*
X93957150Y-131829520D01*
X93979329Y-131819030D01*
X94002428Y-131810765D01*
X94026227Y-131804804D01*
X94050495Y-131801204D01*
X94074999Y-131800000D01*
X94725001Y-131800000D01*
X94749505Y-131801204D01*
X94749505Y-131801204D01*
G37*
D14*
X94400000Y-132500000D03*
D13*
G36*
X115974505Y-132401204D02*
G01*
X115998773Y-132404804D01*
X116022572Y-132410765D01*
X116045671Y-132419030D01*
X116067850Y-132429520D01*
X116088893Y-132442132D01*
X116108599Y-132456747D01*
X116126777Y-132473223D01*
X116143253Y-132491401D01*
X116157868Y-132511107D01*
X116170480Y-132532150D01*
X116180970Y-132554329D01*
X116189235Y-132577428D01*
X116195196Y-132601227D01*
X116198796Y-132625495D01*
X116200000Y-132649999D01*
X116200000Y-133300001D01*
X116198796Y-133324505D01*
X116195196Y-133348773D01*
X116189235Y-133372572D01*
X116180970Y-133395671D01*
X116170480Y-133417850D01*
X116157868Y-133438893D01*
X116143253Y-133458599D01*
X116126777Y-133476777D01*
X116108599Y-133493253D01*
X116088893Y-133507868D01*
X116067850Y-133520480D01*
X116045671Y-133530970D01*
X116022572Y-133539235D01*
X115998773Y-133545196D01*
X115974505Y-133548796D01*
X115950001Y-133550000D01*
X115049999Y-133550000D01*
X115025495Y-133548796D01*
X115001227Y-133545196D01*
X114977428Y-133539235D01*
X114954329Y-133530970D01*
X114932150Y-133520480D01*
X114911107Y-133507868D01*
X114891401Y-133493253D01*
X114873223Y-133476777D01*
X114856747Y-133458599D01*
X114842132Y-133438893D01*
X114829520Y-133417850D01*
X114819030Y-133395671D01*
X114810765Y-133372572D01*
X114804804Y-133348773D01*
X114801204Y-133324505D01*
X114800000Y-133300001D01*
X114800000Y-132649999D01*
X114801204Y-132625495D01*
X114804804Y-132601227D01*
X114810765Y-132577428D01*
X114819030Y-132554329D01*
X114829520Y-132532150D01*
X114842132Y-132511107D01*
X114856747Y-132491401D01*
X114873223Y-132473223D01*
X114891401Y-132456747D01*
X114911107Y-132442132D01*
X114932150Y-132429520D01*
X114954329Y-132419030D01*
X114977428Y-132410765D01*
X115001227Y-132404804D01*
X115025495Y-132401204D01*
X115049999Y-132400000D01*
X115950001Y-132400000D01*
X115974505Y-132401204D01*
X115974505Y-132401204D01*
G37*
D14*
X115500000Y-132975000D03*
D13*
G36*
X115974505Y-134451204D02*
G01*
X115998773Y-134454804D01*
X116022572Y-134460765D01*
X116045671Y-134469030D01*
X116067850Y-134479520D01*
X116088893Y-134492132D01*
X116108599Y-134506747D01*
X116126777Y-134523223D01*
X116143253Y-134541401D01*
X116157868Y-134561107D01*
X116170480Y-134582150D01*
X116180970Y-134604329D01*
X116189235Y-134627428D01*
X116195196Y-134651227D01*
X116198796Y-134675495D01*
X116200000Y-134699999D01*
X116200000Y-135350001D01*
X116198796Y-135374505D01*
X116195196Y-135398773D01*
X116189235Y-135422572D01*
X116180970Y-135445671D01*
X116170480Y-135467850D01*
X116157868Y-135488893D01*
X116143253Y-135508599D01*
X116126777Y-135526777D01*
X116108599Y-135543253D01*
X116088893Y-135557868D01*
X116067850Y-135570480D01*
X116045671Y-135580970D01*
X116022572Y-135589235D01*
X115998773Y-135595196D01*
X115974505Y-135598796D01*
X115950001Y-135600000D01*
X115049999Y-135600000D01*
X115025495Y-135598796D01*
X115001227Y-135595196D01*
X114977428Y-135589235D01*
X114954329Y-135580970D01*
X114932150Y-135570480D01*
X114911107Y-135557868D01*
X114891401Y-135543253D01*
X114873223Y-135526777D01*
X114856747Y-135508599D01*
X114842132Y-135488893D01*
X114829520Y-135467850D01*
X114819030Y-135445671D01*
X114810765Y-135422572D01*
X114804804Y-135398773D01*
X114801204Y-135374505D01*
X114800000Y-135350001D01*
X114800000Y-134699999D01*
X114801204Y-134675495D01*
X114804804Y-134651227D01*
X114810765Y-134627428D01*
X114819030Y-134604329D01*
X114829520Y-134582150D01*
X114842132Y-134561107D01*
X114856747Y-134541401D01*
X114873223Y-134523223D01*
X114891401Y-134506747D01*
X114911107Y-134492132D01*
X114932150Y-134479520D01*
X114954329Y-134469030D01*
X114977428Y-134460765D01*
X115001227Y-134454804D01*
X115025495Y-134451204D01*
X115049999Y-134450000D01*
X115950001Y-134450000D01*
X115974505Y-134451204D01*
X115974505Y-134451204D01*
G37*
D14*
X115500000Y-135025000D03*
D13*
G36*
X112849505Y-128801204D02*
G01*
X112873773Y-128804804D01*
X112897572Y-128810765D01*
X112920671Y-128819030D01*
X112942850Y-128829520D01*
X112963893Y-128842132D01*
X112983599Y-128856747D01*
X113001777Y-128873223D01*
X113018253Y-128891401D01*
X113032868Y-128911107D01*
X113045480Y-128932150D01*
X113055970Y-128954329D01*
X113064235Y-128977428D01*
X113070196Y-129001227D01*
X113073796Y-129025495D01*
X113075000Y-129049999D01*
X113075000Y-129950001D01*
X113073796Y-129974505D01*
X113070196Y-129998773D01*
X113064235Y-130022572D01*
X113055970Y-130045671D01*
X113045480Y-130067850D01*
X113032868Y-130088893D01*
X113018253Y-130108599D01*
X113001777Y-130126777D01*
X112983599Y-130143253D01*
X112963893Y-130157868D01*
X112942850Y-130170480D01*
X112920671Y-130180970D01*
X112897572Y-130189235D01*
X112873773Y-130195196D01*
X112849505Y-130198796D01*
X112825001Y-130200000D01*
X112174999Y-130200000D01*
X112150495Y-130198796D01*
X112126227Y-130195196D01*
X112102428Y-130189235D01*
X112079329Y-130180970D01*
X112057150Y-130170480D01*
X112036107Y-130157868D01*
X112016401Y-130143253D01*
X111998223Y-130126777D01*
X111981747Y-130108599D01*
X111967132Y-130088893D01*
X111954520Y-130067850D01*
X111944030Y-130045671D01*
X111935765Y-130022572D01*
X111929804Y-129998773D01*
X111926204Y-129974505D01*
X111925000Y-129950001D01*
X111925000Y-129049999D01*
X111926204Y-129025495D01*
X111929804Y-129001227D01*
X111935765Y-128977428D01*
X111944030Y-128954329D01*
X111954520Y-128932150D01*
X111967132Y-128911107D01*
X111981747Y-128891401D01*
X111998223Y-128873223D01*
X112016401Y-128856747D01*
X112036107Y-128842132D01*
X112057150Y-128829520D01*
X112079329Y-128819030D01*
X112102428Y-128810765D01*
X112126227Y-128804804D01*
X112150495Y-128801204D01*
X112174999Y-128800000D01*
X112825001Y-128800000D01*
X112849505Y-128801204D01*
X112849505Y-128801204D01*
G37*
D14*
X112500000Y-129500000D03*
D13*
G36*
X114899505Y-128801204D02*
G01*
X114923773Y-128804804D01*
X114947572Y-128810765D01*
X114970671Y-128819030D01*
X114992850Y-128829520D01*
X115013893Y-128842132D01*
X115033599Y-128856747D01*
X115051777Y-128873223D01*
X115068253Y-128891401D01*
X115082868Y-128911107D01*
X115095480Y-128932150D01*
X115105970Y-128954329D01*
X115114235Y-128977428D01*
X115120196Y-129001227D01*
X115123796Y-129025495D01*
X115125000Y-129049999D01*
X115125000Y-129950001D01*
X115123796Y-129974505D01*
X115120196Y-129998773D01*
X115114235Y-130022572D01*
X115105970Y-130045671D01*
X115095480Y-130067850D01*
X115082868Y-130088893D01*
X115068253Y-130108599D01*
X115051777Y-130126777D01*
X115033599Y-130143253D01*
X115013893Y-130157868D01*
X114992850Y-130170480D01*
X114970671Y-130180970D01*
X114947572Y-130189235D01*
X114923773Y-130195196D01*
X114899505Y-130198796D01*
X114875001Y-130200000D01*
X114224999Y-130200000D01*
X114200495Y-130198796D01*
X114176227Y-130195196D01*
X114152428Y-130189235D01*
X114129329Y-130180970D01*
X114107150Y-130170480D01*
X114086107Y-130157868D01*
X114066401Y-130143253D01*
X114048223Y-130126777D01*
X114031747Y-130108599D01*
X114017132Y-130088893D01*
X114004520Y-130067850D01*
X113994030Y-130045671D01*
X113985765Y-130022572D01*
X113979804Y-129998773D01*
X113976204Y-129974505D01*
X113975000Y-129950001D01*
X113975000Y-129049999D01*
X113976204Y-129025495D01*
X113979804Y-129001227D01*
X113985765Y-128977428D01*
X113994030Y-128954329D01*
X114004520Y-128932150D01*
X114017132Y-128911107D01*
X114031747Y-128891401D01*
X114048223Y-128873223D01*
X114066401Y-128856747D01*
X114086107Y-128842132D01*
X114107150Y-128829520D01*
X114129329Y-128819030D01*
X114152428Y-128810765D01*
X114176227Y-128804804D01*
X114200495Y-128801204D01*
X114224999Y-128800000D01*
X114875001Y-128800000D01*
X114899505Y-128801204D01*
X114899505Y-128801204D01*
G37*
D14*
X114550000Y-129500000D03*
D13*
G36*
X112849505Y-126801204D02*
G01*
X112873773Y-126804804D01*
X112897572Y-126810765D01*
X112920671Y-126819030D01*
X112942850Y-126829520D01*
X112963893Y-126842132D01*
X112983599Y-126856747D01*
X113001777Y-126873223D01*
X113018253Y-126891401D01*
X113032868Y-126911107D01*
X113045480Y-126932150D01*
X113055970Y-126954329D01*
X113064235Y-126977428D01*
X113070196Y-127001227D01*
X113073796Y-127025495D01*
X113075000Y-127049999D01*
X113075000Y-127950001D01*
X113073796Y-127974505D01*
X113070196Y-127998773D01*
X113064235Y-128022572D01*
X113055970Y-128045671D01*
X113045480Y-128067850D01*
X113032868Y-128088893D01*
X113018253Y-128108599D01*
X113001777Y-128126777D01*
X112983599Y-128143253D01*
X112963893Y-128157868D01*
X112942850Y-128170480D01*
X112920671Y-128180970D01*
X112897572Y-128189235D01*
X112873773Y-128195196D01*
X112849505Y-128198796D01*
X112825001Y-128200000D01*
X112174999Y-128200000D01*
X112150495Y-128198796D01*
X112126227Y-128195196D01*
X112102428Y-128189235D01*
X112079329Y-128180970D01*
X112057150Y-128170480D01*
X112036107Y-128157868D01*
X112016401Y-128143253D01*
X111998223Y-128126777D01*
X111981747Y-128108599D01*
X111967132Y-128088893D01*
X111954520Y-128067850D01*
X111944030Y-128045671D01*
X111935765Y-128022572D01*
X111929804Y-127998773D01*
X111926204Y-127974505D01*
X111925000Y-127950001D01*
X111925000Y-127049999D01*
X111926204Y-127025495D01*
X111929804Y-127001227D01*
X111935765Y-126977428D01*
X111944030Y-126954329D01*
X111954520Y-126932150D01*
X111967132Y-126911107D01*
X111981747Y-126891401D01*
X111998223Y-126873223D01*
X112016401Y-126856747D01*
X112036107Y-126842132D01*
X112057150Y-126829520D01*
X112079329Y-126819030D01*
X112102428Y-126810765D01*
X112126227Y-126804804D01*
X112150495Y-126801204D01*
X112174999Y-126800000D01*
X112825001Y-126800000D01*
X112849505Y-126801204D01*
X112849505Y-126801204D01*
G37*
D14*
X112500000Y-127500000D03*
D13*
G36*
X114899505Y-126801204D02*
G01*
X114923773Y-126804804D01*
X114947572Y-126810765D01*
X114970671Y-126819030D01*
X114992850Y-126829520D01*
X115013893Y-126842132D01*
X115033599Y-126856747D01*
X115051777Y-126873223D01*
X115068253Y-126891401D01*
X115082868Y-126911107D01*
X115095480Y-126932150D01*
X115105970Y-126954329D01*
X115114235Y-126977428D01*
X115120196Y-127001227D01*
X115123796Y-127025495D01*
X115125000Y-127049999D01*
X115125000Y-127950001D01*
X115123796Y-127974505D01*
X115120196Y-127998773D01*
X115114235Y-128022572D01*
X115105970Y-128045671D01*
X115095480Y-128067850D01*
X115082868Y-128088893D01*
X115068253Y-128108599D01*
X115051777Y-128126777D01*
X115033599Y-128143253D01*
X115013893Y-128157868D01*
X114992850Y-128170480D01*
X114970671Y-128180970D01*
X114947572Y-128189235D01*
X114923773Y-128195196D01*
X114899505Y-128198796D01*
X114875001Y-128200000D01*
X114224999Y-128200000D01*
X114200495Y-128198796D01*
X114176227Y-128195196D01*
X114152428Y-128189235D01*
X114129329Y-128180970D01*
X114107150Y-128170480D01*
X114086107Y-128157868D01*
X114066401Y-128143253D01*
X114048223Y-128126777D01*
X114031747Y-128108599D01*
X114017132Y-128088893D01*
X114004520Y-128067850D01*
X113994030Y-128045671D01*
X113985765Y-128022572D01*
X113979804Y-127998773D01*
X113976204Y-127974505D01*
X113975000Y-127950001D01*
X113975000Y-127049999D01*
X113976204Y-127025495D01*
X113979804Y-127001227D01*
X113985765Y-126977428D01*
X113994030Y-126954329D01*
X114004520Y-126932150D01*
X114017132Y-126911107D01*
X114031747Y-126891401D01*
X114048223Y-126873223D01*
X114066401Y-126856747D01*
X114086107Y-126842132D01*
X114107150Y-126829520D01*
X114129329Y-126819030D01*
X114152428Y-126810765D01*
X114176227Y-126804804D01*
X114200495Y-126801204D01*
X114224999Y-126800000D01*
X114875001Y-126800000D01*
X114899505Y-126801204D01*
X114899505Y-126801204D01*
G37*
D14*
X114550000Y-127500000D03*
D13*
G36*
X110874505Y-128801204D02*
G01*
X110898773Y-128804804D01*
X110922572Y-128810765D01*
X110945671Y-128819030D01*
X110967850Y-128829520D01*
X110988893Y-128842132D01*
X111008599Y-128856747D01*
X111026777Y-128873223D01*
X111043253Y-128891401D01*
X111057868Y-128911107D01*
X111070480Y-128932150D01*
X111080970Y-128954329D01*
X111089235Y-128977428D01*
X111095196Y-129001227D01*
X111098796Y-129025495D01*
X111100000Y-129049999D01*
X111100000Y-129950001D01*
X111098796Y-129974505D01*
X111095196Y-129998773D01*
X111089235Y-130022572D01*
X111080970Y-130045671D01*
X111070480Y-130067850D01*
X111057868Y-130088893D01*
X111043253Y-130108599D01*
X111026777Y-130126777D01*
X111008599Y-130143253D01*
X110988893Y-130157868D01*
X110967850Y-130170480D01*
X110945671Y-130180970D01*
X110922572Y-130189235D01*
X110898773Y-130195196D01*
X110874505Y-130198796D01*
X110850001Y-130200000D01*
X110199999Y-130200000D01*
X110175495Y-130198796D01*
X110151227Y-130195196D01*
X110127428Y-130189235D01*
X110104329Y-130180970D01*
X110082150Y-130170480D01*
X110061107Y-130157868D01*
X110041401Y-130143253D01*
X110023223Y-130126777D01*
X110006747Y-130108599D01*
X109992132Y-130088893D01*
X109979520Y-130067850D01*
X109969030Y-130045671D01*
X109960765Y-130022572D01*
X109954804Y-129998773D01*
X109951204Y-129974505D01*
X109950000Y-129950001D01*
X109950000Y-129049999D01*
X109951204Y-129025495D01*
X109954804Y-129001227D01*
X109960765Y-128977428D01*
X109969030Y-128954329D01*
X109979520Y-128932150D01*
X109992132Y-128911107D01*
X110006747Y-128891401D01*
X110023223Y-128873223D01*
X110041401Y-128856747D01*
X110061107Y-128842132D01*
X110082150Y-128829520D01*
X110104329Y-128819030D01*
X110127428Y-128810765D01*
X110151227Y-128804804D01*
X110175495Y-128801204D01*
X110199999Y-128800000D01*
X110850001Y-128800000D01*
X110874505Y-128801204D01*
X110874505Y-128801204D01*
G37*
D14*
X110525000Y-129500000D03*
D13*
G36*
X108824505Y-128801204D02*
G01*
X108848773Y-128804804D01*
X108872572Y-128810765D01*
X108895671Y-128819030D01*
X108917850Y-128829520D01*
X108938893Y-128842132D01*
X108958599Y-128856747D01*
X108976777Y-128873223D01*
X108993253Y-128891401D01*
X109007868Y-128911107D01*
X109020480Y-128932150D01*
X109030970Y-128954329D01*
X109039235Y-128977428D01*
X109045196Y-129001227D01*
X109048796Y-129025495D01*
X109050000Y-129049999D01*
X109050000Y-129950001D01*
X109048796Y-129974505D01*
X109045196Y-129998773D01*
X109039235Y-130022572D01*
X109030970Y-130045671D01*
X109020480Y-130067850D01*
X109007868Y-130088893D01*
X108993253Y-130108599D01*
X108976777Y-130126777D01*
X108958599Y-130143253D01*
X108938893Y-130157868D01*
X108917850Y-130170480D01*
X108895671Y-130180970D01*
X108872572Y-130189235D01*
X108848773Y-130195196D01*
X108824505Y-130198796D01*
X108800001Y-130200000D01*
X108149999Y-130200000D01*
X108125495Y-130198796D01*
X108101227Y-130195196D01*
X108077428Y-130189235D01*
X108054329Y-130180970D01*
X108032150Y-130170480D01*
X108011107Y-130157868D01*
X107991401Y-130143253D01*
X107973223Y-130126777D01*
X107956747Y-130108599D01*
X107942132Y-130088893D01*
X107929520Y-130067850D01*
X107919030Y-130045671D01*
X107910765Y-130022572D01*
X107904804Y-129998773D01*
X107901204Y-129974505D01*
X107900000Y-129950001D01*
X107900000Y-129049999D01*
X107901204Y-129025495D01*
X107904804Y-129001227D01*
X107910765Y-128977428D01*
X107919030Y-128954329D01*
X107929520Y-128932150D01*
X107942132Y-128911107D01*
X107956747Y-128891401D01*
X107973223Y-128873223D01*
X107991401Y-128856747D01*
X108011107Y-128842132D01*
X108032150Y-128829520D01*
X108054329Y-128819030D01*
X108077428Y-128810765D01*
X108101227Y-128804804D01*
X108125495Y-128801204D01*
X108149999Y-128800000D01*
X108800001Y-128800000D01*
X108824505Y-128801204D01*
X108824505Y-128801204D01*
G37*
D14*
X108475000Y-129500000D03*
D13*
G36*
X110874505Y-126801204D02*
G01*
X110898773Y-126804804D01*
X110922572Y-126810765D01*
X110945671Y-126819030D01*
X110967850Y-126829520D01*
X110988893Y-126842132D01*
X111008599Y-126856747D01*
X111026777Y-126873223D01*
X111043253Y-126891401D01*
X111057868Y-126911107D01*
X111070480Y-126932150D01*
X111080970Y-126954329D01*
X111089235Y-126977428D01*
X111095196Y-127001227D01*
X111098796Y-127025495D01*
X111100000Y-127049999D01*
X111100000Y-127950001D01*
X111098796Y-127974505D01*
X111095196Y-127998773D01*
X111089235Y-128022572D01*
X111080970Y-128045671D01*
X111070480Y-128067850D01*
X111057868Y-128088893D01*
X111043253Y-128108599D01*
X111026777Y-128126777D01*
X111008599Y-128143253D01*
X110988893Y-128157868D01*
X110967850Y-128170480D01*
X110945671Y-128180970D01*
X110922572Y-128189235D01*
X110898773Y-128195196D01*
X110874505Y-128198796D01*
X110850001Y-128200000D01*
X110199999Y-128200000D01*
X110175495Y-128198796D01*
X110151227Y-128195196D01*
X110127428Y-128189235D01*
X110104329Y-128180970D01*
X110082150Y-128170480D01*
X110061107Y-128157868D01*
X110041401Y-128143253D01*
X110023223Y-128126777D01*
X110006747Y-128108599D01*
X109992132Y-128088893D01*
X109979520Y-128067850D01*
X109969030Y-128045671D01*
X109960765Y-128022572D01*
X109954804Y-127998773D01*
X109951204Y-127974505D01*
X109950000Y-127950001D01*
X109950000Y-127049999D01*
X109951204Y-127025495D01*
X109954804Y-127001227D01*
X109960765Y-126977428D01*
X109969030Y-126954329D01*
X109979520Y-126932150D01*
X109992132Y-126911107D01*
X110006747Y-126891401D01*
X110023223Y-126873223D01*
X110041401Y-126856747D01*
X110061107Y-126842132D01*
X110082150Y-126829520D01*
X110104329Y-126819030D01*
X110127428Y-126810765D01*
X110151227Y-126804804D01*
X110175495Y-126801204D01*
X110199999Y-126800000D01*
X110850001Y-126800000D01*
X110874505Y-126801204D01*
X110874505Y-126801204D01*
G37*
D14*
X110525000Y-127500000D03*
D13*
G36*
X108824505Y-126801204D02*
G01*
X108848773Y-126804804D01*
X108872572Y-126810765D01*
X108895671Y-126819030D01*
X108917850Y-126829520D01*
X108938893Y-126842132D01*
X108958599Y-126856747D01*
X108976777Y-126873223D01*
X108993253Y-126891401D01*
X109007868Y-126911107D01*
X109020480Y-126932150D01*
X109030970Y-126954329D01*
X109039235Y-126977428D01*
X109045196Y-127001227D01*
X109048796Y-127025495D01*
X109050000Y-127049999D01*
X109050000Y-127950001D01*
X109048796Y-127974505D01*
X109045196Y-127998773D01*
X109039235Y-128022572D01*
X109030970Y-128045671D01*
X109020480Y-128067850D01*
X109007868Y-128088893D01*
X108993253Y-128108599D01*
X108976777Y-128126777D01*
X108958599Y-128143253D01*
X108938893Y-128157868D01*
X108917850Y-128170480D01*
X108895671Y-128180970D01*
X108872572Y-128189235D01*
X108848773Y-128195196D01*
X108824505Y-128198796D01*
X108800001Y-128200000D01*
X108149999Y-128200000D01*
X108125495Y-128198796D01*
X108101227Y-128195196D01*
X108077428Y-128189235D01*
X108054329Y-128180970D01*
X108032150Y-128170480D01*
X108011107Y-128157868D01*
X107991401Y-128143253D01*
X107973223Y-128126777D01*
X107956747Y-128108599D01*
X107942132Y-128088893D01*
X107929520Y-128067850D01*
X107919030Y-128045671D01*
X107910765Y-128022572D01*
X107904804Y-127998773D01*
X107901204Y-127974505D01*
X107900000Y-127950001D01*
X107900000Y-127049999D01*
X107901204Y-127025495D01*
X107904804Y-127001227D01*
X107910765Y-126977428D01*
X107919030Y-126954329D01*
X107929520Y-126932150D01*
X107942132Y-126911107D01*
X107956747Y-126891401D01*
X107973223Y-126873223D01*
X107991401Y-126856747D01*
X108011107Y-126842132D01*
X108032150Y-126829520D01*
X108054329Y-126819030D01*
X108077428Y-126810765D01*
X108101227Y-126804804D01*
X108125495Y-126801204D01*
X108149999Y-126800000D01*
X108800001Y-126800000D01*
X108824505Y-126801204D01*
X108824505Y-126801204D01*
G37*
D14*
X108475000Y-127500000D03*
D13*
G36*
X99974505Y-128926204D02*
G01*
X99998773Y-128929804D01*
X100022572Y-128935765D01*
X100045671Y-128944030D01*
X100067850Y-128954520D01*
X100088893Y-128967132D01*
X100108599Y-128981747D01*
X100126777Y-128998223D01*
X100143253Y-129016401D01*
X100157868Y-129036107D01*
X100170480Y-129057150D01*
X100180970Y-129079329D01*
X100189235Y-129102428D01*
X100195196Y-129126227D01*
X100198796Y-129150495D01*
X100200000Y-129174999D01*
X100200000Y-129825001D01*
X100198796Y-129849505D01*
X100195196Y-129873773D01*
X100189235Y-129897572D01*
X100180970Y-129920671D01*
X100170480Y-129942850D01*
X100157868Y-129963893D01*
X100143253Y-129983599D01*
X100126777Y-130001777D01*
X100108599Y-130018253D01*
X100088893Y-130032868D01*
X100067850Y-130045480D01*
X100045671Y-130055970D01*
X100022572Y-130064235D01*
X99998773Y-130070196D01*
X99974505Y-130073796D01*
X99950001Y-130075000D01*
X99049999Y-130075000D01*
X99025495Y-130073796D01*
X99001227Y-130070196D01*
X98977428Y-130064235D01*
X98954329Y-130055970D01*
X98932150Y-130045480D01*
X98911107Y-130032868D01*
X98891401Y-130018253D01*
X98873223Y-130001777D01*
X98856747Y-129983599D01*
X98842132Y-129963893D01*
X98829520Y-129942850D01*
X98819030Y-129920671D01*
X98810765Y-129897572D01*
X98804804Y-129873773D01*
X98801204Y-129849505D01*
X98800000Y-129825001D01*
X98800000Y-129174999D01*
X98801204Y-129150495D01*
X98804804Y-129126227D01*
X98810765Y-129102428D01*
X98819030Y-129079329D01*
X98829520Y-129057150D01*
X98842132Y-129036107D01*
X98856747Y-129016401D01*
X98873223Y-128998223D01*
X98891401Y-128981747D01*
X98911107Y-128967132D01*
X98932150Y-128954520D01*
X98954329Y-128944030D01*
X98977428Y-128935765D01*
X99001227Y-128929804D01*
X99025495Y-128926204D01*
X99049999Y-128925000D01*
X99950001Y-128925000D01*
X99974505Y-128926204D01*
X99974505Y-128926204D01*
G37*
D14*
X99500000Y-129500000D03*
D13*
G36*
X99974505Y-130976204D02*
G01*
X99998773Y-130979804D01*
X100022572Y-130985765D01*
X100045671Y-130994030D01*
X100067850Y-131004520D01*
X100088893Y-131017132D01*
X100108599Y-131031747D01*
X100126777Y-131048223D01*
X100143253Y-131066401D01*
X100157868Y-131086107D01*
X100170480Y-131107150D01*
X100180970Y-131129329D01*
X100189235Y-131152428D01*
X100195196Y-131176227D01*
X100198796Y-131200495D01*
X100200000Y-131224999D01*
X100200000Y-131875001D01*
X100198796Y-131899505D01*
X100195196Y-131923773D01*
X100189235Y-131947572D01*
X100180970Y-131970671D01*
X100170480Y-131992850D01*
X100157868Y-132013893D01*
X100143253Y-132033599D01*
X100126777Y-132051777D01*
X100108599Y-132068253D01*
X100088893Y-132082868D01*
X100067850Y-132095480D01*
X100045671Y-132105970D01*
X100022572Y-132114235D01*
X99998773Y-132120196D01*
X99974505Y-132123796D01*
X99950001Y-132125000D01*
X99049999Y-132125000D01*
X99025495Y-132123796D01*
X99001227Y-132120196D01*
X98977428Y-132114235D01*
X98954329Y-132105970D01*
X98932150Y-132095480D01*
X98911107Y-132082868D01*
X98891401Y-132068253D01*
X98873223Y-132051777D01*
X98856747Y-132033599D01*
X98842132Y-132013893D01*
X98829520Y-131992850D01*
X98819030Y-131970671D01*
X98810765Y-131947572D01*
X98804804Y-131923773D01*
X98801204Y-131899505D01*
X98800000Y-131875001D01*
X98800000Y-131224999D01*
X98801204Y-131200495D01*
X98804804Y-131176227D01*
X98810765Y-131152428D01*
X98819030Y-131129329D01*
X98829520Y-131107150D01*
X98842132Y-131086107D01*
X98856747Y-131066401D01*
X98873223Y-131048223D01*
X98891401Y-131031747D01*
X98911107Y-131017132D01*
X98932150Y-131004520D01*
X98954329Y-130994030D01*
X98977428Y-130985765D01*
X99001227Y-130979804D01*
X99025495Y-130976204D01*
X99049999Y-130975000D01*
X99950001Y-130975000D01*
X99974505Y-130976204D01*
X99974505Y-130976204D01*
G37*
D14*
X99500000Y-131550000D03*
D22*
X93000000Y-63000000D03*
X91000000Y-63950000D03*
X91000000Y-62050000D03*
X88500000Y-129500000D03*
X90500000Y-128550000D03*
X90500000Y-130450000D03*
D23*
X124000000Y-76000000D03*
X124000000Y-63800000D03*
X136000000Y-63800000D03*
X136000000Y-76000000D03*
D24*
X130000000Y-78000000D03*
D23*
X121500000Y-100000000D03*
X133700000Y-100000000D03*
X133700000Y-112000000D03*
X121500000Y-112000000D03*
D24*
X119500000Y-106000000D03*
D23*
X121500000Y-117500000D03*
X133700000Y-117500000D03*
X133700000Y-129500000D03*
X121500000Y-129500000D03*
D24*
X119500000Y-123500000D03*
D23*
X90000000Y-125000000D03*
X77800000Y-125000000D03*
X77800000Y-113000000D03*
X90000000Y-113000000D03*
D24*
X92000000Y-119000000D03*
D25*
X112500000Y-85000000D03*
X107500000Y-85000000D03*
D26*
X117500000Y-85000000D03*
D25*
X102500000Y-85000000D03*
X97500000Y-85000000D03*
X92500000Y-85000000D03*
D27*
X127660000Y-52960000D03*
X127660000Y-55500000D03*
X125120000Y-52960000D03*
X125120000Y-55500000D03*
X122580000Y-52960000D03*
X122580000Y-55500000D03*
X120040000Y-52960000D03*
X120040000Y-55500000D03*
X117500000Y-52960000D03*
D28*
X117500000Y-55500000D03*
D27*
X105500000Y-52960000D03*
X105500000Y-55500000D03*
X102960000Y-52960000D03*
X102960000Y-55500000D03*
X100420000Y-52960000D03*
X100420000Y-55500000D03*
X97880000Y-52960000D03*
X97880000Y-55500000D03*
X95340000Y-52960000D03*
X95340000Y-55500000D03*
X92800000Y-52960000D03*
X92800000Y-55500000D03*
X90260000Y-52960000D03*
X90260000Y-55500000D03*
X87720000Y-52960000D03*
X87720000Y-55500000D03*
X85180000Y-52960000D03*
X85180000Y-55500000D03*
X82640000Y-52960000D03*
D28*
X82640000Y-55500000D03*
D27*
X104500000Y-145040000D03*
X104500000Y-142500000D03*
X107040000Y-145040000D03*
X107040000Y-142500000D03*
X109580000Y-145040000D03*
X109580000Y-142500000D03*
X112120000Y-145040000D03*
X112120000Y-142500000D03*
X114660000Y-145040000D03*
X114660000Y-142500000D03*
X117200000Y-145040000D03*
X117200000Y-142500000D03*
X119740000Y-145040000D03*
X119740000Y-142500000D03*
X122280000Y-145040000D03*
X122280000Y-142500000D03*
X124820000Y-145040000D03*
X124820000Y-142500000D03*
X127360000Y-145040000D03*
D28*
X127360000Y-142500000D03*
D27*
X82340000Y-145040000D03*
X82340000Y-142500000D03*
X84880000Y-145040000D03*
X84880000Y-142500000D03*
X87420000Y-145040000D03*
X87420000Y-142500000D03*
X89960000Y-145040000D03*
X89960000Y-142500000D03*
X92500000Y-145040000D03*
D28*
X92500000Y-142500000D03*
D25*
X129800000Y-93000000D03*
X124800000Y-93000000D03*
X119800000Y-93000000D03*
X114800000Y-93000000D03*
X109800000Y-93000000D03*
X104800000Y-93000000D03*
X99800000Y-93000000D03*
X94800000Y-93000000D03*
D26*
X79800000Y-93000000D03*
D25*
X89800000Y-93000000D03*
X84800000Y-93000000D03*
D10*
X116000000Y-76500000D03*
D11*
X105840000Y-76500000D03*
D15*
X104500000Y-117380000D03*
D18*
X104500000Y-125000000D03*
D10*
X90500000Y-105250000D03*
D11*
X80340000Y-105250000D03*
D29*
X81000000Y-62500000D03*
X81000000Y-77500000D03*
D16*
X97500000Y-60500000D03*
D18*
X97500000Y-62500000D03*
D13*
G36*
X138474505Y-139476204D02*
G01*
X138498773Y-139479804D01*
X138522572Y-139485765D01*
X138545671Y-139494030D01*
X138567850Y-139504520D01*
X138588893Y-139517132D01*
X138608599Y-139531747D01*
X138626777Y-139548223D01*
X138643253Y-139566401D01*
X138657868Y-139586107D01*
X138670480Y-139607150D01*
X138680970Y-139629329D01*
X138689235Y-139652428D01*
X138695196Y-139676227D01*
X138698796Y-139700495D01*
X138700000Y-139724999D01*
X138700000Y-140375001D01*
X138698796Y-140399505D01*
X138695196Y-140423773D01*
X138689235Y-140447572D01*
X138680970Y-140470671D01*
X138670480Y-140492850D01*
X138657868Y-140513893D01*
X138643253Y-140533599D01*
X138626777Y-140551777D01*
X138608599Y-140568253D01*
X138588893Y-140582868D01*
X138567850Y-140595480D01*
X138545671Y-140605970D01*
X138522572Y-140614235D01*
X138498773Y-140620196D01*
X138474505Y-140623796D01*
X138450001Y-140625000D01*
X137549999Y-140625000D01*
X137525495Y-140623796D01*
X137501227Y-140620196D01*
X137477428Y-140614235D01*
X137454329Y-140605970D01*
X137432150Y-140595480D01*
X137411107Y-140582868D01*
X137391401Y-140568253D01*
X137373223Y-140551777D01*
X137356747Y-140533599D01*
X137342132Y-140513893D01*
X137329520Y-140492850D01*
X137319030Y-140470671D01*
X137310765Y-140447572D01*
X137304804Y-140423773D01*
X137301204Y-140399505D01*
X137300000Y-140375001D01*
X137300000Y-139724999D01*
X137301204Y-139700495D01*
X137304804Y-139676227D01*
X137310765Y-139652428D01*
X137319030Y-139629329D01*
X137329520Y-139607150D01*
X137342132Y-139586107D01*
X137356747Y-139566401D01*
X137373223Y-139548223D01*
X137391401Y-139531747D01*
X137411107Y-139517132D01*
X137432150Y-139504520D01*
X137454329Y-139494030D01*
X137477428Y-139485765D01*
X137501227Y-139479804D01*
X137525495Y-139476204D01*
X137549999Y-139475000D01*
X138450001Y-139475000D01*
X138474505Y-139476204D01*
X138474505Y-139476204D01*
G37*
D14*
X138000000Y-140050000D03*
D13*
G36*
X138474505Y-137426204D02*
G01*
X138498773Y-137429804D01*
X138522572Y-137435765D01*
X138545671Y-137444030D01*
X138567850Y-137454520D01*
X138588893Y-137467132D01*
X138608599Y-137481747D01*
X138626777Y-137498223D01*
X138643253Y-137516401D01*
X138657868Y-137536107D01*
X138670480Y-137557150D01*
X138680970Y-137579329D01*
X138689235Y-137602428D01*
X138695196Y-137626227D01*
X138698796Y-137650495D01*
X138700000Y-137674999D01*
X138700000Y-138325001D01*
X138698796Y-138349505D01*
X138695196Y-138373773D01*
X138689235Y-138397572D01*
X138680970Y-138420671D01*
X138670480Y-138442850D01*
X138657868Y-138463893D01*
X138643253Y-138483599D01*
X138626777Y-138501777D01*
X138608599Y-138518253D01*
X138588893Y-138532868D01*
X138567850Y-138545480D01*
X138545671Y-138555970D01*
X138522572Y-138564235D01*
X138498773Y-138570196D01*
X138474505Y-138573796D01*
X138450001Y-138575000D01*
X137549999Y-138575000D01*
X137525495Y-138573796D01*
X137501227Y-138570196D01*
X137477428Y-138564235D01*
X137454329Y-138555970D01*
X137432150Y-138545480D01*
X137411107Y-138532868D01*
X137391401Y-138518253D01*
X137373223Y-138501777D01*
X137356747Y-138483599D01*
X137342132Y-138463893D01*
X137329520Y-138442850D01*
X137319030Y-138420671D01*
X137310765Y-138397572D01*
X137304804Y-138373773D01*
X137301204Y-138349505D01*
X137300000Y-138325001D01*
X137300000Y-137674999D01*
X137301204Y-137650495D01*
X137304804Y-137626227D01*
X137310765Y-137602428D01*
X137319030Y-137579329D01*
X137329520Y-137557150D01*
X137342132Y-137536107D01*
X137356747Y-137516401D01*
X137373223Y-137498223D01*
X137391401Y-137481747D01*
X137411107Y-137467132D01*
X137432150Y-137454520D01*
X137454329Y-137444030D01*
X137477428Y-137435765D01*
X137501227Y-137429804D01*
X137525495Y-137426204D01*
X137549999Y-137425000D01*
X138450001Y-137425000D01*
X138474505Y-137426204D01*
X138474505Y-137426204D01*
G37*
D14*
X138000000Y-138000000D03*
D13*
G36*
X107849505Y-135051204D02*
G01*
X107873773Y-135054804D01*
X107897572Y-135060765D01*
X107920671Y-135069030D01*
X107942850Y-135079520D01*
X107963893Y-135092132D01*
X107983599Y-135106747D01*
X108001777Y-135123223D01*
X108018253Y-135141401D01*
X108032868Y-135161107D01*
X108045480Y-135182150D01*
X108055970Y-135204329D01*
X108064235Y-135227428D01*
X108070196Y-135251227D01*
X108073796Y-135275495D01*
X108075000Y-135299999D01*
X108075000Y-136200001D01*
X108073796Y-136224505D01*
X108070196Y-136248773D01*
X108064235Y-136272572D01*
X108055970Y-136295671D01*
X108045480Y-136317850D01*
X108032868Y-136338893D01*
X108018253Y-136358599D01*
X108001777Y-136376777D01*
X107983599Y-136393253D01*
X107963893Y-136407868D01*
X107942850Y-136420480D01*
X107920671Y-136430970D01*
X107897572Y-136439235D01*
X107873773Y-136445196D01*
X107849505Y-136448796D01*
X107825001Y-136450000D01*
X107174999Y-136450000D01*
X107150495Y-136448796D01*
X107126227Y-136445196D01*
X107102428Y-136439235D01*
X107079329Y-136430970D01*
X107057150Y-136420480D01*
X107036107Y-136407868D01*
X107016401Y-136393253D01*
X106998223Y-136376777D01*
X106981747Y-136358599D01*
X106967132Y-136338893D01*
X106954520Y-136317850D01*
X106944030Y-136295671D01*
X106935765Y-136272572D01*
X106929804Y-136248773D01*
X106926204Y-136224505D01*
X106925000Y-136200001D01*
X106925000Y-135299999D01*
X106926204Y-135275495D01*
X106929804Y-135251227D01*
X106935765Y-135227428D01*
X106944030Y-135204329D01*
X106954520Y-135182150D01*
X106967132Y-135161107D01*
X106981747Y-135141401D01*
X106998223Y-135123223D01*
X107016401Y-135106747D01*
X107036107Y-135092132D01*
X107057150Y-135079520D01*
X107079329Y-135069030D01*
X107102428Y-135060765D01*
X107126227Y-135054804D01*
X107150495Y-135051204D01*
X107174999Y-135050000D01*
X107825001Y-135050000D01*
X107849505Y-135051204D01*
X107849505Y-135051204D01*
G37*
D14*
X107500000Y-135750000D03*
D13*
G36*
X105799505Y-135051204D02*
G01*
X105823773Y-135054804D01*
X105847572Y-135060765D01*
X105870671Y-135069030D01*
X105892850Y-135079520D01*
X105913893Y-135092132D01*
X105933599Y-135106747D01*
X105951777Y-135123223D01*
X105968253Y-135141401D01*
X105982868Y-135161107D01*
X105995480Y-135182150D01*
X106005970Y-135204329D01*
X106014235Y-135227428D01*
X106020196Y-135251227D01*
X106023796Y-135275495D01*
X106025000Y-135299999D01*
X106025000Y-136200001D01*
X106023796Y-136224505D01*
X106020196Y-136248773D01*
X106014235Y-136272572D01*
X106005970Y-136295671D01*
X105995480Y-136317850D01*
X105982868Y-136338893D01*
X105968253Y-136358599D01*
X105951777Y-136376777D01*
X105933599Y-136393253D01*
X105913893Y-136407868D01*
X105892850Y-136420480D01*
X105870671Y-136430970D01*
X105847572Y-136439235D01*
X105823773Y-136445196D01*
X105799505Y-136448796D01*
X105775001Y-136450000D01*
X105124999Y-136450000D01*
X105100495Y-136448796D01*
X105076227Y-136445196D01*
X105052428Y-136439235D01*
X105029329Y-136430970D01*
X105007150Y-136420480D01*
X104986107Y-136407868D01*
X104966401Y-136393253D01*
X104948223Y-136376777D01*
X104931747Y-136358599D01*
X104917132Y-136338893D01*
X104904520Y-136317850D01*
X104894030Y-136295671D01*
X104885765Y-136272572D01*
X104879804Y-136248773D01*
X104876204Y-136224505D01*
X104875000Y-136200001D01*
X104875000Y-135299999D01*
X104876204Y-135275495D01*
X104879804Y-135251227D01*
X104885765Y-135227428D01*
X104894030Y-135204329D01*
X104904520Y-135182150D01*
X104917132Y-135161107D01*
X104931747Y-135141401D01*
X104948223Y-135123223D01*
X104966401Y-135106747D01*
X104986107Y-135092132D01*
X105007150Y-135079520D01*
X105029329Y-135069030D01*
X105052428Y-135060765D01*
X105076227Y-135054804D01*
X105100495Y-135051204D01*
X105124999Y-135050000D01*
X105775001Y-135050000D01*
X105799505Y-135051204D01*
X105799505Y-135051204D01*
G37*
D14*
X105450000Y-135750000D03*
D13*
G36*
X119899505Y-135301204D02*
G01*
X119923773Y-135304804D01*
X119947572Y-135310765D01*
X119970671Y-135319030D01*
X119992850Y-135329520D01*
X120013893Y-135342132D01*
X120033599Y-135356747D01*
X120051777Y-135373223D01*
X120068253Y-135391401D01*
X120082868Y-135411107D01*
X120095480Y-135432150D01*
X120105970Y-135454329D01*
X120114235Y-135477428D01*
X120120196Y-135501227D01*
X120123796Y-135525495D01*
X120125000Y-135549999D01*
X120125000Y-136450001D01*
X120123796Y-136474505D01*
X120120196Y-136498773D01*
X120114235Y-136522572D01*
X120105970Y-136545671D01*
X120095480Y-136567850D01*
X120082868Y-136588893D01*
X120068253Y-136608599D01*
X120051777Y-136626777D01*
X120033599Y-136643253D01*
X120013893Y-136657868D01*
X119992850Y-136670480D01*
X119970671Y-136680970D01*
X119947572Y-136689235D01*
X119923773Y-136695196D01*
X119899505Y-136698796D01*
X119875001Y-136700000D01*
X119224999Y-136700000D01*
X119200495Y-136698796D01*
X119176227Y-136695196D01*
X119152428Y-136689235D01*
X119129329Y-136680970D01*
X119107150Y-136670480D01*
X119086107Y-136657868D01*
X119066401Y-136643253D01*
X119048223Y-136626777D01*
X119031747Y-136608599D01*
X119017132Y-136588893D01*
X119004520Y-136567850D01*
X118994030Y-136545671D01*
X118985765Y-136522572D01*
X118979804Y-136498773D01*
X118976204Y-136474505D01*
X118975000Y-136450001D01*
X118975000Y-135549999D01*
X118976204Y-135525495D01*
X118979804Y-135501227D01*
X118985765Y-135477428D01*
X118994030Y-135454329D01*
X119004520Y-135432150D01*
X119017132Y-135411107D01*
X119031747Y-135391401D01*
X119048223Y-135373223D01*
X119066401Y-135356747D01*
X119086107Y-135342132D01*
X119107150Y-135329520D01*
X119129329Y-135319030D01*
X119152428Y-135310765D01*
X119176227Y-135304804D01*
X119200495Y-135301204D01*
X119224999Y-135300000D01*
X119875001Y-135300000D01*
X119899505Y-135301204D01*
X119899505Y-135301204D01*
G37*
D14*
X119550000Y-136000000D03*
D13*
G36*
X117849505Y-135301204D02*
G01*
X117873773Y-135304804D01*
X117897572Y-135310765D01*
X117920671Y-135319030D01*
X117942850Y-135329520D01*
X117963893Y-135342132D01*
X117983599Y-135356747D01*
X118001777Y-135373223D01*
X118018253Y-135391401D01*
X118032868Y-135411107D01*
X118045480Y-135432150D01*
X118055970Y-135454329D01*
X118064235Y-135477428D01*
X118070196Y-135501227D01*
X118073796Y-135525495D01*
X118075000Y-135549999D01*
X118075000Y-136450001D01*
X118073796Y-136474505D01*
X118070196Y-136498773D01*
X118064235Y-136522572D01*
X118055970Y-136545671D01*
X118045480Y-136567850D01*
X118032868Y-136588893D01*
X118018253Y-136608599D01*
X118001777Y-136626777D01*
X117983599Y-136643253D01*
X117963893Y-136657868D01*
X117942850Y-136670480D01*
X117920671Y-136680970D01*
X117897572Y-136689235D01*
X117873773Y-136695196D01*
X117849505Y-136698796D01*
X117825001Y-136700000D01*
X117174999Y-136700000D01*
X117150495Y-136698796D01*
X117126227Y-136695196D01*
X117102428Y-136689235D01*
X117079329Y-136680970D01*
X117057150Y-136670480D01*
X117036107Y-136657868D01*
X117016401Y-136643253D01*
X116998223Y-136626777D01*
X116981747Y-136608599D01*
X116967132Y-136588893D01*
X116954520Y-136567850D01*
X116944030Y-136545671D01*
X116935765Y-136522572D01*
X116929804Y-136498773D01*
X116926204Y-136474505D01*
X116925000Y-136450001D01*
X116925000Y-135549999D01*
X116926204Y-135525495D01*
X116929804Y-135501227D01*
X116935765Y-135477428D01*
X116944030Y-135454329D01*
X116954520Y-135432150D01*
X116967132Y-135411107D01*
X116981747Y-135391401D01*
X116998223Y-135373223D01*
X117016401Y-135356747D01*
X117036107Y-135342132D01*
X117057150Y-135329520D01*
X117079329Y-135319030D01*
X117102428Y-135310765D01*
X117126227Y-135304804D01*
X117150495Y-135301204D01*
X117174999Y-135300000D01*
X117825001Y-135300000D01*
X117849505Y-135301204D01*
X117849505Y-135301204D01*
G37*
D14*
X117500000Y-136000000D03*
D13*
G36*
X119899505Y-133301204D02*
G01*
X119923773Y-133304804D01*
X119947572Y-133310765D01*
X119970671Y-133319030D01*
X119992850Y-133329520D01*
X120013893Y-133342132D01*
X120033599Y-133356747D01*
X120051777Y-133373223D01*
X120068253Y-133391401D01*
X120082868Y-133411107D01*
X120095480Y-133432150D01*
X120105970Y-133454329D01*
X120114235Y-133477428D01*
X120120196Y-133501227D01*
X120123796Y-133525495D01*
X120125000Y-133549999D01*
X120125000Y-134450001D01*
X120123796Y-134474505D01*
X120120196Y-134498773D01*
X120114235Y-134522572D01*
X120105970Y-134545671D01*
X120095480Y-134567850D01*
X120082868Y-134588893D01*
X120068253Y-134608599D01*
X120051777Y-134626777D01*
X120033599Y-134643253D01*
X120013893Y-134657868D01*
X119992850Y-134670480D01*
X119970671Y-134680970D01*
X119947572Y-134689235D01*
X119923773Y-134695196D01*
X119899505Y-134698796D01*
X119875001Y-134700000D01*
X119224999Y-134700000D01*
X119200495Y-134698796D01*
X119176227Y-134695196D01*
X119152428Y-134689235D01*
X119129329Y-134680970D01*
X119107150Y-134670480D01*
X119086107Y-134657868D01*
X119066401Y-134643253D01*
X119048223Y-134626777D01*
X119031747Y-134608599D01*
X119017132Y-134588893D01*
X119004520Y-134567850D01*
X118994030Y-134545671D01*
X118985765Y-134522572D01*
X118979804Y-134498773D01*
X118976204Y-134474505D01*
X118975000Y-134450001D01*
X118975000Y-133549999D01*
X118976204Y-133525495D01*
X118979804Y-133501227D01*
X118985765Y-133477428D01*
X118994030Y-133454329D01*
X119004520Y-133432150D01*
X119017132Y-133411107D01*
X119031747Y-133391401D01*
X119048223Y-133373223D01*
X119066401Y-133356747D01*
X119086107Y-133342132D01*
X119107150Y-133329520D01*
X119129329Y-133319030D01*
X119152428Y-133310765D01*
X119176227Y-133304804D01*
X119200495Y-133301204D01*
X119224999Y-133300000D01*
X119875001Y-133300000D01*
X119899505Y-133301204D01*
X119899505Y-133301204D01*
G37*
D14*
X119550000Y-134000000D03*
D13*
G36*
X117849505Y-133301204D02*
G01*
X117873773Y-133304804D01*
X117897572Y-133310765D01*
X117920671Y-133319030D01*
X117942850Y-133329520D01*
X117963893Y-133342132D01*
X117983599Y-133356747D01*
X118001777Y-133373223D01*
X118018253Y-133391401D01*
X118032868Y-133411107D01*
X118045480Y-133432150D01*
X118055970Y-133454329D01*
X118064235Y-133477428D01*
X118070196Y-133501227D01*
X118073796Y-133525495D01*
X118075000Y-133549999D01*
X118075000Y-134450001D01*
X118073796Y-134474505D01*
X118070196Y-134498773D01*
X118064235Y-134522572D01*
X118055970Y-134545671D01*
X118045480Y-134567850D01*
X118032868Y-134588893D01*
X118018253Y-134608599D01*
X118001777Y-134626777D01*
X117983599Y-134643253D01*
X117963893Y-134657868D01*
X117942850Y-134670480D01*
X117920671Y-134680970D01*
X117897572Y-134689235D01*
X117873773Y-134695196D01*
X117849505Y-134698796D01*
X117825001Y-134700000D01*
X117174999Y-134700000D01*
X117150495Y-134698796D01*
X117126227Y-134695196D01*
X117102428Y-134689235D01*
X117079329Y-134680970D01*
X117057150Y-134670480D01*
X117036107Y-134657868D01*
X117016401Y-134643253D01*
X116998223Y-134626777D01*
X116981747Y-134608599D01*
X116967132Y-134588893D01*
X116954520Y-134567850D01*
X116944030Y-134545671D01*
X116935765Y-134522572D01*
X116929804Y-134498773D01*
X116926204Y-134474505D01*
X116925000Y-134450001D01*
X116925000Y-133549999D01*
X116926204Y-133525495D01*
X116929804Y-133501227D01*
X116935765Y-133477428D01*
X116944030Y-133454329D01*
X116954520Y-133432150D01*
X116967132Y-133411107D01*
X116981747Y-133391401D01*
X116998223Y-133373223D01*
X117016401Y-133356747D01*
X117036107Y-133342132D01*
X117057150Y-133329520D01*
X117079329Y-133319030D01*
X117102428Y-133310765D01*
X117126227Y-133304804D01*
X117150495Y-133301204D01*
X117174999Y-133300000D01*
X117825001Y-133300000D01*
X117849505Y-133301204D01*
X117849505Y-133301204D01*
G37*
D14*
X117500000Y-134000000D03*
D30*
X131250000Y-139750000D03*
X119500000Y-132250000D03*
X108000000Y-131750000D03*
X107750000Y-137750000D03*
X99000000Y-127500000D03*
X101750000Y-136750000D03*
X94000000Y-125000000D03*
D31*
X101000000Y-142500000D03*
D30*
X115000000Y-137750000D03*
X122400000Y-132750000D03*
X135500000Y-132750000D03*
X123250000Y-124000000D03*
X122250000Y-103500000D03*
X105500000Y-138000000D03*
X105500000Y-58000000D03*
X99590995Y-133409004D03*
X95000000Y-130000000D03*
X122493629Y-138193609D03*
X125750000Y-128000000D03*
X124750000Y-138199980D03*
X128750000Y-107000000D03*
X92500000Y-66500000D03*
X109500000Y-54000000D03*
X126250000Y-112500000D03*
D32*
X104500000Y-115120000D02*
X103380000Y-114000000D01*
X104500000Y-117380000D02*
X104500000Y-115120000D01*
D33*
X99835770Y-127500000D02*
X99000000Y-127500000D01*
X101595000Y-128375000D02*
X100710770Y-128375000D01*
X100710770Y-128375000D02*
X99835770Y-127500000D01*
D34*
X119550000Y-136000000D02*
X119550000Y-134000000D01*
D33*
X131250000Y-138940000D02*
X131250000Y-139750000D01*
X130350000Y-138040000D02*
X131250000Y-138940000D01*
X131250000Y-140810660D02*
X131250000Y-139750000D01*
X131889350Y-141450010D02*
X131250000Y-140810660D01*
X137549990Y-141450010D02*
X131889350Y-141450010D01*
X138000000Y-141000000D02*
X137549990Y-141450010D01*
X138000000Y-140050000D02*
X138000000Y-141000000D01*
D34*
X119550000Y-134000000D02*
X119550000Y-132300000D01*
X119550000Y-132300000D02*
X119500000Y-132250000D01*
D33*
X109595000Y-132425000D02*
X108675000Y-132425000D01*
X108475000Y-132225000D02*
X108475000Y-129500000D01*
X108675000Y-132425000D02*
X108475000Y-132225000D01*
D34*
X108475000Y-127500000D02*
X108475000Y-129500000D01*
X108475000Y-129500000D02*
X108475000Y-131275000D01*
X108475000Y-131275000D02*
X108000000Y-131750000D01*
X107500000Y-135750000D02*
X107500000Y-137500000D01*
X107500000Y-137500000D02*
X107750000Y-137750000D01*
X97475000Y-122500000D02*
X97475000Y-125000000D01*
X97475000Y-125000000D02*
X97475000Y-125975000D01*
X97475000Y-125975000D02*
X99000000Y-127500000D01*
D33*
X101595000Y-133525000D02*
X101595000Y-135855000D01*
X101595000Y-132095000D02*
X101595000Y-133525000D01*
X101050000Y-131550000D02*
X101595000Y-132095000D01*
X99500000Y-131550000D02*
X101050000Y-131550000D01*
X101595000Y-135855000D02*
X101595000Y-136595000D01*
X101595000Y-136595000D02*
X101750000Y-136750000D01*
X114700000Y-135025000D02*
X115500000Y-135025000D01*
X111170000Y-135025000D02*
X114700000Y-135025000D01*
X109595000Y-136600000D02*
X111170000Y-135025000D01*
X109595000Y-137575000D02*
X109595000Y-136600000D01*
D35*
X115500000Y-135025000D02*
X115975000Y-135025000D01*
X116925000Y-134000000D02*
X117500000Y-134000000D01*
X115975000Y-134950000D02*
X116925000Y-134000000D01*
X115975000Y-135025000D02*
X115975000Y-134950000D01*
D32*
X114660000Y-145040000D02*
X114660000Y-146814990D01*
X114660000Y-146814990D02*
X114084989Y-147390001D01*
X114084989Y-147390001D02*
X103371999Y-147390001D01*
X98390001Y-147390001D02*
X98000010Y-147000010D01*
X113512080Y-147390001D02*
X98390001Y-147390001D01*
X114660000Y-145040000D02*
X114660000Y-146242081D01*
X114660000Y-146242081D02*
X113512080Y-147390001D01*
X98000020Y-142500000D02*
X101000000Y-142500000D01*
X98000010Y-142500010D02*
X98000010Y-135000000D01*
X98000010Y-142500010D02*
X98000020Y-142500000D01*
X98000010Y-147000010D02*
X98000010Y-142500010D01*
D34*
X97500010Y-128500010D02*
X94000000Y-125000000D01*
X98000010Y-135000000D02*
X97500010Y-134500000D01*
X97500010Y-134500000D02*
X97500010Y-128500010D01*
D35*
X93200000Y-128450000D02*
X94000000Y-127650000D01*
X92500000Y-128450000D02*
X93200000Y-128450000D01*
X94000000Y-127650000D02*
X94000000Y-125000000D01*
X92400000Y-128550000D02*
X92500000Y-128450000D01*
X90500000Y-128550000D02*
X92400000Y-128550000D01*
D34*
X115750000Y-137750000D02*
X117500000Y-136000000D01*
X115000000Y-137750000D02*
X115750000Y-137750000D01*
X122400000Y-135692784D02*
X122400000Y-132750000D01*
X115000000Y-137750000D02*
X120342784Y-137750000D01*
X120342784Y-137750000D02*
X122400000Y-135692784D01*
D33*
X135500000Y-132750000D02*
X135500000Y-134230000D01*
D34*
X123250000Y-124000000D02*
X124310660Y-124000000D01*
X124310660Y-124000000D02*
X125750001Y-122560659D01*
X125750001Y-122560659D02*
X125750001Y-122499999D01*
X125750001Y-122499999D02*
X129000000Y-119250000D01*
X129000000Y-119250000D02*
X129000000Y-114750000D01*
X129000000Y-114750000D02*
X129000000Y-110250000D01*
X129000000Y-110250000D02*
X122250000Y-103500000D01*
X123999999Y-124749999D02*
X123250000Y-124000000D01*
X123999999Y-131150001D02*
X123999999Y-124749999D01*
X122400000Y-132750000D02*
X123999999Y-131150001D01*
D33*
X105405000Y-135705000D02*
X105450000Y-135750000D01*
X105405000Y-133525000D02*
X105405000Y-135705000D01*
X114825000Y-137575000D02*
X115000000Y-137750000D01*
X113405000Y-137575000D02*
X114825000Y-137575000D01*
D34*
X105450000Y-137950000D02*
X105500000Y-138000000D01*
X105450000Y-135750000D02*
X105450000Y-137950000D01*
D33*
X135500000Y-138040000D02*
X135500000Y-140000000D01*
X137960000Y-138040000D02*
X138000000Y-138000000D01*
X135500000Y-138040000D02*
X137960000Y-138040000D01*
D35*
X136000000Y-72000000D02*
X136000000Y-76000000D01*
X109000000Y-65500000D02*
X112500000Y-69000000D01*
X109000000Y-62000000D02*
X109000000Y-65500000D01*
X107450000Y-60450000D02*
X109000000Y-62000000D01*
X112500000Y-69000000D02*
X133000000Y-69000000D01*
X105500000Y-60450000D02*
X107450000Y-60450000D01*
X133000000Y-69000000D02*
X136000000Y-72000000D01*
D34*
X105500000Y-60450000D02*
X105500000Y-58000000D01*
D35*
X105500000Y-64920000D02*
X105040000Y-65380000D01*
X102000000Y-63250000D02*
X105250000Y-63250000D01*
X105500000Y-62500000D02*
X105500000Y-63500000D01*
X105250000Y-63250000D02*
X105500000Y-63500000D01*
X105500000Y-63500000D02*
X105500000Y-64920000D01*
X102000000Y-63250000D02*
X99750000Y-63250000D01*
X99000000Y-62500000D02*
X97500000Y-62500000D01*
X99750000Y-63250000D02*
X99000000Y-62500000D01*
D32*
X94800000Y-100960000D02*
X94800000Y-93000000D01*
X91609999Y-104150001D02*
X94800000Y-100960000D01*
X91599999Y-104150001D02*
X91609999Y-104150001D01*
X90500000Y-105250000D02*
X91599999Y-104150001D01*
X80340000Y-108960000D02*
X80380000Y-109000000D01*
X80340000Y-105250000D02*
X80340000Y-108960000D01*
D36*
X77800000Y-111580000D02*
X80380000Y-109000000D01*
X77800000Y-113000000D02*
X77800000Y-111580000D01*
X80340000Y-107828630D02*
X80340000Y-105500251D01*
X80380000Y-109000000D02*
X80380000Y-107868630D01*
X80380000Y-107868630D02*
X80340000Y-107828630D01*
D33*
X110865000Y-132425000D02*
X110865000Y-133635000D01*
X109000000Y-125000000D02*
X107000000Y-125000000D01*
X106500000Y-133000000D02*
X106500000Y-125000000D01*
X107000000Y-125000000D02*
X106500000Y-125000000D01*
X106500000Y-125000000D02*
X104500000Y-125000000D01*
X107625000Y-134125000D02*
X106500000Y-133000000D01*
X110375000Y-134125000D02*
X107625000Y-134125000D01*
X110865000Y-133635000D02*
X110375000Y-134125000D01*
D32*
X89000000Y-113000000D02*
X90000000Y-113000000D01*
X82500000Y-119500000D02*
X89000000Y-113000000D01*
X82500000Y-129000000D02*
X82500000Y-119500000D01*
X78880000Y-130500000D02*
X81000000Y-130500000D01*
X81000000Y-130500000D02*
X82500000Y-129000000D01*
X77395634Y-130500000D02*
X79500000Y-130500000D01*
X75840000Y-130500000D02*
X77395634Y-130500000D01*
X78880000Y-130500000D02*
X79500000Y-130500000D01*
X79500000Y-130500000D02*
X76340000Y-130500000D01*
D35*
X88500000Y-129500000D02*
X88500000Y-130000000D01*
X88500000Y-130000000D02*
X88000000Y-130500000D01*
D32*
X86000000Y-127000000D02*
X86000000Y-130500000D01*
X90000000Y-125000000D02*
X88000000Y-125000000D01*
X88000000Y-125000000D02*
X86000000Y-127000000D01*
D35*
X86000000Y-130500000D02*
X88000000Y-130500000D01*
D34*
X121000000Y-117000000D02*
X121500000Y-117500000D01*
D32*
X118000000Y-117500000D02*
X115000000Y-114500000D01*
X121500000Y-117500000D02*
X118000000Y-117500000D01*
D35*
X107469999Y-67030001D02*
X111439998Y-71000000D01*
X119000000Y-71000000D02*
X124000000Y-76000000D01*
X111439998Y-71000000D02*
X119000000Y-71000000D01*
X96000000Y-66500000D02*
X99000000Y-66500000D01*
X95000000Y-65500000D02*
X96000000Y-66500000D01*
X95000000Y-63500000D02*
X95000000Y-65500000D01*
X93000000Y-63000000D02*
X94500000Y-63000000D01*
X94500000Y-63000000D02*
X95000000Y-63500000D01*
X101330001Y-67030001D02*
X107469999Y-67030001D01*
X100800000Y-66500000D02*
X101330001Y-67030001D01*
X99000000Y-66500000D02*
X100800000Y-66500000D01*
D34*
X100420000Y-55500000D02*
X100420000Y-56920000D01*
X102000000Y-58100000D02*
X102000000Y-59750000D01*
X100820000Y-56920000D02*
X102000000Y-58100000D01*
X100420000Y-56920000D02*
X100820000Y-56920000D01*
D32*
X82340000Y-145040000D02*
X82340000Y-142500000D01*
X80090000Y-140250000D02*
X82340000Y-142500000D01*
X80000000Y-140160000D02*
X80090000Y-140250000D01*
X80000000Y-137500000D02*
X80000000Y-140160000D01*
X76000000Y-96800000D02*
X79800000Y-93000000D01*
X76000000Y-100000000D02*
X76000000Y-96800000D01*
X87420000Y-145040000D02*
X87420000Y-142500000D01*
X87420000Y-140670000D02*
X87420000Y-142500000D01*
X85500000Y-137500000D02*
X85500000Y-138750000D01*
X85500000Y-138750000D02*
X87420000Y-140670000D01*
X81500000Y-100000000D02*
X81500000Y-98750000D01*
X84800000Y-95450000D02*
X84800000Y-93000000D01*
X81500000Y-98750000D02*
X84800000Y-95450000D01*
X92500000Y-145040000D02*
X92500000Y-142500000D01*
X92500000Y-139000000D02*
X91000000Y-137500000D01*
X92500000Y-142500000D02*
X92500000Y-139000000D01*
X89800000Y-97200000D02*
X89800000Y-93000000D01*
X87000000Y-100000000D02*
X89800000Y-97200000D01*
X104500000Y-93000000D02*
X104300001Y-93199999D01*
X104800000Y-93000000D02*
X104500000Y-93000000D01*
X99579999Y-102415999D02*
X99579999Y-100420001D01*
X94819999Y-107175999D02*
X99579999Y-102415999D01*
X94819999Y-116180001D02*
X94819999Y-107175999D01*
D36*
X92000000Y-119000000D02*
X94819999Y-116180001D01*
X94819999Y-116180001D02*
X94819999Y-114184001D01*
X104800000Y-95200000D02*
X103000000Y-97000000D01*
X104800000Y-93000000D02*
X104800000Y-95200000D01*
D32*
X99579999Y-100420001D02*
X103000000Y-97000000D01*
X109800000Y-100800000D02*
X111000000Y-102000000D01*
X109800000Y-93000000D02*
X109800000Y-100800000D01*
X111000000Y-102000000D02*
X111000000Y-105000000D01*
X111000000Y-105000000D02*
X111000000Y-108000000D01*
X111000000Y-108000000D02*
X111000000Y-111000000D01*
X111000000Y-111000000D02*
X111000000Y-114000000D01*
X109000000Y-116000000D02*
X111000000Y-114000000D01*
X109000000Y-117380000D02*
X109000000Y-116000000D01*
D36*
X109800000Y-101100001D02*
X110699999Y-102000000D01*
X109800000Y-93000000D02*
X109800000Y-101100001D01*
D34*
X118000000Y-98321320D02*
X114800000Y-95121320D01*
X114800000Y-95121320D02*
X114800000Y-93000000D01*
X118000000Y-101000000D02*
X118000000Y-98321320D01*
X119500000Y-106000000D02*
X119500000Y-102500000D01*
X119500000Y-102500000D02*
X118000000Y-101000000D01*
X119800000Y-93000000D02*
X125800000Y-99000000D01*
X135950001Y-115249999D02*
X135950001Y-106700001D01*
X133700000Y-117500000D02*
X135950001Y-115249999D01*
X121299999Y-94499999D02*
X119800000Y-93000000D01*
X128999999Y-102199999D02*
X121299999Y-94499999D01*
X131449999Y-102199999D02*
X128999999Y-102199999D01*
X135950001Y-106700001D02*
X131449999Y-102199999D01*
D33*
X135500000Y-136770000D02*
X135500000Y-135500000D01*
X135500000Y-135500000D02*
X134525000Y-135500000D01*
X131000000Y-127000000D02*
X133500000Y-124500000D01*
D34*
X127300001Y-95500001D02*
X127300001Y-95550001D01*
X124800000Y-93000000D02*
X127300001Y-95500001D01*
X129000000Y-97250000D02*
X137250000Y-97250000D01*
X127300001Y-95550001D02*
X129000000Y-97250000D01*
X137250000Y-97250000D02*
X138500000Y-98500000D01*
X138500000Y-98500000D02*
X138500000Y-122750000D01*
X138500000Y-122750000D02*
X136500000Y-124750000D01*
D33*
X133500000Y-124500000D02*
X136500000Y-124750000D01*
D34*
X136500000Y-124750000D02*
X133250000Y-124750000D01*
X133250000Y-124750000D02*
X130250000Y-127750000D01*
X130250000Y-127750000D02*
X130250000Y-129750000D01*
D33*
X130250000Y-131225000D02*
X130250000Y-129750000D01*
X134525000Y-135500000D02*
X130250000Y-131225000D01*
D35*
X112120000Y-142500000D02*
X112120000Y-141920000D01*
X99949990Y-139149990D02*
X99949990Y-134250010D01*
X101500010Y-140700010D02*
X99949990Y-139149990D01*
X112120000Y-141920000D02*
X110900010Y-140700010D01*
X110900010Y-140700010D02*
X101500010Y-140700010D01*
X99949990Y-134250010D02*
X99949990Y-133767999D01*
X99949990Y-133767999D02*
X99590995Y-133409004D01*
X94400000Y-130600000D02*
X95000000Y-130000000D01*
X94400000Y-132500000D02*
X94400000Y-130600000D01*
X124000000Y-136687238D02*
X122493629Y-138193609D01*
X124000000Y-136687238D02*
X125749999Y-134937239D01*
X125749999Y-134937239D02*
X125749999Y-130000000D01*
X125749999Y-130000000D02*
X125749999Y-128000001D01*
X125749999Y-128000001D02*
X125750000Y-128000000D01*
D33*
X117200000Y-142500000D02*
X117200000Y-141700000D01*
D35*
X130350010Y-108600010D02*
X128750000Y-107000000D01*
X130350010Y-119809192D02*
X130350010Y-108600010D01*
X127350001Y-122809201D02*
X130350010Y-119809192D01*
X124750000Y-138199980D02*
X127350001Y-135599979D01*
X127350001Y-135599979D02*
X127350001Y-122809201D01*
D33*
X102865000Y-133525000D02*
X104135000Y-133525000D01*
X121430001Y-141650001D02*
X122280000Y-142500000D01*
X112699990Y-140699990D02*
X120479990Y-140699990D01*
X104135000Y-134875770D02*
X103999999Y-135010771D01*
X103999999Y-135010771D02*
X103999999Y-139214229D01*
X120479990Y-140699990D02*
X121430001Y-141650001D01*
X103999999Y-139214229D02*
X104385770Y-139600000D01*
X104385770Y-139600000D02*
X111600000Y-139600000D01*
X104135000Y-133525000D02*
X104135000Y-134875770D01*
X111600000Y-139600000D02*
X112699990Y-140699990D01*
X128724990Y-138704220D02*
X129010385Y-138989615D01*
X128724990Y-137420010D02*
X128724990Y-138704220D01*
X130350000Y-136770000D02*
X129375000Y-136770000D01*
X129375000Y-136770000D02*
X128724990Y-137420010D01*
D35*
X126543999Y-146740001D02*
X128259999Y-146740001D01*
X124843998Y-145040000D02*
X126543999Y-146740001D01*
X124820000Y-145040000D02*
X124843998Y-145040000D01*
X129500000Y-139479230D02*
X129010385Y-138989615D01*
X129500000Y-145500000D02*
X129500000Y-139479230D01*
X128259999Y-146740001D02*
X129500000Y-145500000D01*
D33*
X127360000Y-141150000D02*
X127360000Y-142500000D01*
X125909980Y-139699980D02*
X127360000Y-141150000D01*
X113284980Y-139699980D02*
X125909980Y-139699980D01*
X112135000Y-138550000D02*
X113284980Y-139699980D01*
X112135000Y-137575000D02*
X112135000Y-138550000D01*
X110865000Y-137575000D02*
X112135000Y-137575000D01*
D35*
X92500000Y-66500000D02*
X91750001Y-65750001D01*
X91000000Y-65050000D02*
X91000000Y-63950000D01*
X91700001Y-65750001D02*
X91000000Y-65050000D01*
X91750001Y-65750001D02*
X91700001Y-65750001D01*
X88550000Y-63950000D02*
X88500000Y-64000000D01*
X91000000Y-63950000D02*
X88550000Y-63950000D01*
D34*
X109500000Y-52000000D02*
X109500000Y-54000000D01*
X108000000Y-50500000D02*
X109500000Y-52000000D01*
X95340000Y-51757919D02*
X96597919Y-50500000D01*
X96597919Y-50500000D02*
X108000000Y-50500000D01*
X95340000Y-52960000D02*
X95340000Y-51757919D01*
D35*
X93025000Y-55725000D02*
X92800000Y-55500000D01*
X93025000Y-59500000D02*
X93025000Y-55725000D01*
D32*
X112500000Y-85000000D02*
X112500000Y-83000000D01*
X112500000Y-83000000D02*
X112500000Y-80840000D01*
D34*
X112000000Y-77000000D02*
X116000000Y-77000000D01*
X105040000Y-73000000D02*
X108000000Y-73000000D01*
X108000000Y-73000000D02*
X112000000Y-77000000D01*
D32*
X112500000Y-80500000D02*
X116000000Y-77000000D01*
X112500000Y-85000000D02*
X112500000Y-80500000D01*
D37*
X92500000Y-82878680D02*
X92500000Y-85000000D01*
X94628681Y-80749999D02*
X92500000Y-82878680D01*
X109540001Y-80749999D02*
X94628681Y-80749999D01*
X112500000Y-83709998D02*
X109540001Y-80749999D01*
X112500000Y-85000000D02*
X112500000Y-83709998D01*
X111750001Y-80749999D02*
X116000000Y-76500000D01*
X109540001Y-80749999D02*
X111750001Y-80749999D01*
D34*
X119500000Y-123500000D02*
X126250000Y-116750000D01*
X126250000Y-116750000D02*
X126250000Y-112500000D01*
D35*
X92450000Y-130450000D02*
X92500000Y-130500000D01*
X90500000Y-130450000D02*
X92450000Y-130450000D01*
X92350000Y-130650000D02*
X92500000Y-130500000D01*
X92500000Y-132350000D02*
X92350000Y-132500000D01*
X92500000Y-130500000D02*
X92500000Y-132350000D01*
X88600000Y-62050000D02*
X88500000Y-61950000D01*
X91000000Y-62050000D02*
X88600000Y-62050000D01*
X90975000Y-62025000D02*
X91000000Y-62050000D01*
X90975000Y-59500000D02*
X90975000Y-62025000D01*
D33*
X99525000Y-125700000D02*
X100325000Y-126500000D01*
X99525000Y-125000000D02*
X99525000Y-125700000D01*
X100325000Y-126500000D02*
X102500000Y-126500000D01*
X102865000Y-126865000D02*
X102865000Y-128375000D01*
X102500000Y-126500000D02*
X102865000Y-126865000D01*
D34*
X99525000Y-120145000D02*
X99525000Y-122500000D01*
X99000000Y-119620000D02*
X99525000Y-120145000D01*
X99525000Y-122500000D02*
X99525000Y-125000000D01*
X88000000Y-109000000D02*
X91000000Y-109000000D01*
X99000000Y-109380000D02*
X98620000Y-109000000D01*
X99000000Y-112000000D02*
X99000000Y-109380000D01*
D33*
X104135000Y-128375000D02*
X105405000Y-128375000D01*
X100200000Y-129500000D02*
X99500000Y-129500000D01*
X100700000Y-130000000D02*
X100200000Y-129500000D01*
X103387808Y-130000000D02*
X100700000Y-130000000D01*
X104135000Y-129252808D02*
X103387808Y-130000000D01*
X104135000Y-128375000D02*
X104135000Y-129252808D01*
D34*
X112300000Y-127700000D02*
X112500000Y-127500000D01*
X110525000Y-129500000D02*
X112500000Y-129500000D01*
X112500000Y-127500000D02*
X112500000Y-129500000D01*
D33*
X112135000Y-129865000D02*
X112500000Y-129500000D01*
X112135000Y-132425000D02*
X112135000Y-129865000D01*
D34*
X110525000Y-127500000D02*
X112500000Y-127500000D01*
X110525000Y-129500000D02*
X110525000Y-127500000D01*
X114550000Y-127500000D02*
X114550000Y-129500000D01*
D33*
X115500000Y-132975000D02*
X115475000Y-132975000D01*
X114925000Y-132425000D02*
X113405000Y-132425000D01*
X115475000Y-132975000D02*
X114925000Y-132425000D01*
D34*
X114550000Y-129500000D02*
X114550000Y-130550000D01*
X115500000Y-131500000D02*
X115500000Y-132975000D01*
X114550000Y-130550000D02*
X115500000Y-131500000D01*
D33*
X133450000Y-140000000D02*
X133450000Y-136450000D01*
X132500000Y-135500000D02*
X130350000Y-135500000D01*
X133450000Y-136450000D02*
X132500000Y-135500000D01*
X130350000Y-134230000D02*
X130350000Y-135500000D01*
D34*
X94380000Y-75620000D02*
X98500000Y-71500000D01*
X94380000Y-77000000D02*
X94380000Y-75620000D01*
X88000000Y-71500000D02*
X87500000Y-71000000D01*
X90880000Y-71500000D02*
X88000000Y-71500000D01*
D37*
X105840000Y-76500000D02*
X102000000Y-76500000D01*
X102500000Y-76000000D02*
X102000000Y-76500000D01*
X102500000Y-73000000D02*
X102500000Y-76000000D01*
M02*
