G04 #@! TF.GenerationSoftware,KiCad,Pcbnew,(5.1.4)-1*
G04 #@! TF.CreationDate,2020-06-04T10:58:22-03:00*
G04 #@! TF.ProjectId,Mod_Temp_Driver,4d6f645f-5465-46d7-905f-447269766572,rev?*
G04 #@! TF.SameCoordinates,Original*
G04 #@! TF.FileFunction,Legend,Bot*
G04 #@! TF.FilePolarity,Positive*
%FSLAX46Y46*%
G04 Gerber Fmt 4.6, Leading zero omitted, Abs format (unit mm)*
G04 Created by KiCad (PCBNEW (5.1.4)-1) date 2020-06-04 10:58:22*
%MOMM*%
%LPD*%
G04 APERTURE LIST*
%ADD10C,0.250000*%
%ADD11C,0.120000*%
%ADD12C,0.150000*%
G04 APERTURE END LIST*
D10*
X87214285Y-117035714D02*
X87285714Y-117107142D01*
X87500000Y-117178571D01*
X87642857Y-117178571D01*
X87857142Y-117107142D01*
X88000000Y-116964285D01*
X88071428Y-116821428D01*
X88142857Y-116535714D01*
X88142857Y-116321428D01*
X88071428Y-116035714D01*
X88000000Y-115892857D01*
X87857142Y-115750000D01*
X87642857Y-115678571D01*
X87500000Y-115678571D01*
X87285714Y-115750000D01*
X87214285Y-115821428D01*
X86571428Y-116392857D02*
X86071428Y-116392857D01*
X85857142Y-117178571D02*
X86571428Y-117178571D01*
X86571428Y-115678571D01*
X85857142Y-115678571D01*
X85285714Y-117107142D02*
X85071428Y-117178571D01*
X84714285Y-117178571D01*
X84571428Y-117107142D01*
X84500000Y-117035714D01*
X84428571Y-116892857D01*
X84428571Y-116750000D01*
X84500000Y-116607142D01*
X84571428Y-116535714D01*
X84714285Y-116464285D01*
X85000000Y-116392857D01*
X85142857Y-116321428D01*
X85214285Y-116250000D01*
X85285714Y-116107142D01*
X85285714Y-115964285D01*
X85214285Y-115821428D01*
X85142857Y-115750000D01*
X85000000Y-115678571D01*
X84642857Y-115678571D01*
X84428571Y-115750000D01*
X83785714Y-116392857D02*
X83285714Y-116392857D01*
X83071428Y-117178571D02*
X83785714Y-117178571D01*
X83785714Y-115678571D01*
X83071428Y-115678571D01*
X82428571Y-116607142D02*
X81285714Y-116607142D01*
X80071428Y-116392857D02*
X80571428Y-116392857D01*
X80571428Y-117178571D02*
X80571428Y-115678571D01*
X79857142Y-115678571D01*
X79285714Y-117178571D02*
X79285714Y-115678571D01*
X78571428Y-115678571D02*
X78571428Y-116892857D01*
X78500000Y-117035714D01*
X78428571Y-117107142D01*
X78285714Y-117178571D01*
X78000000Y-117178571D01*
X77857142Y-117107142D01*
X77785714Y-117035714D01*
X77714285Y-116892857D01*
X77714285Y-115678571D01*
X76500000Y-116392857D02*
X76285714Y-116464285D01*
X76214285Y-116535714D01*
X76142857Y-116678571D01*
X76142857Y-116892857D01*
X76214285Y-117035714D01*
X76285714Y-117107142D01*
X76428571Y-117178571D01*
X77000000Y-117178571D01*
X77000000Y-115678571D01*
X76500000Y-115678571D01*
X76357142Y-115750000D01*
X76285714Y-115821428D01*
X76214285Y-115964285D01*
X76214285Y-116107142D01*
X76285714Y-116250000D01*
X76357142Y-116321428D01*
X76500000Y-116392857D01*
X77000000Y-116392857D01*
X75571428Y-116750000D02*
X74857142Y-116750000D01*
X75714285Y-117178571D02*
X75214285Y-115678571D01*
X74714285Y-117178571D01*
X83607142Y-118178571D02*
X82750000Y-118178571D01*
X83178571Y-119678571D02*
X83178571Y-118178571D01*
X81678571Y-119607142D02*
X81821428Y-119678571D01*
X82107142Y-119678571D01*
X82250000Y-119607142D01*
X82321428Y-119464285D01*
X82321428Y-118892857D01*
X82250000Y-118750000D01*
X82107142Y-118678571D01*
X81821428Y-118678571D01*
X81678571Y-118750000D01*
X81607142Y-118892857D01*
X81607142Y-119035714D01*
X82321428Y-119178571D01*
X81035714Y-119607142D02*
X80892857Y-119678571D01*
X80607142Y-119678571D01*
X80464285Y-119607142D01*
X80392857Y-119464285D01*
X80392857Y-119392857D01*
X80464285Y-119250000D01*
X80607142Y-119178571D01*
X80821428Y-119178571D01*
X80964285Y-119107142D01*
X81035714Y-118964285D01*
X81035714Y-118892857D01*
X80964285Y-118750000D01*
X80821428Y-118678571D01*
X80607142Y-118678571D01*
X80464285Y-118750000D01*
X79964285Y-118678571D02*
X79392857Y-118678571D01*
X79750000Y-118178571D02*
X79750000Y-119464285D01*
X79678571Y-119607142D01*
X79535714Y-119678571D01*
X79392857Y-119678571D01*
X85000000Y-122178571D02*
X85000000Y-120678571D01*
X84642857Y-120678571D01*
X84428571Y-120750000D01*
X84285714Y-120892857D01*
X84214285Y-121035714D01*
X84142857Y-121321428D01*
X84142857Y-121535714D01*
X84214285Y-121821428D01*
X84285714Y-121964285D01*
X84428571Y-122107142D01*
X84642857Y-122178571D01*
X85000000Y-122178571D01*
X83500000Y-122178571D02*
X83500000Y-121178571D01*
X83500000Y-121464285D02*
X83428571Y-121321428D01*
X83357142Y-121250000D01*
X83214285Y-121178571D01*
X83071428Y-121178571D01*
X82571428Y-122178571D02*
X82571428Y-121178571D01*
X82571428Y-120678571D02*
X82642857Y-120750000D01*
X82571428Y-120821428D01*
X82500000Y-120750000D01*
X82571428Y-120678571D01*
X82571428Y-120821428D01*
X82000000Y-121178571D02*
X81642857Y-122178571D01*
X81285714Y-121178571D01*
X80142857Y-122107142D02*
X80285714Y-122178571D01*
X80571428Y-122178571D01*
X80714285Y-122107142D01*
X80785714Y-121964285D01*
X80785714Y-121392857D01*
X80714285Y-121250000D01*
X80571428Y-121178571D01*
X80285714Y-121178571D01*
X80142857Y-121250000D01*
X80071428Y-121392857D01*
X80071428Y-121535714D01*
X80785714Y-121678571D01*
X79428571Y-122178571D02*
X79428571Y-121178571D01*
X79428571Y-121464285D02*
X79357142Y-121321428D01*
X79285714Y-121250000D01*
X79142857Y-121178571D01*
X79000000Y-121178571D01*
X78571428Y-122107142D02*
X78428571Y-122178571D01*
X78142857Y-122178571D01*
X78000000Y-122107142D01*
X77928571Y-121964285D01*
X77928571Y-121892857D01*
X78000000Y-121750000D01*
X78142857Y-121678571D01*
X78357142Y-121678571D01*
X78500000Y-121607142D01*
X78571428Y-121464285D01*
X78571428Y-121392857D01*
X78500000Y-121250000D01*
X78357142Y-121178571D01*
X78142857Y-121178571D01*
X78000000Y-121250000D01*
D11*
X132786252Y-109210000D02*
X132263748Y-109210000D01*
X132786252Y-107790000D02*
X132263748Y-107790000D01*
X132761252Y-107210000D02*
X132238748Y-107210000D01*
X132761252Y-105790000D02*
X132238748Y-105790000D01*
X132210000Y-103213748D02*
X132210000Y-103736252D01*
X130790000Y-103213748D02*
X130790000Y-103736252D01*
X131790000Y-122761252D02*
X131790000Y-122238748D01*
X133210000Y-122761252D02*
X133210000Y-122238748D01*
X133790000Y-122761252D02*
X133790000Y-122238748D01*
X135210000Y-122761252D02*
X135210000Y-122238748D01*
X134210000Y-103213748D02*
X134210000Y-103736252D01*
X132790000Y-103213748D02*
X132790000Y-103736252D01*
X124713748Y-105790000D02*
X125236252Y-105790000D01*
X124713748Y-107210000D02*
X125236252Y-107210000D01*
X126213748Y-123290000D02*
X126736252Y-123290000D01*
X126213748Y-124710000D02*
X126736252Y-124710000D01*
X124738748Y-107790000D02*
X125261252Y-107790000D01*
X124738748Y-109210000D02*
X125261252Y-109210000D01*
X126238748Y-125290000D02*
X126761252Y-125290000D01*
X126238748Y-126710000D02*
X126761252Y-126710000D01*
X123420000Y-102740000D02*
X123420000Y-104200000D01*
X126580000Y-102740000D02*
X126580000Y-104900000D01*
X126580000Y-102740000D02*
X125650000Y-102740000D01*
X123420000Y-102740000D02*
X124350000Y-102740000D01*
X124920000Y-120240000D02*
X124920000Y-121700000D01*
X128080000Y-120240000D02*
X128080000Y-122400000D01*
X128080000Y-120240000D02*
X127150000Y-120240000D01*
X124920000Y-120240000D02*
X125850000Y-120240000D01*
X133460000Y-133488748D02*
X133460000Y-134011252D01*
X132040000Y-133488748D02*
X132040000Y-134011252D01*
X102040000Y-134236252D02*
X102040000Y-133713748D01*
X103460000Y-134236252D02*
X103460000Y-133713748D01*
D12*
X138119047Y-108952380D02*
X138452380Y-108476190D01*
X138690476Y-108952380D02*
X138690476Y-107952380D01*
X138309523Y-107952380D01*
X138214285Y-108000000D01*
X138166666Y-108047619D01*
X138119047Y-108142857D01*
X138119047Y-108285714D01*
X138166666Y-108380952D01*
X138214285Y-108428571D01*
X138309523Y-108476190D01*
X138690476Y-108476190D01*
X137261904Y-108285714D02*
X137261904Y-108952380D01*
X137500000Y-107904761D02*
X137738095Y-108619047D01*
X137119047Y-108619047D01*
X136214285Y-108952380D02*
X136785714Y-108952380D01*
X136500000Y-108952380D02*
X136500000Y-107952380D01*
X136595238Y-108095238D01*
X136690476Y-108190476D01*
X136785714Y-108238095D01*
X135880952Y-107952380D02*
X135261904Y-107952380D01*
X135595238Y-108333333D01*
X135452380Y-108333333D01*
X135357142Y-108380952D01*
X135309523Y-108428571D01*
X135261904Y-108523809D01*
X135261904Y-108761904D01*
X135309523Y-108857142D01*
X135357142Y-108904761D01*
X135452380Y-108952380D01*
X135738095Y-108952380D01*
X135833333Y-108904761D01*
X135880952Y-108857142D01*
X138119047Y-106952380D02*
X138452380Y-106476190D01*
X138690476Y-106952380D02*
X138690476Y-105952380D01*
X138309523Y-105952380D01*
X138214285Y-106000000D01*
X138166666Y-106047619D01*
X138119047Y-106142857D01*
X138119047Y-106285714D01*
X138166666Y-106380952D01*
X138214285Y-106428571D01*
X138309523Y-106476190D01*
X138690476Y-106476190D01*
X137261904Y-106285714D02*
X137261904Y-106952380D01*
X137500000Y-105904761D02*
X137738095Y-106619047D01*
X137119047Y-106619047D01*
X136214285Y-106952380D02*
X136785714Y-106952380D01*
X136500000Y-106952380D02*
X136500000Y-105952380D01*
X136595238Y-106095238D01*
X136690476Y-106190476D01*
X136785714Y-106238095D01*
X135833333Y-106047619D02*
X135785714Y-106000000D01*
X135690476Y-105952380D01*
X135452380Y-105952380D01*
X135357142Y-106000000D01*
X135309523Y-106047619D01*
X135261904Y-106142857D01*
X135261904Y-106238095D01*
X135309523Y-106380952D01*
X135880952Y-106952380D01*
X135261904Y-106952380D01*
X130302380Y-102355952D02*
X129826190Y-102022619D01*
X130302380Y-101784523D02*
X129302380Y-101784523D01*
X129302380Y-102165476D01*
X129350000Y-102260714D01*
X129397619Y-102308333D01*
X129492857Y-102355952D01*
X129635714Y-102355952D01*
X129730952Y-102308333D01*
X129778571Y-102260714D01*
X129826190Y-102165476D01*
X129826190Y-101784523D01*
X129635714Y-103213095D02*
X130302380Y-103213095D01*
X129254761Y-102975000D02*
X129969047Y-102736904D01*
X129969047Y-103355952D01*
X130302380Y-104260714D02*
X130302380Y-103689285D01*
X130302380Y-103975000D02*
X129302380Y-103975000D01*
X129445238Y-103879761D01*
X129540476Y-103784523D01*
X129588095Y-103689285D01*
X130302380Y-105213095D02*
X130302380Y-104641666D01*
X130302380Y-104927380D02*
X129302380Y-104927380D01*
X129445238Y-104832142D01*
X129540476Y-104736904D01*
X129588095Y-104641666D01*
X132952380Y-117380952D02*
X132476190Y-117047619D01*
X132952380Y-116809523D02*
X131952380Y-116809523D01*
X131952380Y-117190476D01*
X132000000Y-117285714D01*
X132047619Y-117333333D01*
X132142857Y-117380952D01*
X132285714Y-117380952D01*
X132380952Y-117333333D01*
X132428571Y-117285714D01*
X132476190Y-117190476D01*
X132476190Y-116809523D01*
X132285714Y-118238095D02*
X132952380Y-118238095D01*
X131904761Y-118000000D02*
X132619047Y-117761904D01*
X132619047Y-118380952D01*
X132952380Y-119285714D02*
X132952380Y-118714285D01*
X132952380Y-119000000D02*
X131952380Y-119000000D01*
X132095238Y-118904761D01*
X132190476Y-118809523D01*
X132238095Y-118714285D01*
X131952380Y-119904761D02*
X131952380Y-120000000D01*
X132000000Y-120095238D01*
X132047619Y-120142857D01*
X132142857Y-120190476D01*
X132333333Y-120238095D01*
X132571428Y-120238095D01*
X132761904Y-120190476D01*
X132857142Y-120142857D01*
X132904761Y-120095238D01*
X132952380Y-120000000D01*
X132952380Y-119904761D01*
X132904761Y-119809523D01*
X132857142Y-119761904D01*
X132761904Y-119714285D01*
X132571428Y-119666666D01*
X132333333Y-119666666D01*
X132142857Y-119714285D01*
X132047619Y-119761904D01*
X132000000Y-119809523D01*
X131952380Y-119904761D01*
X136602380Y-121380952D02*
X136126190Y-121047619D01*
X136602380Y-120809523D02*
X135602380Y-120809523D01*
X135602380Y-121190476D01*
X135650000Y-121285714D01*
X135697619Y-121333333D01*
X135792857Y-121380952D01*
X135935714Y-121380952D01*
X136030952Y-121333333D01*
X136078571Y-121285714D01*
X136126190Y-121190476D01*
X136126190Y-120809523D01*
X135935714Y-122238095D02*
X136602380Y-122238095D01*
X135554761Y-122000000D02*
X136269047Y-121761904D01*
X136269047Y-122380952D01*
X135602380Y-122952380D02*
X135602380Y-123047619D01*
X135650000Y-123142857D01*
X135697619Y-123190476D01*
X135792857Y-123238095D01*
X135983333Y-123285714D01*
X136221428Y-123285714D01*
X136411904Y-123238095D01*
X136507142Y-123190476D01*
X136554761Y-123142857D01*
X136602380Y-123047619D01*
X136602380Y-122952380D01*
X136554761Y-122857142D01*
X136507142Y-122809523D01*
X136411904Y-122761904D01*
X136221428Y-122714285D01*
X135983333Y-122714285D01*
X135792857Y-122761904D01*
X135697619Y-122809523D01*
X135650000Y-122857142D01*
X135602380Y-122952380D01*
X136602380Y-123761904D02*
X136602380Y-123952380D01*
X136554761Y-124047619D01*
X136507142Y-124095238D01*
X136364285Y-124190476D01*
X136173809Y-124238095D01*
X135792857Y-124238095D01*
X135697619Y-124190476D01*
X135650000Y-124142857D01*
X135602380Y-124047619D01*
X135602380Y-123857142D01*
X135650000Y-123761904D01*
X135697619Y-123714285D01*
X135792857Y-123666666D01*
X136030952Y-123666666D01*
X136126190Y-123714285D01*
X136173809Y-123761904D01*
X136221428Y-123857142D01*
X136221428Y-124047619D01*
X136173809Y-124142857D01*
X136126190Y-124190476D01*
X136030952Y-124238095D01*
X135952380Y-102380952D02*
X135476190Y-102047619D01*
X135952380Y-101809523D02*
X134952380Y-101809523D01*
X134952380Y-102190476D01*
X135000000Y-102285714D01*
X135047619Y-102333333D01*
X135142857Y-102380952D01*
X135285714Y-102380952D01*
X135380952Y-102333333D01*
X135428571Y-102285714D01*
X135476190Y-102190476D01*
X135476190Y-101809523D01*
X135285714Y-103238095D02*
X135952380Y-103238095D01*
X134904761Y-103000000D02*
X135619047Y-102761904D01*
X135619047Y-103380952D01*
X134952380Y-103952380D02*
X134952380Y-104047619D01*
X135000000Y-104142857D01*
X135047619Y-104190476D01*
X135142857Y-104238095D01*
X135333333Y-104285714D01*
X135571428Y-104285714D01*
X135761904Y-104238095D01*
X135857142Y-104190476D01*
X135904761Y-104142857D01*
X135952380Y-104047619D01*
X135952380Y-103952380D01*
X135904761Y-103857142D01*
X135857142Y-103809523D01*
X135761904Y-103761904D01*
X135571428Y-103714285D01*
X135333333Y-103714285D01*
X135142857Y-103761904D01*
X135047619Y-103809523D01*
X135000000Y-103857142D01*
X134952380Y-103952380D01*
X135380952Y-104857142D02*
X135333333Y-104761904D01*
X135285714Y-104714285D01*
X135190476Y-104666666D01*
X135142857Y-104666666D01*
X135047619Y-104714285D01*
X135000000Y-104761904D01*
X134952380Y-104857142D01*
X134952380Y-105047619D01*
X135000000Y-105142857D01*
X135047619Y-105190476D01*
X135142857Y-105238095D01*
X135190476Y-105238095D01*
X135285714Y-105190476D01*
X135333333Y-105142857D01*
X135380952Y-105047619D01*
X135380952Y-104857142D01*
X135428571Y-104761904D01*
X135476190Y-104714285D01*
X135571428Y-104666666D01*
X135761904Y-104666666D01*
X135857142Y-104714285D01*
X135904761Y-104761904D01*
X135952380Y-104857142D01*
X135952380Y-105047619D01*
X135904761Y-105142857D01*
X135857142Y-105190476D01*
X135761904Y-105238095D01*
X135571428Y-105238095D01*
X135476190Y-105190476D01*
X135428571Y-105142857D01*
X135380952Y-105047619D01*
X122119047Y-106952380D02*
X122452380Y-106476190D01*
X122690476Y-106952380D02*
X122690476Y-105952380D01*
X122309523Y-105952380D01*
X122214285Y-106000000D01*
X122166666Y-106047619D01*
X122119047Y-106142857D01*
X122119047Y-106285714D01*
X122166666Y-106380952D01*
X122214285Y-106428571D01*
X122309523Y-106476190D01*
X122690476Y-106476190D01*
X121261904Y-106285714D02*
X121261904Y-106952380D01*
X121500000Y-105904761D02*
X121738095Y-106619047D01*
X121119047Y-106619047D01*
X120547619Y-105952380D02*
X120452380Y-105952380D01*
X120357142Y-106000000D01*
X120309523Y-106047619D01*
X120261904Y-106142857D01*
X120214285Y-106333333D01*
X120214285Y-106571428D01*
X120261904Y-106761904D01*
X120309523Y-106857142D01*
X120357142Y-106904761D01*
X120452380Y-106952380D01*
X120547619Y-106952380D01*
X120642857Y-106904761D01*
X120690476Y-106857142D01*
X120738095Y-106761904D01*
X120785714Y-106571428D01*
X120785714Y-106333333D01*
X120738095Y-106142857D01*
X120690476Y-106047619D01*
X120642857Y-106000000D01*
X120547619Y-105952380D01*
X119880952Y-105952380D02*
X119214285Y-105952380D01*
X119642857Y-106952380D01*
X131619047Y-125452380D02*
X131952380Y-124976190D01*
X132190476Y-125452380D02*
X132190476Y-124452380D01*
X131809523Y-124452380D01*
X131714285Y-124500000D01*
X131666666Y-124547619D01*
X131619047Y-124642857D01*
X131619047Y-124785714D01*
X131666666Y-124880952D01*
X131714285Y-124928571D01*
X131809523Y-124976190D01*
X132190476Y-124976190D01*
X130761904Y-124785714D02*
X130761904Y-125452380D01*
X131000000Y-124404761D02*
X131238095Y-125119047D01*
X130619047Y-125119047D01*
X130047619Y-124452380D02*
X129952380Y-124452380D01*
X129857142Y-124500000D01*
X129809523Y-124547619D01*
X129761904Y-124642857D01*
X129714285Y-124833333D01*
X129714285Y-125071428D01*
X129761904Y-125261904D01*
X129809523Y-125357142D01*
X129857142Y-125404761D01*
X129952380Y-125452380D01*
X130047619Y-125452380D01*
X130142857Y-125404761D01*
X130190476Y-125357142D01*
X130238095Y-125261904D01*
X130285714Y-125071428D01*
X130285714Y-124833333D01*
X130238095Y-124642857D01*
X130190476Y-124547619D01*
X130142857Y-124500000D01*
X130047619Y-124452380D01*
X128857142Y-124452380D02*
X129047619Y-124452380D01*
X129142857Y-124500000D01*
X129190476Y-124547619D01*
X129285714Y-124690476D01*
X129333333Y-124880952D01*
X129333333Y-125261904D01*
X129285714Y-125357142D01*
X129238095Y-125404761D01*
X129142857Y-125452380D01*
X128952380Y-125452380D01*
X128857142Y-125404761D01*
X128809523Y-125357142D01*
X128761904Y-125261904D01*
X128761904Y-125023809D01*
X128809523Y-124928571D01*
X128857142Y-124880952D01*
X128952380Y-124833333D01*
X129142857Y-124833333D01*
X129238095Y-124880952D01*
X129285714Y-124928571D01*
X129333333Y-125023809D01*
X126119047Y-110602380D02*
X126452380Y-110126190D01*
X126690476Y-110602380D02*
X126690476Y-109602380D01*
X126309523Y-109602380D01*
X126214285Y-109650000D01*
X126166666Y-109697619D01*
X126119047Y-109792857D01*
X126119047Y-109935714D01*
X126166666Y-110030952D01*
X126214285Y-110078571D01*
X126309523Y-110126190D01*
X126690476Y-110126190D01*
X125261904Y-109935714D02*
X125261904Y-110602380D01*
X125500000Y-109554761D02*
X125738095Y-110269047D01*
X125119047Y-110269047D01*
X124547619Y-109602380D02*
X124452380Y-109602380D01*
X124357142Y-109650000D01*
X124309523Y-109697619D01*
X124261904Y-109792857D01*
X124214285Y-109983333D01*
X124214285Y-110221428D01*
X124261904Y-110411904D01*
X124309523Y-110507142D01*
X124357142Y-110554761D01*
X124452380Y-110602380D01*
X124547619Y-110602380D01*
X124642857Y-110554761D01*
X124690476Y-110507142D01*
X124738095Y-110411904D01*
X124785714Y-110221428D01*
X124785714Y-109983333D01*
X124738095Y-109792857D01*
X124690476Y-109697619D01*
X124642857Y-109650000D01*
X124547619Y-109602380D01*
X123309523Y-109602380D02*
X123785714Y-109602380D01*
X123833333Y-110078571D01*
X123785714Y-110030952D01*
X123690476Y-109983333D01*
X123452380Y-109983333D01*
X123357142Y-110030952D01*
X123309523Y-110078571D01*
X123261904Y-110173809D01*
X123261904Y-110411904D01*
X123309523Y-110507142D01*
X123357142Y-110554761D01*
X123452380Y-110602380D01*
X123690476Y-110602380D01*
X123785714Y-110554761D01*
X123833333Y-110507142D01*
X127619047Y-128102380D02*
X127952380Y-127626190D01*
X128190476Y-128102380D02*
X128190476Y-127102380D01*
X127809523Y-127102380D01*
X127714285Y-127150000D01*
X127666666Y-127197619D01*
X127619047Y-127292857D01*
X127619047Y-127435714D01*
X127666666Y-127530952D01*
X127714285Y-127578571D01*
X127809523Y-127626190D01*
X128190476Y-127626190D01*
X126761904Y-127435714D02*
X126761904Y-128102380D01*
X127000000Y-127054761D02*
X127238095Y-127769047D01*
X126619047Y-127769047D01*
X126047619Y-127102380D02*
X125952380Y-127102380D01*
X125857142Y-127150000D01*
X125809523Y-127197619D01*
X125761904Y-127292857D01*
X125714285Y-127483333D01*
X125714285Y-127721428D01*
X125761904Y-127911904D01*
X125809523Y-128007142D01*
X125857142Y-128054761D01*
X125952380Y-128102380D01*
X126047619Y-128102380D01*
X126142857Y-128054761D01*
X126190476Y-128007142D01*
X126238095Y-127911904D01*
X126285714Y-127721428D01*
X126285714Y-127483333D01*
X126238095Y-127292857D01*
X126190476Y-127197619D01*
X126142857Y-127150000D01*
X126047619Y-127102380D01*
X124857142Y-127435714D02*
X124857142Y-128102380D01*
X125095238Y-127054761D02*
X125333333Y-127769047D01*
X124714285Y-127769047D01*
X128047619Y-102452380D02*
X128000000Y-102357142D01*
X127904761Y-102261904D01*
X127761904Y-102119047D01*
X127714285Y-102023809D01*
X127714285Y-101928571D01*
X127952380Y-101976190D02*
X127904761Y-101880952D01*
X127809523Y-101785714D01*
X127619047Y-101738095D01*
X127285714Y-101738095D01*
X127095238Y-101785714D01*
X127000000Y-101880952D01*
X126952380Y-101976190D01*
X126952380Y-102166666D01*
X127000000Y-102261904D01*
X127095238Y-102357142D01*
X127285714Y-102404761D01*
X127619047Y-102404761D01*
X127809523Y-102357142D01*
X127904761Y-102261904D01*
X127952380Y-102166666D01*
X127952380Y-101976190D01*
X127285714Y-103261904D02*
X127952380Y-103261904D01*
X126904761Y-103023809D02*
X127619047Y-102785714D01*
X127619047Y-103404761D01*
X126952380Y-103976190D02*
X126952380Y-104071428D01*
X127000000Y-104166666D01*
X127047619Y-104214285D01*
X127142857Y-104261904D01*
X127333333Y-104309523D01*
X127571428Y-104309523D01*
X127761904Y-104261904D01*
X127857142Y-104214285D01*
X127904761Y-104166666D01*
X127952380Y-104071428D01*
X127952380Y-103976190D01*
X127904761Y-103880952D01*
X127857142Y-103833333D01*
X127761904Y-103785714D01*
X127571428Y-103738095D01*
X127333333Y-103738095D01*
X127142857Y-103785714D01*
X127047619Y-103833333D01*
X127000000Y-103880952D01*
X126952380Y-103976190D01*
X126952380Y-104642857D02*
X126952380Y-105261904D01*
X127333333Y-104928571D01*
X127333333Y-105071428D01*
X127380952Y-105166666D01*
X127428571Y-105214285D01*
X127523809Y-105261904D01*
X127761904Y-105261904D01*
X127857142Y-105214285D01*
X127904761Y-105166666D01*
X127952380Y-105071428D01*
X127952380Y-104785714D01*
X127904761Y-104690476D01*
X127857142Y-104642857D01*
X129547619Y-119952380D02*
X129500000Y-119857142D01*
X129404761Y-119761904D01*
X129261904Y-119619047D01*
X129214285Y-119523809D01*
X129214285Y-119428571D01*
X129452380Y-119476190D02*
X129404761Y-119380952D01*
X129309523Y-119285714D01*
X129119047Y-119238095D01*
X128785714Y-119238095D01*
X128595238Y-119285714D01*
X128500000Y-119380952D01*
X128452380Y-119476190D01*
X128452380Y-119666666D01*
X128500000Y-119761904D01*
X128595238Y-119857142D01*
X128785714Y-119904761D01*
X129119047Y-119904761D01*
X129309523Y-119857142D01*
X129404761Y-119761904D01*
X129452380Y-119666666D01*
X129452380Y-119476190D01*
X128785714Y-120761904D02*
X129452380Y-120761904D01*
X128404761Y-120523809D02*
X129119047Y-120285714D01*
X129119047Y-120904761D01*
X128452380Y-121476190D02*
X128452380Y-121571428D01*
X128500000Y-121666666D01*
X128547619Y-121714285D01*
X128642857Y-121761904D01*
X128833333Y-121809523D01*
X129071428Y-121809523D01*
X129261904Y-121761904D01*
X129357142Y-121714285D01*
X129404761Y-121666666D01*
X129452380Y-121571428D01*
X129452380Y-121476190D01*
X129404761Y-121380952D01*
X129357142Y-121333333D01*
X129261904Y-121285714D01*
X129071428Y-121238095D01*
X128833333Y-121238095D01*
X128642857Y-121285714D01*
X128547619Y-121333333D01*
X128500000Y-121380952D01*
X128452380Y-121476190D01*
X128547619Y-122190476D02*
X128500000Y-122238095D01*
X128452380Y-122333333D01*
X128452380Y-122571428D01*
X128500000Y-122666666D01*
X128547619Y-122714285D01*
X128642857Y-122761904D01*
X128738095Y-122761904D01*
X128880952Y-122714285D01*
X129452380Y-122142857D01*
X129452380Y-122761904D01*
X131457142Y-132630952D02*
X131504761Y-132583333D01*
X131552380Y-132440476D01*
X131552380Y-132345238D01*
X131504761Y-132202380D01*
X131409523Y-132107142D01*
X131314285Y-132059523D01*
X131123809Y-132011904D01*
X130980952Y-132011904D01*
X130790476Y-132059523D01*
X130695238Y-132107142D01*
X130600000Y-132202380D01*
X130552380Y-132345238D01*
X130552380Y-132440476D01*
X130600000Y-132583333D01*
X130647619Y-132630952D01*
X130885714Y-133488095D02*
X131552380Y-133488095D01*
X130504761Y-133250000D02*
X131219047Y-133011904D01*
X131219047Y-133630952D01*
X130552380Y-134202380D02*
X130552380Y-134297619D01*
X130600000Y-134392857D01*
X130647619Y-134440476D01*
X130742857Y-134488095D01*
X130933333Y-134535714D01*
X131171428Y-134535714D01*
X131361904Y-134488095D01*
X131457142Y-134440476D01*
X131504761Y-134392857D01*
X131552380Y-134297619D01*
X131552380Y-134202380D01*
X131504761Y-134107142D01*
X131457142Y-134059523D01*
X131361904Y-134011904D01*
X131171428Y-133964285D01*
X130933333Y-133964285D01*
X130742857Y-134011904D01*
X130647619Y-134059523D01*
X130600000Y-134107142D01*
X130552380Y-134202380D01*
X131552380Y-135488095D02*
X131552380Y-134916666D01*
X131552380Y-135202380D02*
X130552380Y-135202380D01*
X130695238Y-135107142D01*
X130790476Y-135011904D01*
X130838095Y-134916666D01*
X104757142Y-132855952D02*
X104804761Y-132808333D01*
X104852380Y-132665476D01*
X104852380Y-132570238D01*
X104804761Y-132427380D01*
X104709523Y-132332142D01*
X104614285Y-132284523D01*
X104423809Y-132236904D01*
X104280952Y-132236904D01*
X104090476Y-132284523D01*
X103995238Y-132332142D01*
X103900000Y-132427380D01*
X103852380Y-132570238D01*
X103852380Y-132665476D01*
X103900000Y-132808333D01*
X103947619Y-132855952D01*
X103852380Y-133189285D02*
X103852380Y-133808333D01*
X104233333Y-133475000D01*
X104233333Y-133617857D01*
X104280952Y-133713095D01*
X104328571Y-133760714D01*
X104423809Y-133808333D01*
X104661904Y-133808333D01*
X104757142Y-133760714D01*
X104804761Y-133713095D01*
X104852380Y-133617857D01*
X104852380Y-133332142D01*
X104804761Y-133236904D01*
X104757142Y-133189285D01*
X103852380Y-134427380D02*
X103852380Y-134522619D01*
X103900000Y-134617857D01*
X103947619Y-134665476D01*
X104042857Y-134713095D01*
X104233333Y-134760714D01*
X104471428Y-134760714D01*
X104661904Y-134713095D01*
X104757142Y-134665476D01*
X104804761Y-134617857D01*
X104852380Y-134522619D01*
X104852380Y-134427380D01*
X104804761Y-134332142D01*
X104757142Y-134284523D01*
X104661904Y-134236904D01*
X104471428Y-134189285D01*
X104233333Y-134189285D01*
X104042857Y-134236904D01*
X103947619Y-134284523D01*
X103900000Y-134332142D01*
X103852380Y-134427380D01*
X104852380Y-135713095D02*
X104852380Y-135141666D01*
X104852380Y-135427380D02*
X103852380Y-135427380D01*
X103995238Y-135332142D01*
X104090476Y-135236904D01*
X104138095Y-135141666D01*
M02*
