M48
INCH,TZ
T1C0.0315
T2C0.0354
T3C0.0394
T4C0.0433
T5C0.0472
T6C0.0512
T7C0.0591
T8C0.0598
%
G90
G05
T1
X36417Y-26181
X37008Y-49213
X37402Y-51181
X38976Y-50197
X39209Y-52523
X40059Y-53839
X41535Y-22835
X41535Y-54331
X42421Y-54232
X42520Y-51870
X43110Y-21260
X45276Y-54232
X47047Y-52067
X48130Y-40748
X48189Y-52264
X48226Y-54407
X48524Y-48819
X49114Y-54409
X49508Y-50394
X49705Y-44291
X50689Y-42126
X51673Y-55020
X53346Y-52264
X40354Y-25740
X40354Y-28740
X41354Y-25740
X41354Y-28740
X38386Y-23819
X38386Y-24606
X41142Y-46213
X41142Y-49213
X40701Y-41339
X43701Y-41339
X40701Y-42520
X43701Y-42520
X40701Y-44882
X43701Y-44882
X40701Y-40157
X43701Y-40157
X40701Y-43701
X43701Y-43701
X34449Y-27953
X34449Y-30953
X35780Y-28150
X38780Y-28150
X37157Y-30118
X40157Y-30118
X42913Y-46213
X42913Y-49213
X38976Y-44094
X38976Y-47094
X35827Y-42913
X38827Y-42913
X31646Y-42913
X34646Y-42913
T2
X39764Y-56102
T3
X32535Y-20850
X32535Y-21850
X33535Y-20850
X33535Y-21850
X34535Y-20850
X34535Y-21850
X35535Y-20850
X35535Y-21850
X36535Y-20850
X36535Y-21850
X37535Y-20850
X37535Y-21850
X38535Y-20850
X38535Y-21850
X39535Y-20850
X39535Y-21850
X40535Y-20850
X40535Y-21850
X41535Y-20850
X41535Y-21850
X46260Y-20850
X46260Y-21850
X47260Y-20850
X47260Y-21850
X48260Y-20850
X48260Y-21850
X49260Y-20850
X49260Y-21850
X50260Y-20850
X50260Y-21850
X41142Y-56102
X41142Y-57102
X42142Y-56102
X42142Y-57102
X43142Y-56102
X43142Y-57102
X44142Y-56102
X44142Y-57102
X45142Y-56102
X45142Y-57102
X46142Y-56102
X46142Y-57102
X47142Y-56102
X47142Y-57102
X48142Y-56102
X48142Y-57102
X49142Y-56102
X49142Y-57102
X50142Y-56102
X50142Y-57102
X32417Y-56102
X32417Y-57102
X33417Y-56102
X33417Y-57102
X34417Y-56102
X34417Y-57102
X35417Y-56102
X35417Y-57102
X36417Y-56102
X36417Y-57102
T4
X34976Y-26181
X38976Y-26181
X45276Y-39961
X45276Y-43961
X45276Y-45079
X45276Y-49079
X29858Y-51378
X33858Y-51378
X31630Y-41437
X35630Y-41437
X31890Y-24606
X31890Y-30512
X41669Y-30118
X45669Y-30118
T5
X28937Y-23031
X28937Y-31031
T6
X48819Y-25118
X48819Y-29921
X51181Y-30709
X53543Y-25118
X53543Y-29921
X47047Y-41732
X47835Y-39370
X47835Y-44094
X52638Y-39370
X52638Y-44094
X47047Y-48622
X47835Y-46260
X47835Y-50984
X52638Y-46260
X52638Y-50984
X30630Y-44488
X30630Y-49213
X35433Y-44488
X35433Y-49213
X36220Y-46850
T7
X29921Y-39370
X32087Y-39370
X34252Y-39370
X35827Y-54134
X33661Y-54134
X31496Y-54134
T8
X36417Y-33465
X38386Y-33465
X40354Y-33465
X42323Y-33465
X44291Y-33465
X46260Y-33465
X31417Y-36614
X33386Y-36614
X35354Y-36614
X37323Y-36614
X39291Y-36614
X41260Y-36614
X43228Y-36614
X45197Y-36614
X47165Y-36614
X49134Y-36614
X51102Y-36614
T0
M30
