G04 #@! TF.GenerationSoftware,KiCad,Pcbnew,(5.1.4)-1*
G04 #@! TF.CreationDate,2020-06-04T10:48:24-03:00*
G04 #@! TF.ProjectId,ModPrincipal,4d6f6450-7269-46e6-9369-70616c2e6b69,1.0*
G04 #@! TF.SameCoordinates,Original*
G04 #@! TF.FileFunction,Soldermask,Bot*
G04 #@! TF.FilePolarity,Negative*
%FSLAX46Y46*%
G04 Gerber Fmt 4.6, Leading zero omitted, Abs format (unit mm)*
G04 Created by KiCad (PCBNEW (5.1.4)-1) date 2020-06-04 10:48:24*
%MOMM*%
%LPD*%
G04 APERTURE LIST*
%ADD10C,0.100000*%
G04 APERTURE END LIST*
D10*
G36*
X124375256Y-105391298D02*
G01*
X124481579Y-105412447D01*
X124782042Y-105536903D01*
X125052451Y-105717585D01*
X125282415Y-105947549D01*
X125463097Y-106217958D01*
X125587553Y-106518421D01*
X125651000Y-106837391D01*
X125651000Y-107162609D01*
X125587553Y-107481579D01*
X125463097Y-107782042D01*
X125282415Y-108052451D01*
X125052451Y-108282415D01*
X124782042Y-108463097D01*
X124481579Y-108587553D01*
X124375256Y-108608702D01*
X124162611Y-108651000D01*
X123837389Y-108651000D01*
X123624744Y-108608702D01*
X123518421Y-108587553D01*
X123217958Y-108463097D01*
X122947549Y-108282415D01*
X122717585Y-108052451D01*
X122536903Y-107782042D01*
X122412447Y-107481579D01*
X122349000Y-107162609D01*
X122349000Y-106837391D01*
X122412447Y-106518421D01*
X122536903Y-106217958D01*
X122717585Y-105947549D01*
X122947549Y-105717585D01*
X123217958Y-105536903D01*
X123518421Y-105412447D01*
X123624744Y-105391298D01*
X123837389Y-105349000D01*
X124162611Y-105349000D01*
X124375256Y-105391298D01*
X124375256Y-105391298D01*
G37*
G36*
X31375256Y-105391298D02*
G01*
X31481579Y-105412447D01*
X31782042Y-105536903D01*
X32052451Y-105717585D01*
X32282415Y-105947549D01*
X32463097Y-106217958D01*
X32587553Y-106518421D01*
X32651000Y-106837391D01*
X32651000Y-107162609D01*
X32587553Y-107481579D01*
X32463097Y-107782042D01*
X32282415Y-108052451D01*
X32052451Y-108282415D01*
X31782042Y-108463097D01*
X31481579Y-108587553D01*
X31375256Y-108608702D01*
X31162611Y-108651000D01*
X30837389Y-108651000D01*
X30624744Y-108608702D01*
X30518421Y-108587553D01*
X30217958Y-108463097D01*
X29947549Y-108282415D01*
X29717585Y-108052451D01*
X29536903Y-107782042D01*
X29412447Y-107481579D01*
X29349000Y-107162609D01*
X29349000Y-106837391D01*
X29412447Y-106518421D01*
X29536903Y-106217958D01*
X29717585Y-105947549D01*
X29947549Y-105717585D01*
X30217958Y-105536903D01*
X30518421Y-105412447D01*
X30624744Y-105391298D01*
X30837389Y-105349000D01*
X31162611Y-105349000D01*
X31375256Y-105391298D01*
X31375256Y-105391298D01*
G37*
G36*
X107351000Y-106351000D02*
G01*
X105649000Y-106351000D01*
X105649000Y-104649000D01*
X107351000Y-104649000D01*
X107351000Y-106351000D01*
X107351000Y-106351000D01*
G37*
G36*
X114286823Y-104661313D02*
G01*
X114447242Y-104709976D01*
X114579906Y-104780886D01*
X114595078Y-104788996D01*
X114724659Y-104895341D01*
X114831004Y-105024922D01*
X114831005Y-105024924D01*
X114910024Y-105172758D01*
X114958687Y-105333177D01*
X114975117Y-105500000D01*
X114958687Y-105666823D01*
X114910024Y-105827242D01*
X114845717Y-105947551D01*
X114831004Y-105975078D01*
X114724659Y-106104659D01*
X114595078Y-106211004D01*
X114595076Y-106211005D01*
X114447242Y-106290024D01*
X114286823Y-106338687D01*
X114161804Y-106351000D01*
X114078196Y-106351000D01*
X113953177Y-106338687D01*
X113792758Y-106290024D01*
X113644924Y-106211005D01*
X113644922Y-106211004D01*
X113515341Y-106104659D01*
X113408996Y-105975078D01*
X113394283Y-105947551D01*
X113329976Y-105827242D01*
X113281313Y-105666823D01*
X113264883Y-105500000D01*
X113281313Y-105333177D01*
X113329976Y-105172758D01*
X113408995Y-105024924D01*
X113408996Y-105024922D01*
X113515341Y-104895341D01*
X113644922Y-104788996D01*
X113660094Y-104780886D01*
X113792758Y-104709976D01*
X113953177Y-104661313D01*
X114078196Y-104649000D01*
X114161804Y-104649000D01*
X114286823Y-104661313D01*
X114286823Y-104661313D01*
G37*
G36*
X111666823Y-100281313D02*
G01*
X111827242Y-100329976D01*
X111959906Y-100400886D01*
X111975078Y-100408996D01*
X112104659Y-100515341D01*
X112211004Y-100644922D01*
X112211005Y-100644924D01*
X112290024Y-100792758D01*
X112338687Y-100953177D01*
X112355117Y-101120000D01*
X112338687Y-101286823D01*
X112290024Y-101447242D01*
X112219114Y-101579906D01*
X112211004Y-101595078D01*
X112104659Y-101724659D01*
X111975078Y-101831004D01*
X111975076Y-101831005D01*
X111827242Y-101910024D01*
X111666823Y-101958687D01*
X111541804Y-101971000D01*
X111458196Y-101971000D01*
X111333177Y-101958687D01*
X111172758Y-101910024D01*
X111024924Y-101831005D01*
X111024922Y-101831004D01*
X110895341Y-101724659D01*
X110788996Y-101595078D01*
X110780886Y-101579906D01*
X110709976Y-101447242D01*
X110661313Y-101286823D01*
X110644883Y-101120000D01*
X110661313Y-100953177D01*
X110709976Y-100792758D01*
X110788995Y-100644924D01*
X110788996Y-100644922D01*
X110895341Y-100515341D01*
X111024922Y-100408996D01*
X111040094Y-100400886D01*
X111172758Y-100329976D01*
X111333177Y-100281313D01*
X111458196Y-100269000D01*
X111541804Y-100269000D01*
X111666823Y-100281313D01*
X111666823Y-100281313D01*
G37*
G36*
X61857142Y-97348242D02*
G01*
X62005101Y-97409529D01*
X62138255Y-97498499D01*
X62251501Y-97611745D01*
X62340471Y-97744899D01*
X62401758Y-97892858D01*
X62433000Y-98049925D01*
X62433000Y-98210075D01*
X62401758Y-98367142D01*
X62340471Y-98515101D01*
X62251501Y-98648255D01*
X62138255Y-98761501D01*
X62005101Y-98850471D01*
X61857142Y-98911758D01*
X61700075Y-98943000D01*
X61539925Y-98943000D01*
X61382858Y-98911758D01*
X61234899Y-98850471D01*
X61101745Y-98761501D01*
X60988499Y-98648255D01*
X60899529Y-98515101D01*
X60838242Y-98367142D01*
X60807000Y-98210075D01*
X60807000Y-98049925D01*
X60838242Y-97892858D01*
X60899529Y-97744899D01*
X60988499Y-97611745D01*
X61101745Y-97498499D01*
X61234899Y-97409529D01*
X61382858Y-97348242D01*
X61539925Y-97317000D01*
X61700075Y-97317000D01*
X61857142Y-97348242D01*
X61857142Y-97348242D01*
G37*
G36*
X46617142Y-97348242D02*
G01*
X46765101Y-97409529D01*
X46898255Y-97498499D01*
X47011501Y-97611745D01*
X47100471Y-97744899D01*
X47161758Y-97892858D01*
X47193000Y-98049925D01*
X47193000Y-98210075D01*
X47161758Y-98367142D01*
X47100471Y-98515101D01*
X47011501Y-98648255D01*
X46898255Y-98761501D01*
X46765101Y-98850471D01*
X46617142Y-98911758D01*
X46460075Y-98943000D01*
X46299925Y-98943000D01*
X46142858Y-98911758D01*
X45994899Y-98850471D01*
X45861745Y-98761501D01*
X45748499Y-98648255D01*
X45659529Y-98515101D01*
X45598242Y-98367142D01*
X45567000Y-98210075D01*
X45567000Y-98049925D01*
X45598242Y-97892858D01*
X45659529Y-97744899D01*
X45748499Y-97611745D01*
X45861745Y-97498499D01*
X45994899Y-97409529D01*
X46142858Y-97348242D01*
X46299925Y-97317000D01*
X46460075Y-97317000D01*
X46617142Y-97348242D01*
X46617142Y-97348242D01*
G37*
G36*
X122610442Y-96965518D02*
G01*
X122676627Y-96972037D01*
X122846466Y-97023557D01*
X123002991Y-97107222D01*
X123038729Y-97136552D01*
X123140186Y-97219814D01*
X123219943Y-97317000D01*
X123252778Y-97357009D01*
X123336443Y-97513534D01*
X123387963Y-97683373D01*
X123405359Y-97860000D01*
X123387963Y-98036627D01*
X123336443Y-98206466D01*
X123336442Y-98206468D01*
X123334514Y-98210075D01*
X123252778Y-98362991D01*
X123223448Y-98398729D01*
X123140186Y-98500186D01*
X123038729Y-98583448D01*
X123002991Y-98612778D01*
X122846466Y-98696443D01*
X122676627Y-98747963D01*
X122610443Y-98754481D01*
X122544260Y-98761000D01*
X122455740Y-98761000D01*
X122389558Y-98754482D01*
X122323373Y-98747963D01*
X122153534Y-98696443D01*
X121997009Y-98612778D01*
X121961271Y-98583448D01*
X121859814Y-98500186D01*
X121776552Y-98398729D01*
X121747222Y-98362991D01*
X121665486Y-98210075D01*
X121663558Y-98206468D01*
X121663557Y-98206466D01*
X121612037Y-98036627D01*
X121594641Y-97860000D01*
X121612037Y-97683373D01*
X121663557Y-97513534D01*
X121747222Y-97357009D01*
X121780057Y-97317000D01*
X121859814Y-97219814D01*
X121961271Y-97136552D01*
X121997009Y-97107222D01*
X122153534Y-97023557D01*
X122323373Y-96972037D01*
X122389557Y-96965519D01*
X122455740Y-96959000D01*
X122544260Y-96959000D01*
X122610442Y-96965518D01*
X122610442Y-96965518D01*
G37*
G36*
X120861000Y-98761000D02*
G01*
X119059000Y-98761000D01*
X119059000Y-96959000D01*
X120861000Y-96959000D01*
X120861000Y-98761000D01*
X120861000Y-98761000D01*
G37*
G36*
X31046823Y-95281313D02*
G01*
X31207242Y-95329976D01*
X31339906Y-95400886D01*
X31355078Y-95408996D01*
X31484659Y-95515341D01*
X31591004Y-95644922D01*
X31591005Y-95644924D01*
X31670024Y-95792758D01*
X31718687Y-95953177D01*
X31735117Y-96120000D01*
X31718687Y-96286823D01*
X31670024Y-96447242D01*
X31599114Y-96579906D01*
X31591004Y-96595078D01*
X31484659Y-96724659D01*
X31355078Y-96831004D01*
X31355076Y-96831005D01*
X31207242Y-96910024D01*
X31046823Y-96958687D01*
X30921804Y-96971000D01*
X30838196Y-96971000D01*
X30713177Y-96958687D01*
X30552758Y-96910024D01*
X30404924Y-96831005D01*
X30404922Y-96831004D01*
X30275341Y-96724659D01*
X30168996Y-96595078D01*
X30160886Y-96579906D01*
X30089976Y-96447242D01*
X30041313Y-96286823D01*
X30024883Y-96120000D01*
X30041313Y-95953177D01*
X30089976Y-95792758D01*
X30168995Y-95644924D01*
X30168996Y-95644922D01*
X30275341Y-95515341D01*
X30404922Y-95408996D01*
X30420094Y-95400886D01*
X30552758Y-95329976D01*
X30713177Y-95281313D01*
X30838196Y-95269000D01*
X30921804Y-95269000D01*
X31046823Y-95281313D01*
X31046823Y-95281313D01*
G37*
G36*
X33586823Y-95281313D02*
G01*
X33747242Y-95329976D01*
X33879906Y-95400886D01*
X33895078Y-95408996D01*
X34024659Y-95515341D01*
X34131004Y-95644922D01*
X34131005Y-95644924D01*
X34210024Y-95792758D01*
X34258687Y-95953177D01*
X34275117Y-96120000D01*
X34258687Y-96286823D01*
X34210024Y-96447242D01*
X34139114Y-96579906D01*
X34131004Y-96595078D01*
X34024659Y-96724659D01*
X33895078Y-96831004D01*
X33895076Y-96831005D01*
X33747242Y-96910024D01*
X33586823Y-96958687D01*
X33461804Y-96971000D01*
X33378196Y-96971000D01*
X33253177Y-96958687D01*
X33092758Y-96910024D01*
X32944924Y-96831005D01*
X32944922Y-96831004D01*
X32815341Y-96724659D01*
X32708996Y-96595078D01*
X32700886Y-96579906D01*
X32629976Y-96447242D01*
X32581313Y-96286823D01*
X32564883Y-96120000D01*
X32581313Y-95953177D01*
X32629976Y-95792758D01*
X32708995Y-95644924D01*
X32708996Y-95644922D01*
X32815341Y-95515341D01*
X32944922Y-95408996D01*
X32960094Y-95400886D01*
X33092758Y-95329976D01*
X33253177Y-95281313D01*
X33378196Y-95269000D01*
X33461804Y-95269000D01*
X33586823Y-95281313D01*
X33586823Y-95281313D01*
G37*
G36*
X36126823Y-95281313D02*
G01*
X36287242Y-95329976D01*
X36419906Y-95400886D01*
X36435078Y-95408996D01*
X36564659Y-95515341D01*
X36671004Y-95644922D01*
X36671005Y-95644924D01*
X36750024Y-95792758D01*
X36798687Y-95953177D01*
X36815117Y-96120000D01*
X36798687Y-96286823D01*
X36750024Y-96447242D01*
X36679114Y-96579906D01*
X36671004Y-96595078D01*
X36564659Y-96724659D01*
X36435078Y-96831004D01*
X36435076Y-96831005D01*
X36287242Y-96910024D01*
X36126823Y-96958687D01*
X36001804Y-96971000D01*
X35918196Y-96971000D01*
X35793177Y-96958687D01*
X35632758Y-96910024D01*
X35484924Y-96831005D01*
X35484922Y-96831004D01*
X35355341Y-96724659D01*
X35248996Y-96595078D01*
X35240886Y-96579906D01*
X35169976Y-96447242D01*
X35121313Y-96286823D01*
X35104883Y-96120000D01*
X35121313Y-95953177D01*
X35169976Y-95792758D01*
X35248995Y-95644924D01*
X35248996Y-95644922D01*
X35355341Y-95515341D01*
X35484922Y-95408996D01*
X35500094Y-95400886D01*
X35632758Y-95329976D01*
X35793177Y-95281313D01*
X35918196Y-95269000D01*
X36001804Y-95269000D01*
X36126823Y-95281313D01*
X36126823Y-95281313D01*
G37*
G36*
X38666823Y-95281313D02*
G01*
X38827242Y-95329976D01*
X38959906Y-95400886D01*
X38975078Y-95408996D01*
X39104659Y-95515341D01*
X39211004Y-95644922D01*
X39211005Y-95644924D01*
X39290024Y-95792758D01*
X39338687Y-95953177D01*
X39355117Y-96120000D01*
X39338687Y-96286823D01*
X39290024Y-96447242D01*
X39219114Y-96579906D01*
X39211004Y-96595078D01*
X39104659Y-96724659D01*
X38975078Y-96831004D01*
X38975076Y-96831005D01*
X38827242Y-96910024D01*
X38666823Y-96958687D01*
X38541804Y-96971000D01*
X38458196Y-96971000D01*
X38333177Y-96958687D01*
X38172758Y-96910024D01*
X38024924Y-96831005D01*
X38024922Y-96831004D01*
X37895341Y-96724659D01*
X37788996Y-96595078D01*
X37780886Y-96579906D01*
X37709976Y-96447242D01*
X37661313Y-96286823D01*
X37644883Y-96120000D01*
X37661313Y-95953177D01*
X37709976Y-95792758D01*
X37788995Y-95644924D01*
X37788996Y-95644922D01*
X37895341Y-95515341D01*
X38024922Y-95408996D01*
X38040094Y-95400886D01*
X38172758Y-95329976D01*
X38333177Y-95281313D01*
X38458196Y-95269000D01*
X38541804Y-95269000D01*
X38666823Y-95281313D01*
X38666823Y-95281313D01*
G37*
G36*
X46617142Y-94808242D02*
G01*
X46765101Y-94869529D01*
X46898255Y-94958499D01*
X47011501Y-95071745D01*
X47100471Y-95204899D01*
X47161758Y-95352858D01*
X47193000Y-95509925D01*
X47193000Y-95670075D01*
X47161758Y-95827142D01*
X47100471Y-95975101D01*
X47011501Y-96108255D01*
X46898255Y-96221501D01*
X46765101Y-96310471D01*
X46617142Y-96371758D01*
X46460075Y-96403000D01*
X46299925Y-96403000D01*
X46142858Y-96371758D01*
X45994899Y-96310471D01*
X45861745Y-96221501D01*
X45748499Y-96108255D01*
X45659529Y-95975101D01*
X45598242Y-95827142D01*
X45567000Y-95670075D01*
X45567000Y-95509925D01*
X45598242Y-95352858D01*
X45659529Y-95204899D01*
X45748499Y-95071745D01*
X45861745Y-94958499D01*
X45994899Y-94869529D01*
X46142858Y-94808242D01*
X46299925Y-94777000D01*
X46460075Y-94777000D01*
X46617142Y-94808242D01*
X46617142Y-94808242D01*
G37*
G36*
X61857142Y-94808242D02*
G01*
X62005101Y-94869529D01*
X62138255Y-94958499D01*
X62251501Y-95071745D01*
X62340471Y-95204899D01*
X62401758Y-95352858D01*
X62433000Y-95509925D01*
X62433000Y-95670075D01*
X62401758Y-95827142D01*
X62340471Y-95975101D01*
X62251501Y-96108255D01*
X62138255Y-96221501D01*
X62005101Y-96310471D01*
X61857142Y-96371758D01*
X61700075Y-96403000D01*
X61539925Y-96403000D01*
X61382858Y-96371758D01*
X61234899Y-96310471D01*
X61101745Y-96221501D01*
X60988499Y-96108255D01*
X60899529Y-95975101D01*
X60838242Y-95827142D01*
X60807000Y-95670075D01*
X60807000Y-95509925D01*
X60838242Y-95352858D01*
X60899529Y-95204899D01*
X60988499Y-95071745D01*
X61101745Y-94958499D01*
X61234899Y-94869529D01*
X61382858Y-94808242D01*
X61539925Y-94777000D01*
X61700075Y-94777000D01*
X61857142Y-94808242D01*
X61857142Y-94808242D01*
G37*
G36*
X122595025Y-94424000D02*
G01*
X122676627Y-94432037D01*
X122846466Y-94483557D01*
X123002991Y-94567222D01*
X123038729Y-94596552D01*
X123140186Y-94679814D01*
X123196663Y-94748633D01*
X123252778Y-94817009D01*
X123336443Y-94973534D01*
X123387963Y-95143373D01*
X123405359Y-95320000D01*
X123387963Y-95496627D01*
X123336443Y-95666466D01*
X123336442Y-95666468D01*
X123333734Y-95671535D01*
X123252778Y-95822991D01*
X123246918Y-95830131D01*
X123140186Y-95960186D01*
X123038729Y-96043448D01*
X123002991Y-96072778D01*
X122846466Y-96156443D01*
X122676627Y-96207963D01*
X122610442Y-96214482D01*
X122544260Y-96221000D01*
X122455740Y-96221000D01*
X122389557Y-96214481D01*
X122323373Y-96207963D01*
X122153534Y-96156443D01*
X121997009Y-96072778D01*
X121961271Y-96043448D01*
X121859814Y-95960186D01*
X121753082Y-95830131D01*
X121747222Y-95822991D01*
X121666266Y-95671535D01*
X121663558Y-95666468D01*
X121663557Y-95666466D01*
X121612037Y-95496627D01*
X121594641Y-95320000D01*
X121612037Y-95143373D01*
X121663557Y-94973534D01*
X121747222Y-94817009D01*
X121803337Y-94748633D01*
X121859814Y-94679814D01*
X121961271Y-94596552D01*
X121997009Y-94567222D01*
X122153534Y-94483557D01*
X122323373Y-94432037D01*
X122404975Y-94424000D01*
X122455740Y-94419000D01*
X122544260Y-94419000D01*
X122595025Y-94424000D01*
X122595025Y-94424000D01*
G37*
G36*
X120055025Y-94424000D02*
G01*
X120136627Y-94432037D01*
X120306466Y-94483557D01*
X120462991Y-94567222D01*
X120498729Y-94596552D01*
X120600186Y-94679814D01*
X120656663Y-94748633D01*
X120712778Y-94817009D01*
X120796443Y-94973534D01*
X120847963Y-95143373D01*
X120865359Y-95320000D01*
X120847963Y-95496627D01*
X120796443Y-95666466D01*
X120796442Y-95666468D01*
X120793734Y-95671535D01*
X120712778Y-95822991D01*
X120706918Y-95830131D01*
X120600186Y-95960186D01*
X120498729Y-96043448D01*
X120462991Y-96072778D01*
X120306466Y-96156443D01*
X120136627Y-96207963D01*
X120070442Y-96214482D01*
X120004260Y-96221000D01*
X119915740Y-96221000D01*
X119849557Y-96214481D01*
X119783373Y-96207963D01*
X119613534Y-96156443D01*
X119457009Y-96072778D01*
X119421271Y-96043448D01*
X119319814Y-95960186D01*
X119213082Y-95830131D01*
X119207222Y-95822991D01*
X119126266Y-95671535D01*
X119123558Y-95666468D01*
X119123557Y-95666466D01*
X119072037Y-95496627D01*
X119054641Y-95320000D01*
X119072037Y-95143373D01*
X119123557Y-94973534D01*
X119207222Y-94817009D01*
X119263337Y-94748633D01*
X119319814Y-94679814D01*
X119421271Y-94596552D01*
X119457009Y-94567222D01*
X119613534Y-94483557D01*
X119783373Y-94432037D01*
X119864975Y-94424000D01*
X119915740Y-94419000D01*
X120004260Y-94419000D01*
X120055025Y-94424000D01*
X120055025Y-94424000D01*
G37*
G36*
X89088674Y-94628465D02*
G01*
X89126367Y-94639899D01*
X89161103Y-94658466D01*
X89191548Y-94683452D01*
X89216534Y-94713897D01*
X89235101Y-94748633D01*
X89246535Y-94786326D01*
X89251000Y-94831661D01*
X89251000Y-95668339D01*
X89246535Y-95713674D01*
X89235101Y-95751367D01*
X89216534Y-95786103D01*
X89191548Y-95816548D01*
X89161103Y-95841534D01*
X89126367Y-95860101D01*
X89088674Y-95871535D01*
X89043339Y-95876000D01*
X87956661Y-95876000D01*
X87911326Y-95871535D01*
X87873633Y-95860101D01*
X87838897Y-95841534D01*
X87808452Y-95816548D01*
X87783466Y-95786103D01*
X87764899Y-95751367D01*
X87753465Y-95713674D01*
X87749000Y-95668339D01*
X87749000Y-94831661D01*
X87753465Y-94786326D01*
X87764899Y-94748633D01*
X87783466Y-94713897D01*
X87808452Y-94683452D01*
X87838897Y-94658466D01*
X87873633Y-94639899D01*
X87911326Y-94628465D01*
X87956661Y-94624000D01*
X89043339Y-94624000D01*
X89088674Y-94628465D01*
X89088674Y-94628465D01*
G37*
G36*
X91338674Y-94628465D02*
G01*
X91376367Y-94639899D01*
X91411103Y-94658466D01*
X91441548Y-94683452D01*
X91466534Y-94713897D01*
X91485101Y-94748633D01*
X91496535Y-94786326D01*
X91501000Y-94831661D01*
X91501000Y-95668339D01*
X91496535Y-95713674D01*
X91485101Y-95751367D01*
X91466534Y-95786103D01*
X91441548Y-95816548D01*
X91411103Y-95841534D01*
X91376367Y-95860101D01*
X91338674Y-95871535D01*
X91293339Y-95876000D01*
X90206661Y-95876000D01*
X90161326Y-95871535D01*
X90123633Y-95860101D01*
X90088897Y-95841534D01*
X90058452Y-95816548D01*
X90033466Y-95786103D01*
X90014899Y-95751367D01*
X90003465Y-95713674D01*
X89999000Y-95668339D01*
X89999000Y-94831661D01*
X90003465Y-94786326D01*
X90014899Y-94748633D01*
X90033466Y-94713897D01*
X90058452Y-94683452D01*
X90088897Y-94658466D01*
X90123633Y-94639899D01*
X90161326Y-94628465D01*
X90206661Y-94624000D01*
X91293339Y-94624000D01*
X91338674Y-94628465D01*
X91338674Y-94628465D01*
G37*
G36*
X86838674Y-94628465D02*
G01*
X86876367Y-94639899D01*
X86911103Y-94658466D01*
X86941548Y-94683452D01*
X86966534Y-94713897D01*
X86985101Y-94748633D01*
X86996535Y-94786326D01*
X87001000Y-94831661D01*
X87001000Y-95668339D01*
X86996535Y-95713674D01*
X86985101Y-95751367D01*
X86966534Y-95786103D01*
X86941548Y-95816548D01*
X86911103Y-95841534D01*
X86876367Y-95860101D01*
X86838674Y-95871535D01*
X86793339Y-95876000D01*
X85706661Y-95876000D01*
X85661326Y-95871535D01*
X85623633Y-95860101D01*
X85588897Y-95841534D01*
X85558452Y-95816548D01*
X85533466Y-95786103D01*
X85514899Y-95751367D01*
X85503465Y-95713674D01*
X85499000Y-95668339D01*
X85499000Y-94831661D01*
X85503465Y-94786326D01*
X85514899Y-94748633D01*
X85533466Y-94713897D01*
X85558452Y-94683452D01*
X85588897Y-94658466D01*
X85623633Y-94639899D01*
X85661326Y-94628465D01*
X85706661Y-94624000D01*
X86793339Y-94624000D01*
X86838674Y-94628465D01*
X86838674Y-94628465D01*
G37*
G36*
X51588674Y-94428465D02*
G01*
X51626367Y-94439899D01*
X51661103Y-94458466D01*
X51691548Y-94483452D01*
X51716534Y-94513897D01*
X51735101Y-94548633D01*
X51746535Y-94586326D01*
X51751000Y-94631661D01*
X51751000Y-95468339D01*
X51746535Y-95513674D01*
X51735101Y-95551367D01*
X51716534Y-95586103D01*
X51691548Y-95616548D01*
X51661103Y-95641534D01*
X51626367Y-95660101D01*
X51588674Y-95671535D01*
X51543339Y-95676000D01*
X50456661Y-95676000D01*
X50411326Y-95671535D01*
X50373633Y-95660101D01*
X50338897Y-95641534D01*
X50308452Y-95616548D01*
X50283466Y-95586103D01*
X50264899Y-95551367D01*
X50253465Y-95513674D01*
X50249000Y-95468339D01*
X50249000Y-94631661D01*
X50253465Y-94586326D01*
X50264899Y-94548633D01*
X50283466Y-94513897D01*
X50308452Y-94483452D01*
X50338897Y-94458466D01*
X50373633Y-94439899D01*
X50411326Y-94428465D01*
X50456661Y-94424000D01*
X51543339Y-94424000D01*
X51588674Y-94428465D01*
X51588674Y-94428465D01*
G37*
G36*
X49588674Y-94428465D02*
G01*
X49626367Y-94439899D01*
X49661103Y-94458466D01*
X49691548Y-94483452D01*
X49716534Y-94513897D01*
X49735101Y-94548633D01*
X49746535Y-94586326D01*
X49751000Y-94631661D01*
X49751000Y-95468339D01*
X49746535Y-95513674D01*
X49735101Y-95551367D01*
X49716534Y-95586103D01*
X49691548Y-95616548D01*
X49661103Y-95641534D01*
X49626367Y-95660101D01*
X49588674Y-95671535D01*
X49543339Y-95676000D01*
X48456661Y-95676000D01*
X48411326Y-95671535D01*
X48373633Y-95660101D01*
X48338897Y-95641534D01*
X48308452Y-95616548D01*
X48283466Y-95586103D01*
X48264899Y-95551367D01*
X48253465Y-95513674D01*
X48249000Y-95468339D01*
X48249000Y-94631661D01*
X48253465Y-94586326D01*
X48264899Y-94548633D01*
X48283466Y-94513897D01*
X48308452Y-94483452D01*
X48338897Y-94458466D01*
X48373633Y-94439899D01*
X48411326Y-94428465D01*
X48456661Y-94424000D01*
X49543339Y-94424000D01*
X49588674Y-94428465D01*
X49588674Y-94428465D01*
G37*
G36*
X112351000Y-94351000D02*
G01*
X110649000Y-94351000D01*
X110649000Y-92649000D01*
X112351000Y-92649000D01*
X112351000Y-94351000D01*
X112351000Y-94351000D01*
G37*
G36*
X61857142Y-92268242D02*
G01*
X62005101Y-92329529D01*
X62138255Y-92418499D01*
X62251501Y-92531745D01*
X62340471Y-92664899D01*
X62401758Y-92812858D01*
X62433000Y-92969925D01*
X62433000Y-93130075D01*
X62401758Y-93287142D01*
X62340471Y-93435101D01*
X62251501Y-93568255D01*
X62138255Y-93681501D01*
X62005101Y-93770471D01*
X61857142Y-93831758D01*
X61700075Y-93863000D01*
X61539925Y-93863000D01*
X61382858Y-93831758D01*
X61234899Y-93770471D01*
X61101745Y-93681501D01*
X60988499Y-93568255D01*
X60899529Y-93435101D01*
X60838242Y-93287142D01*
X60807000Y-93130075D01*
X60807000Y-92969925D01*
X60838242Y-92812858D01*
X60899529Y-92664899D01*
X60988499Y-92531745D01*
X61101745Y-92418499D01*
X61234899Y-92329529D01*
X61382858Y-92268242D01*
X61539925Y-92237000D01*
X61700075Y-92237000D01*
X61857142Y-92268242D01*
X61857142Y-92268242D01*
G37*
G36*
X46617142Y-92268242D02*
G01*
X46765101Y-92329529D01*
X46898255Y-92418499D01*
X47011501Y-92531745D01*
X47100471Y-92664899D01*
X47161758Y-92812858D01*
X47193000Y-92969925D01*
X47193000Y-93130075D01*
X47161758Y-93287142D01*
X47100471Y-93435101D01*
X47011501Y-93568255D01*
X46898255Y-93681501D01*
X46765101Y-93770471D01*
X46617142Y-93831758D01*
X46460075Y-93863000D01*
X46299925Y-93863000D01*
X46142858Y-93831758D01*
X45994899Y-93770471D01*
X45861745Y-93681501D01*
X45748499Y-93568255D01*
X45659529Y-93435101D01*
X45598242Y-93287142D01*
X45567000Y-93130075D01*
X45567000Y-92969925D01*
X45598242Y-92812858D01*
X45659529Y-92664899D01*
X45748499Y-92531745D01*
X45861745Y-92418499D01*
X45994899Y-92329529D01*
X46142858Y-92268242D01*
X46299925Y-92237000D01*
X46460075Y-92237000D01*
X46617142Y-92268242D01*
X46617142Y-92268242D01*
G37*
G36*
X86838674Y-92578465D02*
G01*
X86876367Y-92589899D01*
X86911103Y-92608466D01*
X86941548Y-92633452D01*
X86966534Y-92663897D01*
X86985101Y-92698633D01*
X86996535Y-92736326D01*
X87001000Y-92781661D01*
X87001000Y-93618339D01*
X86996535Y-93663674D01*
X86985101Y-93701367D01*
X86966534Y-93736103D01*
X86941548Y-93766548D01*
X86911103Y-93791534D01*
X86876367Y-93810101D01*
X86838674Y-93821535D01*
X86793339Y-93826000D01*
X85706661Y-93826000D01*
X85661326Y-93821535D01*
X85623633Y-93810101D01*
X85588897Y-93791534D01*
X85558452Y-93766548D01*
X85533466Y-93736103D01*
X85514899Y-93701367D01*
X85503465Y-93663674D01*
X85499000Y-93618339D01*
X85499000Y-92781661D01*
X85503465Y-92736326D01*
X85514899Y-92698633D01*
X85533466Y-92663897D01*
X85558452Y-92633452D01*
X85588897Y-92608466D01*
X85623633Y-92589899D01*
X85661326Y-92578465D01*
X85706661Y-92574000D01*
X86793339Y-92574000D01*
X86838674Y-92578465D01*
X86838674Y-92578465D01*
G37*
G36*
X89088674Y-92578465D02*
G01*
X89126367Y-92589899D01*
X89161103Y-92608466D01*
X89191548Y-92633452D01*
X89216534Y-92663897D01*
X89235101Y-92698633D01*
X89246535Y-92736326D01*
X89251000Y-92781661D01*
X89251000Y-93618339D01*
X89246535Y-93663674D01*
X89235101Y-93701367D01*
X89216534Y-93736103D01*
X89191548Y-93766548D01*
X89161103Y-93791534D01*
X89126367Y-93810101D01*
X89088674Y-93821535D01*
X89043339Y-93826000D01*
X87956661Y-93826000D01*
X87911326Y-93821535D01*
X87873633Y-93810101D01*
X87838897Y-93791534D01*
X87808452Y-93766548D01*
X87783466Y-93736103D01*
X87764899Y-93701367D01*
X87753465Y-93663674D01*
X87749000Y-93618339D01*
X87749000Y-92781661D01*
X87753465Y-92736326D01*
X87764899Y-92698633D01*
X87783466Y-92663897D01*
X87808452Y-92633452D01*
X87838897Y-92608466D01*
X87873633Y-92589899D01*
X87911326Y-92578465D01*
X87956661Y-92574000D01*
X89043339Y-92574000D01*
X89088674Y-92578465D01*
X89088674Y-92578465D01*
G37*
G36*
X91338674Y-92578465D02*
G01*
X91376367Y-92589899D01*
X91411103Y-92608466D01*
X91441548Y-92633452D01*
X91466534Y-92663897D01*
X91485101Y-92698633D01*
X91496535Y-92736326D01*
X91501000Y-92781661D01*
X91501000Y-93618339D01*
X91496535Y-93663674D01*
X91485101Y-93701367D01*
X91466534Y-93736103D01*
X91441548Y-93766548D01*
X91411103Y-93791534D01*
X91376367Y-93810101D01*
X91338674Y-93821535D01*
X91293339Y-93826000D01*
X90206661Y-93826000D01*
X90161326Y-93821535D01*
X90123633Y-93810101D01*
X90088897Y-93791534D01*
X90058452Y-93766548D01*
X90033466Y-93736103D01*
X90014899Y-93701367D01*
X90003465Y-93663674D01*
X89999000Y-93618339D01*
X89999000Y-92781661D01*
X90003465Y-92736326D01*
X90014899Y-92698633D01*
X90033466Y-92663897D01*
X90058452Y-92633452D01*
X90088897Y-92608466D01*
X90123633Y-92589899D01*
X90161326Y-92578465D01*
X90206661Y-92574000D01*
X91293339Y-92574000D01*
X91338674Y-92578465D01*
X91338674Y-92578465D01*
G37*
G36*
X122610443Y-91885519D02*
G01*
X122676627Y-91892037D01*
X122846466Y-91943557D01*
X123002991Y-92027222D01*
X123038729Y-92056552D01*
X123140186Y-92139814D01*
X123219943Y-92237000D01*
X123252778Y-92277009D01*
X123336443Y-92433534D01*
X123387963Y-92603373D01*
X123405359Y-92780000D01*
X123387963Y-92956627D01*
X123336443Y-93126466D01*
X123336442Y-93126468D01*
X123334514Y-93130075D01*
X123252778Y-93282991D01*
X123223448Y-93318729D01*
X123140186Y-93420186D01*
X123041265Y-93501367D01*
X123002991Y-93532778D01*
X122846466Y-93616443D01*
X122676627Y-93667963D01*
X122610443Y-93674481D01*
X122544260Y-93681000D01*
X122455740Y-93681000D01*
X122389557Y-93674481D01*
X122323373Y-93667963D01*
X122153534Y-93616443D01*
X121997009Y-93532778D01*
X121958735Y-93501367D01*
X121859814Y-93420186D01*
X121776552Y-93318729D01*
X121747222Y-93282991D01*
X121665486Y-93130075D01*
X121663558Y-93126468D01*
X121663557Y-93126466D01*
X121612037Y-92956627D01*
X121594641Y-92780000D01*
X121612037Y-92603373D01*
X121663557Y-92433534D01*
X121747222Y-92277009D01*
X121780057Y-92237000D01*
X121859814Y-92139814D01*
X121961271Y-92056552D01*
X121997009Y-92027222D01*
X122153534Y-91943557D01*
X122323373Y-91892037D01*
X122389557Y-91885519D01*
X122455740Y-91879000D01*
X122544260Y-91879000D01*
X122610443Y-91885519D01*
X122610443Y-91885519D01*
G37*
G36*
X120070443Y-91885519D02*
G01*
X120136627Y-91892037D01*
X120306466Y-91943557D01*
X120462991Y-92027222D01*
X120498729Y-92056552D01*
X120600186Y-92139814D01*
X120679943Y-92237000D01*
X120712778Y-92277009D01*
X120796443Y-92433534D01*
X120847963Y-92603373D01*
X120865359Y-92780000D01*
X120847963Y-92956627D01*
X120796443Y-93126466D01*
X120796442Y-93126468D01*
X120794514Y-93130075D01*
X120712778Y-93282991D01*
X120683448Y-93318729D01*
X120600186Y-93420186D01*
X120501265Y-93501367D01*
X120462991Y-93532778D01*
X120306466Y-93616443D01*
X120136627Y-93667963D01*
X120070443Y-93674481D01*
X120004260Y-93681000D01*
X119915740Y-93681000D01*
X119849557Y-93674481D01*
X119783373Y-93667963D01*
X119613534Y-93616443D01*
X119457009Y-93532778D01*
X119418735Y-93501367D01*
X119319814Y-93420186D01*
X119236552Y-93318729D01*
X119207222Y-93282991D01*
X119125486Y-93130075D01*
X119123558Y-93126468D01*
X119123557Y-93126466D01*
X119072037Y-92956627D01*
X119054641Y-92780000D01*
X119072037Y-92603373D01*
X119123557Y-92433534D01*
X119207222Y-92277009D01*
X119240057Y-92237000D01*
X119319814Y-92139814D01*
X119421271Y-92056552D01*
X119457009Y-92027222D01*
X119613534Y-91943557D01*
X119783373Y-91892037D01*
X119849557Y-91885519D01*
X119915740Y-91879000D01*
X120004260Y-91879000D01*
X120070443Y-91885519D01*
X120070443Y-91885519D01*
G37*
G36*
X51588674Y-92378465D02*
G01*
X51626367Y-92389899D01*
X51661103Y-92408466D01*
X51691548Y-92433452D01*
X51716534Y-92463897D01*
X51735101Y-92498633D01*
X51746535Y-92536326D01*
X51751000Y-92581661D01*
X51751000Y-93418339D01*
X51746535Y-93463674D01*
X51735101Y-93501367D01*
X51716534Y-93536103D01*
X51691548Y-93566548D01*
X51661103Y-93591534D01*
X51626367Y-93610101D01*
X51588674Y-93621535D01*
X51543339Y-93626000D01*
X50456661Y-93626000D01*
X50411326Y-93621535D01*
X50373633Y-93610101D01*
X50338897Y-93591534D01*
X50308452Y-93566548D01*
X50283466Y-93536103D01*
X50264899Y-93501367D01*
X50253465Y-93463674D01*
X50249000Y-93418339D01*
X50249000Y-92581661D01*
X50253465Y-92536326D01*
X50264899Y-92498633D01*
X50283466Y-92463897D01*
X50308452Y-92433452D01*
X50338897Y-92408466D01*
X50373633Y-92389899D01*
X50411326Y-92378465D01*
X50456661Y-92374000D01*
X51543339Y-92374000D01*
X51588674Y-92378465D01*
X51588674Y-92378465D01*
G37*
G36*
X49588674Y-92378465D02*
G01*
X49626367Y-92389899D01*
X49661103Y-92408466D01*
X49691548Y-92433452D01*
X49716534Y-92463897D01*
X49735101Y-92498633D01*
X49746535Y-92536326D01*
X49751000Y-92581661D01*
X49751000Y-93418339D01*
X49746535Y-93463674D01*
X49735101Y-93501367D01*
X49716534Y-93536103D01*
X49691548Y-93566548D01*
X49661103Y-93591534D01*
X49626367Y-93610101D01*
X49588674Y-93621535D01*
X49543339Y-93626000D01*
X48456661Y-93626000D01*
X48411326Y-93621535D01*
X48373633Y-93610101D01*
X48338897Y-93591534D01*
X48308452Y-93566548D01*
X48283466Y-93536103D01*
X48264899Y-93501367D01*
X48253465Y-93463674D01*
X48249000Y-93418339D01*
X48249000Y-92581661D01*
X48253465Y-92536326D01*
X48264899Y-92498633D01*
X48283466Y-92463897D01*
X48308452Y-92433452D01*
X48338897Y-92408466D01*
X48373633Y-92389899D01*
X48411326Y-92378465D01*
X48456661Y-92374000D01*
X49543339Y-92374000D01*
X49588674Y-92378465D01*
X49588674Y-92378465D01*
G37*
G36*
X46617142Y-89728242D02*
G01*
X46765101Y-89789529D01*
X46898255Y-89878499D01*
X47011501Y-89991745D01*
X47100471Y-90124899D01*
X47161758Y-90272858D01*
X47193000Y-90429925D01*
X47193000Y-90590075D01*
X47161758Y-90747142D01*
X47100471Y-90895101D01*
X47011501Y-91028255D01*
X46898255Y-91141501D01*
X46765101Y-91230471D01*
X46617142Y-91291758D01*
X46460075Y-91323000D01*
X46299925Y-91323000D01*
X46142858Y-91291758D01*
X45994899Y-91230471D01*
X45861745Y-91141501D01*
X45748499Y-91028255D01*
X45659529Y-90895101D01*
X45598242Y-90747142D01*
X45567000Y-90590075D01*
X45567000Y-90429925D01*
X45598242Y-90272858D01*
X45659529Y-90124899D01*
X45748499Y-89991745D01*
X45861745Y-89878499D01*
X45994899Y-89789529D01*
X46142858Y-89728242D01*
X46299925Y-89697000D01*
X46460075Y-89697000D01*
X46617142Y-89728242D01*
X46617142Y-89728242D01*
G37*
G36*
X61857142Y-89728242D02*
G01*
X62005101Y-89789529D01*
X62138255Y-89878499D01*
X62251501Y-89991745D01*
X62340471Y-90124899D01*
X62401758Y-90272858D01*
X62433000Y-90429925D01*
X62433000Y-90590075D01*
X62401758Y-90747142D01*
X62340471Y-90895101D01*
X62251501Y-91028255D01*
X62138255Y-91141501D01*
X62005101Y-91230471D01*
X61857142Y-91291758D01*
X61700075Y-91323000D01*
X61539925Y-91323000D01*
X61382858Y-91291758D01*
X61234899Y-91230471D01*
X61101745Y-91141501D01*
X60988499Y-91028255D01*
X60899529Y-90895101D01*
X60838242Y-90747142D01*
X60807000Y-90590075D01*
X60807000Y-90429925D01*
X60838242Y-90272858D01*
X60899529Y-90124899D01*
X60988499Y-89991745D01*
X61101745Y-89878499D01*
X61234899Y-89789529D01*
X61382858Y-89728242D01*
X61539925Y-89697000D01*
X61700075Y-89697000D01*
X61857142Y-89728242D01*
X61857142Y-89728242D01*
G37*
G36*
X122610443Y-89345519D02*
G01*
X122676627Y-89352037D01*
X122846466Y-89403557D01*
X123002991Y-89487222D01*
X123038729Y-89516552D01*
X123140186Y-89599814D01*
X123219943Y-89697000D01*
X123252778Y-89737009D01*
X123336443Y-89893534D01*
X123387963Y-90063373D01*
X123405359Y-90240000D01*
X123387963Y-90416627D01*
X123336443Y-90586466D01*
X123336442Y-90586468D01*
X123334514Y-90590075D01*
X123252778Y-90742991D01*
X123223448Y-90778729D01*
X123140186Y-90880186D01*
X123038729Y-90963448D01*
X123002991Y-90992778D01*
X122846466Y-91076443D01*
X122676627Y-91127963D01*
X122610443Y-91134481D01*
X122544260Y-91141000D01*
X122455740Y-91141000D01*
X122389557Y-91134481D01*
X122323373Y-91127963D01*
X122153534Y-91076443D01*
X121997009Y-90992778D01*
X121961271Y-90963448D01*
X121859814Y-90880186D01*
X121776552Y-90778729D01*
X121747222Y-90742991D01*
X121665486Y-90590075D01*
X121663558Y-90586468D01*
X121663557Y-90586466D01*
X121612037Y-90416627D01*
X121594641Y-90240000D01*
X121612037Y-90063373D01*
X121663557Y-89893534D01*
X121747222Y-89737009D01*
X121780057Y-89697000D01*
X121859814Y-89599814D01*
X121961271Y-89516552D01*
X121997009Y-89487222D01*
X122153534Y-89403557D01*
X122323373Y-89352037D01*
X122389557Y-89345519D01*
X122455740Y-89339000D01*
X122544260Y-89339000D01*
X122610443Y-89345519D01*
X122610443Y-89345519D01*
G37*
G36*
X120070443Y-89345519D02*
G01*
X120136627Y-89352037D01*
X120306466Y-89403557D01*
X120462991Y-89487222D01*
X120498729Y-89516552D01*
X120600186Y-89599814D01*
X120679943Y-89697000D01*
X120712778Y-89737009D01*
X120796443Y-89893534D01*
X120847963Y-90063373D01*
X120865359Y-90240000D01*
X120847963Y-90416627D01*
X120796443Y-90586466D01*
X120796442Y-90586468D01*
X120794514Y-90590075D01*
X120712778Y-90742991D01*
X120683448Y-90778729D01*
X120600186Y-90880186D01*
X120498729Y-90963448D01*
X120462991Y-90992778D01*
X120306466Y-91076443D01*
X120136627Y-91127963D01*
X120070443Y-91134481D01*
X120004260Y-91141000D01*
X119915740Y-91141000D01*
X119849557Y-91134481D01*
X119783373Y-91127963D01*
X119613534Y-91076443D01*
X119457009Y-90992778D01*
X119421271Y-90963448D01*
X119319814Y-90880186D01*
X119236552Y-90778729D01*
X119207222Y-90742991D01*
X119125486Y-90590075D01*
X119123558Y-90586468D01*
X119123557Y-90586466D01*
X119072037Y-90416627D01*
X119054641Y-90240000D01*
X119072037Y-90063373D01*
X119123557Y-89893534D01*
X119207222Y-89737009D01*
X119240057Y-89697000D01*
X119319814Y-89599814D01*
X119421271Y-89516552D01*
X119457009Y-89487222D01*
X119613534Y-89403557D01*
X119783373Y-89352037D01*
X119849557Y-89345519D01*
X119915740Y-89339000D01*
X120004260Y-89339000D01*
X120070443Y-89345519D01*
X120070443Y-89345519D01*
G37*
G36*
X39351000Y-89351000D02*
G01*
X37649000Y-89351000D01*
X37649000Y-87649000D01*
X39351000Y-87649000D01*
X39351000Y-89351000D01*
X39351000Y-89351000D01*
G37*
G36*
X33586823Y-87661313D02*
G01*
X33747242Y-87709976D01*
X33879906Y-87780886D01*
X33895078Y-87788996D01*
X34024659Y-87895341D01*
X34131004Y-88024922D01*
X34131005Y-88024924D01*
X34210024Y-88172758D01*
X34258687Y-88333177D01*
X34275117Y-88500000D01*
X34258687Y-88666823D01*
X34210024Y-88827242D01*
X34139114Y-88959906D01*
X34131004Y-88975078D01*
X34024659Y-89104659D01*
X33895078Y-89211004D01*
X33895076Y-89211005D01*
X33747242Y-89290024D01*
X33586823Y-89338687D01*
X33461804Y-89351000D01*
X33378196Y-89351000D01*
X33253177Y-89338687D01*
X33092758Y-89290024D01*
X32944924Y-89211005D01*
X32944922Y-89211004D01*
X32815341Y-89104659D01*
X32708996Y-88975078D01*
X32700886Y-88959906D01*
X32629976Y-88827242D01*
X32581313Y-88666823D01*
X32564883Y-88500000D01*
X32581313Y-88333177D01*
X32629976Y-88172758D01*
X32708995Y-88024924D01*
X32708996Y-88024922D01*
X32815341Y-87895341D01*
X32944922Y-87788996D01*
X32960094Y-87780886D01*
X33092758Y-87709976D01*
X33253177Y-87661313D01*
X33378196Y-87649000D01*
X33461804Y-87649000D01*
X33586823Y-87661313D01*
X33586823Y-87661313D01*
G37*
G36*
X31046823Y-87661313D02*
G01*
X31207242Y-87709976D01*
X31339906Y-87780886D01*
X31355078Y-87788996D01*
X31484659Y-87895341D01*
X31591004Y-88024922D01*
X31591005Y-88024924D01*
X31670024Y-88172758D01*
X31718687Y-88333177D01*
X31735117Y-88500000D01*
X31718687Y-88666823D01*
X31670024Y-88827242D01*
X31599114Y-88959906D01*
X31591004Y-88975078D01*
X31484659Y-89104659D01*
X31355078Y-89211004D01*
X31355076Y-89211005D01*
X31207242Y-89290024D01*
X31046823Y-89338687D01*
X30921804Y-89351000D01*
X30838196Y-89351000D01*
X30713177Y-89338687D01*
X30552758Y-89290024D01*
X30404924Y-89211005D01*
X30404922Y-89211004D01*
X30275341Y-89104659D01*
X30168996Y-88975078D01*
X30160886Y-88959906D01*
X30089976Y-88827242D01*
X30041313Y-88666823D01*
X30024883Y-88500000D01*
X30041313Y-88333177D01*
X30089976Y-88172758D01*
X30168995Y-88024924D01*
X30168996Y-88024922D01*
X30275341Y-87895341D01*
X30404922Y-87788996D01*
X30420094Y-87780886D01*
X30552758Y-87709976D01*
X30713177Y-87661313D01*
X30838196Y-87649000D01*
X30921804Y-87649000D01*
X31046823Y-87661313D01*
X31046823Y-87661313D01*
G37*
G36*
X36126823Y-87661313D02*
G01*
X36287242Y-87709976D01*
X36419906Y-87780886D01*
X36435078Y-87788996D01*
X36564659Y-87895341D01*
X36671004Y-88024922D01*
X36671005Y-88024924D01*
X36750024Y-88172758D01*
X36798687Y-88333177D01*
X36815117Y-88500000D01*
X36798687Y-88666823D01*
X36750024Y-88827242D01*
X36679114Y-88959906D01*
X36671004Y-88975078D01*
X36564659Y-89104659D01*
X36435078Y-89211004D01*
X36435076Y-89211005D01*
X36287242Y-89290024D01*
X36126823Y-89338687D01*
X36001804Y-89351000D01*
X35918196Y-89351000D01*
X35793177Y-89338687D01*
X35632758Y-89290024D01*
X35484924Y-89211005D01*
X35484922Y-89211004D01*
X35355341Y-89104659D01*
X35248996Y-88975078D01*
X35240886Y-88959906D01*
X35169976Y-88827242D01*
X35121313Y-88666823D01*
X35104883Y-88500000D01*
X35121313Y-88333177D01*
X35169976Y-88172758D01*
X35248995Y-88024924D01*
X35248996Y-88024922D01*
X35355341Y-87895341D01*
X35484922Y-87788996D01*
X35500094Y-87780886D01*
X35632758Y-87709976D01*
X35793177Y-87661313D01*
X35918196Y-87649000D01*
X36001804Y-87649000D01*
X36126823Y-87661313D01*
X36126823Y-87661313D01*
G37*
G36*
X46617142Y-87188242D02*
G01*
X46765101Y-87249529D01*
X46898255Y-87338499D01*
X47011501Y-87451745D01*
X47100471Y-87584899D01*
X47161758Y-87732858D01*
X47193000Y-87889925D01*
X47193000Y-88050075D01*
X47161758Y-88207142D01*
X47100471Y-88355101D01*
X47011501Y-88488255D01*
X46898255Y-88601501D01*
X46765101Y-88690471D01*
X46617142Y-88751758D01*
X46460075Y-88783000D01*
X46299925Y-88783000D01*
X46142858Y-88751758D01*
X45994899Y-88690471D01*
X45861745Y-88601501D01*
X45748499Y-88488255D01*
X45659529Y-88355101D01*
X45598242Y-88207142D01*
X45567000Y-88050075D01*
X45567000Y-87889925D01*
X45598242Y-87732858D01*
X45659529Y-87584899D01*
X45748499Y-87451745D01*
X45861745Y-87338499D01*
X45994899Y-87249529D01*
X46142858Y-87188242D01*
X46299925Y-87157000D01*
X46460075Y-87157000D01*
X46617142Y-87188242D01*
X46617142Y-87188242D01*
G37*
G36*
X61857142Y-87188242D02*
G01*
X62005101Y-87249529D01*
X62138255Y-87338499D01*
X62251501Y-87451745D01*
X62340471Y-87584899D01*
X62401758Y-87732858D01*
X62433000Y-87889925D01*
X62433000Y-88050075D01*
X62401758Y-88207142D01*
X62340471Y-88355101D01*
X62251501Y-88488255D01*
X62138255Y-88601501D01*
X62005101Y-88690471D01*
X61857142Y-88751758D01*
X61700075Y-88783000D01*
X61539925Y-88783000D01*
X61382858Y-88751758D01*
X61234899Y-88690471D01*
X61101745Y-88601501D01*
X60988499Y-88488255D01*
X60899529Y-88355101D01*
X60838242Y-88207142D01*
X60807000Y-88050075D01*
X60807000Y-87889925D01*
X60838242Y-87732858D01*
X60899529Y-87584899D01*
X60988499Y-87451745D01*
X61101745Y-87338499D01*
X61234899Y-87249529D01*
X61382858Y-87188242D01*
X61539925Y-87157000D01*
X61700075Y-87157000D01*
X61857142Y-87188242D01*
X61857142Y-87188242D01*
G37*
G36*
X59488674Y-87253465D02*
G01*
X59526367Y-87264899D01*
X59561103Y-87283466D01*
X59591548Y-87308452D01*
X59616534Y-87338897D01*
X59635101Y-87373633D01*
X59646535Y-87411326D01*
X59651000Y-87456661D01*
X59651000Y-88543339D01*
X59646535Y-88588674D01*
X59635101Y-88626367D01*
X59616534Y-88661103D01*
X59591548Y-88691548D01*
X59561103Y-88716534D01*
X59526367Y-88735101D01*
X59488674Y-88746535D01*
X59443339Y-88751000D01*
X58606661Y-88751000D01*
X58561326Y-88746535D01*
X58523633Y-88735101D01*
X58488897Y-88716534D01*
X58458452Y-88691548D01*
X58433466Y-88661103D01*
X58414899Y-88626367D01*
X58403465Y-88588674D01*
X58399000Y-88543339D01*
X58399000Y-87456661D01*
X58403465Y-87411326D01*
X58414899Y-87373633D01*
X58433466Y-87338897D01*
X58458452Y-87308452D01*
X58488897Y-87283466D01*
X58523633Y-87264899D01*
X58561326Y-87253465D01*
X58606661Y-87249000D01*
X59443339Y-87249000D01*
X59488674Y-87253465D01*
X59488674Y-87253465D01*
G37*
G36*
X57438674Y-87253465D02*
G01*
X57476367Y-87264899D01*
X57511103Y-87283466D01*
X57541548Y-87308452D01*
X57566534Y-87338897D01*
X57585101Y-87373633D01*
X57596535Y-87411326D01*
X57601000Y-87456661D01*
X57601000Y-88543339D01*
X57596535Y-88588674D01*
X57585101Y-88626367D01*
X57566534Y-88661103D01*
X57541548Y-88691548D01*
X57511103Y-88716534D01*
X57476367Y-88735101D01*
X57438674Y-88746535D01*
X57393339Y-88751000D01*
X56556661Y-88751000D01*
X56511326Y-88746535D01*
X56473633Y-88735101D01*
X56438897Y-88716534D01*
X56408452Y-88691548D01*
X56383466Y-88661103D01*
X56364899Y-88626367D01*
X56353465Y-88588674D01*
X56349000Y-88543339D01*
X56349000Y-87456661D01*
X56353465Y-87411326D01*
X56364899Y-87373633D01*
X56383466Y-87338897D01*
X56408452Y-87308452D01*
X56438897Y-87283466D01*
X56473633Y-87264899D01*
X56511326Y-87253465D01*
X56556661Y-87249000D01*
X57393339Y-87249000D01*
X57438674Y-87253465D01*
X57438674Y-87253465D01*
G37*
G36*
X122610442Y-86805518D02*
G01*
X122676627Y-86812037D01*
X122846466Y-86863557D01*
X123002991Y-86947222D01*
X123038729Y-86976552D01*
X123140186Y-87059814D01*
X123219943Y-87157000D01*
X123252778Y-87197009D01*
X123252779Y-87197011D01*
X123323179Y-87328718D01*
X123336443Y-87353534D01*
X123387963Y-87523373D01*
X123405359Y-87700000D01*
X123387963Y-87876627D01*
X123336443Y-88046466D01*
X123336442Y-88046468D01*
X123334514Y-88050075D01*
X123252778Y-88202991D01*
X123223448Y-88238729D01*
X123140186Y-88340186D01*
X123038729Y-88423448D01*
X123002991Y-88452778D01*
X122846466Y-88536443D01*
X122676627Y-88587963D01*
X122610442Y-88594482D01*
X122544260Y-88601000D01*
X122455740Y-88601000D01*
X122389558Y-88594482D01*
X122323373Y-88587963D01*
X122153534Y-88536443D01*
X121997009Y-88452778D01*
X121961271Y-88423448D01*
X121859814Y-88340186D01*
X121776552Y-88238729D01*
X121747222Y-88202991D01*
X121665486Y-88050075D01*
X121663558Y-88046468D01*
X121663557Y-88046466D01*
X121612037Y-87876627D01*
X121594641Y-87700000D01*
X121612037Y-87523373D01*
X121663557Y-87353534D01*
X121676822Y-87328718D01*
X121747221Y-87197011D01*
X121747222Y-87197009D01*
X121780057Y-87157000D01*
X121859814Y-87059814D01*
X121961271Y-86976552D01*
X121997009Y-86947222D01*
X122153534Y-86863557D01*
X122323373Y-86812037D01*
X122389558Y-86805518D01*
X122455740Y-86799000D01*
X122544260Y-86799000D01*
X122610442Y-86805518D01*
X122610442Y-86805518D01*
G37*
G36*
X120070442Y-86805518D02*
G01*
X120136627Y-86812037D01*
X120306466Y-86863557D01*
X120462991Y-86947222D01*
X120498729Y-86976552D01*
X120600186Y-87059814D01*
X120679943Y-87157000D01*
X120712778Y-87197009D01*
X120712779Y-87197011D01*
X120783179Y-87328718D01*
X120796443Y-87353534D01*
X120847963Y-87523373D01*
X120865359Y-87700000D01*
X120847963Y-87876627D01*
X120796443Y-88046466D01*
X120796442Y-88046468D01*
X120794514Y-88050075D01*
X120712778Y-88202991D01*
X120683448Y-88238729D01*
X120600186Y-88340186D01*
X120498729Y-88423448D01*
X120462991Y-88452778D01*
X120306466Y-88536443D01*
X120136627Y-88587963D01*
X120070442Y-88594482D01*
X120004260Y-88601000D01*
X119915740Y-88601000D01*
X119849558Y-88594482D01*
X119783373Y-88587963D01*
X119613534Y-88536443D01*
X119457009Y-88452778D01*
X119421271Y-88423448D01*
X119319814Y-88340186D01*
X119236552Y-88238729D01*
X119207222Y-88202991D01*
X119125486Y-88050075D01*
X119123558Y-88046468D01*
X119123557Y-88046466D01*
X119072037Y-87876627D01*
X119054641Y-87700000D01*
X119072037Y-87523373D01*
X119123557Y-87353534D01*
X119136822Y-87328718D01*
X119207221Y-87197011D01*
X119207222Y-87197009D01*
X119240057Y-87157000D01*
X119319814Y-87059814D01*
X119421271Y-86976552D01*
X119457009Y-86947222D01*
X119613534Y-86863557D01*
X119783373Y-86812037D01*
X119849558Y-86805518D01*
X119915740Y-86799000D01*
X120004260Y-86799000D01*
X120070442Y-86805518D01*
X120070442Y-86805518D01*
G37*
G36*
X59463674Y-84753465D02*
G01*
X59501367Y-84764899D01*
X59536103Y-84783466D01*
X59566548Y-84808452D01*
X59591534Y-84838897D01*
X59610101Y-84873633D01*
X59621535Y-84911326D01*
X59626000Y-84956661D01*
X59626000Y-86043339D01*
X59621535Y-86088674D01*
X59610101Y-86126367D01*
X59591534Y-86161103D01*
X59566548Y-86191548D01*
X59536103Y-86216534D01*
X59501367Y-86235101D01*
X59463674Y-86246535D01*
X59418339Y-86251000D01*
X58581661Y-86251000D01*
X58536326Y-86246535D01*
X58498633Y-86235101D01*
X58463897Y-86216534D01*
X58433452Y-86191548D01*
X58408466Y-86161103D01*
X58389899Y-86126367D01*
X58378465Y-86088674D01*
X58374000Y-86043339D01*
X58374000Y-84956661D01*
X58378465Y-84911326D01*
X58389899Y-84873633D01*
X58408466Y-84838897D01*
X58433452Y-84808452D01*
X58463897Y-84783466D01*
X58498633Y-84764899D01*
X58536326Y-84753465D01*
X58581661Y-84749000D01*
X59418339Y-84749000D01*
X59463674Y-84753465D01*
X59463674Y-84753465D01*
G37*
G36*
X57413674Y-84753465D02*
G01*
X57451367Y-84764899D01*
X57486103Y-84783466D01*
X57516548Y-84808452D01*
X57541534Y-84838897D01*
X57560101Y-84873633D01*
X57571535Y-84911326D01*
X57576000Y-84956661D01*
X57576000Y-86043339D01*
X57571535Y-86088674D01*
X57560101Y-86126367D01*
X57541534Y-86161103D01*
X57516548Y-86191548D01*
X57486103Y-86216534D01*
X57451367Y-86235101D01*
X57413674Y-86246535D01*
X57368339Y-86251000D01*
X56531661Y-86251000D01*
X56486326Y-86246535D01*
X56448633Y-86235101D01*
X56413897Y-86216534D01*
X56383452Y-86191548D01*
X56358466Y-86161103D01*
X56339899Y-86126367D01*
X56328465Y-86088674D01*
X56324000Y-86043339D01*
X56324000Y-84956661D01*
X56328465Y-84911326D01*
X56339899Y-84873633D01*
X56358466Y-84838897D01*
X56383452Y-84808452D01*
X56413897Y-84783466D01*
X56448633Y-84764899D01*
X56486326Y-84753465D01*
X56531661Y-84749000D01*
X57368339Y-84749000D01*
X57413674Y-84753465D01*
X57413674Y-84753465D01*
G37*
G36*
X46617142Y-84648242D02*
G01*
X46765101Y-84709529D01*
X46898255Y-84798499D01*
X47011501Y-84911745D01*
X47100471Y-85044899D01*
X47161758Y-85192858D01*
X47193000Y-85349925D01*
X47193000Y-85510075D01*
X47161758Y-85667142D01*
X47100471Y-85815101D01*
X47011501Y-85948255D01*
X46898255Y-86061501D01*
X46765101Y-86150471D01*
X46617142Y-86211758D01*
X46460075Y-86243000D01*
X46299925Y-86243000D01*
X46142858Y-86211758D01*
X45994899Y-86150471D01*
X45861745Y-86061501D01*
X45748499Y-85948255D01*
X45659529Y-85815101D01*
X45598242Y-85667142D01*
X45567000Y-85510075D01*
X45567000Y-85349925D01*
X45598242Y-85192858D01*
X45659529Y-85044899D01*
X45748499Y-84911745D01*
X45861745Y-84798499D01*
X45994899Y-84709529D01*
X46142858Y-84648242D01*
X46299925Y-84617000D01*
X46460075Y-84617000D01*
X46617142Y-84648242D01*
X46617142Y-84648242D01*
G37*
G36*
X61857142Y-84648242D02*
G01*
X62005101Y-84709529D01*
X62138255Y-84798499D01*
X62251501Y-84911745D01*
X62340471Y-85044899D01*
X62401758Y-85192858D01*
X62433000Y-85349925D01*
X62433000Y-85510075D01*
X62401758Y-85667142D01*
X62340471Y-85815101D01*
X62251501Y-85948255D01*
X62138255Y-86061501D01*
X62005101Y-86150471D01*
X61857142Y-86211758D01*
X61700075Y-86243000D01*
X61539925Y-86243000D01*
X61382858Y-86211758D01*
X61234899Y-86150471D01*
X61101745Y-86061501D01*
X60988499Y-85948255D01*
X60899529Y-85815101D01*
X60838242Y-85667142D01*
X60807000Y-85510075D01*
X60807000Y-85349925D01*
X60838242Y-85192858D01*
X60899529Y-85044899D01*
X60988499Y-84911745D01*
X61101745Y-84798499D01*
X61234899Y-84709529D01*
X61382858Y-84648242D01*
X61539925Y-84617000D01*
X61700075Y-84617000D01*
X61857142Y-84648242D01*
X61857142Y-84648242D01*
G37*
G36*
X120070443Y-84265519D02*
G01*
X120136627Y-84272037D01*
X120306466Y-84323557D01*
X120462991Y-84407222D01*
X120498729Y-84436552D01*
X120600186Y-84519814D01*
X120679943Y-84617000D01*
X120712778Y-84657009D01*
X120796443Y-84813534D01*
X120847963Y-84983373D01*
X120865359Y-85160000D01*
X120847963Y-85336627D01*
X120796443Y-85506466D01*
X120796442Y-85506468D01*
X120794514Y-85510075D01*
X120712778Y-85662991D01*
X120683448Y-85698729D01*
X120600186Y-85800186D01*
X120498729Y-85883448D01*
X120462991Y-85912778D01*
X120306466Y-85996443D01*
X120136627Y-86047963D01*
X120070443Y-86054481D01*
X120004260Y-86061000D01*
X119915740Y-86061000D01*
X119849557Y-86054481D01*
X119783373Y-86047963D01*
X119613534Y-85996443D01*
X119457009Y-85912778D01*
X119421271Y-85883448D01*
X119319814Y-85800186D01*
X119236552Y-85698729D01*
X119207222Y-85662991D01*
X119125486Y-85510075D01*
X119123558Y-85506468D01*
X119123557Y-85506466D01*
X119072037Y-85336627D01*
X119054641Y-85160000D01*
X119072037Y-84983373D01*
X119123557Y-84813534D01*
X119207222Y-84657009D01*
X119240057Y-84617000D01*
X119319814Y-84519814D01*
X119421271Y-84436552D01*
X119457009Y-84407222D01*
X119613534Y-84323557D01*
X119783373Y-84272037D01*
X119849557Y-84265519D01*
X119915740Y-84259000D01*
X120004260Y-84259000D01*
X120070443Y-84265519D01*
X120070443Y-84265519D01*
G37*
G36*
X122610443Y-84265519D02*
G01*
X122676627Y-84272037D01*
X122846466Y-84323557D01*
X123002991Y-84407222D01*
X123038729Y-84436552D01*
X123140186Y-84519814D01*
X123219943Y-84617000D01*
X123252778Y-84657009D01*
X123336443Y-84813534D01*
X123387963Y-84983373D01*
X123405359Y-85160000D01*
X123387963Y-85336627D01*
X123336443Y-85506466D01*
X123336442Y-85506468D01*
X123334514Y-85510075D01*
X123252778Y-85662991D01*
X123223448Y-85698729D01*
X123140186Y-85800186D01*
X123038729Y-85883448D01*
X123002991Y-85912778D01*
X122846466Y-85996443D01*
X122676627Y-86047963D01*
X122610443Y-86054481D01*
X122544260Y-86061000D01*
X122455740Y-86061000D01*
X122389557Y-86054481D01*
X122323373Y-86047963D01*
X122153534Y-85996443D01*
X121997009Y-85912778D01*
X121961271Y-85883448D01*
X121859814Y-85800186D01*
X121776552Y-85698729D01*
X121747222Y-85662991D01*
X121665486Y-85510075D01*
X121663558Y-85506468D01*
X121663557Y-85506466D01*
X121612037Y-85336627D01*
X121594641Y-85160000D01*
X121612037Y-84983373D01*
X121663557Y-84813534D01*
X121747222Y-84657009D01*
X121780057Y-84617000D01*
X121859814Y-84519814D01*
X121961271Y-84436552D01*
X121997009Y-84407222D01*
X122153534Y-84323557D01*
X122323373Y-84272037D01*
X122389557Y-84265519D01*
X122455740Y-84259000D01*
X122544260Y-84259000D01*
X122610443Y-84265519D01*
X122610443Y-84265519D01*
G37*
G36*
X61857142Y-82108242D02*
G01*
X62005101Y-82169529D01*
X62138255Y-82258499D01*
X62251501Y-82371745D01*
X62340471Y-82504899D01*
X62401758Y-82652858D01*
X62433000Y-82809925D01*
X62433000Y-82970075D01*
X62401758Y-83127142D01*
X62340471Y-83275101D01*
X62251501Y-83408255D01*
X62138255Y-83521501D01*
X62005101Y-83610471D01*
X61857142Y-83671758D01*
X61700075Y-83703000D01*
X61539925Y-83703000D01*
X61382858Y-83671758D01*
X61234899Y-83610471D01*
X61101745Y-83521501D01*
X60988499Y-83408255D01*
X60899529Y-83275101D01*
X60838242Y-83127142D01*
X60807000Y-82970075D01*
X60807000Y-82809925D01*
X60838242Y-82652858D01*
X60899529Y-82504899D01*
X60988499Y-82371745D01*
X61101745Y-82258499D01*
X61234899Y-82169529D01*
X61382858Y-82108242D01*
X61539925Y-82077000D01*
X61700075Y-82077000D01*
X61857142Y-82108242D01*
X61857142Y-82108242D01*
G37*
G36*
X46617142Y-82108242D02*
G01*
X46765101Y-82169529D01*
X46898255Y-82258499D01*
X47011501Y-82371745D01*
X47100471Y-82504899D01*
X47161758Y-82652858D01*
X47193000Y-82809925D01*
X47193000Y-82970075D01*
X47161758Y-83127142D01*
X47100471Y-83275101D01*
X47011501Y-83408255D01*
X46898255Y-83521501D01*
X46765101Y-83610471D01*
X46617142Y-83671758D01*
X46460075Y-83703000D01*
X46299925Y-83703000D01*
X46142858Y-83671758D01*
X45994899Y-83610471D01*
X45861745Y-83521501D01*
X45748499Y-83408255D01*
X45659529Y-83275101D01*
X45598242Y-83127142D01*
X45567000Y-82970075D01*
X45567000Y-82809925D01*
X45598242Y-82652858D01*
X45659529Y-82504899D01*
X45748499Y-82371745D01*
X45861745Y-82258499D01*
X45994899Y-82169529D01*
X46142858Y-82108242D01*
X46299925Y-82077000D01*
X46460075Y-82077000D01*
X46617142Y-82108242D01*
X46617142Y-82108242D01*
G37*
G36*
X120070442Y-81725518D02*
G01*
X120136627Y-81732037D01*
X120306466Y-81783557D01*
X120462991Y-81867222D01*
X120498729Y-81896552D01*
X120600186Y-81979814D01*
X120679943Y-82077000D01*
X120712778Y-82117009D01*
X120796443Y-82273534D01*
X120847963Y-82443373D01*
X120865359Y-82620000D01*
X120847963Y-82796627D01*
X120796443Y-82966466D01*
X120796442Y-82966468D01*
X120794514Y-82970075D01*
X120712778Y-83122991D01*
X120683448Y-83158729D01*
X120600186Y-83260186D01*
X120498729Y-83343448D01*
X120462991Y-83372778D01*
X120306466Y-83456443D01*
X120136627Y-83507963D01*
X120070443Y-83514481D01*
X120004260Y-83521000D01*
X119915740Y-83521000D01*
X119849557Y-83514481D01*
X119783373Y-83507963D01*
X119613534Y-83456443D01*
X119457009Y-83372778D01*
X119421271Y-83343448D01*
X119319814Y-83260186D01*
X119236552Y-83158729D01*
X119207222Y-83122991D01*
X119125486Y-82970075D01*
X119123558Y-82966468D01*
X119123557Y-82966466D01*
X119072037Y-82796627D01*
X119054641Y-82620000D01*
X119072037Y-82443373D01*
X119123557Y-82273534D01*
X119207222Y-82117009D01*
X119240057Y-82077000D01*
X119319814Y-81979814D01*
X119421271Y-81896552D01*
X119457009Y-81867222D01*
X119613534Y-81783557D01*
X119783373Y-81732037D01*
X119849558Y-81725518D01*
X119915740Y-81719000D01*
X120004260Y-81719000D01*
X120070442Y-81725518D01*
X120070442Y-81725518D01*
G37*
G36*
X122610442Y-81725518D02*
G01*
X122676627Y-81732037D01*
X122846466Y-81783557D01*
X123002991Y-81867222D01*
X123038729Y-81896552D01*
X123140186Y-81979814D01*
X123219943Y-82077000D01*
X123252778Y-82117009D01*
X123336443Y-82273534D01*
X123387963Y-82443373D01*
X123405359Y-82620000D01*
X123387963Y-82796627D01*
X123336443Y-82966466D01*
X123336442Y-82966468D01*
X123334514Y-82970075D01*
X123252778Y-83122991D01*
X123223448Y-83158729D01*
X123140186Y-83260186D01*
X123038729Y-83343448D01*
X123002991Y-83372778D01*
X122846466Y-83456443D01*
X122676627Y-83507963D01*
X122610443Y-83514481D01*
X122544260Y-83521000D01*
X122455740Y-83521000D01*
X122389557Y-83514481D01*
X122323373Y-83507963D01*
X122153534Y-83456443D01*
X121997009Y-83372778D01*
X121961271Y-83343448D01*
X121859814Y-83260186D01*
X121776552Y-83158729D01*
X121747222Y-83122991D01*
X121665486Y-82970075D01*
X121663558Y-82966468D01*
X121663557Y-82966466D01*
X121612037Y-82796627D01*
X121594641Y-82620000D01*
X121612037Y-82443373D01*
X121663557Y-82273534D01*
X121747222Y-82117009D01*
X121780057Y-82077000D01*
X121859814Y-81979814D01*
X121961271Y-81896552D01*
X121997009Y-81867222D01*
X122153534Y-81783557D01*
X122323373Y-81732037D01*
X122389558Y-81725518D01*
X122455740Y-81719000D01*
X122544260Y-81719000D01*
X122610442Y-81725518D01*
X122610442Y-81725518D01*
G37*
G36*
X46617142Y-79568242D02*
G01*
X46765101Y-79629529D01*
X46898255Y-79718499D01*
X47011501Y-79831745D01*
X47100471Y-79964899D01*
X47161758Y-80112858D01*
X47193000Y-80269925D01*
X47193000Y-80430075D01*
X47161758Y-80587142D01*
X47100471Y-80735101D01*
X47011501Y-80868255D01*
X46898255Y-80981501D01*
X46765101Y-81070471D01*
X46617142Y-81131758D01*
X46460075Y-81163000D01*
X46299925Y-81163000D01*
X46142858Y-81131758D01*
X45994899Y-81070471D01*
X45861745Y-80981501D01*
X45748499Y-80868255D01*
X45659529Y-80735101D01*
X45598242Y-80587142D01*
X45567000Y-80430075D01*
X45567000Y-80269925D01*
X45598242Y-80112858D01*
X45659529Y-79964899D01*
X45748499Y-79831745D01*
X45861745Y-79718499D01*
X45994899Y-79629529D01*
X46142858Y-79568242D01*
X46299925Y-79537000D01*
X46460075Y-79537000D01*
X46617142Y-79568242D01*
X46617142Y-79568242D01*
G37*
G36*
X61857142Y-79568242D02*
G01*
X62005101Y-79629529D01*
X62138255Y-79718499D01*
X62251501Y-79831745D01*
X62340471Y-79964899D01*
X62401758Y-80112858D01*
X62433000Y-80269925D01*
X62433000Y-80430075D01*
X62401758Y-80587142D01*
X62340471Y-80735101D01*
X62251501Y-80868255D01*
X62138255Y-80981501D01*
X62005101Y-81070471D01*
X61857142Y-81131758D01*
X61700075Y-81163000D01*
X61539925Y-81163000D01*
X61382858Y-81131758D01*
X61234899Y-81070471D01*
X61101745Y-80981501D01*
X60988499Y-80868255D01*
X60899529Y-80735101D01*
X60838242Y-80587142D01*
X60807000Y-80430075D01*
X60807000Y-80269925D01*
X60838242Y-80112858D01*
X60899529Y-79964899D01*
X60988499Y-79831745D01*
X61101745Y-79718499D01*
X61234899Y-79629529D01*
X61382858Y-79568242D01*
X61539925Y-79537000D01*
X61700075Y-79537000D01*
X61857142Y-79568242D01*
X61857142Y-79568242D01*
G37*
G36*
X120070443Y-79185519D02*
G01*
X120136627Y-79192037D01*
X120306466Y-79243557D01*
X120462991Y-79327222D01*
X120498729Y-79356552D01*
X120600186Y-79439814D01*
X120679943Y-79537000D01*
X120712778Y-79577009D01*
X120796443Y-79733534D01*
X120847963Y-79903373D01*
X120865359Y-80080000D01*
X120847963Y-80256627D01*
X120796443Y-80426466D01*
X120796442Y-80426468D01*
X120794514Y-80430075D01*
X120712778Y-80582991D01*
X120683448Y-80618729D01*
X120600186Y-80720186D01*
X120498729Y-80803448D01*
X120462991Y-80832778D01*
X120306466Y-80916443D01*
X120136627Y-80967963D01*
X120070442Y-80974482D01*
X120004260Y-80981000D01*
X119915740Y-80981000D01*
X119849558Y-80974482D01*
X119783373Y-80967963D01*
X119613534Y-80916443D01*
X119457009Y-80832778D01*
X119421271Y-80803448D01*
X119319814Y-80720186D01*
X119236552Y-80618729D01*
X119207222Y-80582991D01*
X119125486Y-80430075D01*
X119123558Y-80426468D01*
X119123557Y-80426466D01*
X119072037Y-80256627D01*
X119054641Y-80080000D01*
X119072037Y-79903373D01*
X119123557Y-79733534D01*
X119207222Y-79577009D01*
X119240057Y-79537000D01*
X119319814Y-79439814D01*
X119421271Y-79356552D01*
X119457009Y-79327222D01*
X119613534Y-79243557D01*
X119783373Y-79192037D01*
X119849557Y-79185519D01*
X119915740Y-79179000D01*
X120004260Y-79179000D01*
X120070443Y-79185519D01*
X120070443Y-79185519D01*
G37*
G36*
X122610443Y-79185519D02*
G01*
X122676627Y-79192037D01*
X122846466Y-79243557D01*
X123002991Y-79327222D01*
X123038729Y-79356552D01*
X123140186Y-79439814D01*
X123219943Y-79537000D01*
X123252778Y-79577009D01*
X123336443Y-79733534D01*
X123387963Y-79903373D01*
X123405359Y-80080000D01*
X123387963Y-80256627D01*
X123336443Y-80426466D01*
X123336442Y-80426468D01*
X123334514Y-80430075D01*
X123252778Y-80582991D01*
X123223448Y-80618729D01*
X123140186Y-80720186D01*
X123038729Y-80803448D01*
X123002991Y-80832778D01*
X122846466Y-80916443D01*
X122676627Y-80967963D01*
X122610442Y-80974482D01*
X122544260Y-80981000D01*
X122455740Y-80981000D01*
X122389558Y-80974482D01*
X122323373Y-80967963D01*
X122153534Y-80916443D01*
X121997009Y-80832778D01*
X121961271Y-80803448D01*
X121859814Y-80720186D01*
X121776552Y-80618729D01*
X121747222Y-80582991D01*
X121665486Y-80430075D01*
X121663558Y-80426468D01*
X121663557Y-80426466D01*
X121612037Y-80256627D01*
X121594641Y-80080000D01*
X121612037Y-79903373D01*
X121663557Y-79733534D01*
X121747222Y-79577009D01*
X121780057Y-79537000D01*
X121859814Y-79439814D01*
X121961271Y-79356552D01*
X121997009Y-79327222D01*
X122153534Y-79243557D01*
X122323373Y-79192037D01*
X122389557Y-79185519D01*
X122455740Y-79179000D01*
X122544260Y-79179000D01*
X122610443Y-79185519D01*
X122610443Y-79185519D01*
G37*
G36*
X46617142Y-77028242D02*
G01*
X46765101Y-77089529D01*
X46898255Y-77178499D01*
X47011501Y-77291745D01*
X47100471Y-77424899D01*
X47161758Y-77572858D01*
X47193000Y-77729925D01*
X47193000Y-77890075D01*
X47161758Y-78047142D01*
X47100471Y-78195101D01*
X47011501Y-78328255D01*
X46898255Y-78441501D01*
X46765101Y-78530471D01*
X46617142Y-78591758D01*
X46460075Y-78623000D01*
X46299925Y-78623000D01*
X46142858Y-78591758D01*
X45994899Y-78530471D01*
X45861745Y-78441501D01*
X45748499Y-78328255D01*
X45659529Y-78195101D01*
X45598242Y-78047142D01*
X45567000Y-77890075D01*
X45567000Y-77729925D01*
X45598242Y-77572858D01*
X45659529Y-77424899D01*
X45748499Y-77291745D01*
X45861745Y-77178499D01*
X45994899Y-77089529D01*
X46142858Y-77028242D01*
X46299925Y-76997000D01*
X46460075Y-76997000D01*
X46617142Y-77028242D01*
X46617142Y-77028242D01*
G37*
G36*
X61857142Y-77028242D02*
G01*
X62005101Y-77089529D01*
X62138255Y-77178499D01*
X62251501Y-77291745D01*
X62340471Y-77424899D01*
X62401758Y-77572858D01*
X62433000Y-77729925D01*
X62433000Y-77890075D01*
X62401758Y-78047142D01*
X62340471Y-78195101D01*
X62251501Y-78328255D01*
X62138255Y-78441501D01*
X62005101Y-78530471D01*
X61857142Y-78591758D01*
X61700075Y-78623000D01*
X61539925Y-78623000D01*
X61382858Y-78591758D01*
X61234899Y-78530471D01*
X61101745Y-78441501D01*
X60988499Y-78328255D01*
X60899529Y-78195101D01*
X60838242Y-78047142D01*
X60807000Y-77890075D01*
X60807000Y-77729925D01*
X60838242Y-77572858D01*
X60899529Y-77424899D01*
X60988499Y-77291745D01*
X61101745Y-77178499D01*
X61234899Y-77089529D01*
X61382858Y-77028242D01*
X61539925Y-76997000D01*
X61700075Y-76997000D01*
X61857142Y-77028242D01*
X61857142Y-77028242D01*
G37*
G36*
X120070442Y-76645518D02*
G01*
X120136627Y-76652037D01*
X120306466Y-76703557D01*
X120462991Y-76787222D01*
X120498729Y-76816552D01*
X120600186Y-76899814D01*
X120679943Y-76997000D01*
X120712778Y-77037009D01*
X120796443Y-77193534D01*
X120847963Y-77363373D01*
X120865359Y-77540000D01*
X120847963Y-77716627D01*
X120796443Y-77886466D01*
X120796442Y-77886468D01*
X120794514Y-77890075D01*
X120712778Y-78042991D01*
X120683448Y-78078729D01*
X120600186Y-78180186D01*
X120498729Y-78263448D01*
X120462991Y-78292778D01*
X120306466Y-78376443D01*
X120136627Y-78427963D01*
X120070442Y-78434482D01*
X120004260Y-78441000D01*
X119915740Y-78441000D01*
X119849558Y-78434482D01*
X119783373Y-78427963D01*
X119613534Y-78376443D01*
X119457009Y-78292778D01*
X119421271Y-78263448D01*
X119319814Y-78180186D01*
X119236552Y-78078729D01*
X119207222Y-78042991D01*
X119125486Y-77890075D01*
X119123558Y-77886468D01*
X119123557Y-77886466D01*
X119072037Y-77716627D01*
X119054641Y-77540000D01*
X119072037Y-77363373D01*
X119123557Y-77193534D01*
X119207222Y-77037009D01*
X119240057Y-76997000D01*
X119319814Y-76899814D01*
X119421271Y-76816552D01*
X119457009Y-76787222D01*
X119613534Y-76703557D01*
X119783373Y-76652037D01*
X119849558Y-76645518D01*
X119915740Y-76639000D01*
X120004260Y-76639000D01*
X120070442Y-76645518D01*
X120070442Y-76645518D01*
G37*
G36*
X122610442Y-76645518D02*
G01*
X122676627Y-76652037D01*
X122846466Y-76703557D01*
X123002991Y-76787222D01*
X123038729Y-76816552D01*
X123140186Y-76899814D01*
X123219943Y-76997000D01*
X123252778Y-77037009D01*
X123336443Y-77193534D01*
X123387963Y-77363373D01*
X123405359Y-77540000D01*
X123387963Y-77716627D01*
X123336443Y-77886466D01*
X123336442Y-77886468D01*
X123334514Y-77890075D01*
X123252778Y-78042991D01*
X123223448Y-78078729D01*
X123140186Y-78180186D01*
X123038729Y-78263448D01*
X123002991Y-78292778D01*
X122846466Y-78376443D01*
X122676627Y-78427963D01*
X122610442Y-78434482D01*
X122544260Y-78441000D01*
X122455740Y-78441000D01*
X122389558Y-78434482D01*
X122323373Y-78427963D01*
X122153534Y-78376443D01*
X121997009Y-78292778D01*
X121961271Y-78263448D01*
X121859814Y-78180186D01*
X121776552Y-78078729D01*
X121747222Y-78042991D01*
X121665486Y-77890075D01*
X121663558Y-77886468D01*
X121663557Y-77886466D01*
X121612037Y-77716627D01*
X121594641Y-77540000D01*
X121612037Y-77363373D01*
X121663557Y-77193534D01*
X121747222Y-77037009D01*
X121780057Y-76997000D01*
X121859814Y-76899814D01*
X121961271Y-76816552D01*
X121997009Y-76787222D01*
X122153534Y-76703557D01*
X122323373Y-76652037D01*
X122389558Y-76645518D01*
X122455740Y-76639000D01*
X122544260Y-76639000D01*
X122610442Y-76645518D01*
X122610442Y-76645518D01*
G37*
G36*
X32650442Y-75880518D02*
G01*
X32716627Y-75887037D01*
X32886466Y-75938557D01*
X33042991Y-76022222D01*
X33078729Y-76051552D01*
X33180186Y-76134814D01*
X33263448Y-76236271D01*
X33292778Y-76272009D01*
X33376443Y-76428534D01*
X33427963Y-76598373D01*
X33445359Y-76775000D01*
X33427963Y-76951627D01*
X33376443Y-77121466D01*
X33292778Y-77277991D01*
X33281492Y-77291743D01*
X33180186Y-77415186D01*
X33078729Y-77498448D01*
X33042991Y-77527778D01*
X32886466Y-77611443D01*
X32716627Y-77662963D01*
X32650442Y-77669482D01*
X32584260Y-77676000D01*
X32495740Y-77676000D01*
X32429558Y-77669482D01*
X32363373Y-77662963D01*
X32193534Y-77611443D01*
X32037009Y-77527778D01*
X32001271Y-77498448D01*
X31899814Y-77415186D01*
X31798508Y-77291743D01*
X31787222Y-77277991D01*
X31703557Y-77121466D01*
X31652037Y-76951627D01*
X31634641Y-76775000D01*
X31652037Y-76598373D01*
X31703557Y-76428534D01*
X31787222Y-76272009D01*
X31816552Y-76236271D01*
X31899814Y-76134814D01*
X32001271Y-76051552D01*
X32037009Y-76022222D01*
X32193534Y-75938557D01*
X32363373Y-75887037D01*
X32429558Y-75880518D01*
X32495740Y-75874000D01*
X32584260Y-75874000D01*
X32650442Y-75880518D01*
X32650442Y-75880518D01*
G37*
G36*
X37730442Y-75880518D02*
G01*
X37796627Y-75887037D01*
X37966466Y-75938557D01*
X38122991Y-76022222D01*
X38158729Y-76051552D01*
X38260186Y-76134814D01*
X38343448Y-76236271D01*
X38372778Y-76272009D01*
X38456443Y-76428534D01*
X38507963Y-76598373D01*
X38525359Y-76775000D01*
X38507963Y-76951627D01*
X38456443Y-77121466D01*
X38372778Y-77277991D01*
X38361492Y-77291743D01*
X38260186Y-77415186D01*
X38158729Y-77498448D01*
X38122991Y-77527778D01*
X37966466Y-77611443D01*
X37796627Y-77662963D01*
X37730442Y-77669482D01*
X37664260Y-77676000D01*
X37575740Y-77676000D01*
X37509558Y-77669482D01*
X37443373Y-77662963D01*
X37273534Y-77611443D01*
X37117009Y-77527778D01*
X37081271Y-77498448D01*
X36979814Y-77415186D01*
X36878508Y-77291743D01*
X36867222Y-77277991D01*
X36783557Y-77121466D01*
X36732037Y-76951627D01*
X36714641Y-76775000D01*
X36732037Y-76598373D01*
X36783557Y-76428534D01*
X36867222Y-76272009D01*
X36896552Y-76236271D01*
X36979814Y-76134814D01*
X37081271Y-76051552D01*
X37117009Y-76022222D01*
X37273534Y-75938557D01*
X37443373Y-75887037D01*
X37509558Y-75880518D01*
X37575740Y-75874000D01*
X37664260Y-75874000D01*
X37730442Y-75880518D01*
X37730442Y-75880518D01*
G37*
G36*
X40270442Y-75880518D02*
G01*
X40336627Y-75887037D01*
X40506466Y-75938557D01*
X40662991Y-76022222D01*
X40698729Y-76051552D01*
X40800186Y-76134814D01*
X40883448Y-76236271D01*
X40912778Y-76272009D01*
X40996443Y-76428534D01*
X41047963Y-76598373D01*
X41065359Y-76775000D01*
X41047963Y-76951627D01*
X40996443Y-77121466D01*
X40912778Y-77277991D01*
X40901492Y-77291743D01*
X40800186Y-77415186D01*
X40698729Y-77498448D01*
X40662991Y-77527778D01*
X40506466Y-77611443D01*
X40336627Y-77662963D01*
X40270442Y-77669482D01*
X40204260Y-77676000D01*
X40115740Y-77676000D01*
X40049558Y-77669482D01*
X39983373Y-77662963D01*
X39813534Y-77611443D01*
X39657009Y-77527778D01*
X39621271Y-77498448D01*
X39519814Y-77415186D01*
X39418508Y-77291743D01*
X39407222Y-77277991D01*
X39323557Y-77121466D01*
X39272037Y-76951627D01*
X39254641Y-76775000D01*
X39272037Y-76598373D01*
X39323557Y-76428534D01*
X39407222Y-76272009D01*
X39436552Y-76236271D01*
X39519814Y-76134814D01*
X39621271Y-76051552D01*
X39657009Y-76022222D01*
X39813534Y-75938557D01*
X39983373Y-75887037D01*
X40049558Y-75880518D01*
X40115740Y-75874000D01*
X40204260Y-75874000D01*
X40270442Y-75880518D01*
X40270442Y-75880518D01*
G37*
G36*
X30901000Y-77676000D02*
G01*
X29099000Y-77676000D01*
X29099000Y-75874000D01*
X30901000Y-75874000D01*
X30901000Y-77676000D01*
X30901000Y-77676000D01*
G37*
G36*
X35190442Y-75880518D02*
G01*
X35256627Y-75887037D01*
X35426466Y-75938557D01*
X35582991Y-76022222D01*
X35618729Y-76051552D01*
X35720186Y-76134814D01*
X35803448Y-76236271D01*
X35832778Y-76272009D01*
X35916443Y-76428534D01*
X35967963Y-76598373D01*
X35985359Y-76775000D01*
X35967963Y-76951627D01*
X35916443Y-77121466D01*
X35832778Y-77277991D01*
X35821492Y-77291743D01*
X35720186Y-77415186D01*
X35618729Y-77498448D01*
X35582991Y-77527778D01*
X35426466Y-77611443D01*
X35256627Y-77662963D01*
X35190442Y-77669482D01*
X35124260Y-77676000D01*
X35035740Y-77676000D01*
X34969558Y-77669482D01*
X34903373Y-77662963D01*
X34733534Y-77611443D01*
X34577009Y-77527778D01*
X34541271Y-77498448D01*
X34439814Y-77415186D01*
X34338508Y-77291743D01*
X34327222Y-77277991D01*
X34243557Y-77121466D01*
X34192037Y-76951627D01*
X34174641Y-76775000D01*
X34192037Y-76598373D01*
X34243557Y-76428534D01*
X34327222Y-76272009D01*
X34356552Y-76236271D01*
X34439814Y-76134814D01*
X34541271Y-76051552D01*
X34577009Y-76022222D01*
X34733534Y-75938557D01*
X34903373Y-75887037D01*
X34969558Y-75880518D01*
X35035740Y-75874000D01*
X35124260Y-75874000D01*
X35190442Y-75880518D01*
X35190442Y-75880518D01*
G37*
G36*
X61857142Y-74488242D02*
G01*
X62005101Y-74549529D01*
X62138255Y-74638499D01*
X62251501Y-74751745D01*
X62340471Y-74884899D01*
X62401758Y-75032858D01*
X62433000Y-75189925D01*
X62433000Y-75350075D01*
X62401758Y-75507142D01*
X62340471Y-75655101D01*
X62251501Y-75788255D01*
X62138255Y-75901501D01*
X62005101Y-75990471D01*
X61857142Y-76051758D01*
X61700075Y-76083000D01*
X61539925Y-76083000D01*
X61382858Y-76051758D01*
X61234899Y-75990471D01*
X61101745Y-75901501D01*
X60988499Y-75788255D01*
X60899529Y-75655101D01*
X60838242Y-75507142D01*
X60807000Y-75350075D01*
X60807000Y-75189925D01*
X60838242Y-75032858D01*
X60899529Y-74884899D01*
X60988499Y-74751745D01*
X61101745Y-74638499D01*
X61234899Y-74549529D01*
X61382858Y-74488242D01*
X61539925Y-74457000D01*
X61700075Y-74457000D01*
X61857142Y-74488242D01*
X61857142Y-74488242D01*
G37*
G36*
X46617142Y-74488242D02*
G01*
X46765101Y-74549529D01*
X46898255Y-74638499D01*
X47011501Y-74751745D01*
X47100471Y-74884899D01*
X47161758Y-75032858D01*
X47193000Y-75189925D01*
X47193000Y-75350075D01*
X47161758Y-75507142D01*
X47100471Y-75655101D01*
X47011501Y-75788255D01*
X46898255Y-75901501D01*
X46765101Y-75990471D01*
X46617142Y-76051758D01*
X46460075Y-76083000D01*
X46299925Y-76083000D01*
X46142858Y-76051758D01*
X45994899Y-75990471D01*
X45861745Y-75901501D01*
X45748499Y-75788255D01*
X45659529Y-75655101D01*
X45598242Y-75507142D01*
X45567000Y-75350075D01*
X45567000Y-75189925D01*
X45598242Y-75032858D01*
X45659529Y-74884899D01*
X45748499Y-74751745D01*
X45861745Y-74638499D01*
X45994899Y-74549529D01*
X46142858Y-74488242D01*
X46299925Y-74457000D01*
X46460075Y-74457000D01*
X46617142Y-74488242D01*
X46617142Y-74488242D01*
G37*
G36*
X120070442Y-74105518D02*
G01*
X120136627Y-74112037D01*
X120306466Y-74163557D01*
X120462991Y-74247222D01*
X120498729Y-74276552D01*
X120600186Y-74359814D01*
X120679943Y-74457000D01*
X120712778Y-74497009D01*
X120796443Y-74653534D01*
X120847963Y-74823373D01*
X120865359Y-75000000D01*
X120847963Y-75176627D01*
X120796443Y-75346466D01*
X120796442Y-75346468D01*
X120794514Y-75350075D01*
X120712778Y-75502991D01*
X120683448Y-75538729D01*
X120600186Y-75640186D01*
X120498729Y-75723448D01*
X120462991Y-75752778D01*
X120306466Y-75836443D01*
X120136627Y-75887963D01*
X120070443Y-75894481D01*
X120004260Y-75901000D01*
X119915740Y-75901000D01*
X119849557Y-75894481D01*
X119783373Y-75887963D01*
X119613534Y-75836443D01*
X119457009Y-75752778D01*
X119421271Y-75723448D01*
X119319814Y-75640186D01*
X119236552Y-75538729D01*
X119207222Y-75502991D01*
X119125486Y-75350075D01*
X119123558Y-75346468D01*
X119123557Y-75346466D01*
X119072037Y-75176627D01*
X119054641Y-75000000D01*
X119072037Y-74823373D01*
X119123557Y-74653534D01*
X119207222Y-74497009D01*
X119240057Y-74457000D01*
X119319814Y-74359814D01*
X119421271Y-74276552D01*
X119457009Y-74247222D01*
X119613534Y-74163557D01*
X119783373Y-74112037D01*
X119849558Y-74105518D01*
X119915740Y-74099000D01*
X120004260Y-74099000D01*
X120070442Y-74105518D01*
X120070442Y-74105518D01*
G37*
G36*
X122610442Y-74105518D02*
G01*
X122676627Y-74112037D01*
X122846466Y-74163557D01*
X123002991Y-74247222D01*
X123038729Y-74276552D01*
X123140186Y-74359814D01*
X123219943Y-74457000D01*
X123252778Y-74497009D01*
X123336443Y-74653534D01*
X123387963Y-74823373D01*
X123405359Y-75000000D01*
X123387963Y-75176627D01*
X123336443Y-75346466D01*
X123336442Y-75346468D01*
X123334514Y-75350075D01*
X123252778Y-75502991D01*
X123223448Y-75538729D01*
X123140186Y-75640186D01*
X123038729Y-75723448D01*
X123002991Y-75752778D01*
X122846466Y-75836443D01*
X122676627Y-75887963D01*
X122610443Y-75894481D01*
X122544260Y-75901000D01*
X122455740Y-75901000D01*
X122389557Y-75894481D01*
X122323373Y-75887963D01*
X122153534Y-75836443D01*
X121997009Y-75752778D01*
X121961271Y-75723448D01*
X121859814Y-75640186D01*
X121776552Y-75538729D01*
X121747222Y-75502991D01*
X121665486Y-75350075D01*
X121663558Y-75346468D01*
X121663557Y-75346466D01*
X121612037Y-75176627D01*
X121594641Y-75000000D01*
X121612037Y-74823373D01*
X121663557Y-74653534D01*
X121747222Y-74497009D01*
X121780057Y-74457000D01*
X121859814Y-74359814D01*
X121961271Y-74276552D01*
X121997009Y-74247222D01*
X122153534Y-74163557D01*
X122323373Y-74112037D01*
X122389558Y-74105518D01*
X122455740Y-74099000D01*
X122544260Y-74099000D01*
X122610442Y-74105518D01*
X122610442Y-74105518D01*
G37*
G36*
X32650442Y-73340518D02*
G01*
X32716627Y-73347037D01*
X32886466Y-73398557D01*
X33042991Y-73482222D01*
X33078729Y-73511552D01*
X33180186Y-73594814D01*
X33263448Y-73696271D01*
X33292778Y-73732009D01*
X33376443Y-73888534D01*
X33427963Y-74058373D01*
X33445359Y-74235000D01*
X33427963Y-74411627D01*
X33376443Y-74581466D01*
X33292778Y-74737991D01*
X33281492Y-74751743D01*
X33180186Y-74875186D01*
X33078729Y-74958448D01*
X33042991Y-74987778D01*
X32886466Y-75071443D01*
X32716627Y-75122963D01*
X32650442Y-75129482D01*
X32584260Y-75136000D01*
X32495740Y-75136000D01*
X32429558Y-75129482D01*
X32363373Y-75122963D01*
X32193534Y-75071443D01*
X32037009Y-74987778D01*
X32001271Y-74958448D01*
X31899814Y-74875186D01*
X31798508Y-74751743D01*
X31787222Y-74737991D01*
X31703557Y-74581466D01*
X31652037Y-74411627D01*
X31634641Y-74235000D01*
X31652037Y-74058373D01*
X31703557Y-73888534D01*
X31787222Y-73732009D01*
X31816552Y-73696271D01*
X31899814Y-73594814D01*
X32001271Y-73511552D01*
X32037009Y-73482222D01*
X32193534Y-73398557D01*
X32363373Y-73347037D01*
X32429558Y-73340518D01*
X32495740Y-73334000D01*
X32584260Y-73334000D01*
X32650442Y-73340518D01*
X32650442Y-73340518D01*
G37*
G36*
X35190442Y-73340518D02*
G01*
X35256627Y-73347037D01*
X35426466Y-73398557D01*
X35582991Y-73482222D01*
X35618729Y-73511552D01*
X35720186Y-73594814D01*
X35803448Y-73696271D01*
X35832778Y-73732009D01*
X35916443Y-73888534D01*
X35967963Y-74058373D01*
X35985359Y-74235000D01*
X35967963Y-74411627D01*
X35916443Y-74581466D01*
X35832778Y-74737991D01*
X35821492Y-74751743D01*
X35720186Y-74875186D01*
X35618729Y-74958448D01*
X35582991Y-74987778D01*
X35426466Y-75071443D01*
X35256627Y-75122963D01*
X35190442Y-75129482D01*
X35124260Y-75136000D01*
X35035740Y-75136000D01*
X34969558Y-75129482D01*
X34903373Y-75122963D01*
X34733534Y-75071443D01*
X34577009Y-74987778D01*
X34541271Y-74958448D01*
X34439814Y-74875186D01*
X34338508Y-74751743D01*
X34327222Y-74737991D01*
X34243557Y-74581466D01*
X34192037Y-74411627D01*
X34174641Y-74235000D01*
X34192037Y-74058373D01*
X34243557Y-73888534D01*
X34327222Y-73732009D01*
X34356552Y-73696271D01*
X34439814Y-73594814D01*
X34541271Y-73511552D01*
X34577009Y-73482222D01*
X34733534Y-73398557D01*
X34903373Y-73347037D01*
X34969558Y-73340518D01*
X35035740Y-73334000D01*
X35124260Y-73334000D01*
X35190442Y-73340518D01*
X35190442Y-73340518D01*
G37*
G36*
X37730442Y-73340518D02*
G01*
X37796627Y-73347037D01*
X37966466Y-73398557D01*
X38122991Y-73482222D01*
X38158729Y-73511552D01*
X38260186Y-73594814D01*
X38343448Y-73696271D01*
X38372778Y-73732009D01*
X38456443Y-73888534D01*
X38507963Y-74058373D01*
X38525359Y-74235000D01*
X38507963Y-74411627D01*
X38456443Y-74581466D01*
X38372778Y-74737991D01*
X38361492Y-74751743D01*
X38260186Y-74875186D01*
X38158729Y-74958448D01*
X38122991Y-74987778D01*
X37966466Y-75071443D01*
X37796627Y-75122963D01*
X37730442Y-75129482D01*
X37664260Y-75136000D01*
X37575740Y-75136000D01*
X37509558Y-75129482D01*
X37443373Y-75122963D01*
X37273534Y-75071443D01*
X37117009Y-74987778D01*
X37081271Y-74958448D01*
X36979814Y-74875186D01*
X36878508Y-74751743D01*
X36867222Y-74737991D01*
X36783557Y-74581466D01*
X36732037Y-74411627D01*
X36714641Y-74235000D01*
X36732037Y-74058373D01*
X36783557Y-73888534D01*
X36867222Y-73732009D01*
X36896552Y-73696271D01*
X36979814Y-73594814D01*
X37081271Y-73511552D01*
X37117009Y-73482222D01*
X37273534Y-73398557D01*
X37443373Y-73347037D01*
X37509558Y-73340518D01*
X37575740Y-73334000D01*
X37664260Y-73334000D01*
X37730442Y-73340518D01*
X37730442Y-73340518D01*
G37*
G36*
X30110442Y-73340518D02*
G01*
X30176627Y-73347037D01*
X30346466Y-73398557D01*
X30502991Y-73482222D01*
X30538729Y-73511552D01*
X30640186Y-73594814D01*
X30723448Y-73696271D01*
X30752778Y-73732009D01*
X30836443Y-73888534D01*
X30887963Y-74058373D01*
X30905359Y-74235000D01*
X30887963Y-74411627D01*
X30836443Y-74581466D01*
X30752778Y-74737991D01*
X30741492Y-74751743D01*
X30640186Y-74875186D01*
X30538729Y-74958448D01*
X30502991Y-74987778D01*
X30346466Y-75071443D01*
X30176627Y-75122963D01*
X30110442Y-75129482D01*
X30044260Y-75136000D01*
X29955740Y-75136000D01*
X29889558Y-75129482D01*
X29823373Y-75122963D01*
X29653534Y-75071443D01*
X29497009Y-74987778D01*
X29461271Y-74958448D01*
X29359814Y-74875186D01*
X29258508Y-74751743D01*
X29247222Y-74737991D01*
X29163557Y-74581466D01*
X29112037Y-74411627D01*
X29094641Y-74235000D01*
X29112037Y-74058373D01*
X29163557Y-73888534D01*
X29247222Y-73732009D01*
X29276552Y-73696271D01*
X29359814Y-73594814D01*
X29461271Y-73511552D01*
X29497009Y-73482222D01*
X29653534Y-73398557D01*
X29823373Y-73347037D01*
X29889558Y-73340518D01*
X29955740Y-73334000D01*
X30044260Y-73334000D01*
X30110442Y-73340518D01*
X30110442Y-73340518D01*
G37*
G36*
X40270442Y-73340518D02*
G01*
X40336627Y-73347037D01*
X40506466Y-73398557D01*
X40662991Y-73482222D01*
X40698729Y-73511552D01*
X40800186Y-73594814D01*
X40883448Y-73696271D01*
X40912778Y-73732009D01*
X40996443Y-73888534D01*
X41047963Y-74058373D01*
X41065359Y-74235000D01*
X41047963Y-74411627D01*
X40996443Y-74581466D01*
X40912778Y-74737991D01*
X40901492Y-74751743D01*
X40800186Y-74875186D01*
X40698729Y-74958448D01*
X40662991Y-74987778D01*
X40506466Y-75071443D01*
X40336627Y-75122963D01*
X40270442Y-75129482D01*
X40204260Y-75136000D01*
X40115740Y-75136000D01*
X40049558Y-75129482D01*
X39983373Y-75122963D01*
X39813534Y-75071443D01*
X39657009Y-74987778D01*
X39621271Y-74958448D01*
X39519814Y-74875186D01*
X39418508Y-74751743D01*
X39407222Y-74737991D01*
X39323557Y-74581466D01*
X39272037Y-74411627D01*
X39254641Y-74235000D01*
X39272037Y-74058373D01*
X39323557Y-73888534D01*
X39407222Y-73732009D01*
X39436552Y-73696271D01*
X39519814Y-73594814D01*
X39621271Y-73511552D01*
X39657009Y-73482222D01*
X39813534Y-73398557D01*
X39983373Y-73347037D01*
X40049558Y-73340518D01*
X40115740Y-73334000D01*
X40204260Y-73334000D01*
X40270442Y-73340518D01*
X40270442Y-73340518D01*
G37*
G36*
X61857142Y-71948242D02*
G01*
X62005101Y-72009529D01*
X62138255Y-72098499D01*
X62251501Y-72211745D01*
X62340471Y-72344899D01*
X62401758Y-72492858D01*
X62433000Y-72649925D01*
X62433000Y-72810075D01*
X62401758Y-72967142D01*
X62340471Y-73115101D01*
X62251501Y-73248255D01*
X62138255Y-73361501D01*
X62005101Y-73450471D01*
X61857142Y-73511758D01*
X61700075Y-73543000D01*
X61539925Y-73543000D01*
X61382858Y-73511758D01*
X61234899Y-73450471D01*
X61101745Y-73361501D01*
X60988499Y-73248255D01*
X60899529Y-73115101D01*
X60838242Y-72967142D01*
X60807000Y-72810075D01*
X60807000Y-72649925D01*
X60838242Y-72492858D01*
X60899529Y-72344899D01*
X60988499Y-72211745D01*
X61101745Y-72098499D01*
X61234899Y-72009529D01*
X61382858Y-71948242D01*
X61539925Y-71917000D01*
X61700075Y-71917000D01*
X61857142Y-71948242D01*
X61857142Y-71948242D01*
G37*
G36*
X46617142Y-71948242D02*
G01*
X46765101Y-72009529D01*
X46898255Y-72098499D01*
X47011501Y-72211745D01*
X47100471Y-72344899D01*
X47161758Y-72492858D01*
X47193000Y-72649925D01*
X47193000Y-72810075D01*
X47161758Y-72967142D01*
X47100471Y-73115101D01*
X47011501Y-73248255D01*
X46898255Y-73361501D01*
X46765101Y-73450471D01*
X46617142Y-73511758D01*
X46460075Y-73543000D01*
X46299925Y-73543000D01*
X46142858Y-73511758D01*
X45994899Y-73450471D01*
X45861745Y-73361501D01*
X45748499Y-73248255D01*
X45659529Y-73115101D01*
X45598242Y-72967142D01*
X45567000Y-72810075D01*
X45567000Y-72649925D01*
X45598242Y-72492858D01*
X45659529Y-72344899D01*
X45748499Y-72211745D01*
X45861745Y-72098499D01*
X45994899Y-72009529D01*
X46142858Y-71948242D01*
X46299925Y-71917000D01*
X46460075Y-71917000D01*
X46617142Y-71948242D01*
X46617142Y-71948242D01*
G37*
G36*
X61857142Y-69408242D02*
G01*
X62005101Y-69469529D01*
X62138255Y-69558499D01*
X62251501Y-69671745D01*
X62340471Y-69804899D01*
X62401758Y-69952858D01*
X62433000Y-70109925D01*
X62433000Y-70270075D01*
X62401758Y-70427142D01*
X62340471Y-70575101D01*
X62251501Y-70708255D01*
X62138255Y-70821501D01*
X62005101Y-70910471D01*
X61857142Y-70971758D01*
X61700075Y-71003000D01*
X61539925Y-71003000D01*
X61382858Y-70971758D01*
X61234899Y-70910471D01*
X61101745Y-70821501D01*
X60988499Y-70708255D01*
X60899529Y-70575101D01*
X60838242Y-70427142D01*
X60807000Y-70270075D01*
X60807000Y-70109925D01*
X60838242Y-69952858D01*
X60899529Y-69804899D01*
X60988499Y-69671745D01*
X61101745Y-69558499D01*
X61234899Y-69469529D01*
X61382858Y-69408242D01*
X61539925Y-69377000D01*
X61700075Y-69377000D01*
X61857142Y-69408242D01*
X61857142Y-69408242D01*
G37*
G36*
X46617142Y-69408242D02*
G01*
X46765101Y-69469529D01*
X46898255Y-69558499D01*
X47011501Y-69671745D01*
X47100471Y-69804899D01*
X47161758Y-69952858D01*
X47193000Y-70109925D01*
X47193000Y-70270075D01*
X47161758Y-70427142D01*
X47100471Y-70575101D01*
X47011501Y-70708255D01*
X46898255Y-70821501D01*
X46765101Y-70910471D01*
X46617142Y-70971758D01*
X46460075Y-71003000D01*
X46299925Y-71003000D01*
X46142858Y-70971758D01*
X45994899Y-70910471D01*
X45861745Y-70821501D01*
X45748499Y-70708255D01*
X45659529Y-70575101D01*
X45598242Y-70427142D01*
X45567000Y-70270075D01*
X45567000Y-70109925D01*
X45598242Y-69952858D01*
X45659529Y-69804899D01*
X45748499Y-69671745D01*
X45861745Y-69558499D01*
X45994899Y-69469529D01*
X46142858Y-69408242D01*
X46299925Y-69377000D01*
X46460075Y-69377000D01*
X46617142Y-69408242D01*
X46617142Y-69408242D01*
G37*
G36*
X61857142Y-66868242D02*
G01*
X62005101Y-66929529D01*
X62138255Y-67018499D01*
X62251501Y-67131745D01*
X62340471Y-67264899D01*
X62401758Y-67412858D01*
X62433000Y-67569925D01*
X62433000Y-67730075D01*
X62401758Y-67887142D01*
X62340471Y-68035101D01*
X62251501Y-68168255D01*
X62138255Y-68281501D01*
X62005101Y-68370471D01*
X61857142Y-68431758D01*
X61700075Y-68463000D01*
X61539925Y-68463000D01*
X61382858Y-68431758D01*
X61234899Y-68370471D01*
X61101745Y-68281501D01*
X60988499Y-68168255D01*
X60899529Y-68035101D01*
X60838242Y-67887142D01*
X60807000Y-67730075D01*
X60807000Y-67569925D01*
X60838242Y-67412858D01*
X60899529Y-67264899D01*
X60988499Y-67131745D01*
X61101745Y-67018499D01*
X61234899Y-66929529D01*
X61382858Y-66868242D01*
X61539925Y-66837000D01*
X61700075Y-66837000D01*
X61857142Y-66868242D01*
X61857142Y-66868242D01*
G37*
G36*
X46617142Y-66868242D02*
G01*
X46765101Y-66929529D01*
X46898255Y-67018499D01*
X47011501Y-67131745D01*
X47100471Y-67264899D01*
X47161758Y-67412858D01*
X47193000Y-67569925D01*
X47193000Y-67730075D01*
X47161758Y-67887142D01*
X47100471Y-68035101D01*
X47011501Y-68168255D01*
X46898255Y-68281501D01*
X46765101Y-68370471D01*
X46617142Y-68431758D01*
X46460075Y-68463000D01*
X46299925Y-68463000D01*
X46142858Y-68431758D01*
X45994899Y-68370471D01*
X45861745Y-68281501D01*
X45748499Y-68168255D01*
X45659529Y-68035101D01*
X45598242Y-67887142D01*
X45567000Y-67730075D01*
X45567000Y-67569925D01*
X45598242Y-67412858D01*
X45659529Y-67264899D01*
X45748499Y-67131745D01*
X45861745Y-67018499D01*
X45994899Y-66929529D01*
X46142858Y-66868242D01*
X46299925Y-66837000D01*
X46460075Y-66837000D01*
X46617142Y-66868242D01*
X46617142Y-66868242D01*
G37*
G36*
X77513674Y-65253465D02*
G01*
X77551367Y-65264899D01*
X77586103Y-65283466D01*
X77616548Y-65308452D01*
X77641534Y-65338897D01*
X77660101Y-65373633D01*
X77671535Y-65411326D01*
X77676000Y-65456661D01*
X77676000Y-66543339D01*
X77671535Y-66588674D01*
X77660101Y-66626367D01*
X77641534Y-66661103D01*
X77616548Y-66691548D01*
X77586103Y-66716534D01*
X77551367Y-66735101D01*
X77513674Y-66746535D01*
X77468339Y-66751000D01*
X76631661Y-66751000D01*
X76586326Y-66746535D01*
X76548633Y-66735101D01*
X76513897Y-66716534D01*
X76483452Y-66691548D01*
X76458466Y-66661103D01*
X76439899Y-66626367D01*
X76428465Y-66588674D01*
X76424000Y-66543339D01*
X76424000Y-65456661D01*
X76428465Y-65411326D01*
X76439899Y-65373633D01*
X76458466Y-65338897D01*
X76483452Y-65308452D01*
X76513897Y-65283466D01*
X76548633Y-65264899D01*
X76586326Y-65253465D01*
X76631661Y-65249000D01*
X77468339Y-65249000D01*
X77513674Y-65253465D01*
X77513674Y-65253465D01*
G37*
G36*
X75463674Y-65253465D02*
G01*
X75501367Y-65264899D01*
X75536103Y-65283466D01*
X75566548Y-65308452D01*
X75591534Y-65338897D01*
X75610101Y-65373633D01*
X75621535Y-65411326D01*
X75626000Y-65456661D01*
X75626000Y-66543339D01*
X75621535Y-66588674D01*
X75610101Y-66626367D01*
X75591534Y-66661103D01*
X75566548Y-66691548D01*
X75536103Y-66716534D01*
X75501367Y-66735101D01*
X75463674Y-66746535D01*
X75418339Y-66751000D01*
X74581661Y-66751000D01*
X74536326Y-66746535D01*
X74498633Y-66735101D01*
X74463897Y-66716534D01*
X74433452Y-66691548D01*
X74408466Y-66661103D01*
X74389899Y-66626367D01*
X74378465Y-66588674D01*
X74374000Y-66543339D01*
X74374000Y-65456661D01*
X74378465Y-65411326D01*
X74389899Y-65373633D01*
X74408466Y-65338897D01*
X74433452Y-65308452D01*
X74463897Y-65283466D01*
X74498633Y-65264899D01*
X74536326Y-65253465D01*
X74581661Y-65249000D01*
X75418339Y-65249000D01*
X75463674Y-65253465D01*
X75463674Y-65253465D01*
G37*
G36*
X61857142Y-64328242D02*
G01*
X62005101Y-64389529D01*
X62138255Y-64478499D01*
X62251501Y-64591745D01*
X62340471Y-64724899D01*
X62401758Y-64872858D01*
X62433000Y-65029925D01*
X62433000Y-65190075D01*
X62401758Y-65347142D01*
X62340471Y-65495101D01*
X62251501Y-65628255D01*
X62138255Y-65741501D01*
X62005101Y-65830471D01*
X61857142Y-65891758D01*
X61700075Y-65923000D01*
X61539925Y-65923000D01*
X61382858Y-65891758D01*
X61234899Y-65830471D01*
X61101745Y-65741501D01*
X60988499Y-65628255D01*
X60899529Y-65495101D01*
X60838242Y-65347142D01*
X60807000Y-65190075D01*
X60807000Y-65029925D01*
X60838242Y-64872858D01*
X60899529Y-64724899D01*
X60988499Y-64591745D01*
X61101745Y-64478499D01*
X61234899Y-64389529D01*
X61382858Y-64328242D01*
X61539925Y-64297000D01*
X61700075Y-64297000D01*
X61857142Y-64328242D01*
X61857142Y-64328242D01*
G37*
G36*
X46617142Y-64328242D02*
G01*
X46765101Y-64389529D01*
X46898255Y-64478499D01*
X47011501Y-64591745D01*
X47100471Y-64724899D01*
X47161758Y-64872858D01*
X47193000Y-65029925D01*
X47193000Y-65190075D01*
X47161758Y-65347142D01*
X47100471Y-65495101D01*
X47011501Y-65628255D01*
X46898255Y-65741501D01*
X46765101Y-65830471D01*
X46617142Y-65891758D01*
X46460075Y-65923000D01*
X46299925Y-65923000D01*
X46142858Y-65891758D01*
X45994899Y-65830471D01*
X45861745Y-65741501D01*
X45748499Y-65628255D01*
X45659529Y-65495101D01*
X45598242Y-65347142D01*
X45567000Y-65190075D01*
X45567000Y-65029925D01*
X45598242Y-64872858D01*
X45659529Y-64724899D01*
X45748499Y-64591745D01*
X45861745Y-64478499D01*
X45994899Y-64389529D01*
X46142858Y-64328242D01*
X46299925Y-64297000D01*
X46460075Y-64297000D01*
X46617142Y-64328242D01*
X46617142Y-64328242D01*
G37*
G36*
X84651000Y-65651000D02*
G01*
X82349000Y-65651000D01*
X82349000Y-63349000D01*
X84651000Y-63349000D01*
X84651000Y-65651000D01*
X84651000Y-65651000D01*
G37*
G36*
X71116720Y-61963520D02*
G01*
X71305881Y-62020901D01*
X71480212Y-62114083D01*
X71633015Y-62239485D01*
X71758417Y-62392288D01*
X71793907Y-62458686D01*
X71851598Y-62566617D01*
X71851599Y-62566620D01*
X71908980Y-62755781D01*
X71923500Y-62903207D01*
X71923500Y-63096794D01*
X71908980Y-63244220D01*
X71851599Y-63433381D01*
X71758417Y-63607712D01*
X71633015Y-63760515D01*
X71480212Y-63885917D01*
X71398333Y-63929682D01*
X71305883Y-63979098D01*
X71305880Y-63979099D01*
X71116719Y-64036480D01*
X70920000Y-64055855D01*
X70723280Y-64036480D01*
X70534119Y-63979099D01*
X70359788Y-63885917D01*
X70206985Y-63760515D01*
X70081583Y-63607712D01*
X70025609Y-63502991D01*
X69988402Y-63433383D01*
X69988401Y-63433380D01*
X69931020Y-63244219D01*
X69916500Y-63096793D01*
X69916500Y-62903206D01*
X69931020Y-62755780D01*
X69988401Y-62566619D01*
X70081583Y-62392288D01*
X70206985Y-62239485D01*
X70359788Y-62114083D01*
X70534120Y-62020901D01*
X70723281Y-61963520D01*
X70920000Y-61944145D01*
X71116720Y-61963520D01*
X71116720Y-61963520D01*
G37*
G36*
X73656720Y-61963520D02*
G01*
X73845881Y-62020901D01*
X74020212Y-62114083D01*
X74173015Y-62239485D01*
X74298417Y-62392288D01*
X74333907Y-62458686D01*
X74391598Y-62566617D01*
X74391599Y-62566620D01*
X74448980Y-62755781D01*
X74463500Y-62903207D01*
X74463500Y-63096794D01*
X74448980Y-63244220D01*
X74391599Y-63433381D01*
X74298417Y-63607712D01*
X74173015Y-63760515D01*
X74020212Y-63885917D01*
X73938333Y-63929682D01*
X73845883Y-63979098D01*
X73845880Y-63979099D01*
X73656719Y-64036480D01*
X73460000Y-64055855D01*
X73263280Y-64036480D01*
X73074119Y-63979099D01*
X72899788Y-63885917D01*
X72746985Y-63760515D01*
X72621583Y-63607712D01*
X72565609Y-63502991D01*
X72528402Y-63433383D01*
X72528401Y-63433380D01*
X72471020Y-63244219D01*
X72456500Y-63096793D01*
X72456500Y-62903206D01*
X72471020Y-62755780D01*
X72528401Y-62566619D01*
X72621583Y-62392288D01*
X72746985Y-62239485D01*
X72899788Y-62114083D01*
X73074120Y-62020901D01*
X73263281Y-61963520D01*
X73460000Y-61944145D01*
X73656720Y-61963520D01*
X73656720Y-61963520D01*
G37*
G36*
X77003500Y-64051000D02*
G01*
X74996500Y-64051000D01*
X74996500Y-61949000D01*
X77003500Y-61949000D01*
X77003500Y-64051000D01*
X77003500Y-64051000D01*
G37*
G36*
X120861000Y-63901000D02*
G01*
X119059000Y-63901000D01*
X119059000Y-62099000D01*
X120861000Y-62099000D01*
X120861000Y-63901000D01*
X120861000Y-63901000D01*
G37*
G36*
X122610443Y-62105519D02*
G01*
X122676627Y-62112037D01*
X122846466Y-62163557D01*
X123002991Y-62247222D01*
X123038729Y-62276552D01*
X123140186Y-62359814D01*
X123181392Y-62410025D01*
X123252778Y-62497009D01*
X123336443Y-62653534D01*
X123387963Y-62823373D01*
X123405359Y-63000000D01*
X123387963Y-63176627D01*
X123336443Y-63346466D01*
X123252778Y-63502991D01*
X123223448Y-63538729D01*
X123140186Y-63640186D01*
X123038729Y-63723448D01*
X123002991Y-63752778D01*
X122846466Y-63836443D01*
X122676627Y-63887963D01*
X122610443Y-63894481D01*
X122544260Y-63901000D01*
X122455740Y-63901000D01*
X122389557Y-63894481D01*
X122323373Y-63887963D01*
X122153534Y-63836443D01*
X121997009Y-63752778D01*
X121961271Y-63723448D01*
X121859814Y-63640186D01*
X121776552Y-63538729D01*
X121747222Y-63502991D01*
X121663557Y-63346466D01*
X121612037Y-63176627D01*
X121594641Y-63000000D01*
X121612037Y-62823373D01*
X121663557Y-62653534D01*
X121747222Y-62497009D01*
X121818608Y-62410025D01*
X121859814Y-62359814D01*
X121961271Y-62276552D01*
X121997009Y-62247222D01*
X122153534Y-62163557D01*
X122323373Y-62112037D01*
X122389557Y-62105519D01*
X122455740Y-62099000D01*
X122544260Y-62099000D01*
X122610443Y-62105519D01*
X122610443Y-62105519D01*
G37*
G36*
X46617142Y-61788242D02*
G01*
X46765101Y-61849529D01*
X46898255Y-61938499D01*
X47011501Y-62051745D01*
X47100471Y-62184899D01*
X47161758Y-62332858D01*
X47193000Y-62489925D01*
X47193000Y-62650075D01*
X47161758Y-62807142D01*
X47100471Y-62955101D01*
X47011501Y-63088255D01*
X46898255Y-63201501D01*
X46765101Y-63290471D01*
X46617142Y-63351758D01*
X46460075Y-63383000D01*
X46299925Y-63383000D01*
X46142858Y-63351758D01*
X45994899Y-63290471D01*
X45861745Y-63201501D01*
X45748499Y-63088255D01*
X45659529Y-62955101D01*
X45598242Y-62807142D01*
X45567000Y-62650075D01*
X45567000Y-62489925D01*
X45598242Y-62332858D01*
X45659529Y-62184899D01*
X45748499Y-62051745D01*
X45861745Y-61938499D01*
X45994899Y-61849529D01*
X46142858Y-61788242D01*
X46299925Y-61757000D01*
X46460075Y-61757000D01*
X46617142Y-61788242D01*
X46617142Y-61788242D01*
G37*
G36*
X61857142Y-61788242D02*
G01*
X62005101Y-61849529D01*
X62138255Y-61938499D01*
X62251501Y-62051745D01*
X62340471Y-62184899D01*
X62401758Y-62332858D01*
X62433000Y-62489925D01*
X62433000Y-62650075D01*
X62401758Y-62807142D01*
X62340471Y-62955101D01*
X62251501Y-63088255D01*
X62138255Y-63201501D01*
X62005101Y-63290471D01*
X61857142Y-63351758D01*
X61700075Y-63383000D01*
X61539925Y-63383000D01*
X61382858Y-63351758D01*
X61234899Y-63290471D01*
X61101745Y-63201501D01*
X60988499Y-63088255D01*
X60899529Y-62955101D01*
X60838242Y-62807142D01*
X60807000Y-62650075D01*
X60807000Y-62489925D01*
X60838242Y-62332858D01*
X60899529Y-62184899D01*
X60988499Y-62051745D01*
X61101745Y-61938499D01*
X61234899Y-61849529D01*
X61382858Y-61788242D01*
X61539925Y-61757000D01*
X61700075Y-61757000D01*
X61857142Y-61788242D01*
X61857142Y-61788242D01*
G37*
G36*
X33586823Y-60781313D02*
G01*
X33747242Y-60829976D01*
X33879906Y-60900886D01*
X33895078Y-60908996D01*
X34024659Y-61015341D01*
X34131004Y-61144922D01*
X34131005Y-61144924D01*
X34210024Y-61292758D01*
X34258687Y-61453177D01*
X34275117Y-61620000D01*
X34258687Y-61786823D01*
X34258256Y-61788243D01*
X34210964Y-61944145D01*
X34210024Y-61947242D01*
X34209084Y-61949000D01*
X34131004Y-62095078D01*
X34024659Y-62224659D01*
X33895078Y-62331004D01*
X33895076Y-62331005D01*
X33747242Y-62410024D01*
X33586823Y-62458687D01*
X33461804Y-62471000D01*
X33378196Y-62471000D01*
X33253177Y-62458687D01*
X33092758Y-62410024D01*
X32944924Y-62331005D01*
X32944922Y-62331004D01*
X32815341Y-62224659D01*
X32708996Y-62095078D01*
X32630916Y-61949000D01*
X32629976Y-61947242D01*
X32629037Y-61944145D01*
X32581744Y-61788243D01*
X32581313Y-61786823D01*
X32564883Y-61620000D01*
X32581313Y-61453177D01*
X32629976Y-61292758D01*
X32708995Y-61144924D01*
X32708996Y-61144922D01*
X32815341Y-61015341D01*
X32944922Y-60908996D01*
X32960094Y-60900886D01*
X33092758Y-60829976D01*
X33253177Y-60781313D01*
X33378196Y-60769000D01*
X33461804Y-60769000D01*
X33586823Y-60781313D01*
X33586823Y-60781313D01*
G37*
G36*
X36126823Y-60781313D02*
G01*
X36287242Y-60829976D01*
X36419906Y-60900886D01*
X36435078Y-60908996D01*
X36564659Y-61015341D01*
X36671004Y-61144922D01*
X36671005Y-61144924D01*
X36750024Y-61292758D01*
X36798687Y-61453177D01*
X36815117Y-61620000D01*
X36798687Y-61786823D01*
X36798256Y-61788243D01*
X36750964Y-61944145D01*
X36750024Y-61947242D01*
X36749084Y-61949000D01*
X36671004Y-62095078D01*
X36564659Y-62224659D01*
X36435078Y-62331004D01*
X36435076Y-62331005D01*
X36287242Y-62410024D01*
X36126823Y-62458687D01*
X36001804Y-62471000D01*
X35918196Y-62471000D01*
X35793177Y-62458687D01*
X35632758Y-62410024D01*
X35484924Y-62331005D01*
X35484922Y-62331004D01*
X35355341Y-62224659D01*
X35248996Y-62095078D01*
X35170916Y-61949000D01*
X35169976Y-61947242D01*
X35169037Y-61944145D01*
X35121744Y-61788243D01*
X35121313Y-61786823D01*
X35104883Y-61620000D01*
X35121313Y-61453177D01*
X35169976Y-61292758D01*
X35248995Y-61144924D01*
X35248996Y-61144922D01*
X35355341Y-61015341D01*
X35484922Y-60908996D01*
X35500094Y-60900886D01*
X35632758Y-60829976D01*
X35793177Y-60781313D01*
X35918196Y-60769000D01*
X36001804Y-60769000D01*
X36126823Y-60781313D01*
X36126823Y-60781313D01*
G37*
G36*
X31046823Y-60781313D02*
G01*
X31207242Y-60829976D01*
X31339906Y-60900886D01*
X31355078Y-60908996D01*
X31484659Y-61015341D01*
X31591004Y-61144922D01*
X31591005Y-61144924D01*
X31670024Y-61292758D01*
X31718687Y-61453177D01*
X31735117Y-61620000D01*
X31718687Y-61786823D01*
X31718256Y-61788243D01*
X31670964Y-61944145D01*
X31670024Y-61947242D01*
X31669084Y-61949000D01*
X31591004Y-62095078D01*
X31484659Y-62224659D01*
X31355078Y-62331004D01*
X31355076Y-62331005D01*
X31207242Y-62410024D01*
X31046823Y-62458687D01*
X30921804Y-62471000D01*
X30838196Y-62471000D01*
X30713177Y-62458687D01*
X30552758Y-62410024D01*
X30404924Y-62331005D01*
X30404922Y-62331004D01*
X30275341Y-62224659D01*
X30168996Y-62095078D01*
X30090916Y-61949000D01*
X30089976Y-61947242D01*
X30089037Y-61944145D01*
X30041744Y-61788243D01*
X30041313Y-61786823D01*
X30024883Y-61620000D01*
X30041313Y-61453177D01*
X30089976Y-61292758D01*
X30168995Y-61144924D01*
X30168996Y-61144922D01*
X30275341Y-61015341D01*
X30404922Y-60908996D01*
X30420094Y-60900886D01*
X30552758Y-60829976D01*
X30713177Y-60781313D01*
X30838196Y-60769000D01*
X30921804Y-60769000D01*
X31046823Y-60781313D01*
X31046823Y-60781313D01*
G37*
G36*
X38666823Y-60781313D02*
G01*
X38827242Y-60829976D01*
X38959906Y-60900886D01*
X38975078Y-60908996D01*
X39104659Y-61015341D01*
X39211004Y-61144922D01*
X39211005Y-61144924D01*
X39290024Y-61292758D01*
X39338687Y-61453177D01*
X39355117Y-61620000D01*
X39338687Y-61786823D01*
X39338256Y-61788243D01*
X39290964Y-61944145D01*
X39290024Y-61947242D01*
X39289084Y-61949000D01*
X39211004Y-62095078D01*
X39104659Y-62224659D01*
X38975078Y-62331004D01*
X38975076Y-62331005D01*
X38827242Y-62410024D01*
X38666823Y-62458687D01*
X38541804Y-62471000D01*
X38458196Y-62471000D01*
X38333177Y-62458687D01*
X38172758Y-62410024D01*
X38024924Y-62331005D01*
X38024922Y-62331004D01*
X37895341Y-62224659D01*
X37788996Y-62095078D01*
X37710916Y-61949000D01*
X37709976Y-61947242D01*
X37709037Y-61944145D01*
X37661744Y-61788243D01*
X37661313Y-61786823D01*
X37644883Y-61620000D01*
X37661313Y-61453177D01*
X37709976Y-61292758D01*
X37788995Y-61144924D01*
X37788996Y-61144922D01*
X37895341Y-61015341D01*
X38024922Y-60908996D01*
X38040094Y-60900886D01*
X38172758Y-60829976D01*
X38333177Y-60781313D01*
X38458196Y-60769000D01*
X38541804Y-60769000D01*
X38666823Y-60781313D01*
X38666823Y-60781313D01*
G37*
G36*
X109506032Y-58464207D02*
G01*
X109704146Y-58524305D01*
X109704149Y-58524306D01*
X109771275Y-58560186D01*
X109886729Y-58621897D01*
X110046765Y-58753235D01*
X110178103Y-58913271D01*
X110197200Y-58949000D01*
X110275694Y-59095851D01*
X110275695Y-59095854D01*
X110335793Y-59293968D01*
X110351000Y-59448370D01*
X110351000Y-60551630D01*
X110335793Y-60706032D01*
X110275695Y-60904145D01*
X110275694Y-60904149D01*
X110273103Y-60908996D01*
X110178103Y-61086729D01*
X110046765Y-61246765D01*
X109886729Y-61378103D01*
X109770030Y-61440479D01*
X109704148Y-61475694D01*
X109704145Y-61475695D01*
X109506031Y-61535793D01*
X109300000Y-61556085D01*
X109093968Y-61535793D01*
X108895854Y-61475695D01*
X108895851Y-61475694D01*
X108799025Y-61423939D01*
X108713271Y-61378103D01*
X108553235Y-61246765D01*
X108421897Y-61086729D01*
X108359521Y-60970030D01*
X108324306Y-60904148D01*
X108301806Y-60829976D01*
X108264207Y-60706031D01*
X108249000Y-60551629D01*
X108249000Y-59448370D01*
X108262675Y-59309529D01*
X108264207Y-59293970D01*
X108324305Y-59095853D01*
X108402801Y-58949000D01*
X108421898Y-58913271D01*
X108553236Y-58753235D01*
X108713272Y-58621897D01*
X108828726Y-58560186D01*
X108895852Y-58524306D01*
X108895855Y-58524305D01*
X109093969Y-58464207D01*
X109300000Y-58443915D01*
X109506032Y-58464207D01*
X109506032Y-58464207D01*
G37*
G36*
X114546032Y-58464207D02*
G01*
X114744146Y-58524305D01*
X114744149Y-58524306D01*
X114811275Y-58560186D01*
X114926729Y-58621897D01*
X115086765Y-58753235D01*
X115218103Y-58913271D01*
X115237200Y-58949000D01*
X115315694Y-59095851D01*
X115315695Y-59095854D01*
X115375793Y-59293968D01*
X115391000Y-59448370D01*
X115391000Y-60551630D01*
X115375793Y-60706032D01*
X115315695Y-60904145D01*
X115315694Y-60904149D01*
X115313103Y-60908996D01*
X115218103Y-61086729D01*
X115086765Y-61246765D01*
X114926729Y-61378103D01*
X114810030Y-61440479D01*
X114744148Y-61475694D01*
X114744145Y-61475695D01*
X114546031Y-61535793D01*
X114340000Y-61556085D01*
X114133968Y-61535793D01*
X113935854Y-61475695D01*
X113935851Y-61475694D01*
X113839025Y-61423939D01*
X113753271Y-61378103D01*
X113593235Y-61246765D01*
X113461897Y-61086729D01*
X113399521Y-60970030D01*
X113364306Y-60904148D01*
X113341806Y-60829976D01*
X113304207Y-60706031D01*
X113289000Y-60551629D01*
X113289000Y-59448370D01*
X113302675Y-59309529D01*
X113304207Y-59293970D01*
X113364305Y-59095853D01*
X113442801Y-58949000D01*
X113461898Y-58913271D01*
X113593236Y-58753235D01*
X113753272Y-58621897D01*
X113868726Y-58560186D01*
X113935852Y-58524306D01*
X113935855Y-58524305D01*
X114133969Y-58464207D01*
X114340000Y-58443915D01*
X114546032Y-58464207D01*
X114546032Y-58464207D01*
G37*
G36*
X90551000Y-61051000D02*
G01*
X87449000Y-61051000D01*
X87449000Y-58949000D01*
X90551000Y-58949000D01*
X90551000Y-61051000D01*
X90551000Y-61051000D01*
G37*
G36*
X61857142Y-59248242D02*
G01*
X62005101Y-59309529D01*
X62138255Y-59398499D01*
X62251501Y-59511745D01*
X62340471Y-59644899D01*
X62401758Y-59792858D01*
X62433000Y-59949925D01*
X62433000Y-60110075D01*
X62401758Y-60267142D01*
X62340471Y-60415101D01*
X62251501Y-60548255D01*
X62138255Y-60661501D01*
X62005101Y-60750471D01*
X61857142Y-60811758D01*
X61700075Y-60843000D01*
X61539925Y-60843000D01*
X61382858Y-60811758D01*
X61234899Y-60750471D01*
X61101745Y-60661501D01*
X60988499Y-60548255D01*
X60899529Y-60415101D01*
X60838242Y-60267142D01*
X60807000Y-60110075D01*
X60807000Y-59949925D01*
X60838242Y-59792858D01*
X60899529Y-59644899D01*
X60988499Y-59511745D01*
X61101745Y-59398499D01*
X61234899Y-59309529D01*
X61382858Y-59248242D01*
X61539925Y-59217000D01*
X61700075Y-59217000D01*
X61857142Y-59248242D01*
X61857142Y-59248242D01*
G37*
G36*
X46617142Y-59248242D02*
G01*
X46765101Y-59309529D01*
X46898255Y-59398499D01*
X47011501Y-59511745D01*
X47100471Y-59644899D01*
X47161758Y-59792858D01*
X47193000Y-59949925D01*
X47193000Y-60110075D01*
X47161758Y-60267142D01*
X47100471Y-60415101D01*
X47011501Y-60548255D01*
X46898255Y-60661501D01*
X46765101Y-60750471D01*
X46617142Y-60811758D01*
X46460075Y-60843000D01*
X46299925Y-60843000D01*
X46142858Y-60811758D01*
X45994899Y-60750471D01*
X45861745Y-60661501D01*
X45748499Y-60548255D01*
X45659529Y-60415101D01*
X45598242Y-60267142D01*
X45567000Y-60110075D01*
X45567000Y-59949925D01*
X45598242Y-59792858D01*
X45659529Y-59644899D01*
X45748499Y-59511745D01*
X45861745Y-59398499D01*
X45994899Y-59309529D01*
X46142858Y-59248242D01*
X46299925Y-59217000D01*
X46460075Y-59217000D01*
X46617142Y-59248242D01*
X46617142Y-59248242D01*
G37*
G36*
X71351000Y-58851000D02*
G01*
X69649000Y-58851000D01*
X69649000Y-57149000D01*
X71351000Y-57149000D01*
X71351000Y-58851000D01*
X71351000Y-58851000D01*
G37*
G36*
X120070442Y-57025518D02*
G01*
X120136627Y-57032037D01*
X120306466Y-57083557D01*
X120462991Y-57167222D01*
X120498729Y-57196552D01*
X120600186Y-57279814D01*
X120683448Y-57381271D01*
X120712778Y-57417009D01*
X120796443Y-57573534D01*
X120847963Y-57743373D01*
X120865359Y-57920000D01*
X120847963Y-58096627D01*
X120796443Y-58266466D01*
X120712778Y-58422991D01*
X120695606Y-58443915D01*
X120600186Y-58560186D01*
X120498729Y-58643448D01*
X120462991Y-58672778D01*
X120306466Y-58756443D01*
X120136627Y-58807963D01*
X120070442Y-58814482D01*
X120004260Y-58821000D01*
X119915740Y-58821000D01*
X119849558Y-58814482D01*
X119783373Y-58807963D01*
X119613534Y-58756443D01*
X119457009Y-58672778D01*
X119421271Y-58643448D01*
X119319814Y-58560186D01*
X119224394Y-58443915D01*
X119207222Y-58422991D01*
X119123557Y-58266466D01*
X119072037Y-58096627D01*
X119054641Y-57920000D01*
X119072037Y-57743373D01*
X119123557Y-57573534D01*
X119207222Y-57417009D01*
X119236552Y-57381271D01*
X119319814Y-57279814D01*
X119421271Y-57196552D01*
X119457009Y-57167222D01*
X119613534Y-57083557D01*
X119783373Y-57032037D01*
X119849558Y-57025518D01*
X119915740Y-57019000D01*
X120004260Y-57019000D01*
X120070442Y-57025518D01*
X120070442Y-57025518D01*
G37*
G36*
X122610442Y-57025518D02*
G01*
X122676627Y-57032037D01*
X122846466Y-57083557D01*
X123002991Y-57167222D01*
X123038729Y-57196552D01*
X123140186Y-57279814D01*
X123223448Y-57381271D01*
X123252778Y-57417009D01*
X123336443Y-57573534D01*
X123387963Y-57743373D01*
X123405359Y-57920000D01*
X123387963Y-58096627D01*
X123336443Y-58266466D01*
X123252778Y-58422991D01*
X123235606Y-58443915D01*
X123140186Y-58560186D01*
X123038729Y-58643448D01*
X123002991Y-58672778D01*
X122846466Y-58756443D01*
X122676627Y-58807963D01*
X122610442Y-58814482D01*
X122544260Y-58821000D01*
X122455740Y-58821000D01*
X122389558Y-58814482D01*
X122323373Y-58807963D01*
X122153534Y-58756443D01*
X121997009Y-58672778D01*
X121961271Y-58643448D01*
X121859814Y-58560186D01*
X121764394Y-58443915D01*
X121747222Y-58422991D01*
X121663557Y-58266466D01*
X121612037Y-58096627D01*
X121594641Y-57920000D01*
X121612037Y-57743373D01*
X121663557Y-57573534D01*
X121747222Y-57417009D01*
X121776552Y-57381271D01*
X121859814Y-57279814D01*
X121961271Y-57196552D01*
X121997009Y-57167222D01*
X122153534Y-57083557D01*
X122323373Y-57032037D01*
X122389558Y-57025518D01*
X122455740Y-57019000D01*
X122544260Y-57019000D01*
X122610442Y-57025518D01*
X122610442Y-57025518D01*
G37*
G36*
X46617142Y-56708242D02*
G01*
X46765101Y-56769529D01*
X46898255Y-56858499D01*
X47011501Y-56971745D01*
X47100471Y-57104899D01*
X47161758Y-57252858D01*
X47193000Y-57409925D01*
X47193000Y-57570075D01*
X47161758Y-57727142D01*
X47100471Y-57875101D01*
X47011501Y-58008255D01*
X46898255Y-58121501D01*
X46765101Y-58210471D01*
X46617142Y-58271758D01*
X46460075Y-58303000D01*
X46299925Y-58303000D01*
X46142858Y-58271758D01*
X45994899Y-58210471D01*
X45861745Y-58121501D01*
X45748499Y-58008255D01*
X45659529Y-57875101D01*
X45598242Y-57727142D01*
X45567000Y-57570075D01*
X45567000Y-57409925D01*
X45598242Y-57252858D01*
X45659529Y-57104899D01*
X45748499Y-56971745D01*
X45861745Y-56858499D01*
X45994899Y-56769529D01*
X46142858Y-56708242D01*
X46299925Y-56677000D01*
X46460075Y-56677000D01*
X46617142Y-56708242D01*
X46617142Y-56708242D01*
G37*
G36*
X61857142Y-56708242D02*
G01*
X62005101Y-56769529D01*
X62138255Y-56858499D01*
X62251501Y-56971745D01*
X62340471Y-57104899D01*
X62401758Y-57252858D01*
X62433000Y-57409925D01*
X62433000Y-57570075D01*
X62401758Y-57727142D01*
X62340471Y-57875101D01*
X62251501Y-58008255D01*
X62138255Y-58121501D01*
X62005101Y-58210471D01*
X61857142Y-58271758D01*
X61700075Y-58303000D01*
X61539925Y-58303000D01*
X61382858Y-58271758D01*
X61234899Y-58210471D01*
X61101745Y-58121501D01*
X60988499Y-58008255D01*
X60899529Y-57875101D01*
X60838242Y-57727142D01*
X60807000Y-57570075D01*
X60807000Y-57409925D01*
X60838242Y-57252858D01*
X60899529Y-57104899D01*
X60988499Y-56971745D01*
X61101745Y-56858499D01*
X61234899Y-56769529D01*
X61382858Y-56708242D01*
X61539925Y-56677000D01*
X61700075Y-56677000D01*
X61857142Y-56708242D01*
X61857142Y-56708242D01*
G37*
G36*
X52463674Y-56753465D02*
G01*
X52501367Y-56764899D01*
X52536103Y-56783466D01*
X52566548Y-56808452D01*
X52591534Y-56838897D01*
X52610101Y-56873633D01*
X52621535Y-56911326D01*
X52626000Y-56956661D01*
X52626000Y-58043339D01*
X52621535Y-58088674D01*
X52610101Y-58126367D01*
X52591534Y-58161103D01*
X52566548Y-58191548D01*
X52536103Y-58216534D01*
X52501367Y-58235101D01*
X52463674Y-58246535D01*
X52418339Y-58251000D01*
X51581661Y-58251000D01*
X51536326Y-58246535D01*
X51498633Y-58235101D01*
X51463897Y-58216534D01*
X51433452Y-58191548D01*
X51408466Y-58161103D01*
X51389899Y-58126367D01*
X51378465Y-58088674D01*
X51374000Y-58043339D01*
X51374000Y-56956661D01*
X51378465Y-56911326D01*
X51389899Y-56873633D01*
X51408466Y-56838897D01*
X51433452Y-56808452D01*
X51463897Y-56783466D01*
X51498633Y-56764899D01*
X51536326Y-56753465D01*
X51581661Y-56749000D01*
X52418339Y-56749000D01*
X52463674Y-56753465D01*
X52463674Y-56753465D01*
G37*
G36*
X50413674Y-56753465D02*
G01*
X50451367Y-56764899D01*
X50486103Y-56783466D01*
X50516548Y-56808452D01*
X50541534Y-56838897D01*
X50560101Y-56873633D01*
X50571535Y-56911326D01*
X50576000Y-56956661D01*
X50576000Y-58043339D01*
X50571535Y-58088674D01*
X50560101Y-58126367D01*
X50541534Y-58161103D01*
X50516548Y-58191548D01*
X50486103Y-58216534D01*
X50451367Y-58235101D01*
X50413674Y-58246535D01*
X50368339Y-58251000D01*
X49531661Y-58251000D01*
X49486326Y-58246535D01*
X49448633Y-58235101D01*
X49413897Y-58216534D01*
X49383452Y-58191548D01*
X49358466Y-58161103D01*
X49339899Y-58126367D01*
X49328465Y-58088674D01*
X49324000Y-58043339D01*
X49324000Y-56956661D01*
X49328465Y-56911326D01*
X49339899Y-56873633D01*
X49358466Y-56838897D01*
X49383452Y-56808452D01*
X49413897Y-56783466D01*
X49448633Y-56764899D01*
X49486326Y-56753465D01*
X49531661Y-56749000D01*
X50368339Y-56749000D01*
X50413674Y-56753465D01*
X50413674Y-56753465D01*
G37*
G36*
X75681000Y-58151000D02*
G01*
X74779000Y-58151000D01*
X74779000Y-56849000D01*
X75681000Y-56849000D01*
X75681000Y-58151000D01*
X75681000Y-58151000D01*
G37*
G36*
X78221000Y-58151000D02*
G01*
X77319000Y-58151000D01*
X77319000Y-56849000D01*
X78221000Y-56849000D01*
X78221000Y-58151000D01*
X78221000Y-58151000D01*
G37*
G36*
X61857142Y-54168242D02*
G01*
X62005101Y-54229529D01*
X62138255Y-54318499D01*
X62251501Y-54431745D01*
X62340471Y-54564899D01*
X62401758Y-54712858D01*
X62433000Y-54869925D01*
X62433000Y-55030075D01*
X62401758Y-55187142D01*
X62340471Y-55335101D01*
X62251501Y-55468255D01*
X62138255Y-55581501D01*
X62005101Y-55670471D01*
X61857142Y-55731758D01*
X61700075Y-55763000D01*
X61539925Y-55763000D01*
X61382858Y-55731758D01*
X61234899Y-55670471D01*
X61101745Y-55581501D01*
X60988499Y-55468255D01*
X60899529Y-55335101D01*
X60838242Y-55187142D01*
X60807000Y-55030075D01*
X60807000Y-54869925D01*
X60838242Y-54712858D01*
X60899529Y-54564899D01*
X60988499Y-54431745D01*
X61101745Y-54318499D01*
X61234899Y-54229529D01*
X61382858Y-54168242D01*
X61539925Y-54137000D01*
X61700075Y-54137000D01*
X61857142Y-54168242D01*
X61857142Y-54168242D01*
G37*
G36*
X46617142Y-54168242D02*
G01*
X46765101Y-54229529D01*
X46898255Y-54318499D01*
X47011501Y-54431745D01*
X47100471Y-54564899D01*
X47161758Y-54712858D01*
X47193000Y-54869925D01*
X47193000Y-55030075D01*
X47161758Y-55187142D01*
X47100471Y-55335101D01*
X47011501Y-55468255D01*
X46898255Y-55581501D01*
X46765101Y-55670471D01*
X46617142Y-55731758D01*
X46460075Y-55763000D01*
X46299925Y-55763000D01*
X46142858Y-55731758D01*
X45994899Y-55670471D01*
X45861745Y-55581501D01*
X45748499Y-55468255D01*
X45659529Y-55335101D01*
X45598242Y-55187142D01*
X45567000Y-55030075D01*
X45567000Y-54869925D01*
X45598242Y-54712858D01*
X45659529Y-54564899D01*
X45748499Y-54431745D01*
X45861745Y-54318499D01*
X45994899Y-54229529D01*
X46142858Y-54168242D01*
X46299925Y-54137000D01*
X46460075Y-54137000D01*
X46617142Y-54168242D01*
X46617142Y-54168242D01*
G37*
G36*
X50438674Y-54253465D02*
G01*
X50476367Y-54264899D01*
X50511103Y-54283466D01*
X50541548Y-54308452D01*
X50566534Y-54338897D01*
X50585101Y-54373633D01*
X50596535Y-54411326D01*
X50601000Y-54456661D01*
X50601000Y-55543339D01*
X50596535Y-55588674D01*
X50585101Y-55626367D01*
X50566534Y-55661103D01*
X50541548Y-55691548D01*
X50511103Y-55716534D01*
X50476367Y-55735101D01*
X50438674Y-55746535D01*
X50393339Y-55751000D01*
X49556661Y-55751000D01*
X49511326Y-55746535D01*
X49473633Y-55735101D01*
X49438897Y-55716534D01*
X49408452Y-55691548D01*
X49383466Y-55661103D01*
X49364899Y-55626367D01*
X49353465Y-55588674D01*
X49349000Y-55543339D01*
X49349000Y-54456661D01*
X49353465Y-54411326D01*
X49364899Y-54373633D01*
X49383466Y-54338897D01*
X49408452Y-54308452D01*
X49438897Y-54283466D01*
X49473633Y-54264899D01*
X49511326Y-54253465D01*
X49556661Y-54249000D01*
X50393339Y-54249000D01*
X50438674Y-54253465D01*
X50438674Y-54253465D01*
G37*
G36*
X52488674Y-54253465D02*
G01*
X52526367Y-54264899D01*
X52561103Y-54283466D01*
X52591548Y-54308452D01*
X52616534Y-54338897D01*
X52635101Y-54373633D01*
X52646535Y-54411326D01*
X52651000Y-54456661D01*
X52651000Y-55543339D01*
X52646535Y-55588674D01*
X52635101Y-55626367D01*
X52616534Y-55661103D01*
X52591548Y-55691548D01*
X52561103Y-55716534D01*
X52526367Y-55735101D01*
X52488674Y-55746535D01*
X52443339Y-55751000D01*
X51606661Y-55751000D01*
X51561326Y-55746535D01*
X51523633Y-55735101D01*
X51488897Y-55716534D01*
X51458452Y-55691548D01*
X51433466Y-55661103D01*
X51414899Y-55626367D01*
X51403465Y-55588674D01*
X51399000Y-55543339D01*
X51399000Y-54456661D01*
X51403465Y-54411326D01*
X51414899Y-54373633D01*
X51433466Y-54338897D01*
X51458452Y-54308452D01*
X51488897Y-54283466D01*
X51523633Y-54264899D01*
X51561326Y-54253465D01*
X51606661Y-54249000D01*
X52443339Y-54249000D01*
X52488674Y-54253465D01*
X52488674Y-54253465D01*
G37*
G36*
X83669271Y-53200103D02*
G01*
X83725635Y-53205654D01*
X83942600Y-53271470D01*
X83942602Y-53271471D01*
X84142555Y-53378347D01*
X84317818Y-53522182D01*
X84461653Y-53697445D01*
X84537307Y-53838985D01*
X84568530Y-53897400D01*
X84634346Y-54114365D01*
X84656569Y-54340000D01*
X84634346Y-54565635D01*
X84578957Y-54748228D01*
X84568529Y-54782602D01*
X84461653Y-54982555D01*
X84317818Y-55157818D01*
X84142555Y-55301653D01*
X83942602Y-55408529D01*
X83942600Y-55408530D01*
X83725635Y-55474346D01*
X83680138Y-55478827D01*
X83556545Y-55491000D01*
X83443455Y-55491000D01*
X83319862Y-55478827D01*
X83274365Y-55474346D01*
X83057400Y-55408530D01*
X83057398Y-55408529D01*
X82857445Y-55301653D01*
X82682182Y-55157818D01*
X82538347Y-54982555D01*
X82431471Y-54782602D01*
X82421044Y-54748228D01*
X82365654Y-54565635D01*
X82343431Y-54340000D01*
X82365654Y-54114365D01*
X82431470Y-53897400D01*
X82462693Y-53838985D01*
X82538347Y-53697445D01*
X82682182Y-53522182D01*
X82857445Y-53378347D01*
X83057398Y-53271471D01*
X83057400Y-53271470D01*
X83274365Y-53205654D01*
X83330729Y-53200103D01*
X83443455Y-53189000D01*
X83556545Y-53189000D01*
X83669271Y-53200103D01*
X83669271Y-53200103D01*
G37*
G36*
X70748228Y-53681703D02*
G01*
X70903100Y-53745853D01*
X71042481Y-53838985D01*
X71161015Y-53957519D01*
X71254147Y-54096900D01*
X71318297Y-54251772D01*
X71351000Y-54416184D01*
X71351000Y-54583816D01*
X71318297Y-54748228D01*
X71254147Y-54903100D01*
X71161015Y-55042481D01*
X71042481Y-55161015D01*
X70903100Y-55254147D01*
X70748228Y-55318297D01*
X70583816Y-55351000D01*
X70416184Y-55351000D01*
X70251772Y-55318297D01*
X70096900Y-55254147D01*
X69957519Y-55161015D01*
X69838985Y-55042481D01*
X69745853Y-54903100D01*
X69681703Y-54748228D01*
X69649000Y-54583816D01*
X69649000Y-54416184D01*
X69681703Y-54251772D01*
X69745853Y-54096900D01*
X69838985Y-53957519D01*
X69957519Y-53838985D01*
X70096900Y-53745853D01*
X70251772Y-53681703D01*
X70416184Y-53649000D01*
X70583816Y-53649000D01*
X70748228Y-53681703D01*
X70748228Y-53681703D01*
G37*
G36*
X33586823Y-53161313D02*
G01*
X33687186Y-53191758D01*
X33734241Y-53206032D01*
X33747242Y-53209976D01*
X33816069Y-53246765D01*
X33895078Y-53288996D01*
X34024659Y-53395341D01*
X34131004Y-53524922D01*
X34131005Y-53524924D01*
X34210024Y-53672758D01*
X34210025Y-53672761D01*
X34212738Y-53681705D01*
X34258687Y-53833177D01*
X34275117Y-54000000D01*
X34258687Y-54166823D01*
X34210024Y-54327242D01*
X34185227Y-54373633D01*
X34131004Y-54475078D01*
X34024659Y-54604659D01*
X33895078Y-54711004D01*
X33895076Y-54711005D01*
X33747242Y-54790024D01*
X33586823Y-54838687D01*
X33461804Y-54851000D01*
X33378196Y-54851000D01*
X33253177Y-54838687D01*
X33092758Y-54790024D01*
X32944924Y-54711005D01*
X32944922Y-54711004D01*
X32815341Y-54604659D01*
X32708996Y-54475078D01*
X32654773Y-54373633D01*
X32629976Y-54327242D01*
X32581313Y-54166823D01*
X32564883Y-54000000D01*
X32581313Y-53833177D01*
X32627262Y-53681705D01*
X32629975Y-53672761D01*
X32629976Y-53672758D01*
X32708995Y-53524924D01*
X32708996Y-53524922D01*
X32815341Y-53395341D01*
X32944922Y-53288996D01*
X33023931Y-53246765D01*
X33092758Y-53209976D01*
X33105760Y-53206032D01*
X33152814Y-53191758D01*
X33253177Y-53161313D01*
X33378196Y-53149000D01*
X33461804Y-53149000D01*
X33586823Y-53161313D01*
X33586823Y-53161313D01*
G37*
G36*
X31046823Y-53161313D02*
G01*
X31147186Y-53191758D01*
X31194241Y-53206032D01*
X31207242Y-53209976D01*
X31276069Y-53246765D01*
X31355078Y-53288996D01*
X31484659Y-53395341D01*
X31591004Y-53524922D01*
X31591005Y-53524924D01*
X31670024Y-53672758D01*
X31670025Y-53672761D01*
X31672738Y-53681705D01*
X31718687Y-53833177D01*
X31735117Y-54000000D01*
X31718687Y-54166823D01*
X31670024Y-54327242D01*
X31645227Y-54373633D01*
X31591004Y-54475078D01*
X31484659Y-54604659D01*
X31355078Y-54711004D01*
X31355076Y-54711005D01*
X31207242Y-54790024D01*
X31046823Y-54838687D01*
X30921804Y-54851000D01*
X30838196Y-54851000D01*
X30713177Y-54838687D01*
X30552758Y-54790024D01*
X30404924Y-54711005D01*
X30404922Y-54711004D01*
X30275341Y-54604659D01*
X30168996Y-54475078D01*
X30114773Y-54373633D01*
X30089976Y-54327242D01*
X30041313Y-54166823D01*
X30024883Y-54000000D01*
X30041313Y-53833177D01*
X30087262Y-53681705D01*
X30089975Y-53672761D01*
X30089976Y-53672758D01*
X30168995Y-53524924D01*
X30168996Y-53524922D01*
X30275341Y-53395341D01*
X30404922Y-53288996D01*
X30483931Y-53246765D01*
X30552758Y-53209976D01*
X30565760Y-53206032D01*
X30612814Y-53191758D01*
X30713177Y-53161313D01*
X30838196Y-53149000D01*
X30921804Y-53149000D01*
X31046823Y-53161313D01*
X31046823Y-53161313D01*
G37*
G36*
X36126823Y-53161313D02*
G01*
X36227186Y-53191758D01*
X36274241Y-53206032D01*
X36287242Y-53209976D01*
X36356069Y-53246765D01*
X36435078Y-53288996D01*
X36564659Y-53395341D01*
X36671004Y-53524922D01*
X36671005Y-53524924D01*
X36750024Y-53672758D01*
X36750025Y-53672761D01*
X36752738Y-53681705D01*
X36798687Y-53833177D01*
X36815117Y-54000000D01*
X36798687Y-54166823D01*
X36750024Y-54327242D01*
X36725227Y-54373633D01*
X36671004Y-54475078D01*
X36564659Y-54604659D01*
X36435078Y-54711004D01*
X36435076Y-54711005D01*
X36287242Y-54790024D01*
X36126823Y-54838687D01*
X36001804Y-54851000D01*
X35918196Y-54851000D01*
X35793177Y-54838687D01*
X35632758Y-54790024D01*
X35484924Y-54711005D01*
X35484922Y-54711004D01*
X35355341Y-54604659D01*
X35248996Y-54475078D01*
X35194773Y-54373633D01*
X35169976Y-54327242D01*
X35121313Y-54166823D01*
X35104883Y-54000000D01*
X35121313Y-53833177D01*
X35167262Y-53681705D01*
X35169975Y-53672761D01*
X35169976Y-53672758D01*
X35248995Y-53524924D01*
X35248996Y-53524922D01*
X35355341Y-53395341D01*
X35484922Y-53288996D01*
X35563931Y-53246765D01*
X35632758Y-53209976D01*
X35645760Y-53206032D01*
X35692814Y-53191758D01*
X35793177Y-53161313D01*
X35918196Y-53149000D01*
X36001804Y-53149000D01*
X36126823Y-53161313D01*
X36126823Y-53161313D01*
G37*
G36*
X39351000Y-54851000D02*
G01*
X37649000Y-54851000D01*
X37649000Y-53149000D01*
X39351000Y-53149000D01*
X39351000Y-54851000D01*
X39351000Y-54851000D01*
G37*
G36*
X109506032Y-50964207D02*
G01*
X109704146Y-51024305D01*
X109704149Y-51024306D01*
X109800975Y-51076061D01*
X109886729Y-51121897D01*
X110046765Y-51253235D01*
X110178103Y-51413271D01*
X110223939Y-51499025D01*
X110275694Y-51595851D01*
X110275695Y-51595854D01*
X110335793Y-51793968D01*
X110351000Y-51948370D01*
X110351000Y-53051630D01*
X110335793Y-53206032D01*
X110294247Y-53342989D01*
X110275694Y-53404149D01*
X110237452Y-53475694D01*
X110178103Y-53586729D01*
X110046765Y-53746765D01*
X109886729Y-53878103D01*
X109770030Y-53940479D01*
X109704148Y-53975694D01*
X109704145Y-53975695D01*
X109506031Y-54035793D01*
X109300000Y-54056085D01*
X109093968Y-54035793D01*
X108895854Y-53975695D01*
X108895851Y-53975694D01*
X108799025Y-53923939D01*
X108713271Y-53878103D01*
X108553235Y-53746765D01*
X108421897Y-53586729D01*
X108324307Y-53404149D01*
X108324306Y-53404148D01*
X108321634Y-53395341D01*
X108264207Y-53206031D01*
X108249000Y-53051629D01*
X108249000Y-51948370D01*
X108252457Y-51913271D01*
X108264207Y-51793970D01*
X108324305Y-51595853D01*
X108402801Y-51449000D01*
X108421898Y-51413271D01*
X108553236Y-51253235D01*
X108713272Y-51121897D01*
X108799026Y-51076061D01*
X108895852Y-51024306D01*
X108895855Y-51024305D01*
X109093969Y-50964207D01*
X109300000Y-50943915D01*
X109506032Y-50964207D01*
X109506032Y-50964207D01*
G37*
G36*
X114546032Y-50964207D02*
G01*
X114744146Y-51024305D01*
X114744149Y-51024306D01*
X114840975Y-51076061D01*
X114926729Y-51121897D01*
X115086765Y-51253235D01*
X115218103Y-51413271D01*
X115263939Y-51499025D01*
X115315694Y-51595851D01*
X115315695Y-51595854D01*
X115375793Y-51793968D01*
X115391000Y-51948370D01*
X115391000Y-53051630D01*
X115375793Y-53206032D01*
X115334247Y-53342989D01*
X115315694Y-53404149D01*
X115277452Y-53475694D01*
X115218103Y-53586729D01*
X115086765Y-53746765D01*
X114926729Y-53878103D01*
X114810030Y-53940479D01*
X114744148Y-53975694D01*
X114744145Y-53975695D01*
X114546031Y-54035793D01*
X114340000Y-54056085D01*
X114133968Y-54035793D01*
X113935854Y-53975695D01*
X113935851Y-53975694D01*
X113839025Y-53923939D01*
X113753271Y-53878103D01*
X113593235Y-53746765D01*
X113461897Y-53586729D01*
X113364307Y-53404149D01*
X113364306Y-53404148D01*
X113361634Y-53395341D01*
X113304207Y-53206031D01*
X113289000Y-53051629D01*
X113289000Y-51948370D01*
X113292457Y-51913271D01*
X113304207Y-51793970D01*
X113364305Y-51595853D01*
X113442801Y-51449000D01*
X113461898Y-51413271D01*
X113593236Y-51253235D01*
X113753272Y-51121897D01*
X113839026Y-51076061D01*
X113935852Y-51024306D01*
X113935855Y-51024305D01*
X114133969Y-50964207D01*
X114340000Y-50943915D01*
X114546032Y-50964207D01*
X114546032Y-50964207D01*
G37*
G36*
X120070443Y-51945519D02*
G01*
X120136627Y-51952037D01*
X120306466Y-52003557D01*
X120462991Y-52087222D01*
X120498729Y-52116552D01*
X120600186Y-52199814D01*
X120677455Y-52293968D01*
X120712778Y-52337009D01*
X120796443Y-52493534D01*
X120847963Y-52663373D01*
X120865359Y-52840000D01*
X120847963Y-53016627D01*
X120796443Y-53186466D01*
X120712778Y-53342991D01*
X120683962Y-53378103D01*
X120600186Y-53480186D01*
X120498729Y-53563448D01*
X120462991Y-53592778D01*
X120462989Y-53592779D01*
X120313355Y-53672761D01*
X120306466Y-53676443D01*
X120136627Y-53727963D01*
X120070443Y-53734481D01*
X120004260Y-53741000D01*
X119915740Y-53741000D01*
X119849557Y-53734481D01*
X119783373Y-53727963D01*
X119613534Y-53676443D01*
X119606646Y-53672761D01*
X119457011Y-53592779D01*
X119457009Y-53592778D01*
X119421271Y-53563448D01*
X119319814Y-53480186D01*
X119236038Y-53378103D01*
X119207222Y-53342991D01*
X119123557Y-53186466D01*
X119072037Y-53016627D01*
X119054641Y-52840000D01*
X119072037Y-52663373D01*
X119123557Y-52493534D01*
X119207222Y-52337009D01*
X119242545Y-52293968D01*
X119319814Y-52199814D01*
X119421271Y-52116552D01*
X119457009Y-52087222D01*
X119613534Y-52003557D01*
X119783373Y-51952037D01*
X119849557Y-51945519D01*
X119915740Y-51939000D01*
X120004260Y-51939000D01*
X120070443Y-51945519D01*
X120070443Y-51945519D01*
G37*
G36*
X122610443Y-51945519D02*
G01*
X122676627Y-51952037D01*
X122846466Y-52003557D01*
X123002991Y-52087222D01*
X123038729Y-52116552D01*
X123140186Y-52199814D01*
X123217455Y-52293968D01*
X123252778Y-52337009D01*
X123336443Y-52493534D01*
X123387963Y-52663373D01*
X123405359Y-52840000D01*
X123387963Y-53016627D01*
X123336443Y-53186466D01*
X123252778Y-53342991D01*
X123223962Y-53378103D01*
X123140186Y-53480186D01*
X123038729Y-53563448D01*
X123002991Y-53592778D01*
X123002989Y-53592779D01*
X122853355Y-53672761D01*
X122846466Y-53676443D01*
X122676627Y-53727963D01*
X122610443Y-53734481D01*
X122544260Y-53741000D01*
X122455740Y-53741000D01*
X122389557Y-53734481D01*
X122323373Y-53727963D01*
X122153534Y-53676443D01*
X122146646Y-53672761D01*
X121997011Y-53592779D01*
X121997009Y-53592778D01*
X121961271Y-53563448D01*
X121859814Y-53480186D01*
X121776038Y-53378103D01*
X121747222Y-53342991D01*
X121663557Y-53186466D01*
X121612037Y-53016627D01*
X121594641Y-52840000D01*
X121612037Y-52663373D01*
X121663557Y-52493534D01*
X121747222Y-52337009D01*
X121782545Y-52293968D01*
X121859814Y-52199814D01*
X121961271Y-52116552D01*
X121997009Y-52087222D01*
X122153534Y-52003557D01*
X122323373Y-51952037D01*
X122389557Y-51945519D01*
X122455740Y-51939000D01*
X122544260Y-51939000D01*
X122610443Y-51945519D01*
X122610443Y-51945519D01*
G37*
G36*
X89603097Y-51454069D02*
G01*
X89706032Y-51464207D01*
X89904146Y-51524305D01*
X89904149Y-51524306D01*
X90000975Y-51576061D01*
X90086729Y-51621897D01*
X90246765Y-51753235D01*
X90378103Y-51913271D01*
X90401295Y-51956661D01*
X90475694Y-52095851D01*
X90475695Y-52095854D01*
X90535793Y-52293968D01*
X90556085Y-52500000D01*
X90535793Y-52706032D01*
X90475695Y-52904146D01*
X90475694Y-52904149D01*
X90423939Y-53000975D01*
X90378103Y-53086729D01*
X90246765Y-53246765D01*
X90086729Y-53378103D01*
X90038000Y-53404149D01*
X89904149Y-53475694D01*
X89904146Y-53475695D01*
X89706032Y-53535793D01*
X89603097Y-53545931D01*
X89551631Y-53551000D01*
X88448369Y-53551000D01*
X88396903Y-53545931D01*
X88293968Y-53535793D01*
X88095854Y-53475695D01*
X88095851Y-53475694D01*
X87962000Y-53404149D01*
X87913271Y-53378103D01*
X87753235Y-53246765D01*
X87621897Y-53086729D01*
X87576061Y-53000975D01*
X87524306Y-52904149D01*
X87524305Y-52904146D01*
X87464207Y-52706032D01*
X87443915Y-52500000D01*
X87464207Y-52293968D01*
X87524305Y-52095854D01*
X87524306Y-52095851D01*
X87598705Y-51956661D01*
X87621897Y-51913271D01*
X87753235Y-51753235D01*
X87913271Y-51621897D01*
X87999025Y-51576061D01*
X88095851Y-51524306D01*
X88095854Y-51524305D01*
X88293968Y-51464207D01*
X88396903Y-51454069D01*
X88448369Y-51449000D01*
X89551631Y-51449000D01*
X89603097Y-51454069D01*
X89603097Y-51454069D01*
G37*
G36*
X50413674Y-51753465D02*
G01*
X50451367Y-51764899D01*
X50486103Y-51783466D01*
X50516548Y-51808452D01*
X50541534Y-51838897D01*
X50560101Y-51873633D01*
X50571535Y-51911326D01*
X50576000Y-51956661D01*
X50576000Y-53043339D01*
X50571535Y-53088674D01*
X50560101Y-53126367D01*
X50541534Y-53161103D01*
X50516548Y-53191548D01*
X50486103Y-53216534D01*
X50451367Y-53235101D01*
X50413674Y-53246535D01*
X50368339Y-53251000D01*
X49531661Y-53251000D01*
X49486326Y-53246535D01*
X49448633Y-53235101D01*
X49413897Y-53216534D01*
X49383452Y-53191548D01*
X49358466Y-53161103D01*
X49339899Y-53126367D01*
X49328465Y-53088674D01*
X49324000Y-53043339D01*
X49324000Y-51956661D01*
X49328465Y-51911326D01*
X49339899Y-51873633D01*
X49358466Y-51838897D01*
X49383452Y-51808452D01*
X49413897Y-51783466D01*
X49448633Y-51764899D01*
X49486326Y-51753465D01*
X49531661Y-51749000D01*
X50368339Y-51749000D01*
X50413674Y-51753465D01*
X50413674Y-51753465D01*
G37*
G36*
X52463674Y-51753465D02*
G01*
X52501367Y-51764899D01*
X52536103Y-51783466D01*
X52566548Y-51808452D01*
X52591534Y-51838897D01*
X52610101Y-51873633D01*
X52621535Y-51911326D01*
X52626000Y-51956661D01*
X52626000Y-53043339D01*
X52621535Y-53088674D01*
X52610101Y-53126367D01*
X52591534Y-53161103D01*
X52566548Y-53191548D01*
X52536103Y-53216534D01*
X52501367Y-53235101D01*
X52463674Y-53246535D01*
X52418339Y-53251000D01*
X51581661Y-53251000D01*
X51536326Y-53246535D01*
X51498633Y-53235101D01*
X51463897Y-53216534D01*
X51433452Y-53191548D01*
X51408466Y-53161103D01*
X51389899Y-53126367D01*
X51378465Y-53088674D01*
X51374000Y-53043339D01*
X51374000Y-51956661D01*
X51378465Y-51911326D01*
X51389899Y-51873633D01*
X51408466Y-51838897D01*
X51433452Y-51808452D01*
X51463897Y-51783466D01*
X51498633Y-51764899D01*
X51536326Y-51753465D01*
X51581661Y-51749000D01*
X52418339Y-51749000D01*
X52463674Y-51753465D01*
X52463674Y-51753465D01*
G37*
G36*
X46617142Y-51628242D02*
G01*
X46765101Y-51689529D01*
X46898255Y-51778499D01*
X47011501Y-51891745D01*
X47100471Y-52024899D01*
X47161758Y-52172858D01*
X47193000Y-52329925D01*
X47193000Y-52490075D01*
X47161758Y-52647142D01*
X47100471Y-52795101D01*
X47011501Y-52928255D01*
X46898255Y-53041501D01*
X46765101Y-53130471D01*
X46617142Y-53191758D01*
X46460075Y-53223000D01*
X46299925Y-53223000D01*
X46142858Y-53191758D01*
X45994899Y-53130471D01*
X45861745Y-53041501D01*
X45748499Y-52928255D01*
X45659529Y-52795101D01*
X45598242Y-52647142D01*
X45567000Y-52490075D01*
X45567000Y-52329925D01*
X45598242Y-52172858D01*
X45659529Y-52024899D01*
X45748499Y-51891745D01*
X45861745Y-51778499D01*
X45994899Y-51689529D01*
X46142858Y-51628242D01*
X46299925Y-51597000D01*
X46460075Y-51597000D01*
X46617142Y-51628242D01*
X46617142Y-51628242D01*
G37*
G36*
X61857142Y-51628242D02*
G01*
X62005101Y-51689529D01*
X62138255Y-51778499D01*
X62251501Y-51891745D01*
X62340471Y-52024899D01*
X62401758Y-52172858D01*
X62433000Y-52329925D01*
X62433000Y-52490075D01*
X62401758Y-52647142D01*
X62340471Y-52795101D01*
X62251501Y-52928255D01*
X62138255Y-53041501D01*
X62005101Y-53130471D01*
X61857142Y-53191758D01*
X61700075Y-53223000D01*
X61539925Y-53223000D01*
X61382858Y-53191758D01*
X61234899Y-53130471D01*
X61101745Y-53041501D01*
X60988499Y-52928255D01*
X60899529Y-52795101D01*
X60838242Y-52647142D01*
X60807000Y-52490075D01*
X60807000Y-52329925D01*
X60838242Y-52172858D01*
X60899529Y-52024899D01*
X60988499Y-51891745D01*
X61101745Y-51778499D01*
X61234899Y-51689529D01*
X61382858Y-51628242D01*
X61539925Y-51597000D01*
X61700075Y-51597000D01*
X61857142Y-51628242D01*
X61857142Y-51628242D01*
G37*
G36*
X78221000Y-52151000D02*
G01*
X77319000Y-52151000D01*
X77319000Y-50849000D01*
X78221000Y-50849000D01*
X78221000Y-52151000D01*
X78221000Y-52151000D01*
G37*
G36*
X75681000Y-52151000D02*
G01*
X74779000Y-52151000D01*
X74779000Y-50849000D01*
X75681000Y-50849000D01*
X75681000Y-52151000D01*
X75681000Y-52151000D01*
G37*
G36*
X52463674Y-49253465D02*
G01*
X52501367Y-49264899D01*
X52536103Y-49283466D01*
X52566548Y-49308452D01*
X52591534Y-49338897D01*
X52610101Y-49373633D01*
X52621535Y-49411326D01*
X52626000Y-49456661D01*
X52626000Y-50543339D01*
X52621535Y-50588674D01*
X52610101Y-50626367D01*
X52591534Y-50661103D01*
X52566548Y-50691548D01*
X52536103Y-50716534D01*
X52501367Y-50735101D01*
X52463674Y-50746535D01*
X52418339Y-50751000D01*
X51581661Y-50751000D01*
X51536326Y-50746535D01*
X51498633Y-50735101D01*
X51463897Y-50716534D01*
X51433452Y-50691548D01*
X51408466Y-50661103D01*
X51389899Y-50626367D01*
X51378465Y-50588674D01*
X51374000Y-50543339D01*
X51374000Y-49456661D01*
X51378465Y-49411326D01*
X51389899Y-49373633D01*
X51408466Y-49338897D01*
X51433452Y-49308452D01*
X51463897Y-49283466D01*
X51498633Y-49264899D01*
X51536326Y-49253465D01*
X51581661Y-49249000D01*
X52418339Y-49249000D01*
X52463674Y-49253465D01*
X52463674Y-49253465D01*
G37*
G36*
X50413674Y-49253465D02*
G01*
X50451367Y-49264899D01*
X50486103Y-49283466D01*
X50516548Y-49308452D01*
X50541534Y-49338897D01*
X50560101Y-49373633D01*
X50571535Y-49411326D01*
X50576000Y-49456661D01*
X50576000Y-50543339D01*
X50571535Y-50588674D01*
X50560101Y-50626367D01*
X50541534Y-50661103D01*
X50516548Y-50691548D01*
X50486103Y-50716534D01*
X50451367Y-50735101D01*
X50413674Y-50746535D01*
X50368339Y-50751000D01*
X49531661Y-50751000D01*
X49486326Y-50746535D01*
X49448633Y-50735101D01*
X49413897Y-50716534D01*
X49383452Y-50691548D01*
X49358466Y-50661103D01*
X49339899Y-50626367D01*
X49328465Y-50588674D01*
X49324000Y-50543339D01*
X49324000Y-49456661D01*
X49328465Y-49411326D01*
X49339899Y-49373633D01*
X49358466Y-49338897D01*
X49383452Y-49308452D01*
X49413897Y-49283466D01*
X49448633Y-49264899D01*
X49486326Y-49253465D01*
X49531661Y-49249000D01*
X50368339Y-49249000D01*
X50413674Y-49253465D01*
X50413674Y-49253465D01*
G37*
G36*
X46617142Y-49088242D02*
G01*
X46765101Y-49149529D01*
X46898255Y-49238499D01*
X47011501Y-49351745D01*
X47100471Y-49484899D01*
X47161758Y-49632858D01*
X47193000Y-49789925D01*
X47193000Y-49950075D01*
X47161758Y-50107142D01*
X47100471Y-50255101D01*
X47011501Y-50388255D01*
X46898255Y-50501501D01*
X46765101Y-50590471D01*
X46617142Y-50651758D01*
X46460075Y-50683000D01*
X46299925Y-50683000D01*
X46142858Y-50651758D01*
X45994899Y-50590471D01*
X45861745Y-50501501D01*
X45748499Y-50388255D01*
X45659529Y-50255101D01*
X45598242Y-50107142D01*
X45567000Y-49950075D01*
X45567000Y-49789925D01*
X45598242Y-49632858D01*
X45659529Y-49484899D01*
X45748499Y-49351745D01*
X45861745Y-49238499D01*
X45994899Y-49149529D01*
X46142858Y-49088242D01*
X46299925Y-49057000D01*
X46460075Y-49057000D01*
X46617142Y-49088242D01*
X46617142Y-49088242D01*
G37*
G36*
X61857142Y-49088242D02*
G01*
X62005101Y-49149529D01*
X62138255Y-49238499D01*
X62251501Y-49351745D01*
X62340471Y-49484899D01*
X62401758Y-49632858D01*
X62433000Y-49789925D01*
X62433000Y-49950075D01*
X62401758Y-50107142D01*
X62340471Y-50255101D01*
X62251501Y-50388255D01*
X62138255Y-50501501D01*
X62005101Y-50590471D01*
X61857142Y-50651758D01*
X61700075Y-50683000D01*
X61539925Y-50683000D01*
X61382858Y-50651758D01*
X61234899Y-50590471D01*
X61101745Y-50501501D01*
X60988499Y-50388255D01*
X60899529Y-50255101D01*
X60838242Y-50107142D01*
X60807000Y-49950075D01*
X60807000Y-49789925D01*
X60838242Y-49632858D01*
X60899529Y-49484899D01*
X60988499Y-49351745D01*
X61101745Y-49238499D01*
X61234899Y-49149529D01*
X61382858Y-49088242D01*
X61539925Y-49057000D01*
X61700075Y-49057000D01*
X61857142Y-49088242D01*
X61857142Y-49088242D01*
G37*
G36*
X81509271Y-45360103D02*
G01*
X81565635Y-45365654D01*
X81782600Y-45431470D01*
X81782602Y-45431471D01*
X81982555Y-45538347D01*
X82157818Y-45682182D01*
X82301653Y-45857445D01*
X82371812Y-45988705D01*
X82408530Y-46057400D01*
X82474346Y-46274365D01*
X82474346Y-46274366D01*
X82496569Y-46500000D01*
X82474346Y-46725634D01*
X82408529Y-46942602D01*
X82301653Y-47142555D01*
X82157818Y-47317818D01*
X81982555Y-47461653D01*
X81782602Y-47568529D01*
X81782600Y-47568530D01*
X81565635Y-47634346D01*
X81509271Y-47639897D01*
X81396545Y-47651000D01*
X81283455Y-47651000D01*
X81170729Y-47639897D01*
X81114365Y-47634346D01*
X80897400Y-47568530D01*
X80897398Y-47568529D01*
X80697445Y-47461653D01*
X80522182Y-47317818D01*
X80378347Y-47142555D01*
X80271471Y-46942602D01*
X80205654Y-46725634D01*
X80183431Y-46500000D01*
X80205654Y-46274366D01*
X80205654Y-46274365D01*
X80271470Y-46057400D01*
X80308188Y-45988705D01*
X80378347Y-45857445D01*
X80522182Y-45682182D01*
X80697445Y-45538347D01*
X80897398Y-45431471D01*
X80897400Y-45431470D01*
X81114365Y-45365654D01*
X81170729Y-45360103D01*
X81283455Y-45349000D01*
X81396545Y-45349000D01*
X81509271Y-45360103D01*
X81509271Y-45360103D01*
G37*
G36*
X92651000Y-47651000D02*
G01*
X90349000Y-47651000D01*
X90349000Y-45349000D01*
X92651000Y-45349000D01*
X92651000Y-47651000D01*
X92651000Y-47651000D01*
G37*
G36*
X71302585Y-43478802D02*
G01*
X71452410Y-43508604D01*
X71734674Y-43625521D01*
X71988705Y-43795259D01*
X72204741Y-44011295D01*
X72374479Y-44265326D01*
X72491396Y-44547590D01*
X72551000Y-44847240D01*
X72551000Y-45152760D01*
X72491396Y-45452410D01*
X72374479Y-45734674D01*
X72204741Y-45988705D01*
X71988705Y-46204741D01*
X71734674Y-46374479D01*
X71452410Y-46491396D01*
X71302585Y-46521198D01*
X71152761Y-46551000D01*
X70847239Y-46551000D01*
X70697415Y-46521198D01*
X70547590Y-46491396D01*
X70265326Y-46374479D01*
X70011295Y-46204741D01*
X69795259Y-45988705D01*
X69625521Y-45734674D01*
X69508604Y-45452410D01*
X69449000Y-45152760D01*
X69449000Y-44847240D01*
X69508604Y-44547590D01*
X69625521Y-44265326D01*
X69795259Y-44011295D01*
X70011295Y-43795259D01*
X70265326Y-43625521D01*
X70547590Y-43508604D01*
X70697415Y-43478802D01*
X70847239Y-43449000D01*
X71152761Y-43449000D01*
X71302585Y-43478802D01*
X71302585Y-43478802D01*
G37*
G36*
X103302585Y-43478802D02*
G01*
X103452410Y-43508604D01*
X103734674Y-43625521D01*
X103988705Y-43795259D01*
X104204741Y-44011295D01*
X104374479Y-44265326D01*
X104491396Y-44547590D01*
X104551000Y-44847240D01*
X104551000Y-45152760D01*
X104491396Y-45452410D01*
X104374479Y-45734674D01*
X104204741Y-45988705D01*
X103988705Y-46204741D01*
X103734674Y-46374479D01*
X103452410Y-46491396D01*
X103302585Y-46521198D01*
X103152761Y-46551000D01*
X102847239Y-46551000D01*
X102697415Y-46521198D01*
X102547590Y-46491396D01*
X102265326Y-46374479D01*
X102011295Y-46204741D01*
X101795259Y-45988705D01*
X101625521Y-45734674D01*
X101508604Y-45452410D01*
X101449000Y-45152760D01*
X101449000Y-44847240D01*
X101508604Y-44547590D01*
X101625521Y-44265326D01*
X101795259Y-44011295D01*
X102011295Y-43795259D01*
X102265326Y-43625521D01*
X102547590Y-43508604D01*
X102697415Y-43478802D01*
X102847239Y-43449000D01*
X103152761Y-43449000D01*
X103302585Y-43478802D01*
X103302585Y-43478802D01*
G37*
G36*
X108302585Y-43478802D02*
G01*
X108452410Y-43508604D01*
X108734674Y-43625521D01*
X108988705Y-43795259D01*
X109204741Y-44011295D01*
X109374479Y-44265326D01*
X109491396Y-44547590D01*
X109551000Y-44847240D01*
X109551000Y-45152760D01*
X109491396Y-45452410D01*
X109374479Y-45734674D01*
X109204741Y-45988705D01*
X108988705Y-46204741D01*
X108734674Y-46374479D01*
X108452410Y-46491396D01*
X108302585Y-46521198D01*
X108152761Y-46551000D01*
X107847239Y-46551000D01*
X107697415Y-46521198D01*
X107547590Y-46491396D01*
X107265326Y-46374479D01*
X107011295Y-46204741D01*
X106795259Y-45988705D01*
X106625521Y-45734674D01*
X106508604Y-45452410D01*
X106449000Y-45152760D01*
X106449000Y-44847240D01*
X106508604Y-44547590D01*
X106625521Y-44265326D01*
X106795259Y-44011295D01*
X107011295Y-43795259D01*
X107265326Y-43625521D01*
X107547590Y-43508604D01*
X107697415Y-43478802D01*
X107847239Y-43449000D01*
X108152761Y-43449000D01*
X108302585Y-43478802D01*
X108302585Y-43478802D01*
G37*
G36*
X114551000Y-46551000D02*
G01*
X111449000Y-46551000D01*
X111449000Y-43449000D01*
X114551000Y-43449000D01*
X114551000Y-46551000D01*
X114551000Y-46551000D01*
G37*
G36*
X77551000Y-46551000D02*
G01*
X74449000Y-46551000D01*
X74449000Y-43449000D01*
X77551000Y-43449000D01*
X77551000Y-46551000D01*
X77551000Y-46551000D01*
G37*
G36*
X31375256Y-42391298D02*
G01*
X31481579Y-42412447D01*
X31782042Y-42536903D01*
X32052451Y-42717585D01*
X32282415Y-42947549D01*
X32463097Y-43217958D01*
X32583487Y-43508604D01*
X32587553Y-43518422D01*
X32651000Y-43837389D01*
X32651000Y-44162611D01*
X32630568Y-44265328D01*
X32587553Y-44481579D01*
X32463097Y-44782042D01*
X32282415Y-45052451D01*
X32052451Y-45282415D01*
X31782042Y-45463097D01*
X31481579Y-45587553D01*
X31375256Y-45608702D01*
X31162611Y-45651000D01*
X30837389Y-45651000D01*
X30624744Y-45608702D01*
X30518421Y-45587553D01*
X30217958Y-45463097D01*
X29947549Y-45282415D01*
X29717585Y-45052451D01*
X29536903Y-44782042D01*
X29412447Y-44481579D01*
X29369432Y-44265328D01*
X29349000Y-44162611D01*
X29349000Y-43837389D01*
X29412447Y-43518422D01*
X29416514Y-43508604D01*
X29536903Y-43217958D01*
X29717585Y-42947549D01*
X29947549Y-42717585D01*
X30217958Y-42536903D01*
X30518421Y-42412447D01*
X30624744Y-42391298D01*
X30837389Y-42349000D01*
X31162611Y-42349000D01*
X31375256Y-42391298D01*
X31375256Y-42391298D01*
G37*
G36*
X124375256Y-42391298D02*
G01*
X124481579Y-42412447D01*
X124782042Y-42536903D01*
X125052451Y-42717585D01*
X125282415Y-42947549D01*
X125463097Y-43217958D01*
X125583487Y-43508604D01*
X125587553Y-43518422D01*
X125651000Y-43837389D01*
X125651000Y-44162611D01*
X125630568Y-44265328D01*
X125587553Y-44481579D01*
X125463097Y-44782042D01*
X125282415Y-45052451D01*
X125052451Y-45282415D01*
X124782042Y-45463097D01*
X124481579Y-45587553D01*
X124375256Y-45608702D01*
X124162611Y-45651000D01*
X123837389Y-45651000D01*
X123624744Y-45608702D01*
X123518421Y-45587553D01*
X123217958Y-45463097D01*
X122947549Y-45282415D01*
X122717585Y-45052451D01*
X122536903Y-44782042D01*
X122412447Y-44481579D01*
X122369432Y-44265328D01*
X122349000Y-44162611D01*
X122349000Y-43837389D01*
X122412447Y-43518422D01*
X122416514Y-43508604D01*
X122536903Y-43217958D01*
X122717585Y-42947549D01*
X122947549Y-42717585D01*
X123217958Y-42536903D01*
X123518421Y-42412447D01*
X123624744Y-42391298D01*
X123837389Y-42349000D01*
X124162611Y-42349000D01*
X124375256Y-42391298D01*
X124375256Y-42391298D01*
G37*
M02*
