M48
INCH,TZ
T1C0.0276
T2C0.0300
T3C0.0315
T4C0.0354
T5C0.0394
T6C0.0433
T7C0.0512
T8C0.0598
%
G90
G05
T1
X13976Y-25935
X14961Y-27362
X15354Y-39567
X16339Y-21457
X16535Y-37213
X16929Y-40650
X20472Y-42717
X26772Y-20472
X26968Y-38411
X27165Y-42520
X31299Y-34252
X32283Y-22638
X32618Y-41003
X41339Y-39370
X43610Y-32390
X43610Y-34358
T2
X18260Y-19634
X18260Y-20634
X18260Y-21634
X18260Y-22634
X18260Y-23634
X18260Y-24634
X18260Y-25634
X18260Y-26634
X18260Y-27634
X18260Y-28634
X18260Y-29634
X18260Y-30634
X18260Y-31634
X18260Y-32634
X18260Y-33634
X18260Y-34634
X18260Y-35634
X18260Y-36634
X18260Y-37634
X18260Y-38634
X24260Y-19634
X24260Y-20634
X24260Y-21634
X24260Y-22634
X24260Y-23634
X24260Y-24634
X24260Y-25634
X24260Y-26634
X24260Y-27634
X24260Y-28634
X24260Y-29634
X24260Y-30634
X24260Y-31634
X24260Y-32634
X24260Y-33634
X24260Y-34634
X24260Y-35634
X24260Y-36634
X24260Y-37634
X24260Y-38634
T3
X12157Y-34843
X12157Y-37843
X13157Y-34843
X13157Y-37843
X14157Y-34843
X14157Y-37843
X15157Y-34843
X15157Y-37843
X12157Y-21260
X12157Y-24260
X13157Y-21260
X13157Y-24260
X14157Y-21260
X14157Y-24260
X15157Y-21260
X15157Y-24260
X43898Y-36811
X43898Y-39811
X41929Y-41535
X44929Y-41535
X27756Y-21457
X27756Y-22835
T4
X24409Y-41063
X31299Y-31260
X33465Y-31299
X36024Y-39370
X37008Y-34921
T5
X20472Y-17717
X22835Y-19685
X33071Y-41929
X36024Y-32539
X38189Y-32539
X38976Y-27165
X47228Y-29528
X47228Y-30528
X47228Y-31528
X47228Y-32528
X47228Y-33528
X47228Y-34528
X47228Y-35528
X47228Y-36528
X47228Y-37528
X47228Y-38528
X48228Y-29528
X48228Y-30528
X48228Y-31528
X48228Y-32528
X48228Y-33528
X48228Y-34528
X48228Y-35528
X48228Y-36528
X48228Y-37528
X48228Y-38528
X11811Y-29226
X11811Y-30226
X12811Y-29226
X12811Y-30226
X13811Y-29226
X13811Y-30226
X14811Y-29226
X14811Y-30226
X15811Y-29226
X15811Y-30226
X47228Y-20803
X47228Y-22803
X47228Y-24803
X48228Y-20803
X48228Y-22803
X48228Y-24803
T6
X32024Y-18307
X36024Y-18307
X32874Y-21394
X32874Y-25394
X27921Y-24803
X28921Y-24803
X29921Y-24803
T7
X35039Y-20669
X35039Y-23622
X43031Y-20669
X43031Y-23622
X45016Y-20669
X45016Y-23622
T8
X27953Y-17717
X29921Y-17717
X40551Y-17717
X42520Y-17717
X44488Y-17717
T0
M30
