G04 #@! TF.GenerationSoftware,KiCad,Pcbnew,(5.1.4)-1*
G04 #@! TF.CreationDate,2020-06-04T10:48:23-03:00*
G04 #@! TF.ProjectId,ModPrincipal,4d6f6450-7269-46e6-9369-70616c2e6b69,1.0*
G04 #@! TF.SameCoordinates,Original*
G04 #@! TF.FileFunction,Legend,Bot*
G04 #@! TF.FilePolarity,Positive*
%FSLAX46Y46*%
G04 Gerber Fmt 4.6, Leading zero omitted, Abs format (unit mm)*
G04 Created by KiCad (PCBNEW (5.1.4)-1) date 2020-06-04 10:48:23*
%MOMM*%
%LPD*%
G04 APERTURE LIST*
%ADD10C,0.120000*%
%ADD11C,0.150000*%
G04 APERTURE END LIST*
D10*
X51710000Y-93763748D02*
X51710000Y-94286252D01*
X50290000Y-93763748D02*
X50290000Y-94286252D01*
X49710000Y-93763748D02*
X49710000Y-94286252D01*
X48290000Y-93763748D02*
X48290000Y-94286252D01*
X50713748Y-56790000D02*
X51236252Y-56790000D01*
X50713748Y-58210000D02*
X51236252Y-58210000D01*
X50738748Y-54290000D02*
X51261252Y-54290000D01*
X50738748Y-55710000D02*
X51261252Y-55710000D01*
X50713748Y-51790000D02*
X51236252Y-51790000D01*
X50713748Y-53210000D02*
X51236252Y-53210000D01*
X50713748Y-49290000D02*
X51236252Y-49290000D01*
X50713748Y-50710000D02*
X51236252Y-50710000D01*
X90040000Y-94486252D02*
X90040000Y-93963748D01*
X91460000Y-94486252D02*
X91460000Y-93963748D01*
X87790000Y-94486252D02*
X87790000Y-93963748D01*
X89210000Y-94486252D02*
X89210000Y-93963748D01*
X85540000Y-94486252D02*
X85540000Y-93963748D01*
X86960000Y-94486252D02*
X86960000Y-93963748D01*
X77120000Y-56850000D02*
X75880000Y-56850000D01*
X77120000Y-52150000D02*
X75880000Y-52150000D01*
X74550000Y-52150000D02*
X74200000Y-52150000D01*
X74200000Y-52150000D02*
X74200000Y-56850000D01*
X74200000Y-56850000D02*
X74550000Y-56850000D01*
X74550000Y-52150000D02*
X74550000Y-50900000D01*
X78450000Y-52150000D02*
X78800000Y-52150000D01*
X78800000Y-52150000D02*
X78800000Y-56850000D01*
X78800000Y-56850000D02*
X78450000Y-56850000D01*
X76286252Y-66710000D02*
X75763748Y-66710000D01*
X76286252Y-65290000D02*
X75763748Y-65290000D01*
X58236252Y-86210000D02*
X57713748Y-86210000D01*
X58236252Y-84790000D02*
X57713748Y-84790000D01*
X58261252Y-88710000D02*
X57738748Y-88710000D01*
X58261252Y-87290000D02*
X57738748Y-87290000D01*
D11*
X53607142Y-92880952D02*
X53654761Y-92833333D01*
X53702380Y-92690476D01*
X53702380Y-92595238D01*
X53654761Y-92452380D01*
X53559523Y-92357142D01*
X53464285Y-92309523D01*
X53273809Y-92261904D01*
X53130952Y-92261904D01*
X52940476Y-92309523D01*
X52845238Y-92357142D01*
X52750000Y-92452380D01*
X52702380Y-92595238D01*
X52702380Y-92690476D01*
X52750000Y-92833333D01*
X52797619Y-92880952D01*
X53130952Y-93452380D02*
X53083333Y-93357142D01*
X53035714Y-93309523D01*
X52940476Y-93261904D01*
X52892857Y-93261904D01*
X52797619Y-93309523D01*
X52750000Y-93357142D01*
X52702380Y-93452380D01*
X52702380Y-93642857D01*
X52750000Y-93738095D01*
X52797619Y-93785714D01*
X52892857Y-93833333D01*
X52940476Y-93833333D01*
X53035714Y-93785714D01*
X53083333Y-93738095D01*
X53130952Y-93642857D01*
X53130952Y-93452380D01*
X53178571Y-93357142D01*
X53226190Y-93309523D01*
X53321428Y-93261904D01*
X53511904Y-93261904D01*
X53607142Y-93309523D01*
X53654761Y-93357142D01*
X53702380Y-93452380D01*
X53702380Y-93642857D01*
X53654761Y-93738095D01*
X53607142Y-93785714D01*
X53511904Y-93833333D01*
X53321428Y-93833333D01*
X53226190Y-93785714D01*
X53178571Y-93738095D01*
X53130952Y-93642857D01*
X52702380Y-94452380D02*
X52702380Y-94547619D01*
X52750000Y-94642857D01*
X52797619Y-94690476D01*
X52892857Y-94738095D01*
X53083333Y-94785714D01*
X53321428Y-94785714D01*
X53511904Y-94738095D01*
X53607142Y-94690476D01*
X53654761Y-94642857D01*
X53702380Y-94547619D01*
X53702380Y-94452380D01*
X53654761Y-94357142D01*
X53607142Y-94309523D01*
X53511904Y-94261904D01*
X53321428Y-94214285D01*
X53083333Y-94214285D01*
X52892857Y-94261904D01*
X52797619Y-94309523D01*
X52750000Y-94357142D01*
X52702380Y-94452380D01*
X52797619Y-95166666D02*
X52750000Y-95214285D01*
X52702380Y-95309523D01*
X52702380Y-95547619D01*
X52750000Y-95642857D01*
X52797619Y-95690476D01*
X52892857Y-95738095D01*
X52988095Y-95738095D01*
X53130952Y-95690476D01*
X53702380Y-95119047D01*
X53702380Y-95738095D01*
X49357142Y-96630952D02*
X49404761Y-96583333D01*
X49452380Y-96440476D01*
X49452380Y-96345238D01*
X49404761Y-96202380D01*
X49309523Y-96107142D01*
X49214285Y-96059523D01*
X49023809Y-96011904D01*
X48880952Y-96011904D01*
X48690476Y-96059523D01*
X48595238Y-96107142D01*
X48500000Y-96202380D01*
X48452380Y-96345238D01*
X48452380Y-96440476D01*
X48500000Y-96583333D01*
X48547619Y-96630952D01*
X48880952Y-97202380D02*
X48833333Y-97107142D01*
X48785714Y-97059523D01*
X48690476Y-97011904D01*
X48642857Y-97011904D01*
X48547619Y-97059523D01*
X48500000Y-97107142D01*
X48452380Y-97202380D01*
X48452380Y-97392857D01*
X48500000Y-97488095D01*
X48547619Y-97535714D01*
X48642857Y-97583333D01*
X48690476Y-97583333D01*
X48785714Y-97535714D01*
X48833333Y-97488095D01*
X48880952Y-97392857D01*
X48880952Y-97202380D01*
X48928571Y-97107142D01*
X48976190Y-97059523D01*
X49071428Y-97011904D01*
X49261904Y-97011904D01*
X49357142Y-97059523D01*
X49404761Y-97107142D01*
X49452380Y-97202380D01*
X49452380Y-97392857D01*
X49404761Y-97488095D01*
X49357142Y-97535714D01*
X49261904Y-97583333D01*
X49071428Y-97583333D01*
X48976190Y-97535714D01*
X48928571Y-97488095D01*
X48880952Y-97392857D01*
X48452380Y-98202380D02*
X48452380Y-98297619D01*
X48500000Y-98392857D01*
X48547619Y-98440476D01*
X48642857Y-98488095D01*
X48833333Y-98535714D01*
X49071428Y-98535714D01*
X49261904Y-98488095D01*
X49357142Y-98440476D01*
X49404761Y-98392857D01*
X49452380Y-98297619D01*
X49452380Y-98202380D01*
X49404761Y-98107142D01*
X49357142Y-98059523D01*
X49261904Y-98011904D01*
X49071428Y-97964285D01*
X48833333Y-97964285D01*
X48642857Y-98011904D01*
X48547619Y-98059523D01*
X48500000Y-98107142D01*
X48452380Y-98202380D01*
X49452380Y-99488095D02*
X49452380Y-98916666D01*
X49452380Y-99202380D02*
X48452380Y-99202380D01*
X48595238Y-99107142D01*
X48690476Y-99011904D01*
X48738095Y-98916666D01*
X52094047Y-59602380D02*
X52427380Y-59126190D01*
X52665476Y-59602380D02*
X52665476Y-58602380D01*
X52284523Y-58602380D01*
X52189285Y-58650000D01*
X52141666Y-58697619D01*
X52094047Y-58792857D01*
X52094047Y-58935714D01*
X52141666Y-59030952D01*
X52189285Y-59078571D01*
X52284523Y-59126190D01*
X52665476Y-59126190D01*
X51522619Y-59030952D02*
X51617857Y-58983333D01*
X51665476Y-58935714D01*
X51713095Y-58840476D01*
X51713095Y-58792857D01*
X51665476Y-58697619D01*
X51617857Y-58650000D01*
X51522619Y-58602380D01*
X51332142Y-58602380D01*
X51236904Y-58650000D01*
X51189285Y-58697619D01*
X51141666Y-58792857D01*
X51141666Y-58840476D01*
X51189285Y-58935714D01*
X51236904Y-58983333D01*
X51332142Y-59030952D01*
X51522619Y-59030952D01*
X51617857Y-59078571D01*
X51665476Y-59126190D01*
X51713095Y-59221428D01*
X51713095Y-59411904D01*
X51665476Y-59507142D01*
X51617857Y-59554761D01*
X51522619Y-59602380D01*
X51332142Y-59602380D01*
X51236904Y-59554761D01*
X51189285Y-59507142D01*
X51141666Y-59411904D01*
X51141666Y-59221428D01*
X51189285Y-59126190D01*
X51236904Y-59078571D01*
X51332142Y-59030952D01*
X50522619Y-58602380D02*
X50427380Y-58602380D01*
X50332142Y-58650000D01*
X50284523Y-58697619D01*
X50236904Y-58792857D01*
X50189285Y-58983333D01*
X50189285Y-59221428D01*
X50236904Y-59411904D01*
X50284523Y-59507142D01*
X50332142Y-59554761D01*
X50427380Y-59602380D01*
X50522619Y-59602380D01*
X50617857Y-59554761D01*
X50665476Y-59507142D01*
X50713095Y-59411904D01*
X50760714Y-59221428D01*
X50760714Y-58983333D01*
X50713095Y-58792857D01*
X50665476Y-58697619D01*
X50617857Y-58650000D01*
X50522619Y-58602380D01*
X49332142Y-58935714D02*
X49332142Y-59602380D01*
X49570238Y-58554761D02*
X49808333Y-59269047D01*
X49189285Y-59269047D01*
X56119047Y-55452380D02*
X56452380Y-54976190D01*
X56690476Y-55452380D02*
X56690476Y-54452380D01*
X56309523Y-54452380D01*
X56214285Y-54500000D01*
X56166666Y-54547619D01*
X56119047Y-54642857D01*
X56119047Y-54785714D01*
X56166666Y-54880952D01*
X56214285Y-54928571D01*
X56309523Y-54976190D01*
X56690476Y-54976190D01*
X55547619Y-54880952D02*
X55642857Y-54833333D01*
X55690476Y-54785714D01*
X55738095Y-54690476D01*
X55738095Y-54642857D01*
X55690476Y-54547619D01*
X55642857Y-54500000D01*
X55547619Y-54452380D01*
X55357142Y-54452380D01*
X55261904Y-54500000D01*
X55214285Y-54547619D01*
X55166666Y-54642857D01*
X55166666Y-54690476D01*
X55214285Y-54785714D01*
X55261904Y-54833333D01*
X55357142Y-54880952D01*
X55547619Y-54880952D01*
X55642857Y-54928571D01*
X55690476Y-54976190D01*
X55738095Y-55071428D01*
X55738095Y-55261904D01*
X55690476Y-55357142D01*
X55642857Y-55404761D01*
X55547619Y-55452380D01*
X55357142Y-55452380D01*
X55261904Y-55404761D01*
X55214285Y-55357142D01*
X55166666Y-55261904D01*
X55166666Y-55071428D01*
X55214285Y-54976190D01*
X55261904Y-54928571D01*
X55357142Y-54880952D01*
X54547619Y-54452380D02*
X54452380Y-54452380D01*
X54357142Y-54500000D01*
X54309523Y-54547619D01*
X54261904Y-54642857D01*
X54214285Y-54833333D01*
X54214285Y-55071428D01*
X54261904Y-55261904D01*
X54309523Y-55357142D01*
X54357142Y-55404761D01*
X54452380Y-55452380D01*
X54547619Y-55452380D01*
X54642857Y-55404761D01*
X54690476Y-55357142D01*
X54738095Y-55261904D01*
X54785714Y-55071428D01*
X54785714Y-54833333D01*
X54738095Y-54642857D01*
X54690476Y-54547619D01*
X54642857Y-54500000D01*
X54547619Y-54452380D01*
X53880952Y-54452380D02*
X53261904Y-54452380D01*
X53595238Y-54833333D01*
X53452380Y-54833333D01*
X53357142Y-54880952D01*
X53309523Y-54928571D01*
X53261904Y-55023809D01*
X53261904Y-55261904D01*
X53309523Y-55357142D01*
X53357142Y-55404761D01*
X53452380Y-55452380D01*
X53738095Y-55452380D01*
X53833333Y-55404761D01*
X53880952Y-55357142D01*
X56119047Y-52952380D02*
X56452380Y-52476190D01*
X56690476Y-52952380D02*
X56690476Y-51952380D01*
X56309523Y-51952380D01*
X56214285Y-52000000D01*
X56166666Y-52047619D01*
X56119047Y-52142857D01*
X56119047Y-52285714D01*
X56166666Y-52380952D01*
X56214285Y-52428571D01*
X56309523Y-52476190D01*
X56690476Y-52476190D01*
X55547619Y-52380952D02*
X55642857Y-52333333D01*
X55690476Y-52285714D01*
X55738095Y-52190476D01*
X55738095Y-52142857D01*
X55690476Y-52047619D01*
X55642857Y-52000000D01*
X55547619Y-51952380D01*
X55357142Y-51952380D01*
X55261904Y-52000000D01*
X55214285Y-52047619D01*
X55166666Y-52142857D01*
X55166666Y-52190476D01*
X55214285Y-52285714D01*
X55261904Y-52333333D01*
X55357142Y-52380952D01*
X55547619Y-52380952D01*
X55642857Y-52428571D01*
X55690476Y-52476190D01*
X55738095Y-52571428D01*
X55738095Y-52761904D01*
X55690476Y-52857142D01*
X55642857Y-52904761D01*
X55547619Y-52952380D01*
X55357142Y-52952380D01*
X55261904Y-52904761D01*
X55214285Y-52857142D01*
X55166666Y-52761904D01*
X55166666Y-52571428D01*
X55214285Y-52476190D01*
X55261904Y-52428571D01*
X55357142Y-52380952D01*
X54547619Y-51952380D02*
X54452380Y-51952380D01*
X54357142Y-52000000D01*
X54309523Y-52047619D01*
X54261904Y-52142857D01*
X54214285Y-52333333D01*
X54214285Y-52571428D01*
X54261904Y-52761904D01*
X54309523Y-52857142D01*
X54357142Y-52904761D01*
X54452380Y-52952380D01*
X54547619Y-52952380D01*
X54642857Y-52904761D01*
X54690476Y-52857142D01*
X54738095Y-52761904D01*
X54785714Y-52571428D01*
X54785714Y-52333333D01*
X54738095Y-52142857D01*
X54690476Y-52047619D01*
X54642857Y-52000000D01*
X54547619Y-51952380D01*
X53833333Y-52047619D02*
X53785714Y-52000000D01*
X53690476Y-51952380D01*
X53452380Y-51952380D01*
X53357142Y-52000000D01*
X53309523Y-52047619D01*
X53261904Y-52142857D01*
X53261904Y-52238095D01*
X53309523Y-52380952D01*
X53880952Y-52952380D01*
X53261904Y-52952380D01*
X52119047Y-48702380D02*
X52452380Y-48226190D01*
X52690476Y-48702380D02*
X52690476Y-47702380D01*
X52309523Y-47702380D01*
X52214285Y-47750000D01*
X52166666Y-47797619D01*
X52119047Y-47892857D01*
X52119047Y-48035714D01*
X52166666Y-48130952D01*
X52214285Y-48178571D01*
X52309523Y-48226190D01*
X52690476Y-48226190D01*
X51547619Y-48130952D02*
X51642857Y-48083333D01*
X51690476Y-48035714D01*
X51738095Y-47940476D01*
X51738095Y-47892857D01*
X51690476Y-47797619D01*
X51642857Y-47750000D01*
X51547619Y-47702380D01*
X51357142Y-47702380D01*
X51261904Y-47750000D01*
X51214285Y-47797619D01*
X51166666Y-47892857D01*
X51166666Y-47940476D01*
X51214285Y-48035714D01*
X51261904Y-48083333D01*
X51357142Y-48130952D01*
X51547619Y-48130952D01*
X51642857Y-48178571D01*
X51690476Y-48226190D01*
X51738095Y-48321428D01*
X51738095Y-48511904D01*
X51690476Y-48607142D01*
X51642857Y-48654761D01*
X51547619Y-48702380D01*
X51357142Y-48702380D01*
X51261904Y-48654761D01*
X51214285Y-48607142D01*
X51166666Y-48511904D01*
X51166666Y-48321428D01*
X51214285Y-48226190D01*
X51261904Y-48178571D01*
X51357142Y-48130952D01*
X50547619Y-47702380D02*
X50452380Y-47702380D01*
X50357142Y-47750000D01*
X50309523Y-47797619D01*
X50261904Y-47892857D01*
X50214285Y-48083333D01*
X50214285Y-48321428D01*
X50261904Y-48511904D01*
X50309523Y-48607142D01*
X50357142Y-48654761D01*
X50452380Y-48702380D01*
X50547619Y-48702380D01*
X50642857Y-48654761D01*
X50690476Y-48607142D01*
X50738095Y-48511904D01*
X50785714Y-48321428D01*
X50785714Y-48083333D01*
X50738095Y-47892857D01*
X50690476Y-47797619D01*
X50642857Y-47750000D01*
X50547619Y-47702380D01*
X49261904Y-48702380D02*
X49833333Y-48702380D01*
X49547619Y-48702380D02*
X49547619Y-47702380D01*
X49642857Y-47845238D01*
X49738095Y-47940476D01*
X49833333Y-47988095D01*
X93202380Y-93130952D02*
X92726190Y-92797619D01*
X93202380Y-92559523D02*
X92202380Y-92559523D01*
X92202380Y-92940476D01*
X92250000Y-93035714D01*
X92297619Y-93083333D01*
X92392857Y-93130952D01*
X92535714Y-93130952D01*
X92630952Y-93083333D01*
X92678571Y-93035714D01*
X92726190Y-92940476D01*
X92726190Y-92559523D01*
X92202380Y-94035714D02*
X92202380Y-93559523D01*
X92678571Y-93511904D01*
X92630952Y-93559523D01*
X92583333Y-93654761D01*
X92583333Y-93892857D01*
X92630952Y-93988095D01*
X92678571Y-94035714D01*
X92773809Y-94083333D01*
X93011904Y-94083333D01*
X93107142Y-94035714D01*
X93154761Y-93988095D01*
X93202380Y-93892857D01*
X93202380Y-93654761D01*
X93154761Y-93559523D01*
X93107142Y-93511904D01*
X92202380Y-94702380D02*
X92202380Y-94797619D01*
X92250000Y-94892857D01*
X92297619Y-94940476D01*
X92392857Y-94988095D01*
X92583333Y-95035714D01*
X92821428Y-95035714D01*
X93011904Y-94988095D01*
X93107142Y-94940476D01*
X93154761Y-94892857D01*
X93202380Y-94797619D01*
X93202380Y-94702380D01*
X93154761Y-94607142D01*
X93107142Y-94559523D01*
X93011904Y-94511904D01*
X92821428Y-94464285D01*
X92583333Y-94464285D01*
X92392857Y-94511904D01*
X92297619Y-94559523D01*
X92250000Y-94607142D01*
X92202380Y-94702380D01*
X92202380Y-95369047D02*
X92202380Y-95988095D01*
X92583333Y-95654761D01*
X92583333Y-95797619D01*
X92630952Y-95892857D01*
X92678571Y-95940476D01*
X92773809Y-95988095D01*
X93011904Y-95988095D01*
X93107142Y-95940476D01*
X93154761Y-95892857D01*
X93202380Y-95797619D01*
X93202380Y-95511904D01*
X93154761Y-95416666D01*
X93107142Y-95369047D01*
X88952380Y-89130952D02*
X88476190Y-88797619D01*
X88952380Y-88559523D02*
X87952380Y-88559523D01*
X87952380Y-88940476D01*
X88000000Y-89035714D01*
X88047619Y-89083333D01*
X88142857Y-89130952D01*
X88285714Y-89130952D01*
X88380952Y-89083333D01*
X88428571Y-89035714D01*
X88476190Y-88940476D01*
X88476190Y-88559523D01*
X87952380Y-90035714D02*
X87952380Y-89559523D01*
X88428571Y-89511904D01*
X88380952Y-89559523D01*
X88333333Y-89654761D01*
X88333333Y-89892857D01*
X88380952Y-89988095D01*
X88428571Y-90035714D01*
X88523809Y-90083333D01*
X88761904Y-90083333D01*
X88857142Y-90035714D01*
X88904761Y-89988095D01*
X88952380Y-89892857D01*
X88952380Y-89654761D01*
X88904761Y-89559523D01*
X88857142Y-89511904D01*
X87952380Y-90702380D02*
X87952380Y-90797619D01*
X88000000Y-90892857D01*
X88047619Y-90940476D01*
X88142857Y-90988095D01*
X88333333Y-91035714D01*
X88571428Y-91035714D01*
X88761904Y-90988095D01*
X88857142Y-90940476D01*
X88904761Y-90892857D01*
X88952380Y-90797619D01*
X88952380Y-90702380D01*
X88904761Y-90607142D01*
X88857142Y-90559523D01*
X88761904Y-90511904D01*
X88571428Y-90464285D01*
X88333333Y-90464285D01*
X88142857Y-90511904D01*
X88047619Y-90559523D01*
X88000000Y-90607142D01*
X87952380Y-90702380D01*
X88047619Y-91416666D02*
X88000000Y-91464285D01*
X87952380Y-91559523D01*
X87952380Y-91797619D01*
X88000000Y-91892857D01*
X88047619Y-91940476D01*
X88142857Y-91988095D01*
X88238095Y-91988095D01*
X88380952Y-91940476D01*
X88952380Y-91369047D01*
X88952380Y-91988095D01*
X86702380Y-89130952D02*
X86226190Y-88797619D01*
X86702380Y-88559523D02*
X85702380Y-88559523D01*
X85702380Y-88940476D01*
X85750000Y-89035714D01*
X85797619Y-89083333D01*
X85892857Y-89130952D01*
X86035714Y-89130952D01*
X86130952Y-89083333D01*
X86178571Y-89035714D01*
X86226190Y-88940476D01*
X86226190Y-88559523D01*
X85702380Y-90035714D02*
X85702380Y-89559523D01*
X86178571Y-89511904D01*
X86130952Y-89559523D01*
X86083333Y-89654761D01*
X86083333Y-89892857D01*
X86130952Y-89988095D01*
X86178571Y-90035714D01*
X86273809Y-90083333D01*
X86511904Y-90083333D01*
X86607142Y-90035714D01*
X86654761Y-89988095D01*
X86702380Y-89892857D01*
X86702380Y-89654761D01*
X86654761Y-89559523D01*
X86607142Y-89511904D01*
X85702380Y-90702380D02*
X85702380Y-90797619D01*
X85750000Y-90892857D01*
X85797619Y-90940476D01*
X85892857Y-90988095D01*
X86083333Y-91035714D01*
X86321428Y-91035714D01*
X86511904Y-90988095D01*
X86607142Y-90940476D01*
X86654761Y-90892857D01*
X86702380Y-90797619D01*
X86702380Y-90702380D01*
X86654761Y-90607142D01*
X86607142Y-90559523D01*
X86511904Y-90511904D01*
X86321428Y-90464285D01*
X86083333Y-90464285D01*
X85892857Y-90511904D01*
X85797619Y-90559523D01*
X85750000Y-90607142D01*
X85702380Y-90702380D01*
X86702380Y-91988095D02*
X86702380Y-91416666D01*
X86702380Y-91702380D02*
X85702380Y-91702380D01*
X85845238Y-91607142D01*
X85940476Y-91511904D01*
X85988095Y-91416666D01*
X73452380Y-52809523D02*
X72452380Y-52809523D01*
X72452380Y-53047619D01*
X72500000Y-53190476D01*
X72595238Y-53285714D01*
X72690476Y-53333333D01*
X72880952Y-53380952D01*
X73023809Y-53380952D01*
X73214285Y-53333333D01*
X73309523Y-53285714D01*
X73404761Y-53190476D01*
X73452380Y-53047619D01*
X73452380Y-52809523D01*
X72452380Y-54285714D02*
X72452380Y-53809523D01*
X72928571Y-53761904D01*
X72880952Y-53809523D01*
X72833333Y-53904761D01*
X72833333Y-54142857D01*
X72880952Y-54238095D01*
X72928571Y-54285714D01*
X73023809Y-54333333D01*
X73261904Y-54333333D01*
X73357142Y-54285714D01*
X73404761Y-54238095D01*
X73452380Y-54142857D01*
X73452380Y-53904761D01*
X73404761Y-53809523D01*
X73357142Y-53761904D01*
X72452380Y-54952380D02*
X72452380Y-55047619D01*
X72500000Y-55142857D01*
X72547619Y-55190476D01*
X72642857Y-55238095D01*
X72833333Y-55285714D01*
X73071428Y-55285714D01*
X73261904Y-55238095D01*
X73357142Y-55190476D01*
X73404761Y-55142857D01*
X73452380Y-55047619D01*
X73452380Y-54952380D01*
X73404761Y-54857142D01*
X73357142Y-54809523D01*
X73261904Y-54761904D01*
X73071428Y-54714285D01*
X72833333Y-54714285D01*
X72642857Y-54761904D01*
X72547619Y-54809523D01*
X72500000Y-54857142D01*
X72452380Y-54952380D01*
X73452380Y-56238095D02*
X73452380Y-55666666D01*
X73452380Y-55952380D02*
X72452380Y-55952380D01*
X72595238Y-55857142D01*
X72690476Y-55761904D01*
X72738095Y-55666666D01*
X77144047Y-68107142D02*
X77191666Y-68154761D01*
X77334523Y-68202380D01*
X77429761Y-68202380D01*
X77572619Y-68154761D01*
X77667857Y-68059523D01*
X77715476Y-67964285D01*
X77763095Y-67773809D01*
X77763095Y-67630952D01*
X77715476Y-67440476D01*
X77667857Y-67345238D01*
X77572619Y-67250000D01*
X77429761Y-67202380D01*
X77334523Y-67202380D01*
X77191666Y-67250000D01*
X77144047Y-67297619D01*
X76239285Y-67202380D02*
X76715476Y-67202380D01*
X76763095Y-67678571D01*
X76715476Y-67630952D01*
X76620238Y-67583333D01*
X76382142Y-67583333D01*
X76286904Y-67630952D01*
X76239285Y-67678571D01*
X76191666Y-67773809D01*
X76191666Y-68011904D01*
X76239285Y-68107142D01*
X76286904Y-68154761D01*
X76382142Y-68202380D01*
X76620238Y-68202380D01*
X76715476Y-68154761D01*
X76763095Y-68107142D01*
X75572619Y-67202380D02*
X75477380Y-67202380D01*
X75382142Y-67250000D01*
X75334523Y-67297619D01*
X75286904Y-67392857D01*
X75239285Y-67583333D01*
X75239285Y-67821428D01*
X75286904Y-68011904D01*
X75334523Y-68107142D01*
X75382142Y-68154761D01*
X75477380Y-68202380D01*
X75572619Y-68202380D01*
X75667857Y-68154761D01*
X75715476Y-68107142D01*
X75763095Y-68011904D01*
X75810714Y-67821428D01*
X75810714Y-67583333D01*
X75763095Y-67392857D01*
X75715476Y-67297619D01*
X75667857Y-67250000D01*
X75572619Y-67202380D01*
X74334523Y-67202380D02*
X74810714Y-67202380D01*
X74858333Y-67678571D01*
X74810714Y-67630952D01*
X74715476Y-67583333D01*
X74477380Y-67583333D01*
X74382142Y-67630952D01*
X74334523Y-67678571D01*
X74286904Y-67773809D01*
X74286904Y-68011904D01*
X74334523Y-68107142D01*
X74382142Y-68154761D01*
X74477380Y-68202380D01*
X74715476Y-68202380D01*
X74810714Y-68154761D01*
X74858333Y-68107142D01*
X59094047Y-84207142D02*
X59141666Y-84254761D01*
X59284523Y-84302380D01*
X59379761Y-84302380D01*
X59522619Y-84254761D01*
X59617857Y-84159523D01*
X59665476Y-84064285D01*
X59713095Y-83873809D01*
X59713095Y-83730952D01*
X59665476Y-83540476D01*
X59617857Y-83445238D01*
X59522619Y-83350000D01*
X59379761Y-83302380D01*
X59284523Y-83302380D01*
X59141666Y-83350000D01*
X59094047Y-83397619D01*
X58713095Y-83397619D02*
X58665476Y-83350000D01*
X58570238Y-83302380D01*
X58332142Y-83302380D01*
X58236904Y-83350000D01*
X58189285Y-83397619D01*
X58141666Y-83492857D01*
X58141666Y-83588095D01*
X58189285Y-83730952D01*
X58760714Y-84302380D01*
X58141666Y-84302380D01*
X57522619Y-83302380D02*
X57427380Y-83302380D01*
X57332142Y-83350000D01*
X57284523Y-83397619D01*
X57236904Y-83492857D01*
X57189285Y-83683333D01*
X57189285Y-83921428D01*
X57236904Y-84111904D01*
X57284523Y-84207142D01*
X57332142Y-84254761D01*
X57427380Y-84302380D01*
X57522619Y-84302380D01*
X57617857Y-84254761D01*
X57665476Y-84207142D01*
X57713095Y-84111904D01*
X57760714Y-83921428D01*
X57760714Y-83683333D01*
X57713095Y-83492857D01*
X57665476Y-83397619D01*
X57617857Y-83350000D01*
X57522619Y-83302380D01*
X56332142Y-83302380D02*
X56522619Y-83302380D01*
X56617857Y-83350000D01*
X56665476Y-83397619D01*
X56760714Y-83540476D01*
X56808333Y-83730952D01*
X56808333Y-84111904D01*
X56760714Y-84207142D01*
X56713095Y-84254761D01*
X56617857Y-84302380D01*
X56427380Y-84302380D01*
X56332142Y-84254761D01*
X56284523Y-84207142D01*
X56236904Y-84111904D01*
X56236904Y-83873809D01*
X56284523Y-83778571D01*
X56332142Y-83730952D01*
X56427380Y-83683333D01*
X56617857Y-83683333D01*
X56713095Y-83730952D01*
X56760714Y-83778571D01*
X56808333Y-83873809D01*
X54619047Y-88607142D02*
X54666666Y-88654761D01*
X54809523Y-88702380D01*
X54904761Y-88702380D01*
X55047619Y-88654761D01*
X55142857Y-88559523D01*
X55190476Y-88464285D01*
X55238095Y-88273809D01*
X55238095Y-88130952D01*
X55190476Y-87940476D01*
X55142857Y-87845238D01*
X55047619Y-87750000D01*
X54904761Y-87702380D01*
X54809523Y-87702380D01*
X54666666Y-87750000D01*
X54619047Y-87797619D01*
X54238095Y-87797619D02*
X54190476Y-87750000D01*
X54095238Y-87702380D01*
X53857142Y-87702380D01*
X53761904Y-87750000D01*
X53714285Y-87797619D01*
X53666666Y-87892857D01*
X53666666Y-87988095D01*
X53714285Y-88130952D01*
X54285714Y-88702380D01*
X53666666Y-88702380D01*
X53047619Y-87702380D02*
X52952380Y-87702380D01*
X52857142Y-87750000D01*
X52809523Y-87797619D01*
X52761904Y-87892857D01*
X52714285Y-88083333D01*
X52714285Y-88321428D01*
X52761904Y-88511904D01*
X52809523Y-88607142D01*
X52857142Y-88654761D01*
X52952380Y-88702380D01*
X53047619Y-88702380D01*
X53142857Y-88654761D01*
X53190476Y-88607142D01*
X53238095Y-88511904D01*
X53285714Y-88321428D01*
X53285714Y-88083333D01*
X53238095Y-87892857D01*
X53190476Y-87797619D01*
X53142857Y-87750000D01*
X53047619Y-87702380D01*
X51809523Y-87702380D02*
X52285714Y-87702380D01*
X52333333Y-88178571D01*
X52285714Y-88130952D01*
X52190476Y-88083333D01*
X51952380Y-88083333D01*
X51857142Y-88130952D01*
X51809523Y-88178571D01*
X51761904Y-88273809D01*
X51761904Y-88511904D01*
X51809523Y-88607142D01*
X51857142Y-88654761D01*
X51952380Y-88702380D01*
X52190476Y-88702380D01*
X52285714Y-88654761D01*
X52333333Y-88607142D01*
M02*
