G04 #@! TF.GenerationSoftware,KiCad,Pcbnew,(5.1.4)-1*
G04 #@! TF.CreationDate,2020-06-04T10:48:23-03:00*
G04 #@! TF.ProjectId,ModPrincipal,4d6f6450-7269-46e6-9369-70616c2e6b69,1.0*
G04 #@! TF.SameCoordinates,Original*
G04 #@! TF.FileFunction,Legend,Top*
G04 #@! TF.FilePolarity,Positive*
%FSLAX46Y46*%
G04 Gerber Fmt 4.6, Leading zero omitted, Abs format (unit mm)*
G04 Created by KiCad (PCBNEW (5.1.4)-1) date 2020-06-04 10:48:23*
%MOMM*%
%LPD*%
G04 APERTURE LIST*
%ADD10C,0.250000*%
%ADD11C,0.120000*%
%ADD12C,0.100000*%
%ADD13C,0.150000*%
G04 APERTURE END LIST*
D10*
X53785714Y-43035714D02*
X53714285Y-43107142D01*
X53500000Y-43178571D01*
X53357142Y-43178571D01*
X53142857Y-43107142D01*
X53000000Y-42964285D01*
X52928571Y-42821428D01*
X52857142Y-42535714D01*
X52857142Y-42321428D01*
X52928571Y-42035714D01*
X53000000Y-41892857D01*
X53142857Y-41750000D01*
X53357142Y-41678571D01*
X53500000Y-41678571D01*
X53714285Y-41750000D01*
X53785714Y-41821428D01*
X54428571Y-42392857D02*
X54928571Y-42392857D01*
X55142857Y-43178571D02*
X54428571Y-43178571D01*
X54428571Y-41678571D01*
X55142857Y-41678571D01*
X55714285Y-43107142D02*
X55928571Y-43178571D01*
X56285714Y-43178571D01*
X56428571Y-43107142D01*
X56500000Y-43035714D01*
X56571428Y-42892857D01*
X56571428Y-42750000D01*
X56500000Y-42607142D01*
X56428571Y-42535714D01*
X56285714Y-42464285D01*
X56000000Y-42392857D01*
X55857142Y-42321428D01*
X55785714Y-42250000D01*
X55714285Y-42107142D01*
X55714285Y-41964285D01*
X55785714Y-41821428D01*
X55857142Y-41750000D01*
X56000000Y-41678571D01*
X56357142Y-41678571D01*
X56571428Y-41750000D01*
X57214285Y-42392857D02*
X57714285Y-42392857D01*
X57928571Y-43178571D02*
X57214285Y-43178571D01*
X57214285Y-41678571D01*
X57928571Y-41678571D01*
X58571428Y-42607142D02*
X59714285Y-42607142D01*
X60928571Y-42392857D02*
X60428571Y-42392857D01*
X60428571Y-43178571D02*
X60428571Y-41678571D01*
X61142857Y-41678571D01*
X61714285Y-43178571D02*
X61714285Y-41678571D01*
X62428571Y-41678571D02*
X62428571Y-42892857D01*
X62500000Y-43035714D01*
X62571428Y-43107142D01*
X62714285Y-43178571D01*
X63000000Y-43178571D01*
X63142857Y-43107142D01*
X63214285Y-43035714D01*
X63285714Y-42892857D01*
X63285714Y-41678571D01*
X64500000Y-42392857D02*
X64714285Y-42464285D01*
X64785714Y-42535714D01*
X64857142Y-42678571D01*
X64857142Y-42892857D01*
X64785714Y-43035714D01*
X64714285Y-43107142D01*
X64571428Y-43178571D01*
X64000000Y-43178571D01*
X64000000Y-41678571D01*
X64500000Y-41678571D01*
X64642857Y-41750000D01*
X64714285Y-41821428D01*
X64785714Y-41964285D01*
X64785714Y-42107142D01*
X64714285Y-42250000D01*
X64642857Y-42321428D01*
X64500000Y-42392857D01*
X64000000Y-42392857D01*
X65428571Y-42750000D02*
X66142857Y-42750000D01*
X65285714Y-43178571D02*
X65785714Y-41678571D01*
X66285714Y-43178571D01*
D11*
X60000000Y-69000000D02*
X64000000Y-69000000D01*
X89000000Y-84000000D02*
X87500000Y-84000000D01*
X43000000Y-42000000D02*
X43000000Y-43000000D01*
X46500000Y-42000000D02*
X43000000Y-42000000D01*
X115500000Y-102750000D02*
X109750000Y-102750000D01*
X115500000Y-110000000D02*
X115500000Y-102500000D01*
X120250000Y-110000000D02*
X115500000Y-110000000D01*
X120250000Y-102500000D02*
X120250000Y-110000000D01*
X115500000Y-102500000D02*
X120250000Y-102500000D01*
X60000000Y-89000000D02*
X60000000Y-84000000D01*
X64000000Y-89000000D02*
X60000000Y-89000000D01*
X64000000Y-84000000D02*
X64000000Y-89000000D01*
X60000000Y-84000000D02*
X64000000Y-84000000D01*
X44000000Y-81750000D02*
X44000000Y-86750000D01*
X48000000Y-86750000D02*
X44000000Y-86750000D01*
X48000000Y-86750000D02*
X48000000Y-81750000D01*
X44000000Y-81750000D02*
X48000000Y-81750000D01*
X60000000Y-69000000D02*
X60000000Y-84000000D01*
X64000000Y-84000000D02*
X64000000Y-69000000D01*
X64000000Y-84000000D02*
X60000000Y-84000000D01*
X60000000Y-76500000D02*
X64000000Y-76500000D01*
X68520000Y-42460000D02*
X78540000Y-42460000D01*
X68520000Y-41190000D02*
X68520000Y-48810000D01*
X68520000Y-48810000D02*
X78540000Y-48810000D01*
X78540000Y-48810000D02*
X78540000Y-41190000D01*
X78540000Y-41190000D02*
X68520000Y-41190000D01*
X115540000Y-41190000D02*
X115540000Y-48810000D01*
X100380000Y-41190000D02*
X100380000Y-48810000D01*
X115540000Y-42460000D02*
X100380000Y-42460000D01*
X115540000Y-48810000D02*
X100380000Y-48810000D01*
X115540000Y-41190000D02*
X100380000Y-41190000D01*
X114000000Y-78000000D02*
X114000000Y-78150000D01*
X106000000Y-78000000D02*
X114000000Y-78000000D01*
X106000000Y-78150000D02*
X106000000Y-78000000D01*
X106000000Y-82000000D02*
X106000000Y-81850000D01*
X114000000Y-82000000D02*
X106000000Y-82000000D01*
X114000000Y-81850000D02*
X114000000Y-82000000D01*
X106000000Y-78150000D02*
X104300000Y-78150000D01*
X114500000Y-83000000D02*
X114500000Y-83150000D01*
X106500000Y-83000000D02*
X114500000Y-83000000D01*
X106500000Y-83150000D02*
X106500000Y-83000000D01*
X106500000Y-87000000D02*
X106500000Y-86850000D01*
X114500000Y-87000000D02*
X106500000Y-87000000D01*
X114500000Y-86850000D02*
X114500000Y-87000000D01*
X106500000Y-83150000D02*
X104800000Y-83150000D01*
X114500000Y-88000000D02*
X114500000Y-88150000D01*
X106500000Y-88000000D02*
X114500000Y-88000000D01*
X106500000Y-88150000D02*
X106500000Y-88000000D01*
X106500000Y-92000000D02*
X106500000Y-91850000D01*
X114500000Y-92000000D02*
X106500000Y-92000000D01*
X114500000Y-91850000D02*
X114500000Y-92000000D01*
X106500000Y-88150000D02*
X104800000Y-88150000D01*
X103710000Y-90286252D02*
X103710000Y-89763748D01*
X102290000Y-90286252D02*
X102290000Y-89763748D01*
X101710000Y-85286252D02*
X101710000Y-84763748D01*
X100290000Y-85286252D02*
X100290000Y-84763748D01*
X103710000Y-85286252D02*
X103710000Y-84763748D01*
X102290000Y-85286252D02*
X102290000Y-84763748D01*
X28670000Y-78105000D02*
X28670000Y-76775000D01*
X30000000Y-78105000D02*
X28670000Y-78105000D01*
X28670000Y-75505000D02*
X28670000Y-72905000D01*
X31270000Y-75505000D02*
X28670000Y-75505000D01*
X31270000Y-78105000D02*
X31270000Y-75505000D01*
X28670000Y-72905000D02*
X41490000Y-72905000D01*
X31270000Y-78105000D02*
X41490000Y-78105000D01*
X41490000Y-78105000D02*
X41490000Y-72905000D01*
X132590000Y-64210000D02*
X123960000Y-64210000D01*
X132590000Y-64091905D02*
X123960000Y-64091905D01*
X132590000Y-63973810D02*
X123960000Y-63973810D01*
X132590000Y-63855715D02*
X123960000Y-63855715D01*
X132590000Y-63737620D02*
X123960000Y-63737620D01*
X132590000Y-63619525D02*
X123960000Y-63619525D01*
X132590000Y-63501430D02*
X123960000Y-63501430D01*
X132590000Y-63383335D02*
X123960000Y-63383335D01*
X132590000Y-63265240D02*
X123960000Y-63265240D01*
X132590000Y-63147145D02*
X123960000Y-63147145D01*
X132590000Y-63029050D02*
X123960000Y-63029050D01*
X132590000Y-62910955D02*
X123960000Y-62910955D01*
X132590000Y-62792860D02*
X123960000Y-62792860D01*
X132590000Y-62674765D02*
X123960000Y-62674765D01*
X132590000Y-62556670D02*
X123960000Y-62556670D01*
X132590000Y-62438575D02*
X123960000Y-62438575D01*
X132590000Y-62320480D02*
X123960000Y-62320480D01*
X132590000Y-62202385D02*
X123960000Y-62202385D01*
X132590000Y-62084290D02*
X123960000Y-62084290D01*
X132590000Y-61966195D02*
X123960000Y-61966195D01*
X132590000Y-61848100D02*
X123960000Y-61848100D01*
X123960000Y-63360000D02*
X123550000Y-63360000D01*
X121450000Y-63360000D02*
X121070000Y-63360000D01*
X123960000Y-62640000D02*
X123550000Y-62640000D01*
X121450000Y-62640000D02*
X121070000Y-62640000D01*
X123960000Y-60820000D02*
X123550000Y-60820000D01*
X121450000Y-60820000D02*
X121010000Y-60820000D01*
X123960000Y-60100000D02*
X123550000Y-60100000D01*
X121450000Y-60100000D02*
X121010000Y-60100000D01*
X123960000Y-58280000D02*
X123550000Y-58280000D01*
X121450000Y-58280000D02*
X121010000Y-58280000D01*
X123960000Y-57560000D02*
X123550000Y-57560000D01*
X121450000Y-57560000D02*
X121010000Y-57560000D01*
X123960000Y-55740000D02*
X123550000Y-55740000D01*
X121450000Y-55740000D02*
X121010000Y-55740000D01*
X123960000Y-55020000D02*
X123550000Y-55020000D01*
X121450000Y-55020000D02*
X121010000Y-55020000D01*
X123960000Y-53200000D02*
X123550000Y-53200000D01*
X121450000Y-53200000D02*
X121010000Y-53200000D01*
X123960000Y-52480000D02*
X123550000Y-52480000D01*
X121450000Y-52480000D02*
X121010000Y-52480000D01*
X132590000Y-61730000D02*
X123960000Y-61730000D01*
X132590000Y-59190000D02*
X123960000Y-59190000D01*
X132590000Y-56650000D02*
X123960000Y-56650000D01*
X132590000Y-54110000D02*
X123960000Y-54110000D01*
X132590000Y-64330000D02*
X123960000Y-64330000D01*
X123960000Y-64330000D02*
X123960000Y-51510000D01*
X132590000Y-51510000D02*
X123960000Y-51510000D01*
X132590000Y-64330000D02*
X132590000Y-51510000D01*
X118850000Y-64330000D02*
X118850000Y-63000000D01*
X119960000Y-64330000D02*
X118850000Y-64330000D01*
X90500000Y-84700000D02*
X90500000Y-89000000D01*
X92500000Y-84700000D02*
X90500000Y-84700000D01*
X92500000Y-89000000D02*
X92500000Y-84700000D01*
X84200000Y-83500000D02*
X88500000Y-83500000D01*
X84200000Y-81500000D02*
X84200000Y-83500000D01*
X88500000Y-81500000D02*
X84200000Y-81500000D01*
X73500000Y-80200000D02*
X73500000Y-84500000D01*
X75500000Y-80200000D02*
X73500000Y-80200000D01*
X75500000Y-84500000D02*
X75500000Y-80200000D01*
X78500000Y-80700000D02*
X78500000Y-85000000D01*
X80500000Y-80700000D02*
X78500000Y-80700000D01*
X80500000Y-85000000D02*
X80500000Y-80700000D01*
X88000000Y-84700000D02*
X88000000Y-89000000D01*
X90000000Y-84700000D02*
X88000000Y-84700000D01*
X90000000Y-89000000D02*
X90000000Y-84700000D01*
X81000000Y-80700000D02*
X81000000Y-85000000D01*
X83000000Y-80700000D02*
X81000000Y-80700000D01*
X83000000Y-85000000D02*
X83000000Y-80700000D01*
X38290000Y-44713748D02*
X38290000Y-45236252D01*
X39710000Y-44713748D02*
X39710000Y-45236252D01*
X40290000Y-44713748D02*
X40290000Y-45236252D01*
X41710000Y-44713748D02*
X41710000Y-45236252D01*
X42364999Y-44713748D02*
X42364999Y-45236252D01*
X43784999Y-44713748D02*
X43784999Y-45236252D01*
X44290000Y-44713748D02*
X44290000Y-45236252D01*
X45710000Y-44713748D02*
X45710000Y-45236252D01*
D12*
X91540000Y-57460000D02*
X94080000Y-56190000D01*
D11*
X86450000Y-62800000D02*
X115850000Y-62800000D01*
X115850000Y-62800000D02*
X115850000Y-49700000D01*
X115850000Y-49700000D02*
X86450000Y-49700000D01*
X86450000Y-49700000D02*
X86450000Y-62800000D01*
X91540000Y-58730000D02*
X92810000Y-58730000D01*
X91540000Y-53650000D02*
X91540000Y-58730000D01*
X94080000Y-53650000D02*
X91540000Y-53650000D01*
X94080000Y-58730000D02*
X94080000Y-53650000D01*
X92810000Y-58730000D02*
X94080000Y-58730000D01*
X92810000Y-60000000D02*
X92810000Y-58730000D01*
X91540000Y-60000000D02*
X92810000Y-60000000D01*
X92810000Y-52380000D02*
X91540000Y-52380000D01*
X92810000Y-53650000D02*
X92810000Y-52380000D01*
X86250000Y-61500000D02*
X86250000Y-63000000D01*
X86250000Y-63000000D02*
X87750000Y-63000000D01*
D13*
X50200000Y-47600000D02*
X50200000Y-52100000D01*
X50200000Y-52100000D02*
X57800000Y-52100000D01*
X57800000Y-52100000D02*
X57800000Y-47600000D01*
X42750000Y-47500000D02*
X65250000Y-47500000D01*
X65250000Y-47500000D02*
X65250000Y-100500000D01*
X65250000Y-100500000D02*
X42750000Y-100500000D01*
X42750000Y-100500000D02*
X42750000Y-47500000D01*
D11*
X71609000Y-66270000D02*
X71609000Y-64760000D01*
X75310000Y-66270000D02*
X75310000Y-64760000D01*
X78580000Y-64760000D02*
X68340000Y-64760000D01*
X68340000Y-66270000D02*
X68340000Y-61629000D01*
X78580000Y-66270000D02*
X78580000Y-61629000D01*
X78580000Y-61629000D02*
X68340000Y-61629000D01*
X78580000Y-66270000D02*
X68340000Y-66270000D01*
X94410000Y-67400000D02*
X94410000Y-73410000D01*
X87590000Y-69650000D02*
X87590000Y-73410000D01*
X94410000Y-73410000D02*
X93150000Y-73410000D01*
X87590000Y-73410000D02*
X88850000Y-73410000D01*
X77410000Y-67550000D02*
X77410000Y-73560000D01*
X70590000Y-69800000D02*
X70590000Y-73560000D01*
X77410000Y-73560000D02*
X76150000Y-73560000D01*
X70590000Y-73560000D02*
X71850000Y-73560000D01*
X39830000Y-94960000D02*
X39830000Y-93310000D01*
X29550000Y-94960000D02*
X39830000Y-94960000D01*
X29550000Y-89660000D02*
X29550000Y-94960000D01*
X39830000Y-89660000D02*
X29550000Y-89660000D01*
X39830000Y-91310000D02*
X39830000Y-89660000D01*
X39830000Y-93310000D02*
G75*
G02X39830000Y-91310000I0J1000000D01*
G01*
X39830000Y-60460000D02*
X39830000Y-58810000D01*
X29550000Y-60460000D02*
X39830000Y-60460000D01*
X29550000Y-55160000D02*
X29550000Y-60460000D01*
X39830000Y-55160000D02*
X29550000Y-55160000D01*
X39830000Y-56810000D02*
X39830000Y-55160000D01*
X39830000Y-58810000D02*
G75*
G02X39830000Y-56810000I0J1000000D01*
G01*
X52100000Y-106660000D02*
X54550000Y-106660000D01*
X53900000Y-103440000D02*
X52100000Y-103440000D01*
X76025000Y-99375000D02*
X72575000Y-99375000D01*
X76025000Y-99375000D02*
X77975000Y-99375000D01*
X76025000Y-108245000D02*
X74075000Y-108245000D01*
X76025000Y-108245000D02*
X77975000Y-108245000D01*
X100500000Y-104435000D02*
X103950000Y-104435000D01*
X100500000Y-104435000D02*
X98550000Y-104435000D01*
X100500000Y-95565000D02*
X102450000Y-95565000D01*
X100500000Y-95565000D02*
X98550000Y-95565000D01*
X52950000Y-101500000D02*
G75*
G03X52950000Y-101500000I-950000J0D01*
G01*
X48450000Y-107000000D02*
G75*
G03X48450000Y-107000000I-950000J0D01*
G01*
X106950000Y-68000000D02*
G75*
G03X106950000Y-68000000I-950000J0D01*
G01*
X86950000Y-75250000D02*
G75*
G03X86950000Y-75250000I-950000J0D01*
G01*
X69950000Y-75000000D02*
G75*
G03X69950000Y-75000000I-950000J0D01*
G01*
X37950000Y-103000000D02*
G75*
G03X37950000Y-103000000I-950000J0D01*
G01*
X34450000Y-50500000D02*
G75*
G03X34450000Y-50500000I-950000J0D01*
G01*
X58450000Y-107500000D02*
G75*
G03X58450000Y-107500000I-950000J0D01*
G01*
X90950000Y-97500000D02*
G75*
G03X90950000Y-97500000I-950000J0D01*
G01*
X90950000Y-104000000D02*
G75*
G03X90950000Y-104000000I-950000J0D01*
G01*
X97315000Y-87713748D02*
X97315000Y-88236252D01*
X98735000Y-87713748D02*
X98735000Y-88236252D01*
X72710000Y-82236252D02*
X72710000Y-81713748D01*
X71290000Y-82236252D02*
X71290000Y-81713748D01*
X81290000Y-87738748D02*
X81290000Y-88261252D01*
X82710000Y-87738748D02*
X82710000Y-88261252D01*
X93290000Y-85763748D02*
X93290000Y-86286252D01*
X94710000Y-85763748D02*
X94710000Y-86286252D01*
X76290000Y-85763748D02*
X76290000Y-86286252D01*
X77710000Y-85763748D02*
X77710000Y-86286252D01*
X85790000Y-87738748D02*
X85790000Y-88261252D01*
X87210000Y-87738748D02*
X87210000Y-88261252D01*
X96738748Y-85710000D02*
X97261252Y-85710000D01*
X96738748Y-84290000D02*
X97261252Y-84290000D01*
X77710000Y-82236252D02*
X77710000Y-81713748D01*
X76290000Y-82236252D02*
X76290000Y-81713748D01*
X85238748Y-85710000D02*
X85761252Y-85710000D01*
X85238748Y-84290000D02*
X85761252Y-84290000D01*
X79261252Y-56290000D02*
X78738748Y-56290000D01*
X79261252Y-57710000D02*
X78738748Y-57710000D01*
X73963748Y-51710000D02*
X74486252Y-51710000D01*
X73963748Y-50290000D02*
X74486252Y-50290000D01*
X34263748Y-101710000D02*
X34786252Y-101710000D01*
X34263748Y-100290000D02*
X34786252Y-100290000D01*
X35290000Y-50238748D02*
X35290000Y-50761252D01*
X36710000Y-50238748D02*
X36710000Y-50761252D01*
X32460000Y-81986252D02*
X32460000Y-81463748D01*
X31040000Y-81986252D02*
X31040000Y-81463748D01*
X39536252Y-85040000D02*
X39013748Y-85040000D01*
X39536252Y-86460000D02*
X39013748Y-86460000D01*
X34210000Y-65261252D02*
X34210000Y-64738748D01*
X32790000Y-65261252D02*
X32790000Y-64738748D01*
X35286252Y-81290000D02*
X34763748Y-81290000D01*
X35286252Y-82710000D02*
X34763748Y-82710000D01*
X38040000Y-81463748D02*
X38040000Y-81986252D01*
X39460000Y-81463748D02*
X39460000Y-81986252D01*
X47790000Y-102763748D02*
X47790000Y-103286252D01*
X49210000Y-102763748D02*
X49210000Y-103286252D01*
X43713748Y-105960000D02*
X44236252Y-105960000D01*
X43713748Y-104540000D02*
X44236252Y-104540000D01*
X74736252Y-97290000D02*
X74213748Y-97290000D01*
X74736252Y-98710000D02*
X74213748Y-98710000D01*
X71210000Y-99286252D02*
X71210000Y-98763748D01*
X69790000Y-99286252D02*
X69790000Y-98763748D01*
X67210000Y-100236252D02*
X67210000Y-99713748D01*
X65790000Y-100236252D02*
X65790000Y-99713748D01*
X69210000Y-100236252D02*
X69210000Y-99713748D01*
X67790000Y-100236252D02*
X67790000Y-99713748D01*
X94213748Y-97210000D02*
X94736252Y-97210000D01*
X94213748Y-95790000D02*
X94736252Y-95790000D01*
X94213748Y-104710000D02*
X94736252Y-104710000D01*
X94213748Y-103290000D02*
X94736252Y-103290000D01*
X94736252Y-97790000D02*
X94213748Y-97790000D01*
X94736252Y-99210000D02*
X94213748Y-99210000D01*
X94736252Y-101290000D02*
X94213748Y-101290000D01*
X94736252Y-102710000D02*
X94213748Y-102710000D01*
X102213748Y-94710000D02*
X102736252Y-94710000D01*
X102213748Y-93290000D02*
X102736252Y-93290000D01*
X101263748Y-106710000D02*
X101786252Y-106710000D01*
X101263748Y-105290000D02*
X101786252Y-105290000D01*
X107213748Y-95710000D02*
X107736252Y-95710000D01*
X107213748Y-94290000D02*
X107736252Y-94290000D01*
X115210000Y-100236252D02*
X115210000Y-99713748D01*
X113790000Y-100236252D02*
X113790000Y-99713748D01*
X80530000Y-52380000D02*
X80530000Y-53840000D01*
X77370000Y-52380000D02*
X77370000Y-54540000D01*
X77370000Y-52380000D02*
X78300000Y-52380000D01*
X80530000Y-52380000D02*
X79600000Y-52380000D01*
X33470000Y-85760000D02*
X33470000Y-84300000D01*
X36630000Y-85760000D02*
X36630000Y-83600000D01*
X36630000Y-85760000D02*
X35700000Y-85760000D01*
X33470000Y-85760000D02*
X34400000Y-85760000D01*
X119960000Y-99190000D02*
X118850000Y-99190000D01*
X118850000Y-99190000D02*
X118850000Y-97860000D01*
X132590000Y-99190000D02*
X132590000Y-73670000D01*
X132590000Y-73670000D02*
X123960000Y-73670000D01*
X123960000Y-99190000D02*
X123960000Y-73670000D01*
X132590000Y-99190000D02*
X123960000Y-99190000D01*
X132590000Y-76270000D02*
X123960000Y-76270000D01*
X132590000Y-78810000D02*
X123960000Y-78810000D01*
X132590000Y-81350000D02*
X123960000Y-81350000D01*
X132590000Y-83890000D02*
X123960000Y-83890000D01*
X132590000Y-86430000D02*
X123960000Y-86430000D01*
X132590000Y-88970000D02*
X123960000Y-88970000D01*
X132590000Y-91510000D02*
X123960000Y-91510000D01*
X132590000Y-94050000D02*
X123960000Y-94050000D01*
X132590000Y-96590000D02*
X123960000Y-96590000D01*
X121450000Y-74640000D02*
X121010000Y-74640000D01*
X123960000Y-74640000D02*
X123550000Y-74640000D01*
X121450000Y-75360000D02*
X121010000Y-75360000D01*
X123960000Y-75360000D02*
X123550000Y-75360000D01*
X121450000Y-77180000D02*
X121010000Y-77180000D01*
X123960000Y-77180000D02*
X123550000Y-77180000D01*
X121450000Y-77900000D02*
X121010000Y-77900000D01*
X123960000Y-77900000D02*
X123550000Y-77900000D01*
X121450000Y-79720000D02*
X121010000Y-79720000D01*
X123960000Y-79720000D02*
X123550000Y-79720000D01*
X121450000Y-80440000D02*
X121010000Y-80440000D01*
X123960000Y-80440000D02*
X123550000Y-80440000D01*
X121450000Y-82260000D02*
X121010000Y-82260000D01*
X123960000Y-82260000D02*
X123550000Y-82260000D01*
X121450000Y-82980000D02*
X121010000Y-82980000D01*
X123960000Y-82980000D02*
X123550000Y-82980000D01*
X121450000Y-84800000D02*
X121010000Y-84800000D01*
X123960000Y-84800000D02*
X123550000Y-84800000D01*
X121450000Y-85520000D02*
X121010000Y-85520000D01*
X123960000Y-85520000D02*
X123550000Y-85520000D01*
X121450000Y-87340000D02*
X121010000Y-87340000D01*
X123960000Y-87340000D02*
X123550000Y-87340000D01*
X121450000Y-88060000D02*
X121010000Y-88060000D01*
X123960000Y-88060000D02*
X123550000Y-88060000D01*
X121450000Y-89880000D02*
X121010000Y-89880000D01*
X123960000Y-89880000D02*
X123550000Y-89880000D01*
X121450000Y-90600000D02*
X121010000Y-90600000D01*
X123960000Y-90600000D02*
X123550000Y-90600000D01*
X121450000Y-92420000D02*
X121010000Y-92420000D01*
X123960000Y-92420000D02*
X123550000Y-92420000D01*
X121450000Y-93140000D02*
X121010000Y-93140000D01*
X123960000Y-93140000D02*
X123550000Y-93140000D01*
X121450000Y-94960000D02*
X121010000Y-94960000D01*
X123960000Y-94960000D02*
X123550000Y-94960000D01*
X121450000Y-95680000D02*
X121010000Y-95680000D01*
X123960000Y-95680000D02*
X123550000Y-95680000D01*
X121450000Y-97500000D02*
X121070000Y-97500000D01*
X123960000Y-97500000D02*
X123550000Y-97500000D01*
X121450000Y-98220000D02*
X121070000Y-98220000D01*
X123960000Y-98220000D02*
X123550000Y-98220000D01*
X132590000Y-96708100D02*
X123960000Y-96708100D01*
X132590000Y-96826195D02*
X123960000Y-96826195D01*
X132590000Y-96944290D02*
X123960000Y-96944290D01*
X132590000Y-97062385D02*
X123960000Y-97062385D01*
X132590000Y-97180480D02*
X123960000Y-97180480D01*
X132590000Y-97298575D02*
X123960000Y-97298575D01*
X132590000Y-97416670D02*
X123960000Y-97416670D01*
X132590000Y-97534765D02*
X123960000Y-97534765D01*
X132590000Y-97652860D02*
X123960000Y-97652860D01*
X132590000Y-97770955D02*
X123960000Y-97770955D01*
X132590000Y-97889050D02*
X123960000Y-97889050D01*
X132590000Y-98007145D02*
X123960000Y-98007145D01*
X132590000Y-98125240D02*
X123960000Y-98125240D01*
X132590000Y-98243335D02*
X123960000Y-98243335D01*
X132590000Y-98361430D02*
X123960000Y-98361430D01*
X132590000Y-98479525D02*
X123960000Y-98479525D01*
X132590000Y-98597620D02*
X123960000Y-98597620D01*
X132590000Y-98715715D02*
X123960000Y-98715715D01*
X132590000Y-98833810D02*
X123960000Y-98833810D01*
X132590000Y-98951905D02*
X123960000Y-98951905D01*
X132590000Y-99070000D02*
X123960000Y-99070000D01*
X88360000Y-47970000D02*
X88360000Y-45030000D01*
X88120000Y-47970000D02*
X88120000Y-45030000D01*
X88240000Y-47970000D02*
X88240000Y-45030000D01*
X82680000Y-46500000D02*
X83700000Y-46500000D01*
X90160000Y-46500000D02*
X89140000Y-46500000D01*
X83700000Y-47970000D02*
X89140000Y-47970000D01*
X83700000Y-45030000D02*
X83700000Y-47970000D01*
X89140000Y-45030000D02*
X83700000Y-45030000D01*
X89140000Y-47970000D02*
X89140000Y-45030000D01*
X82030000Y-61360000D02*
X84970000Y-61360000D01*
X82030000Y-61120000D02*
X84970000Y-61120000D01*
X82030000Y-61240000D02*
X84970000Y-61240000D01*
X83500000Y-55680000D02*
X83500000Y-56700000D01*
X83500000Y-63160000D02*
X83500000Y-62140000D01*
X82030000Y-56700000D02*
X82030000Y-62140000D01*
X84970000Y-56700000D02*
X82030000Y-56700000D01*
X84970000Y-62140000D02*
X84970000Y-56700000D01*
X82030000Y-62140000D02*
X84970000Y-62140000D01*
X112620000Y-95790000D02*
X110380000Y-95790000D01*
X112620000Y-96030000D02*
X110380000Y-96030000D01*
X112620000Y-95910000D02*
X110380000Y-95910000D01*
X111500000Y-100080000D02*
X111500000Y-99430000D01*
X111500000Y-94540000D02*
X111500000Y-95190000D01*
X112620000Y-99430000D02*
X112620000Y-95190000D01*
X110380000Y-99430000D02*
X112620000Y-99430000D01*
X110380000Y-95190000D02*
X110380000Y-99430000D01*
X112620000Y-95190000D02*
X110380000Y-95190000D01*
X108790000Y-104380000D02*
X108790000Y-106620000D01*
X109030000Y-104380000D02*
X109030000Y-106620000D01*
X108910000Y-104380000D02*
X108910000Y-106620000D01*
X113080000Y-105500000D02*
X112430000Y-105500000D01*
X107540000Y-105500000D02*
X108190000Y-105500000D01*
X112430000Y-104380000D02*
X108190000Y-104380000D01*
X112430000Y-106620000D02*
X112430000Y-104380000D01*
X108190000Y-106620000D02*
X112430000Y-106620000D01*
X108190000Y-104380000D02*
X108190000Y-106620000D01*
X95290000Y-87738748D02*
X95290000Y-88261252D01*
X96710000Y-87738748D02*
X96710000Y-88261252D01*
X73238748Y-87210000D02*
X73761252Y-87210000D01*
X73238748Y-85790000D02*
X73761252Y-85790000D01*
X83790000Y-87763748D02*
X83790000Y-88286252D01*
X85210000Y-87763748D02*
X85210000Y-88286252D01*
X79090000Y-63385436D02*
X79090000Y-64589564D01*
X80910000Y-63385436D02*
X80910000Y-64589564D01*
X96910000Y-70114564D02*
X96910000Y-68910436D01*
X95090000Y-70114564D02*
X95090000Y-68910436D01*
X85102064Y-67590000D02*
X83897936Y-67590000D01*
X85102064Y-69410000D02*
X83897936Y-69410000D01*
X67785000Y-60259698D02*
X68585000Y-60259698D01*
X68185000Y-60659698D02*
X68185000Y-59859698D01*
X69967000Y-52169000D02*
X71033000Y-52169000D01*
X69732000Y-52209000D02*
X71268000Y-52209000D01*
X69552000Y-52249000D02*
X71448000Y-52249000D01*
X69402000Y-52289000D02*
X71598000Y-52289000D01*
X69271000Y-52329000D02*
X71729000Y-52329000D01*
X69154000Y-52369000D02*
X71846000Y-52369000D01*
X69047000Y-52409000D02*
X71953000Y-52409000D01*
X68948000Y-52449000D02*
X72052000Y-52449000D01*
X68855000Y-52489000D02*
X72145000Y-52489000D01*
X68769000Y-52529000D02*
X72231000Y-52529000D01*
X68687000Y-52569000D02*
X72313000Y-52569000D01*
X68610000Y-52609000D02*
X72390000Y-52609000D01*
X68536000Y-52649000D02*
X72464000Y-52649000D01*
X68466000Y-52689000D02*
X72534000Y-52689000D01*
X68398000Y-52729000D02*
X72602000Y-52729000D01*
X68334000Y-52769000D02*
X72666000Y-52769000D01*
X68272000Y-52809000D02*
X72728000Y-52809000D01*
X68213000Y-52849000D02*
X72787000Y-52849000D01*
X68155000Y-52889000D02*
X72845000Y-52889000D01*
X68100000Y-52929000D02*
X72900000Y-52929000D01*
X68046000Y-52969000D02*
X72954000Y-52969000D01*
X67995000Y-53009000D02*
X73005000Y-53009000D01*
X67944000Y-53049000D02*
X73056000Y-53049000D01*
X67896000Y-53089000D02*
X73104000Y-53089000D01*
X67849000Y-53129000D02*
X73151000Y-53129000D01*
X67803000Y-53169000D02*
X73197000Y-53169000D01*
X67759000Y-53209000D02*
X73241000Y-53209000D01*
X67716000Y-53249000D02*
X73284000Y-53249000D01*
X67674000Y-53289000D02*
X73326000Y-53289000D01*
X67633000Y-53329000D02*
X73367000Y-53329000D01*
X67593000Y-53369000D02*
X73407000Y-53369000D01*
X67555000Y-53409000D02*
X73445000Y-53409000D01*
X67517000Y-53449000D02*
X73483000Y-53449000D01*
X71540000Y-53489000D02*
X73519000Y-53489000D01*
X67481000Y-53489000D02*
X69460000Y-53489000D01*
X71540000Y-53529000D02*
X73555000Y-53529000D01*
X67445000Y-53529000D02*
X69460000Y-53529000D01*
X71540000Y-53569000D02*
X73590000Y-53569000D01*
X67410000Y-53569000D02*
X69460000Y-53569000D01*
X71540000Y-53609000D02*
X73624000Y-53609000D01*
X67376000Y-53609000D02*
X69460000Y-53609000D01*
X71540000Y-53649000D02*
X73656000Y-53649000D01*
X67344000Y-53649000D02*
X69460000Y-53649000D01*
X71540000Y-53689000D02*
X73689000Y-53689000D01*
X67311000Y-53689000D02*
X69460000Y-53689000D01*
X71540000Y-53729000D02*
X73720000Y-53729000D01*
X67280000Y-53729000D02*
X69460000Y-53729000D01*
X71540000Y-53769000D02*
X73750000Y-53769000D01*
X67250000Y-53769000D02*
X69460000Y-53769000D01*
X71540000Y-53809000D02*
X73780000Y-53809000D01*
X67220000Y-53809000D02*
X69460000Y-53809000D01*
X71540000Y-53849000D02*
X73809000Y-53849000D01*
X67191000Y-53849000D02*
X69460000Y-53849000D01*
X71540000Y-53889000D02*
X73838000Y-53889000D01*
X67162000Y-53889000D02*
X69460000Y-53889000D01*
X71540000Y-53929000D02*
X73865000Y-53929000D01*
X67135000Y-53929000D02*
X69460000Y-53929000D01*
X71540000Y-53969000D02*
X73892000Y-53969000D01*
X67108000Y-53969000D02*
X69460000Y-53969000D01*
X71540000Y-54009000D02*
X73918000Y-54009000D01*
X67082000Y-54009000D02*
X69460000Y-54009000D01*
X71540000Y-54049000D02*
X73944000Y-54049000D01*
X67056000Y-54049000D02*
X69460000Y-54049000D01*
X71540000Y-54089000D02*
X73969000Y-54089000D01*
X67031000Y-54089000D02*
X69460000Y-54089000D01*
X71540000Y-54129000D02*
X73993000Y-54129000D01*
X67007000Y-54129000D02*
X69460000Y-54129000D01*
X71540000Y-54169000D02*
X74017000Y-54169000D01*
X66983000Y-54169000D02*
X69460000Y-54169000D01*
X71540000Y-54209000D02*
X74040000Y-54209000D01*
X66960000Y-54209000D02*
X69460000Y-54209000D01*
X71540000Y-54249000D02*
X74062000Y-54249000D01*
X66938000Y-54249000D02*
X69460000Y-54249000D01*
X71540000Y-54289000D02*
X74084000Y-54289000D01*
X66916000Y-54289000D02*
X69460000Y-54289000D01*
X71540000Y-54329000D02*
X74106000Y-54329000D01*
X66894000Y-54329000D02*
X69460000Y-54329000D01*
X71540000Y-54369000D02*
X74127000Y-54369000D01*
X66873000Y-54369000D02*
X69460000Y-54369000D01*
X71540000Y-54409000D02*
X74147000Y-54409000D01*
X66853000Y-54409000D02*
X69460000Y-54409000D01*
X71540000Y-54449000D02*
X74166000Y-54449000D01*
X66834000Y-54449000D02*
X69460000Y-54449000D01*
X71540000Y-54489000D02*
X74186000Y-54489000D01*
X66814000Y-54489000D02*
X69460000Y-54489000D01*
X71540000Y-54529000D02*
X74204000Y-54529000D01*
X66796000Y-54529000D02*
X69460000Y-54529000D01*
X71540000Y-54569000D02*
X74222000Y-54569000D01*
X66778000Y-54569000D02*
X69460000Y-54569000D01*
X71540000Y-54609000D02*
X74240000Y-54609000D01*
X66760000Y-54609000D02*
X69460000Y-54609000D01*
X71540000Y-54649000D02*
X74257000Y-54649000D01*
X66743000Y-54649000D02*
X69460000Y-54649000D01*
X71540000Y-54689000D02*
X74274000Y-54689000D01*
X66726000Y-54689000D02*
X69460000Y-54689000D01*
X71540000Y-54729000D02*
X74290000Y-54729000D01*
X66710000Y-54729000D02*
X69460000Y-54729000D01*
X71540000Y-54769000D02*
X74305000Y-54769000D01*
X66695000Y-54769000D02*
X69460000Y-54769000D01*
X71540000Y-54809000D02*
X74321000Y-54809000D01*
X66679000Y-54809000D02*
X69460000Y-54809000D01*
X71540000Y-54849000D02*
X74335000Y-54849000D01*
X66665000Y-54849000D02*
X69460000Y-54849000D01*
X71540000Y-54889000D02*
X74350000Y-54889000D01*
X66650000Y-54889000D02*
X69460000Y-54889000D01*
X71540000Y-54929000D02*
X74363000Y-54929000D01*
X66637000Y-54929000D02*
X69460000Y-54929000D01*
X71540000Y-54969000D02*
X74377000Y-54969000D01*
X66623000Y-54969000D02*
X69460000Y-54969000D01*
X71540000Y-55009000D02*
X74389000Y-55009000D01*
X66611000Y-55009000D02*
X69460000Y-55009000D01*
X71540000Y-55049000D02*
X74402000Y-55049000D01*
X66598000Y-55049000D02*
X69460000Y-55049000D01*
X71540000Y-55089000D02*
X74414000Y-55089000D01*
X66586000Y-55089000D02*
X69460000Y-55089000D01*
X71540000Y-55129000D02*
X74425000Y-55129000D01*
X66575000Y-55129000D02*
X69460000Y-55129000D01*
X71540000Y-55169000D02*
X74436000Y-55169000D01*
X66564000Y-55169000D02*
X69460000Y-55169000D01*
X71540000Y-55209000D02*
X74447000Y-55209000D01*
X66553000Y-55209000D02*
X69460000Y-55209000D01*
X71540000Y-55249000D02*
X74457000Y-55249000D01*
X66543000Y-55249000D02*
X69460000Y-55249000D01*
X71540000Y-55289000D02*
X74467000Y-55289000D01*
X66533000Y-55289000D02*
X69460000Y-55289000D01*
X71540000Y-55329000D02*
X74476000Y-55329000D01*
X66524000Y-55329000D02*
X69460000Y-55329000D01*
X71540000Y-55369000D02*
X74485000Y-55369000D01*
X66515000Y-55369000D02*
X69460000Y-55369000D01*
X71540000Y-55409000D02*
X74494000Y-55409000D01*
X66506000Y-55409000D02*
X69460000Y-55409000D01*
X71540000Y-55449000D02*
X74502000Y-55449000D01*
X66498000Y-55449000D02*
X69460000Y-55449000D01*
X71540000Y-55489000D02*
X74510000Y-55489000D01*
X66490000Y-55489000D02*
X69460000Y-55489000D01*
X71540000Y-55529000D02*
X74517000Y-55529000D01*
X66483000Y-55529000D02*
X69460000Y-55529000D01*
X66476000Y-55570000D02*
X74524000Y-55570000D01*
X66470000Y-55610000D02*
X74530000Y-55610000D01*
X66463000Y-55650000D02*
X74537000Y-55650000D01*
X66458000Y-55690000D02*
X74542000Y-55690000D01*
X66452000Y-55730000D02*
X74548000Y-55730000D01*
X66448000Y-55770000D02*
X74552000Y-55770000D01*
X66443000Y-55810000D02*
X74557000Y-55810000D01*
X66439000Y-55850000D02*
X74561000Y-55850000D01*
X66435000Y-55890000D02*
X74565000Y-55890000D01*
X66432000Y-55930000D02*
X74568000Y-55930000D01*
X66429000Y-55970000D02*
X74571000Y-55970000D01*
X66426000Y-56010000D02*
X74574000Y-56010000D01*
X66424000Y-56050000D02*
X74576000Y-56050000D01*
X66423000Y-56090000D02*
X74577000Y-56090000D01*
X66421000Y-56130000D02*
X74579000Y-56130000D01*
X66420000Y-56170000D02*
X74580000Y-56170000D01*
X66420000Y-56210000D02*
X74580000Y-56210000D01*
X66420000Y-56250000D02*
X74580000Y-56250000D01*
X74620000Y-56250000D02*
G75*
G03X74620000Y-56250000I-4120000J0D01*
G01*
X79910000Y-70589564D02*
X79910000Y-69385436D01*
X78090000Y-70589564D02*
X78090000Y-69385436D01*
X76910000Y-58602064D02*
X76910000Y-57397936D01*
X75090000Y-58602064D02*
X75090000Y-57397936D01*
X37713748Y-99210000D02*
X38236252Y-99210000D01*
X37713748Y-97790000D02*
X38236252Y-97790000D01*
X31710000Y-100261252D02*
X31710000Y-99738748D01*
X30290000Y-100261252D02*
X30290000Y-99738748D01*
X37290000Y-64713748D02*
X37290000Y-65236252D01*
X38710000Y-64713748D02*
X38710000Y-65236252D01*
X31710000Y-65261252D02*
X31710000Y-64738748D01*
X30290000Y-65261252D02*
X30290000Y-64738748D01*
X80290000Y-103238748D02*
X80290000Y-103761252D01*
X81710000Y-103238748D02*
X81710000Y-103761252D01*
X55790000Y-103713748D02*
X55790000Y-104236252D01*
X57210000Y-103713748D02*
X57210000Y-104236252D01*
X58290000Y-103713748D02*
X58290000Y-104236252D01*
X59710000Y-103713748D02*
X59710000Y-104236252D01*
X68290000Y-104738748D02*
X68290000Y-105261252D01*
X69710000Y-104738748D02*
X69710000Y-105261252D01*
X70290000Y-104763748D02*
X70290000Y-105286252D01*
X71710000Y-104763748D02*
X71710000Y-105286252D01*
X107213748Y-97710000D02*
X107736252Y-97710000D01*
X107213748Y-96290000D02*
X107736252Y-96290000D01*
X107213748Y-103710000D02*
X107736252Y-103710000D01*
X107213748Y-102290000D02*
X107736252Y-102290000D01*
X107213748Y-99710000D02*
X107736252Y-99710000D01*
X107213748Y-98290000D02*
X107736252Y-98290000D01*
X107213748Y-101710000D02*
X107736252Y-101710000D01*
X107213748Y-100290000D02*
X107736252Y-100290000D01*
D13*
X66952380Y-46785714D02*
X67666666Y-46785714D01*
X67809523Y-46833333D01*
X67904761Y-46928571D01*
X67952380Y-47071428D01*
X67952380Y-47166666D01*
X66952380Y-45833333D02*
X66952380Y-46309523D01*
X67428571Y-46357142D01*
X67380952Y-46309523D01*
X67333333Y-46214285D01*
X67333333Y-45976190D01*
X67380952Y-45880952D01*
X67428571Y-45833333D01*
X67523809Y-45785714D01*
X67761904Y-45785714D01*
X67857142Y-45833333D01*
X67904761Y-45880952D01*
X67952380Y-45976190D01*
X67952380Y-46214285D01*
X67904761Y-46309523D01*
X67857142Y-46357142D01*
X66952380Y-45166666D02*
X66952380Y-45071428D01*
X67000000Y-44976190D01*
X67047619Y-44928571D01*
X67142857Y-44880952D01*
X67333333Y-44833333D01*
X67571428Y-44833333D01*
X67761904Y-44880952D01*
X67857142Y-44928571D01*
X67904761Y-44976190D01*
X67952380Y-45071428D01*
X67952380Y-45166666D01*
X67904761Y-45261904D01*
X67857142Y-45309523D01*
X67761904Y-45357142D01*
X67571428Y-45404761D01*
X67333333Y-45404761D01*
X67142857Y-45357142D01*
X67047619Y-45309523D01*
X67000000Y-45261904D01*
X66952380Y-45166666D01*
X66952380Y-44500000D02*
X66952380Y-43880952D01*
X67333333Y-44214285D01*
X67333333Y-44071428D01*
X67380952Y-43976190D01*
X67428571Y-43928571D01*
X67523809Y-43880952D01*
X67761904Y-43880952D01*
X67857142Y-43928571D01*
X67904761Y-43976190D01*
X67952380Y-44071428D01*
X67952380Y-44357142D01*
X67904761Y-44452380D01*
X67857142Y-44500000D01*
X106664285Y-49102380D02*
X106664285Y-49816666D01*
X106616666Y-49959523D01*
X106521428Y-50054761D01*
X106378571Y-50102380D01*
X106283333Y-50102380D01*
X107616666Y-49102380D02*
X107140476Y-49102380D01*
X107092857Y-49578571D01*
X107140476Y-49530952D01*
X107235714Y-49483333D01*
X107473809Y-49483333D01*
X107569047Y-49530952D01*
X107616666Y-49578571D01*
X107664285Y-49673809D01*
X107664285Y-49911904D01*
X107616666Y-50007142D01*
X107569047Y-50054761D01*
X107473809Y-50102380D01*
X107235714Y-50102380D01*
X107140476Y-50054761D01*
X107092857Y-50007142D01*
X108283333Y-49102380D02*
X108378571Y-49102380D01*
X108473809Y-49150000D01*
X108521428Y-49197619D01*
X108569047Y-49292857D01*
X108616666Y-49483333D01*
X108616666Y-49721428D01*
X108569047Y-49911904D01*
X108521428Y-50007142D01*
X108473809Y-50054761D01*
X108378571Y-50102380D01*
X108283333Y-50102380D01*
X108188095Y-50054761D01*
X108140476Y-50007142D01*
X108092857Y-49911904D01*
X108045238Y-49721428D01*
X108045238Y-49483333D01*
X108092857Y-49292857D01*
X108140476Y-49197619D01*
X108188095Y-49150000D01*
X108283333Y-49102380D01*
X109569047Y-50102380D02*
X108997619Y-50102380D01*
X109283333Y-50102380D02*
X109283333Y-49102380D01*
X109188095Y-49245238D01*
X109092857Y-49340476D01*
X108997619Y-49388095D01*
X116452380Y-81714285D02*
X117261904Y-81714285D01*
X117357142Y-81666666D01*
X117404761Y-81619047D01*
X117452380Y-81523809D01*
X117452380Y-81333333D01*
X117404761Y-81238095D01*
X117357142Y-81190476D01*
X117261904Y-81142857D01*
X116452380Y-81142857D01*
X116452380Y-80761904D02*
X116452380Y-80095238D01*
X117452380Y-80523809D01*
X116452380Y-79523809D02*
X116452380Y-79428571D01*
X116500000Y-79333333D01*
X116547619Y-79285714D01*
X116642857Y-79238095D01*
X116833333Y-79190476D01*
X117071428Y-79190476D01*
X117261904Y-79238095D01*
X117357142Y-79285714D01*
X117404761Y-79333333D01*
X117452380Y-79428571D01*
X117452380Y-79523809D01*
X117404761Y-79619047D01*
X117357142Y-79666666D01*
X117261904Y-79714285D01*
X117071428Y-79761904D01*
X116833333Y-79761904D01*
X116642857Y-79714285D01*
X116547619Y-79666666D01*
X116500000Y-79619047D01*
X116452380Y-79523809D01*
X116452380Y-78857142D02*
X116452380Y-78238095D01*
X116833333Y-78571428D01*
X116833333Y-78428571D01*
X116880952Y-78333333D01*
X116928571Y-78285714D01*
X117023809Y-78238095D01*
X117261904Y-78238095D01*
X117357142Y-78285714D01*
X117404761Y-78333333D01*
X117452380Y-78428571D01*
X117452380Y-78714285D01*
X117404761Y-78809523D01*
X117357142Y-78857142D01*
X116952380Y-86714285D02*
X117761904Y-86714285D01*
X117857142Y-86666666D01*
X117904761Y-86619047D01*
X117952380Y-86523809D01*
X117952380Y-86333333D01*
X117904761Y-86238095D01*
X117857142Y-86190476D01*
X117761904Y-86142857D01*
X116952380Y-86142857D01*
X116952380Y-85761904D02*
X116952380Y-85095238D01*
X117952380Y-85523809D01*
X116952380Y-84523809D02*
X116952380Y-84428571D01*
X117000000Y-84333333D01*
X117047619Y-84285714D01*
X117142857Y-84238095D01*
X117333333Y-84190476D01*
X117571428Y-84190476D01*
X117761904Y-84238095D01*
X117857142Y-84285714D01*
X117904761Y-84333333D01*
X117952380Y-84428571D01*
X117952380Y-84523809D01*
X117904761Y-84619047D01*
X117857142Y-84666666D01*
X117761904Y-84714285D01*
X117571428Y-84761904D01*
X117333333Y-84761904D01*
X117142857Y-84714285D01*
X117047619Y-84666666D01*
X117000000Y-84619047D01*
X116952380Y-84523809D01*
X117047619Y-83809523D02*
X117000000Y-83761904D01*
X116952380Y-83666666D01*
X116952380Y-83428571D01*
X117000000Y-83333333D01*
X117047619Y-83285714D01*
X117142857Y-83238095D01*
X117238095Y-83238095D01*
X117380952Y-83285714D01*
X117952380Y-83857142D01*
X117952380Y-83238095D01*
X116952380Y-91714285D02*
X117761904Y-91714285D01*
X117857142Y-91666666D01*
X117904761Y-91619047D01*
X117952380Y-91523809D01*
X117952380Y-91333333D01*
X117904761Y-91238095D01*
X117857142Y-91190476D01*
X117761904Y-91142857D01*
X116952380Y-91142857D01*
X116952380Y-90761904D02*
X116952380Y-90095238D01*
X117952380Y-90523809D01*
X116952380Y-89523809D02*
X116952380Y-89428571D01*
X117000000Y-89333333D01*
X117047619Y-89285714D01*
X117142857Y-89238095D01*
X117333333Y-89190476D01*
X117571428Y-89190476D01*
X117761904Y-89238095D01*
X117857142Y-89285714D01*
X117904761Y-89333333D01*
X117952380Y-89428571D01*
X117952380Y-89523809D01*
X117904761Y-89619047D01*
X117857142Y-89666666D01*
X117761904Y-89714285D01*
X117571428Y-89761904D01*
X117333333Y-89761904D01*
X117142857Y-89714285D01*
X117047619Y-89666666D01*
X117000000Y-89619047D01*
X116952380Y-89523809D01*
X117952380Y-88238095D02*
X117952380Y-88809523D01*
X117952380Y-88523809D02*
X116952380Y-88523809D01*
X117095238Y-88619047D01*
X117190476Y-88714285D01*
X117238095Y-88809523D01*
X101452380Y-91119047D02*
X100976190Y-91452380D01*
X101452380Y-91690476D02*
X100452380Y-91690476D01*
X100452380Y-91309523D01*
X100500000Y-91214285D01*
X100547619Y-91166666D01*
X100642857Y-91119047D01*
X100785714Y-91119047D01*
X100880952Y-91166666D01*
X100928571Y-91214285D01*
X100976190Y-91309523D01*
X100976190Y-91690476D01*
X100452380Y-90785714D02*
X100452380Y-90119047D01*
X101452380Y-90547619D01*
X100452380Y-89547619D02*
X100452380Y-89452380D01*
X100500000Y-89357142D01*
X100547619Y-89309523D01*
X100642857Y-89261904D01*
X100833333Y-89214285D01*
X101071428Y-89214285D01*
X101261904Y-89261904D01*
X101357142Y-89309523D01*
X101404761Y-89357142D01*
X101452380Y-89452380D01*
X101452380Y-89547619D01*
X101404761Y-89642857D01*
X101357142Y-89690476D01*
X101261904Y-89738095D01*
X101071428Y-89785714D01*
X100833333Y-89785714D01*
X100642857Y-89738095D01*
X100547619Y-89690476D01*
X100500000Y-89642857D01*
X100452380Y-89547619D01*
X100452380Y-88880952D02*
X100452380Y-88261904D01*
X100833333Y-88595238D01*
X100833333Y-88452380D01*
X100880952Y-88357142D01*
X100928571Y-88309523D01*
X101023809Y-88261904D01*
X101261904Y-88261904D01*
X101357142Y-88309523D01*
X101404761Y-88357142D01*
X101452380Y-88452380D01*
X101452380Y-88738095D01*
X101404761Y-88833333D01*
X101357142Y-88880952D01*
X101452380Y-82119047D02*
X100976190Y-82452380D01*
X101452380Y-82690476D02*
X100452380Y-82690476D01*
X100452380Y-82309523D01*
X100500000Y-82214285D01*
X100547619Y-82166666D01*
X100642857Y-82119047D01*
X100785714Y-82119047D01*
X100880952Y-82166666D01*
X100928571Y-82214285D01*
X100976190Y-82309523D01*
X100976190Y-82690476D01*
X100452380Y-81785714D02*
X100452380Y-81119047D01*
X101452380Y-81547619D01*
X100452380Y-80547619D02*
X100452380Y-80452380D01*
X100500000Y-80357142D01*
X100547619Y-80309523D01*
X100642857Y-80261904D01*
X100833333Y-80214285D01*
X101071428Y-80214285D01*
X101261904Y-80261904D01*
X101357142Y-80309523D01*
X101404761Y-80357142D01*
X101452380Y-80452380D01*
X101452380Y-80547619D01*
X101404761Y-80642857D01*
X101357142Y-80690476D01*
X101261904Y-80738095D01*
X101071428Y-80785714D01*
X100833333Y-80785714D01*
X100642857Y-80738095D01*
X100547619Y-80690476D01*
X100500000Y-80642857D01*
X100452380Y-80547619D01*
X100452380Y-79309523D02*
X100452380Y-79785714D01*
X100928571Y-79833333D01*
X100880952Y-79785714D01*
X100833333Y-79690476D01*
X100833333Y-79452380D01*
X100880952Y-79357142D01*
X100928571Y-79309523D01*
X101023809Y-79261904D01*
X101261904Y-79261904D01*
X101357142Y-79309523D01*
X101404761Y-79357142D01*
X101452380Y-79452380D01*
X101452380Y-79690476D01*
X101404761Y-79785714D01*
X101357142Y-79833333D01*
X103452380Y-82119047D02*
X102976190Y-82452380D01*
X103452380Y-82690476D02*
X102452380Y-82690476D01*
X102452380Y-82309523D01*
X102500000Y-82214285D01*
X102547619Y-82166666D01*
X102642857Y-82119047D01*
X102785714Y-82119047D01*
X102880952Y-82166666D01*
X102928571Y-82214285D01*
X102976190Y-82309523D01*
X102976190Y-82690476D01*
X102452380Y-81785714D02*
X102452380Y-81119047D01*
X103452380Y-81547619D01*
X102452380Y-80547619D02*
X102452380Y-80452380D01*
X102500000Y-80357142D01*
X102547619Y-80309523D01*
X102642857Y-80261904D01*
X102833333Y-80214285D01*
X103071428Y-80214285D01*
X103261904Y-80261904D01*
X103357142Y-80309523D01*
X103404761Y-80357142D01*
X103452380Y-80452380D01*
X103452380Y-80547619D01*
X103404761Y-80642857D01*
X103357142Y-80690476D01*
X103261904Y-80738095D01*
X103071428Y-80785714D01*
X102833333Y-80785714D01*
X102642857Y-80738095D01*
X102547619Y-80690476D01*
X102500000Y-80642857D01*
X102452380Y-80547619D01*
X102785714Y-79357142D02*
X103452380Y-79357142D01*
X102404761Y-79595238D02*
X103119047Y-79833333D01*
X103119047Y-79214285D01*
X38964285Y-71202380D02*
X38964285Y-71916666D01*
X38916666Y-72059523D01*
X38821428Y-72154761D01*
X38678571Y-72202380D01*
X38583333Y-72202380D01*
X39869047Y-71535714D02*
X39869047Y-72202380D01*
X39630952Y-71154761D02*
X39392857Y-71869047D01*
X40011904Y-71869047D01*
X40583333Y-71202380D02*
X40678571Y-71202380D01*
X40773809Y-71250000D01*
X40821428Y-71297619D01*
X40869047Y-71392857D01*
X40916666Y-71583333D01*
X40916666Y-71821428D01*
X40869047Y-72011904D01*
X40821428Y-72107142D01*
X40773809Y-72154761D01*
X40678571Y-72202380D01*
X40583333Y-72202380D01*
X40488095Y-72154761D01*
X40440476Y-72107142D01*
X40392857Y-72011904D01*
X40345238Y-71821428D01*
X40345238Y-71583333D01*
X40392857Y-71392857D01*
X40440476Y-71297619D01*
X40488095Y-71250000D01*
X40583333Y-71202380D01*
X41869047Y-72202380D02*
X41297619Y-72202380D01*
X41583333Y-72202380D02*
X41583333Y-71202380D01*
X41488095Y-71345238D01*
X41392857Y-71440476D01*
X41297619Y-71488095D01*
X124324285Y-65222380D02*
X124324285Y-65936666D01*
X124276666Y-66079523D01*
X124181428Y-66174761D01*
X124038571Y-66222380D01*
X123943333Y-66222380D01*
X125229047Y-65222380D02*
X125038571Y-65222380D01*
X124943333Y-65270000D01*
X124895714Y-65317619D01*
X124800476Y-65460476D01*
X124752857Y-65650952D01*
X124752857Y-66031904D01*
X124800476Y-66127142D01*
X124848095Y-66174761D01*
X124943333Y-66222380D01*
X125133809Y-66222380D01*
X125229047Y-66174761D01*
X125276666Y-66127142D01*
X125324285Y-66031904D01*
X125324285Y-65793809D01*
X125276666Y-65698571D01*
X125229047Y-65650952D01*
X125133809Y-65603333D01*
X124943333Y-65603333D01*
X124848095Y-65650952D01*
X124800476Y-65698571D01*
X124752857Y-65793809D01*
X125943333Y-65222380D02*
X126038571Y-65222380D01*
X126133809Y-65270000D01*
X126181428Y-65317619D01*
X126229047Y-65412857D01*
X126276666Y-65603333D01*
X126276666Y-65841428D01*
X126229047Y-66031904D01*
X126181428Y-66127142D01*
X126133809Y-66174761D01*
X126038571Y-66222380D01*
X125943333Y-66222380D01*
X125848095Y-66174761D01*
X125800476Y-66127142D01*
X125752857Y-66031904D01*
X125705238Y-65841428D01*
X125705238Y-65603333D01*
X125752857Y-65412857D01*
X125800476Y-65317619D01*
X125848095Y-65270000D01*
X125943333Y-65222380D01*
X126657619Y-65317619D02*
X126705238Y-65270000D01*
X126800476Y-65222380D01*
X127038571Y-65222380D01*
X127133809Y-65270000D01*
X127181428Y-65317619D01*
X127229047Y-65412857D01*
X127229047Y-65508095D01*
X127181428Y-65650952D01*
X126610000Y-66222380D01*
X127229047Y-66222380D01*
X91952380Y-93690476D02*
X90952380Y-93690476D01*
X90952380Y-93452380D01*
X91000000Y-93309523D01*
X91095238Y-93214285D01*
X91190476Y-93166666D01*
X91380952Y-93119047D01*
X91523809Y-93119047D01*
X91714285Y-93166666D01*
X91809523Y-93214285D01*
X91904761Y-93309523D01*
X91952380Y-93452380D01*
X91952380Y-93690476D01*
X90952380Y-92785714D02*
X90952380Y-92119047D01*
X91952380Y-92547619D01*
X90952380Y-91547619D02*
X90952380Y-91452380D01*
X91000000Y-91357142D01*
X91047619Y-91309523D01*
X91142857Y-91261904D01*
X91333333Y-91214285D01*
X91571428Y-91214285D01*
X91761904Y-91261904D01*
X91857142Y-91309523D01*
X91904761Y-91357142D01*
X91952380Y-91452380D01*
X91952380Y-91547619D01*
X91904761Y-91642857D01*
X91857142Y-91690476D01*
X91761904Y-91738095D01*
X91571428Y-91785714D01*
X91333333Y-91785714D01*
X91142857Y-91738095D01*
X91047619Y-91690476D01*
X91000000Y-91642857D01*
X90952380Y-91547619D01*
X91380952Y-90642857D02*
X91333333Y-90738095D01*
X91285714Y-90785714D01*
X91190476Y-90833333D01*
X91142857Y-90833333D01*
X91047619Y-90785714D01*
X91000000Y-90738095D01*
X90952380Y-90642857D01*
X90952380Y-90452380D01*
X91000000Y-90357142D01*
X91047619Y-90309523D01*
X91142857Y-90261904D01*
X91190476Y-90261904D01*
X91285714Y-90309523D01*
X91333333Y-90357142D01*
X91380952Y-90452380D01*
X91380952Y-90642857D01*
X91428571Y-90738095D01*
X91476190Y-90785714D01*
X91571428Y-90833333D01*
X91761904Y-90833333D01*
X91857142Y-90785714D01*
X91904761Y-90738095D01*
X91952380Y-90642857D01*
X91952380Y-90452380D01*
X91904761Y-90357142D01*
X91857142Y-90309523D01*
X91761904Y-90261904D01*
X91571428Y-90261904D01*
X91476190Y-90309523D01*
X91428571Y-90357142D01*
X91380952Y-90452380D01*
X86809523Y-80952380D02*
X86809523Y-79952380D01*
X87047619Y-79952380D01*
X87190476Y-80000000D01*
X87285714Y-80095238D01*
X87333333Y-80190476D01*
X87380952Y-80380952D01*
X87380952Y-80523809D01*
X87333333Y-80714285D01*
X87285714Y-80809523D01*
X87190476Y-80904761D01*
X87047619Y-80952380D01*
X86809523Y-80952380D01*
X87714285Y-79952380D02*
X88380952Y-79952380D01*
X87952380Y-80952380D01*
X88952380Y-79952380D02*
X89047619Y-79952380D01*
X89142857Y-80000000D01*
X89190476Y-80047619D01*
X89238095Y-80142857D01*
X89285714Y-80333333D01*
X89285714Y-80571428D01*
X89238095Y-80761904D01*
X89190476Y-80857142D01*
X89142857Y-80904761D01*
X89047619Y-80952380D01*
X88952380Y-80952380D01*
X88857142Y-80904761D01*
X88809523Y-80857142D01*
X88761904Y-80761904D01*
X88714285Y-80571428D01*
X88714285Y-80333333D01*
X88761904Y-80142857D01*
X88809523Y-80047619D01*
X88857142Y-80000000D01*
X88952380Y-79952380D01*
X89619047Y-79952380D02*
X90285714Y-79952380D01*
X89857142Y-80952380D01*
X74952380Y-79940476D02*
X73952380Y-79940476D01*
X73952380Y-79702380D01*
X74000000Y-79559523D01*
X74095238Y-79464285D01*
X74190476Y-79416666D01*
X74380952Y-79369047D01*
X74523809Y-79369047D01*
X74714285Y-79416666D01*
X74809523Y-79464285D01*
X74904761Y-79559523D01*
X74952380Y-79702380D01*
X74952380Y-79940476D01*
X73952380Y-79035714D02*
X73952380Y-78369047D01*
X74952380Y-78797619D01*
X73952380Y-77797619D02*
X73952380Y-77702380D01*
X74000000Y-77607142D01*
X74047619Y-77559523D01*
X74142857Y-77511904D01*
X74333333Y-77464285D01*
X74571428Y-77464285D01*
X74761904Y-77511904D01*
X74857142Y-77559523D01*
X74904761Y-77607142D01*
X74952380Y-77702380D01*
X74952380Y-77797619D01*
X74904761Y-77892857D01*
X74857142Y-77940476D01*
X74761904Y-77988095D01*
X74571428Y-78035714D01*
X74333333Y-78035714D01*
X74142857Y-77988095D01*
X74047619Y-77940476D01*
X74000000Y-77892857D01*
X73952380Y-77797619D01*
X73952380Y-76607142D02*
X73952380Y-76797619D01*
X74000000Y-76892857D01*
X74047619Y-76940476D01*
X74190476Y-77035714D01*
X74380952Y-77083333D01*
X74761904Y-77083333D01*
X74857142Y-77035714D01*
X74904761Y-76988095D01*
X74952380Y-76892857D01*
X74952380Y-76702380D01*
X74904761Y-76607142D01*
X74857142Y-76559523D01*
X74761904Y-76511904D01*
X74523809Y-76511904D01*
X74428571Y-76559523D01*
X74380952Y-76607142D01*
X74333333Y-76702380D01*
X74333333Y-76892857D01*
X74380952Y-76988095D01*
X74428571Y-77035714D01*
X74523809Y-77083333D01*
X80952380Y-78190476D02*
X79952380Y-78190476D01*
X79952380Y-77952380D01*
X80000000Y-77809523D01*
X80095238Y-77714285D01*
X80190476Y-77666666D01*
X80380952Y-77619047D01*
X80523809Y-77619047D01*
X80714285Y-77666666D01*
X80809523Y-77714285D01*
X80904761Y-77809523D01*
X80952380Y-77952380D01*
X80952380Y-78190476D01*
X79952380Y-77285714D02*
X79952380Y-76619047D01*
X80952380Y-77047619D01*
X79952380Y-76047619D02*
X79952380Y-75952380D01*
X80000000Y-75857142D01*
X80047619Y-75809523D01*
X80142857Y-75761904D01*
X80333333Y-75714285D01*
X80571428Y-75714285D01*
X80761904Y-75761904D01*
X80857142Y-75809523D01*
X80904761Y-75857142D01*
X80952380Y-75952380D01*
X80952380Y-76047619D01*
X80904761Y-76142857D01*
X80857142Y-76190476D01*
X80761904Y-76238095D01*
X80571428Y-76285714D01*
X80333333Y-76285714D01*
X80142857Y-76238095D01*
X80047619Y-76190476D01*
X80000000Y-76142857D01*
X79952380Y-76047619D01*
X79952380Y-74809523D02*
X79952380Y-75285714D01*
X80428571Y-75333333D01*
X80380952Y-75285714D01*
X80333333Y-75190476D01*
X80333333Y-74952380D01*
X80380952Y-74857142D01*
X80428571Y-74809523D01*
X80523809Y-74761904D01*
X80761904Y-74761904D01*
X80857142Y-74809523D01*
X80904761Y-74857142D01*
X80952380Y-74952380D01*
X80952380Y-75190476D01*
X80904761Y-75285714D01*
X80857142Y-75333333D01*
X89452380Y-93940476D02*
X88452380Y-93940476D01*
X88452380Y-93702380D01*
X88500000Y-93559523D01*
X88595238Y-93464285D01*
X88690476Y-93416666D01*
X88880952Y-93369047D01*
X89023809Y-93369047D01*
X89214285Y-93416666D01*
X89309523Y-93464285D01*
X89404761Y-93559523D01*
X89452380Y-93702380D01*
X89452380Y-93940476D01*
X88452380Y-93035714D02*
X88452380Y-92369047D01*
X89452380Y-92797619D01*
X88452380Y-91797619D02*
X88452380Y-91702380D01*
X88500000Y-91607142D01*
X88547619Y-91559523D01*
X88642857Y-91511904D01*
X88833333Y-91464285D01*
X89071428Y-91464285D01*
X89261904Y-91511904D01*
X89357142Y-91559523D01*
X89404761Y-91607142D01*
X89452380Y-91702380D01*
X89452380Y-91797619D01*
X89404761Y-91892857D01*
X89357142Y-91940476D01*
X89261904Y-91988095D01*
X89071428Y-92035714D01*
X88833333Y-92035714D01*
X88642857Y-91988095D01*
X88547619Y-91940476D01*
X88500000Y-91892857D01*
X88452380Y-91797619D01*
X88785714Y-90607142D02*
X89452380Y-90607142D01*
X88404761Y-90845238D02*
X89119047Y-91083333D01*
X89119047Y-90464285D01*
X82452380Y-80190476D02*
X81452380Y-80190476D01*
X81452380Y-79952380D01*
X81500000Y-79809523D01*
X81595238Y-79714285D01*
X81690476Y-79666666D01*
X81880952Y-79619047D01*
X82023809Y-79619047D01*
X82214285Y-79666666D01*
X82309523Y-79714285D01*
X82404761Y-79809523D01*
X82452380Y-79952380D01*
X82452380Y-80190476D01*
X81452380Y-79285714D02*
X81452380Y-78619047D01*
X82452380Y-79047619D01*
X81452380Y-78047619D02*
X81452380Y-77952380D01*
X81500000Y-77857142D01*
X81547619Y-77809523D01*
X81642857Y-77761904D01*
X81833333Y-77714285D01*
X82071428Y-77714285D01*
X82261904Y-77761904D01*
X82357142Y-77809523D01*
X82404761Y-77857142D01*
X82452380Y-77952380D01*
X82452380Y-78047619D01*
X82404761Y-78142857D01*
X82357142Y-78190476D01*
X82261904Y-78238095D01*
X82071428Y-78285714D01*
X81833333Y-78285714D01*
X81642857Y-78238095D01*
X81547619Y-78190476D01*
X81500000Y-78142857D01*
X81452380Y-78047619D01*
X81452380Y-77380952D02*
X81452380Y-76761904D01*
X81833333Y-77095238D01*
X81833333Y-76952380D01*
X81880952Y-76857142D01*
X81928571Y-76809523D01*
X82023809Y-76761904D01*
X82261904Y-76761904D01*
X82357142Y-76809523D01*
X82404761Y-76857142D01*
X82452380Y-76952380D01*
X82452380Y-77238095D01*
X82404761Y-77333333D01*
X82357142Y-77380952D01*
X37952380Y-46119047D02*
X37476190Y-46452380D01*
X37952380Y-46690476D02*
X36952380Y-46690476D01*
X36952380Y-46309523D01*
X37000000Y-46214285D01*
X37047619Y-46166666D01*
X37142857Y-46119047D01*
X37285714Y-46119047D01*
X37380952Y-46166666D01*
X37428571Y-46214285D01*
X37476190Y-46309523D01*
X37476190Y-46690476D01*
X37380952Y-45547619D02*
X37333333Y-45642857D01*
X37285714Y-45690476D01*
X37190476Y-45738095D01*
X37142857Y-45738095D01*
X37047619Y-45690476D01*
X37000000Y-45642857D01*
X36952380Y-45547619D01*
X36952380Y-45357142D01*
X37000000Y-45261904D01*
X37047619Y-45214285D01*
X37142857Y-45166666D01*
X37190476Y-45166666D01*
X37285714Y-45214285D01*
X37333333Y-45261904D01*
X37380952Y-45357142D01*
X37380952Y-45547619D01*
X37428571Y-45642857D01*
X37476190Y-45690476D01*
X37571428Y-45738095D01*
X37761904Y-45738095D01*
X37857142Y-45690476D01*
X37904761Y-45642857D01*
X37952380Y-45547619D01*
X37952380Y-45357142D01*
X37904761Y-45261904D01*
X37857142Y-45214285D01*
X37761904Y-45166666D01*
X37571428Y-45166666D01*
X37476190Y-45214285D01*
X37428571Y-45261904D01*
X37380952Y-45357142D01*
X36952380Y-44547619D02*
X36952380Y-44452380D01*
X37000000Y-44357142D01*
X37047619Y-44309523D01*
X37142857Y-44261904D01*
X37333333Y-44214285D01*
X37571428Y-44214285D01*
X37761904Y-44261904D01*
X37857142Y-44309523D01*
X37904761Y-44357142D01*
X37952380Y-44452380D01*
X37952380Y-44547619D01*
X37904761Y-44642857D01*
X37857142Y-44690476D01*
X37761904Y-44738095D01*
X37571428Y-44785714D01*
X37333333Y-44785714D01*
X37142857Y-44738095D01*
X37047619Y-44690476D01*
X37000000Y-44642857D01*
X36952380Y-44547619D01*
X37380952Y-43642857D02*
X37333333Y-43738095D01*
X37285714Y-43785714D01*
X37190476Y-43833333D01*
X37142857Y-43833333D01*
X37047619Y-43785714D01*
X37000000Y-43738095D01*
X36952380Y-43642857D01*
X36952380Y-43452380D01*
X37000000Y-43357142D01*
X37047619Y-43309523D01*
X37142857Y-43261904D01*
X37190476Y-43261904D01*
X37285714Y-43309523D01*
X37333333Y-43357142D01*
X37380952Y-43452380D01*
X37380952Y-43642857D01*
X37428571Y-43738095D01*
X37476190Y-43785714D01*
X37571428Y-43833333D01*
X37761904Y-43833333D01*
X37857142Y-43785714D01*
X37904761Y-43738095D01*
X37952380Y-43642857D01*
X37952380Y-43452380D01*
X37904761Y-43357142D01*
X37857142Y-43309523D01*
X37761904Y-43261904D01*
X37571428Y-43261904D01*
X37476190Y-43309523D01*
X37428571Y-43357142D01*
X37380952Y-43452380D01*
X41452380Y-50119047D02*
X40976190Y-50452380D01*
X41452380Y-50690476D02*
X40452380Y-50690476D01*
X40452380Y-50309523D01*
X40500000Y-50214285D01*
X40547619Y-50166666D01*
X40642857Y-50119047D01*
X40785714Y-50119047D01*
X40880952Y-50166666D01*
X40928571Y-50214285D01*
X40976190Y-50309523D01*
X40976190Y-50690476D01*
X40880952Y-49547619D02*
X40833333Y-49642857D01*
X40785714Y-49690476D01*
X40690476Y-49738095D01*
X40642857Y-49738095D01*
X40547619Y-49690476D01*
X40500000Y-49642857D01*
X40452380Y-49547619D01*
X40452380Y-49357142D01*
X40500000Y-49261904D01*
X40547619Y-49214285D01*
X40642857Y-49166666D01*
X40690476Y-49166666D01*
X40785714Y-49214285D01*
X40833333Y-49261904D01*
X40880952Y-49357142D01*
X40880952Y-49547619D01*
X40928571Y-49642857D01*
X40976190Y-49690476D01*
X41071428Y-49738095D01*
X41261904Y-49738095D01*
X41357142Y-49690476D01*
X41404761Y-49642857D01*
X41452380Y-49547619D01*
X41452380Y-49357142D01*
X41404761Y-49261904D01*
X41357142Y-49214285D01*
X41261904Y-49166666D01*
X41071428Y-49166666D01*
X40976190Y-49214285D01*
X40928571Y-49261904D01*
X40880952Y-49357142D01*
X40452380Y-48547619D02*
X40452380Y-48452380D01*
X40500000Y-48357142D01*
X40547619Y-48309523D01*
X40642857Y-48261904D01*
X40833333Y-48214285D01*
X41071428Y-48214285D01*
X41261904Y-48261904D01*
X41357142Y-48309523D01*
X41404761Y-48357142D01*
X41452380Y-48452380D01*
X41452380Y-48547619D01*
X41404761Y-48642857D01*
X41357142Y-48690476D01*
X41261904Y-48738095D01*
X41071428Y-48785714D01*
X40833333Y-48785714D01*
X40642857Y-48738095D01*
X40547619Y-48690476D01*
X40500000Y-48642857D01*
X40452380Y-48547619D01*
X40452380Y-47880952D02*
X40452380Y-47214285D01*
X41452380Y-47642857D01*
X47380952Y-42452380D02*
X47047619Y-41976190D01*
X46809523Y-42452380D02*
X46809523Y-41452380D01*
X47190476Y-41452380D01*
X47285714Y-41500000D01*
X47333333Y-41547619D01*
X47380952Y-41642857D01*
X47380952Y-41785714D01*
X47333333Y-41880952D01*
X47285714Y-41928571D01*
X47190476Y-41976190D01*
X46809523Y-41976190D01*
X47952380Y-41880952D02*
X47857142Y-41833333D01*
X47809523Y-41785714D01*
X47761904Y-41690476D01*
X47761904Y-41642857D01*
X47809523Y-41547619D01*
X47857142Y-41500000D01*
X47952380Y-41452380D01*
X48142857Y-41452380D01*
X48238095Y-41500000D01*
X48285714Y-41547619D01*
X48333333Y-41642857D01*
X48333333Y-41690476D01*
X48285714Y-41785714D01*
X48238095Y-41833333D01*
X48142857Y-41880952D01*
X47952380Y-41880952D01*
X47857142Y-41928571D01*
X47809523Y-41976190D01*
X47761904Y-42071428D01*
X47761904Y-42261904D01*
X47809523Y-42357142D01*
X47857142Y-42404761D01*
X47952380Y-42452380D01*
X48142857Y-42452380D01*
X48238095Y-42404761D01*
X48285714Y-42357142D01*
X48333333Y-42261904D01*
X48333333Y-42071428D01*
X48285714Y-41976190D01*
X48238095Y-41928571D01*
X48142857Y-41880952D01*
X48952380Y-41452380D02*
X49047619Y-41452380D01*
X49142857Y-41500000D01*
X49190476Y-41547619D01*
X49238095Y-41642857D01*
X49285714Y-41833333D01*
X49285714Y-42071428D01*
X49238095Y-42261904D01*
X49190476Y-42357142D01*
X49142857Y-42404761D01*
X49047619Y-42452380D01*
X48952380Y-42452380D01*
X48857142Y-42404761D01*
X48809523Y-42357142D01*
X48761904Y-42261904D01*
X48714285Y-42071428D01*
X48714285Y-41833333D01*
X48761904Y-41642857D01*
X48809523Y-41547619D01*
X48857142Y-41500000D01*
X48952380Y-41452380D01*
X50142857Y-41452380D02*
X49952380Y-41452380D01*
X49857142Y-41500000D01*
X49809523Y-41547619D01*
X49714285Y-41690476D01*
X49666666Y-41880952D01*
X49666666Y-42261904D01*
X49714285Y-42357142D01*
X49761904Y-42404761D01*
X49857142Y-42452380D01*
X50047619Y-42452380D01*
X50142857Y-42404761D01*
X50190476Y-42357142D01*
X50238095Y-42261904D01*
X50238095Y-42023809D01*
X50190476Y-41928571D01*
X50142857Y-41880952D01*
X50047619Y-41833333D01*
X49857142Y-41833333D01*
X49761904Y-41880952D01*
X49714285Y-41928571D01*
X49666666Y-42023809D01*
X47452380Y-46119047D02*
X46976190Y-46452380D01*
X47452380Y-46690476D02*
X46452380Y-46690476D01*
X46452380Y-46309523D01*
X46500000Y-46214285D01*
X46547619Y-46166666D01*
X46642857Y-46119047D01*
X46785714Y-46119047D01*
X46880952Y-46166666D01*
X46928571Y-46214285D01*
X46976190Y-46309523D01*
X46976190Y-46690476D01*
X46880952Y-45547619D02*
X46833333Y-45642857D01*
X46785714Y-45690476D01*
X46690476Y-45738095D01*
X46642857Y-45738095D01*
X46547619Y-45690476D01*
X46500000Y-45642857D01*
X46452380Y-45547619D01*
X46452380Y-45357142D01*
X46500000Y-45261904D01*
X46547619Y-45214285D01*
X46642857Y-45166666D01*
X46690476Y-45166666D01*
X46785714Y-45214285D01*
X46833333Y-45261904D01*
X46880952Y-45357142D01*
X46880952Y-45547619D01*
X46928571Y-45642857D01*
X46976190Y-45690476D01*
X47071428Y-45738095D01*
X47261904Y-45738095D01*
X47357142Y-45690476D01*
X47404761Y-45642857D01*
X47452380Y-45547619D01*
X47452380Y-45357142D01*
X47404761Y-45261904D01*
X47357142Y-45214285D01*
X47261904Y-45166666D01*
X47071428Y-45166666D01*
X46976190Y-45214285D01*
X46928571Y-45261904D01*
X46880952Y-45357142D01*
X46452380Y-44547619D02*
X46452380Y-44452380D01*
X46500000Y-44357142D01*
X46547619Y-44309523D01*
X46642857Y-44261904D01*
X46833333Y-44214285D01*
X47071428Y-44214285D01*
X47261904Y-44261904D01*
X47357142Y-44309523D01*
X47404761Y-44357142D01*
X47452380Y-44452380D01*
X47452380Y-44547619D01*
X47404761Y-44642857D01*
X47357142Y-44690476D01*
X47261904Y-44738095D01*
X47071428Y-44785714D01*
X46833333Y-44785714D01*
X46642857Y-44738095D01*
X46547619Y-44690476D01*
X46500000Y-44642857D01*
X46452380Y-44547619D01*
X46452380Y-43309523D02*
X46452380Y-43785714D01*
X46928571Y-43833333D01*
X46880952Y-43785714D01*
X46833333Y-43690476D01*
X46833333Y-43452380D01*
X46880952Y-43357142D01*
X46928571Y-43309523D01*
X47023809Y-43261904D01*
X47261904Y-43261904D01*
X47357142Y-43309523D01*
X47404761Y-43357142D01*
X47452380Y-43452380D01*
X47452380Y-43690476D01*
X47404761Y-43785714D01*
X47357142Y-43833333D01*
X95059523Y-49202380D02*
X95059523Y-48202380D01*
X95630952Y-49202380D02*
X95202380Y-48630952D01*
X95630952Y-48202380D02*
X95059523Y-48773809D01*
X95964285Y-48202380D02*
X96630952Y-48202380D01*
X96202380Y-49202380D01*
X97202380Y-48202380D02*
X97297619Y-48202380D01*
X97392857Y-48250000D01*
X97440476Y-48297619D01*
X97488095Y-48392857D01*
X97535714Y-48583333D01*
X97535714Y-48821428D01*
X97488095Y-49011904D01*
X97440476Y-49107142D01*
X97392857Y-49154761D01*
X97297619Y-49202380D01*
X97202380Y-49202380D01*
X97107142Y-49154761D01*
X97059523Y-49107142D01*
X97011904Y-49011904D01*
X96964285Y-48821428D01*
X96964285Y-48583333D01*
X97011904Y-48392857D01*
X97059523Y-48297619D01*
X97107142Y-48250000D01*
X97202380Y-48202380D01*
X98488095Y-49202380D02*
X97916666Y-49202380D01*
X98202380Y-49202380D02*
X98202380Y-48202380D01*
X98107142Y-48345238D01*
X98011904Y-48440476D01*
X97916666Y-48488095D01*
X43285714Y-99202380D02*
X43285714Y-100011904D01*
X43333333Y-100107142D01*
X43380952Y-100154761D01*
X43476190Y-100202380D01*
X43666666Y-100202380D01*
X43761904Y-100154761D01*
X43809523Y-100107142D01*
X43857142Y-100011904D01*
X43857142Y-99202380D01*
X44476190Y-99630952D02*
X44380952Y-99583333D01*
X44333333Y-99535714D01*
X44285714Y-99440476D01*
X44285714Y-99392857D01*
X44333333Y-99297619D01*
X44380952Y-99250000D01*
X44476190Y-99202380D01*
X44666666Y-99202380D01*
X44761904Y-99250000D01*
X44809523Y-99297619D01*
X44857142Y-99392857D01*
X44857142Y-99440476D01*
X44809523Y-99535714D01*
X44761904Y-99583333D01*
X44666666Y-99630952D01*
X44476190Y-99630952D01*
X44380952Y-99678571D01*
X44333333Y-99726190D01*
X44285714Y-99821428D01*
X44285714Y-100011904D01*
X44333333Y-100107142D01*
X44380952Y-100154761D01*
X44476190Y-100202380D01*
X44666666Y-100202380D01*
X44761904Y-100154761D01*
X44809523Y-100107142D01*
X44857142Y-100011904D01*
X44857142Y-99821428D01*
X44809523Y-99726190D01*
X44761904Y-99678571D01*
X44666666Y-99630952D01*
X45476190Y-99202380D02*
X45571428Y-99202380D01*
X45666666Y-99250000D01*
X45714285Y-99297619D01*
X45761904Y-99392857D01*
X45809523Y-99583333D01*
X45809523Y-99821428D01*
X45761904Y-100011904D01*
X45714285Y-100107142D01*
X45666666Y-100154761D01*
X45571428Y-100202380D01*
X45476190Y-100202380D01*
X45380952Y-100154761D01*
X45333333Y-100107142D01*
X45285714Y-100011904D01*
X45238095Y-99821428D01*
X45238095Y-99583333D01*
X45285714Y-99392857D01*
X45333333Y-99297619D01*
X45380952Y-99250000D01*
X45476190Y-99202380D01*
X46761904Y-100202380D02*
X46190476Y-100202380D01*
X46476190Y-100202380D02*
X46476190Y-99202380D01*
X46380952Y-99345238D01*
X46285714Y-99440476D01*
X46190476Y-99488095D01*
X122285714Y-103252380D02*
X122285714Y-102252380D01*
X122285714Y-102728571D02*
X122857142Y-102728571D01*
X122857142Y-103252380D02*
X122857142Y-102252380D01*
X123857142Y-103252380D02*
X123285714Y-103252380D01*
X123571428Y-103252380D02*
X123571428Y-102252380D01*
X123476190Y-102395238D01*
X123380952Y-102490476D01*
X123285714Y-102538095D01*
X124476190Y-102252380D02*
X124571428Y-102252380D01*
X124666666Y-102300000D01*
X124714285Y-102347619D01*
X124761904Y-102442857D01*
X124809523Y-102633333D01*
X124809523Y-102871428D01*
X124761904Y-103061904D01*
X124714285Y-103157142D01*
X124666666Y-103204761D01*
X124571428Y-103252380D01*
X124476190Y-103252380D01*
X124380952Y-103204761D01*
X124333333Y-103157142D01*
X124285714Y-103061904D01*
X124238095Y-102871428D01*
X124238095Y-102633333D01*
X124285714Y-102442857D01*
X124333333Y-102347619D01*
X124380952Y-102300000D01*
X124476190Y-102252380D01*
X125666666Y-102585714D02*
X125666666Y-103252380D01*
X125428571Y-102204761D02*
X125190476Y-102919047D01*
X125809523Y-102919047D01*
X122285714Y-49452380D02*
X122285714Y-48452380D01*
X122285714Y-48928571D02*
X122857142Y-48928571D01*
X122857142Y-49452380D02*
X122857142Y-48452380D01*
X123857142Y-49452380D02*
X123285714Y-49452380D01*
X123571428Y-49452380D02*
X123571428Y-48452380D01*
X123476190Y-48595238D01*
X123380952Y-48690476D01*
X123285714Y-48738095D01*
X124476190Y-48452380D02*
X124571428Y-48452380D01*
X124666666Y-48500000D01*
X124714285Y-48547619D01*
X124761904Y-48642857D01*
X124809523Y-48833333D01*
X124809523Y-49071428D01*
X124761904Y-49261904D01*
X124714285Y-49357142D01*
X124666666Y-49404761D01*
X124571428Y-49452380D01*
X124476190Y-49452380D01*
X124380952Y-49404761D01*
X124333333Y-49357142D01*
X124285714Y-49261904D01*
X124238095Y-49071428D01*
X124238095Y-48833333D01*
X124285714Y-48642857D01*
X124333333Y-48547619D01*
X124380952Y-48500000D01*
X124476190Y-48452380D01*
X125142857Y-48452380D02*
X125761904Y-48452380D01*
X125428571Y-48833333D01*
X125571428Y-48833333D01*
X125666666Y-48880952D01*
X125714285Y-48928571D01*
X125761904Y-49023809D01*
X125761904Y-49261904D01*
X125714285Y-49357142D01*
X125666666Y-49404761D01*
X125571428Y-49452380D01*
X125285714Y-49452380D01*
X125190476Y-49404761D01*
X125142857Y-49357142D01*
X66702380Y-65714285D02*
X67511904Y-65714285D01*
X67607142Y-65666666D01*
X67654761Y-65619047D01*
X67702380Y-65523809D01*
X67702380Y-65333333D01*
X67654761Y-65238095D01*
X67607142Y-65190476D01*
X67511904Y-65142857D01*
X66702380Y-65142857D01*
X66702380Y-64190476D02*
X66702380Y-64666666D01*
X67178571Y-64714285D01*
X67130952Y-64666666D01*
X67083333Y-64571428D01*
X67083333Y-64333333D01*
X67130952Y-64238095D01*
X67178571Y-64190476D01*
X67273809Y-64142857D01*
X67511904Y-64142857D01*
X67607142Y-64190476D01*
X67654761Y-64238095D01*
X67702380Y-64333333D01*
X67702380Y-64571428D01*
X67654761Y-64666666D01*
X67607142Y-64714285D01*
X66702380Y-63523809D02*
X66702380Y-63428571D01*
X66750000Y-63333333D01*
X66797619Y-63285714D01*
X66892857Y-63238095D01*
X67083333Y-63190476D01*
X67321428Y-63190476D01*
X67511904Y-63238095D01*
X67607142Y-63285714D01*
X67654761Y-63333333D01*
X67702380Y-63428571D01*
X67702380Y-63523809D01*
X67654761Y-63619047D01*
X67607142Y-63666666D01*
X67511904Y-63714285D01*
X67321428Y-63761904D01*
X67083333Y-63761904D01*
X66892857Y-63714285D01*
X66797619Y-63666666D01*
X66750000Y-63619047D01*
X66702380Y-63523809D01*
X66702380Y-62857142D02*
X66702380Y-62238095D01*
X67083333Y-62571428D01*
X67083333Y-62428571D01*
X67130952Y-62333333D01*
X67178571Y-62285714D01*
X67273809Y-62238095D01*
X67511904Y-62238095D01*
X67607142Y-62285714D01*
X67654761Y-62333333D01*
X67702380Y-62428571D01*
X67702380Y-62714285D01*
X67654761Y-62809523D01*
X67607142Y-62857142D01*
X87535714Y-65702380D02*
X87535714Y-66511904D01*
X87583333Y-66607142D01*
X87630952Y-66654761D01*
X87726190Y-66702380D01*
X87916666Y-66702380D01*
X88011904Y-66654761D01*
X88059523Y-66607142D01*
X88107142Y-66511904D01*
X88107142Y-65702380D01*
X89059523Y-65702380D02*
X88583333Y-65702380D01*
X88535714Y-66178571D01*
X88583333Y-66130952D01*
X88678571Y-66083333D01*
X88916666Y-66083333D01*
X89011904Y-66130952D01*
X89059523Y-66178571D01*
X89107142Y-66273809D01*
X89107142Y-66511904D01*
X89059523Y-66607142D01*
X89011904Y-66654761D01*
X88916666Y-66702380D01*
X88678571Y-66702380D01*
X88583333Y-66654761D01*
X88535714Y-66607142D01*
X89726190Y-65702380D02*
X89821428Y-65702380D01*
X89916666Y-65750000D01*
X89964285Y-65797619D01*
X90011904Y-65892857D01*
X90059523Y-66083333D01*
X90059523Y-66321428D01*
X90011904Y-66511904D01*
X89964285Y-66607142D01*
X89916666Y-66654761D01*
X89821428Y-66702380D01*
X89726190Y-66702380D01*
X89630952Y-66654761D01*
X89583333Y-66607142D01*
X89535714Y-66511904D01*
X89488095Y-66321428D01*
X89488095Y-66083333D01*
X89535714Y-65892857D01*
X89583333Y-65797619D01*
X89630952Y-65750000D01*
X89726190Y-65702380D01*
X90440476Y-65797619D02*
X90488095Y-65750000D01*
X90583333Y-65702380D01*
X90821428Y-65702380D01*
X90916666Y-65750000D01*
X90964285Y-65797619D01*
X91011904Y-65892857D01*
X91011904Y-65988095D01*
X90964285Y-66130952D01*
X90392857Y-66702380D01*
X91011904Y-66702380D01*
X69202380Y-70964285D02*
X70011904Y-70964285D01*
X70107142Y-70916666D01*
X70154761Y-70869047D01*
X70202380Y-70773809D01*
X70202380Y-70583333D01*
X70154761Y-70488095D01*
X70107142Y-70440476D01*
X70011904Y-70392857D01*
X69202380Y-70392857D01*
X69202380Y-69440476D02*
X69202380Y-69916666D01*
X69678571Y-69964285D01*
X69630952Y-69916666D01*
X69583333Y-69821428D01*
X69583333Y-69583333D01*
X69630952Y-69488095D01*
X69678571Y-69440476D01*
X69773809Y-69392857D01*
X70011904Y-69392857D01*
X70107142Y-69440476D01*
X70154761Y-69488095D01*
X70202380Y-69583333D01*
X70202380Y-69821428D01*
X70154761Y-69916666D01*
X70107142Y-69964285D01*
X69202380Y-68773809D02*
X69202380Y-68678571D01*
X69250000Y-68583333D01*
X69297619Y-68535714D01*
X69392857Y-68488095D01*
X69583333Y-68440476D01*
X69821428Y-68440476D01*
X70011904Y-68488095D01*
X70107142Y-68535714D01*
X70154761Y-68583333D01*
X70202380Y-68678571D01*
X70202380Y-68773809D01*
X70154761Y-68869047D01*
X70107142Y-68916666D01*
X70011904Y-68964285D01*
X69821428Y-69011904D01*
X69583333Y-69011904D01*
X69392857Y-68964285D01*
X69297619Y-68916666D01*
X69250000Y-68869047D01*
X69202380Y-68773809D01*
X70202380Y-67488095D02*
X70202380Y-68059523D01*
X70202380Y-67773809D02*
X69202380Y-67773809D01*
X69345238Y-67869047D01*
X69440476Y-67964285D01*
X69488095Y-68059523D01*
X40282380Y-94024285D02*
X41091904Y-94024285D01*
X41187142Y-93976666D01*
X41234761Y-93929047D01*
X41282380Y-93833809D01*
X41282380Y-93643333D01*
X41234761Y-93548095D01*
X41187142Y-93500476D01*
X41091904Y-93452857D01*
X40282380Y-93452857D01*
X40615714Y-92548095D02*
X41282380Y-92548095D01*
X40234761Y-92786190D02*
X40949047Y-93024285D01*
X40949047Y-92405238D01*
X40282380Y-91833809D02*
X40282380Y-91738571D01*
X40330000Y-91643333D01*
X40377619Y-91595714D01*
X40472857Y-91548095D01*
X40663333Y-91500476D01*
X40901428Y-91500476D01*
X41091904Y-91548095D01*
X41187142Y-91595714D01*
X41234761Y-91643333D01*
X41282380Y-91738571D01*
X41282380Y-91833809D01*
X41234761Y-91929047D01*
X41187142Y-91976666D01*
X41091904Y-92024285D01*
X40901428Y-92071904D01*
X40663333Y-92071904D01*
X40472857Y-92024285D01*
X40377619Y-91976666D01*
X40330000Y-91929047D01*
X40282380Y-91833809D01*
X40377619Y-91119523D02*
X40330000Y-91071904D01*
X40282380Y-90976666D01*
X40282380Y-90738571D01*
X40330000Y-90643333D01*
X40377619Y-90595714D01*
X40472857Y-90548095D01*
X40568095Y-90548095D01*
X40710952Y-90595714D01*
X41282380Y-91167142D01*
X41282380Y-90548095D01*
X40282380Y-59524285D02*
X41091904Y-59524285D01*
X41187142Y-59476666D01*
X41234761Y-59429047D01*
X41282380Y-59333809D01*
X41282380Y-59143333D01*
X41234761Y-59048095D01*
X41187142Y-59000476D01*
X41091904Y-58952857D01*
X40282380Y-58952857D01*
X40615714Y-58048095D02*
X41282380Y-58048095D01*
X40234761Y-58286190D02*
X40949047Y-58524285D01*
X40949047Y-57905238D01*
X40282380Y-57333809D02*
X40282380Y-57238571D01*
X40330000Y-57143333D01*
X40377619Y-57095714D01*
X40472857Y-57048095D01*
X40663333Y-57000476D01*
X40901428Y-57000476D01*
X41091904Y-57048095D01*
X41187142Y-57095714D01*
X41234761Y-57143333D01*
X41282380Y-57238571D01*
X41282380Y-57333809D01*
X41234761Y-57429047D01*
X41187142Y-57476666D01*
X41091904Y-57524285D01*
X40901428Y-57571904D01*
X40663333Y-57571904D01*
X40472857Y-57524285D01*
X40377619Y-57476666D01*
X40330000Y-57429047D01*
X40282380Y-57333809D01*
X41282380Y-56048095D02*
X41282380Y-56619523D01*
X41282380Y-56333809D02*
X40282380Y-56333809D01*
X40425238Y-56429047D01*
X40520476Y-56524285D01*
X40568095Y-56619523D01*
X49452380Y-106214285D02*
X50261904Y-106214285D01*
X50357142Y-106166666D01*
X50404761Y-106119047D01*
X50452380Y-106023809D01*
X50452380Y-105833333D01*
X50404761Y-105738095D01*
X50357142Y-105690476D01*
X50261904Y-105642857D01*
X49452380Y-105642857D01*
X49452380Y-105261904D02*
X49452380Y-104642857D01*
X49833333Y-104976190D01*
X49833333Y-104833333D01*
X49880952Y-104738095D01*
X49928571Y-104690476D01*
X50023809Y-104642857D01*
X50261904Y-104642857D01*
X50357142Y-104690476D01*
X50404761Y-104738095D01*
X50452380Y-104833333D01*
X50452380Y-105119047D01*
X50404761Y-105214285D01*
X50357142Y-105261904D01*
X49452380Y-104023809D02*
X49452380Y-103928571D01*
X49500000Y-103833333D01*
X49547619Y-103785714D01*
X49642857Y-103738095D01*
X49833333Y-103690476D01*
X50071428Y-103690476D01*
X50261904Y-103738095D01*
X50357142Y-103785714D01*
X50404761Y-103833333D01*
X50452380Y-103928571D01*
X50452380Y-104023809D01*
X50404761Y-104119047D01*
X50357142Y-104166666D01*
X50261904Y-104214285D01*
X50071428Y-104261904D01*
X49833333Y-104261904D01*
X49642857Y-104214285D01*
X49547619Y-104166666D01*
X49500000Y-104119047D01*
X49452380Y-104023809D01*
X49547619Y-103309523D02*
X49500000Y-103261904D01*
X49452380Y-103166666D01*
X49452380Y-102928571D01*
X49500000Y-102833333D01*
X49547619Y-102785714D01*
X49642857Y-102738095D01*
X49738095Y-102738095D01*
X49880952Y-102785714D01*
X50452380Y-103357142D01*
X50452380Y-102738095D01*
X76785714Y-97702380D02*
X76785714Y-98511904D01*
X76833333Y-98607142D01*
X76880952Y-98654761D01*
X76976190Y-98702380D01*
X77166666Y-98702380D01*
X77261904Y-98654761D01*
X77309523Y-98607142D01*
X77357142Y-98511904D01*
X77357142Y-97702380D01*
X77738095Y-97702380D02*
X78357142Y-97702380D01*
X78023809Y-98083333D01*
X78166666Y-98083333D01*
X78261904Y-98130952D01*
X78309523Y-98178571D01*
X78357142Y-98273809D01*
X78357142Y-98511904D01*
X78309523Y-98607142D01*
X78261904Y-98654761D01*
X78166666Y-98702380D01*
X77880952Y-98702380D01*
X77785714Y-98654761D01*
X77738095Y-98607142D01*
X78976190Y-97702380D02*
X79071428Y-97702380D01*
X79166666Y-97750000D01*
X79214285Y-97797619D01*
X79261904Y-97892857D01*
X79309523Y-98083333D01*
X79309523Y-98321428D01*
X79261904Y-98511904D01*
X79214285Y-98607142D01*
X79166666Y-98654761D01*
X79071428Y-98702380D01*
X78976190Y-98702380D01*
X78880952Y-98654761D01*
X78833333Y-98607142D01*
X78785714Y-98511904D01*
X78738095Y-98321428D01*
X78738095Y-98083333D01*
X78785714Y-97892857D01*
X78833333Y-97797619D01*
X78880952Y-97750000D01*
X78976190Y-97702380D01*
X80261904Y-98702380D02*
X79690476Y-98702380D01*
X79976190Y-98702380D02*
X79976190Y-97702380D01*
X79880952Y-97845238D01*
X79785714Y-97940476D01*
X79690476Y-97988095D01*
X96785714Y-94202380D02*
X96785714Y-95011904D01*
X96833333Y-95107142D01*
X96880952Y-95154761D01*
X96976190Y-95202380D01*
X97166666Y-95202380D01*
X97261904Y-95154761D01*
X97309523Y-95107142D01*
X97357142Y-95011904D01*
X97357142Y-94202380D01*
X97785714Y-94297619D02*
X97833333Y-94250000D01*
X97928571Y-94202380D01*
X98166666Y-94202380D01*
X98261904Y-94250000D01*
X98309523Y-94297619D01*
X98357142Y-94392857D01*
X98357142Y-94488095D01*
X98309523Y-94630952D01*
X97738095Y-95202380D01*
X98357142Y-95202380D01*
X98976190Y-94202380D02*
X99071428Y-94202380D01*
X99166666Y-94250000D01*
X99214285Y-94297619D01*
X99261904Y-94392857D01*
X99309523Y-94583333D01*
X99309523Y-94821428D01*
X99261904Y-95011904D01*
X99214285Y-95107142D01*
X99166666Y-95154761D01*
X99071428Y-95202380D01*
X98976190Y-95202380D01*
X98880952Y-95154761D01*
X98833333Y-95107142D01*
X98785714Y-95011904D01*
X98738095Y-94821428D01*
X98738095Y-94583333D01*
X98785714Y-94392857D01*
X98833333Y-94297619D01*
X98880952Y-94250000D01*
X98976190Y-94202380D01*
X100261904Y-95202380D02*
X99690476Y-95202380D01*
X99976190Y-95202380D02*
X99976190Y-94202380D01*
X99880952Y-94345238D01*
X99785714Y-94440476D01*
X99690476Y-94488095D01*
X53285714Y-100702380D02*
X53857142Y-100702380D01*
X53571428Y-101702380D02*
X53571428Y-100702380D01*
X54190476Y-101702380D02*
X54190476Y-100702380D01*
X54571428Y-100702380D01*
X54666666Y-100750000D01*
X54714285Y-100797619D01*
X54761904Y-100892857D01*
X54761904Y-101035714D01*
X54714285Y-101130952D01*
X54666666Y-101178571D01*
X54571428Y-101226190D01*
X54190476Y-101226190D01*
X55333333Y-101130952D02*
X55238095Y-101083333D01*
X55190476Y-101035714D01*
X55142857Y-100940476D01*
X55142857Y-100892857D01*
X55190476Y-100797619D01*
X55238095Y-100750000D01*
X55333333Y-100702380D01*
X55523809Y-100702380D01*
X55619047Y-100750000D01*
X55666666Y-100797619D01*
X55714285Y-100892857D01*
X55714285Y-100940476D01*
X55666666Y-101035714D01*
X55619047Y-101083333D01*
X55523809Y-101130952D01*
X55333333Y-101130952D01*
X55238095Y-101178571D01*
X55190476Y-101226190D01*
X55142857Y-101321428D01*
X55142857Y-101511904D01*
X55190476Y-101607142D01*
X55238095Y-101654761D01*
X55333333Y-101702380D01*
X55523809Y-101702380D01*
X55619047Y-101654761D01*
X55666666Y-101607142D01*
X55714285Y-101511904D01*
X55714285Y-101321428D01*
X55666666Y-101226190D01*
X55619047Y-101178571D01*
X55523809Y-101130952D01*
X56333333Y-100702380D02*
X56428571Y-100702380D01*
X56523809Y-100750000D01*
X56571428Y-100797619D01*
X56619047Y-100892857D01*
X56666666Y-101083333D01*
X56666666Y-101321428D01*
X56619047Y-101511904D01*
X56571428Y-101607142D01*
X56523809Y-101654761D01*
X56428571Y-101702380D01*
X56333333Y-101702380D01*
X56238095Y-101654761D01*
X56190476Y-101607142D01*
X56142857Y-101511904D01*
X56095238Y-101321428D01*
X56095238Y-101083333D01*
X56142857Y-100892857D01*
X56190476Y-100797619D01*
X56238095Y-100750000D01*
X56333333Y-100702380D01*
X57047619Y-100797619D02*
X57095238Y-100750000D01*
X57190476Y-100702380D01*
X57428571Y-100702380D01*
X57523809Y-100750000D01*
X57571428Y-100797619D01*
X57619047Y-100892857D01*
X57619047Y-100988095D01*
X57571428Y-101130952D01*
X57000000Y-101702380D01*
X57619047Y-101702380D01*
X42285714Y-108452380D02*
X42857142Y-108452380D01*
X42571428Y-109452380D02*
X42571428Y-108452380D01*
X43190476Y-109452380D02*
X43190476Y-108452380D01*
X43571428Y-108452380D01*
X43666666Y-108500000D01*
X43714285Y-108547619D01*
X43761904Y-108642857D01*
X43761904Y-108785714D01*
X43714285Y-108880952D01*
X43666666Y-108928571D01*
X43571428Y-108976190D01*
X43190476Y-108976190D01*
X44333333Y-108880952D02*
X44238095Y-108833333D01*
X44190476Y-108785714D01*
X44142857Y-108690476D01*
X44142857Y-108642857D01*
X44190476Y-108547619D01*
X44238095Y-108500000D01*
X44333333Y-108452380D01*
X44523809Y-108452380D01*
X44619047Y-108500000D01*
X44666666Y-108547619D01*
X44714285Y-108642857D01*
X44714285Y-108690476D01*
X44666666Y-108785714D01*
X44619047Y-108833333D01*
X44523809Y-108880952D01*
X44333333Y-108880952D01*
X44238095Y-108928571D01*
X44190476Y-108976190D01*
X44142857Y-109071428D01*
X44142857Y-109261904D01*
X44190476Y-109357142D01*
X44238095Y-109404761D01*
X44333333Y-109452380D01*
X44523809Y-109452380D01*
X44619047Y-109404761D01*
X44666666Y-109357142D01*
X44714285Y-109261904D01*
X44714285Y-109071428D01*
X44666666Y-108976190D01*
X44619047Y-108928571D01*
X44523809Y-108880952D01*
X45333333Y-108452380D02*
X45428571Y-108452380D01*
X45523809Y-108500000D01*
X45571428Y-108547619D01*
X45619047Y-108642857D01*
X45666666Y-108833333D01*
X45666666Y-109071428D01*
X45619047Y-109261904D01*
X45571428Y-109357142D01*
X45523809Y-109404761D01*
X45428571Y-109452380D01*
X45333333Y-109452380D01*
X45238095Y-109404761D01*
X45190476Y-109357142D01*
X45142857Y-109261904D01*
X45095238Y-109071428D01*
X45095238Y-108833333D01*
X45142857Y-108642857D01*
X45190476Y-108547619D01*
X45238095Y-108500000D01*
X45333333Y-108452380D01*
X46619047Y-109452380D02*
X46047619Y-109452380D01*
X46333333Y-109452380D02*
X46333333Y-108452380D01*
X46238095Y-108595238D01*
X46142857Y-108690476D01*
X46047619Y-108738095D01*
X103785714Y-65804380D02*
X104357142Y-65804380D01*
X104071428Y-66804380D02*
X104071428Y-65804380D01*
X104690476Y-66804380D02*
X104690476Y-65804380D01*
X105071428Y-65804380D01*
X105166666Y-65852000D01*
X105214285Y-65899619D01*
X105261904Y-65994857D01*
X105261904Y-66137714D01*
X105214285Y-66232952D01*
X105166666Y-66280571D01*
X105071428Y-66328190D01*
X104690476Y-66328190D01*
X106166666Y-65804380D02*
X105690476Y-65804380D01*
X105642857Y-66280571D01*
X105690476Y-66232952D01*
X105785714Y-66185333D01*
X106023809Y-66185333D01*
X106119047Y-66232952D01*
X106166666Y-66280571D01*
X106214285Y-66375809D01*
X106214285Y-66613904D01*
X106166666Y-66709142D01*
X106119047Y-66756761D01*
X106023809Y-66804380D01*
X105785714Y-66804380D01*
X105690476Y-66756761D01*
X105642857Y-66709142D01*
X106833333Y-65804380D02*
X106928571Y-65804380D01*
X107023809Y-65852000D01*
X107071428Y-65899619D01*
X107119047Y-65994857D01*
X107166666Y-66185333D01*
X107166666Y-66423428D01*
X107119047Y-66613904D01*
X107071428Y-66709142D01*
X107023809Y-66756761D01*
X106928571Y-66804380D01*
X106833333Y-66804380D01*
X106738095Y-66756761D01*
X106690476Y-66709142D01*
X106642857Y-66613904D01*
X106595238Y-66423428D01*
X106595238Y-66185333D01*
X106642857Y-65994857D01*
X106690476Y-65899619D01*
X106738095Y-65852000D01*
X106833333Y-65804380D01*
X107500000Y-65804380D02*
X108119047Y-65804380D01*
X107785714Y-66185333D01*
X107928571Y-66185333D01*
X108023809Y-66232952D01*
X108071428Y-66280571D01*
X108119047Y-66375809D01*
X108119047Y-66613904D01*
X108071428Y-66709142D01*
X108023809Y-66756761D01*
X107928571Y-66804380D01*
X107642857Y-66804380D01*
X107547619Y-66756761D01*
X107500000Y-66709142D01*
X82535714Y-72702380D02*
X83107142Y-72702380D01*
X82821428Y-73702380D02*
X82821428Y-72702380D01*
X83440476Y-73702380D02*
X83440476Y-72702380D01*
X83821428Y-72702380D01*
X83916666Y-72750000D01*
X83964285Y-72797619D01*
X84011904Y-72892857D01*
X84011904Y-73035714D01*
X83964285Y-73130952D01*
X83916666Y-73178571D01*
X83821428Y-73226190D01*
X83440476Y-73226190D01*
X84916666Y-72702380D02*
X84440476Y-72702380D01*
X84392857Y-73178571D01*
X84440476Y-73130952D01*
X84535714Y-73083333D01*
X84773809Y-73083333D01*
X84869047Y-73130952D01*
X84916666Y-73178571D01*
X84964285Y-73273809D01*
X84964285Y-73511904D01*
X84916666Y-73607142D01*
X84869047Y-73654761D01*
X84773809Y-73702380D01*
X84535714Y-73702380D01*
X84440476Y-73654761D01*
X84392857Y-73607142D01*
X85583333Y-72702380D02*
X85678571Y-72702380D01*
X85773809Y-72750000D01*
X85821428Y-72797619D01*
X85869047Y-72892857D01*
X85916666Y-73083333D01*
X85916666Y-73321428D01*
X85869047Y-73511904D01*
X85821428Y-73607142D01*
X85773809Y-73654761D01*
X85678571Y-73702380D01*
X85583333Y-73702380D01*
X85488095Y-73654761D01*
X85440476Y-73607142D01*
X85392857Y-73511904D01*
X85345238Y-73321428D01*
X85345238Y-73083333D01*
X85392857Y-72892857D01*
X85440476Y-72797619D01*
X85488095Y-72750000D01*
X85583333Y-72702380D01*
X86297619Y-72797619D02*
X86345238Y-72750000D01*
X86440476Y-72702380D01*
X86678571Y-72702380D01*
X86773809Y-72750000D01*
X86821428Y-72797619D01*
X86869047Y-72892857D01*
X86869047Y-72988095D01*
X86821428Y-73130952D01*
X86250000Y-73702380D01*
X86869047Y-73702380D01*
X65785714Y-72452380D02*
X66357142Y-72452380D01*
X66071428Y-73452380D02*
X66071428Y-72452380D01*
X66690476Y-73452380D02*
X66690476Y-72452380D01*
X67071428Y-72452380D01*
X67166666Y-72500000D01*
X67214285Y-72547619D01*
X67261904Y-72642857D01*
X67261904Y-72785714D01*
X67214285Y-72880952D01*
X67166666Y-72928571D01*
X67071428Y-72976190D01*
X66690476Y-72976190D01*
X68166666Y-72452380D02*
X67690476Y-72452380D01*
X67642857Y-72928571D01*
X67690476Y-72880952D01*
X67785714Y-72833333D01*
X68023809Y-72833333D01*
X68119047Y-72880952D01*
X68166666Y-72928571D01*
X68214285Y-73023809D01*
X68214285Y-73261904D01*
X68166666Y-73357142D01*
X68119047Y-73404761D01*
X68023809Y-73452380D01*
X67785714Y-73452380D01*
X67690476Y-73404761D01*
X67642857Y-73357142D01*
X68833333Y-72452380D02*
X68928571Y-72452380D01*
X69023809Y-72500000D01*
X69071428Y-72547619D01*
X69119047Y-72642857D01*
X69166666Y-72833333D01*
X69166666Y-73071428D01*
X69119047Y-73261904D01*
X69071428Y-73357142D01*
X69023809Y-73404761D01*
X68928571Y-73452380D01*
X68833333Y-73452380D01*
X68738095Y-73404761D01*
X68690476Y-73357142D01*
X68642857Y-73261904D01*
X68595238Y-73071428D01*
X68595238Y-72833333D01*
X68642857Y-72642857D01*
X68690476Y-72547619D01*
X68738095Y-72500000D01*
X68833333Y-72452380D01*
X70119047Y-73452380D02*
X69547619Y-73452380D01*
X69833333Y-73452380D02*
X69833333Y-72452380D01*
X69738095Y-72595238D01*
X69642857Y-72690476D01*
X69547619Y-72738095D01*
X34785714Y-104452380D02*
X35357142Y-104452380D01*
X35071428Y-105452380D02*
X35071428Y-104452380D01*
X35690476Y-105452380D02*
X35690476Y-104452380D01*
X36071428Y-104452380D01*
X36166666Y-104500000D01*
X36214285Y-104547619D01*
X36261904Y-104642857D01*
X36261904Y-104785714D01*
X36214285Y-104880952D01*
X36166666Y-104928571D01*
X36071428Y-104976190D01*
X35690476Y-104976190D01*
X37119047Y-104785714D02*
X37119047Y-105452380D01*
X36880952Y-104404761D02*
X36642857Y-105119047D01*
X37261904Y-105119047D01*
X37833333Y-104452380D02*
X37928571Y-104452380D01*
X38023809Y-104500000D01*
X38071428Y-104547619D01*
X38119047Y-104642857D01*
X38166666Y-104833333D01*
X38166666Y-105071428D01*
X38119047Y-105261904D01*
X38071428Y-105357142D01*
X38023809Y-105404761D01*
X37928571Y-105452380D01*
X37833333Y-105452380D01*
X37738095Y-105404761D01*
X37690476Y-105357142D01*
X37642857Y-105261904D01*
X37595238Y-105071428D01*
X37595238Y-104833333D01*
X37642857Y-104642857D01*
X37690476Y-104547619D01*
X37738095Y-104500000D01*
X37833333Y-104452380D01*
X38547619Y-104547619D02*
X38595238Y-104500000D01*
X38690476Y-104452380D01*
X38928571Y-104452380D01*
X39023809Y-104500000D01*
X39071428Y-104547619D01*
X39119047Y-104642857D01*
X39119047Y-104738095D01*
X39071428Y-104880952D01*
X38500000Y-105452380D01*
X39119047Y-105452380D01*
X27785714Y-49952380D02*
X28357142Y-49952380D01*
X28071428Y-50952380D02*
X28071428Y-49952380D01*
X28690476Y-50952380D02*
X28690476Y-49952380D01*
X29071428Y-49952380D01*
X29166666Y-50000000D01*
X29214285Y-50047619D01*
X29261904Y-50142857D01*
X29261904Y-50285714D01*
X29214285Y-50380952D01*
X29166666Y-50428571D01*
X29071428Y-50476190D01*
X28690476Y-50476190D01*
X30119047Y-50285714D02*
X30119047Y-50952380D01*
X29880952Y-49904761D02*
X29642857Y-50619047D01*
X30261904Y-50619047D01*
X30833333Y-49952380D02*
X30928571Y-49952380D01*
X31023809Y-50000000D01*
X31071428Y-50047619D01*
X31119047Y-50142857D01*
X31166666Y-50333333D01*
X31166666Y-50571428D01*
X31119047Y-50761904D01*
X31071428Y-50857142D01*
X31023809Y-50904761D01*
X30928571Y-50952380D01*
X30833333Y-50952380D01*
X30738095Y-50904761D01*
X30690476Y-50857142D01*
X30642857Y-50761904D01*
X30595238Y-50571428D01*
X30595238Y-50333333D01*
X30642857Y-50142857D01*
X30690476Y-50047619D01*
X30738095Y-50000000D01*
X30833333Y-49952380D01*
X32119047Y-50952380D02*
X31547619Y-50952380D01*
X31833333Y-50952380D02*
X31833333Y-49952380D01*
X31738095Y-50095238D01*
X31642857Y-50190476D01*
X31547619Y-50238095D01*
X59035714Y-107202380D02*
X59607142Y-107202380D01*
X59321428Y-108202380D02*
X59321428Y-107202380D01*
X59940476Y-108202380D02*
X59940476Y-107202380D01*
X60321428Y-107202380D01*
X60416666Y-107250000D01*
X60464285Y-107297619D01*
X60511904Y-107392857D01*
X60511904Y-107535714D01*
X60464285Y-107630952D01*
X60416666Y-107678571D01*
X60321428Y-107726190D01*
X59940476Y-107726190D01*
X60845238Y-107202380D02*
X61464285Y-107202380D01*
X61130952Y-107583333D01*
X61273809Y-107583333D01*
X61369047Y-107630952D01*
X61416666Y-107678571D01*
X61464285Y-107773809D01*
X61464285Y-108011904D01*
X61416666Y-108107142D01*
X61369047Y-108154761D01*
X61273809Y-108202380D01*
X60988095Y-108202380D01*
X60892857Y-108154761D01*
X60845238Y-108107142D01*
X62083333Y-107202380D02*
X62178571Y-107202380D01*
X62273809Y-107250000D01*
X62321428Y-107297619D01*
X62369047Y-107392857D01*
X62416666Y-107583333D01*
X62416666Y-107821428D01*
X62369047Y-108011904D01*
X62321428Y-108107142D01*
X62273809Y-108154761D01*
X62178571Y-108202380D01*
X62083333Y-108202380D01*
X61988095Y-108154761D01*
X61940476Y-108107142D01*
X61892857Y-108011904D01*
X61845238Y-107821428D01*
X61845238Y-107583333D01*
X61892857Y-107392857D01*
X61940476Y-107297619D01*
X61988095Y-107250000D01*
X62083333Y-107202380D01*
X63369047Y-108202380D02*
X62797619Y-108202380D01*
X63083333Y-108202380D02*
X63083333Y-107202380D01*
X62988095Y-107345238D01*
X62892857Y-107440476D01*
X62797619Y-107488095D01*
X83785714Y-96952380D02*
X84357142Y-96952380D01*
X84071428Y-97952380D02*
X84071428Y-96952380D01*
X84690476Y-97952380D02*
X84690476Y-96952380D01*
X85071428Y-96952380D01*
X85166666Y-97000000D01*
X85214285Y-97047619D01*
X85261904Y-97142857D01*
X85261904Y-97285714D01*
X85214285Y-97380952D01*
X85166666Y-97428571D01*
X85071428Y-97476190D01*
X84690476Y-97476190D01*
X85642857Y-97047619D02*
X85690476Y-97000000D01*
X85785714Y-96952380D01*
X86023809Y-96952380D01*
X86119047Y-97000000D01*
X86166666Y-97047619D01*
X86214285Y-97142857D01*
X86214285Y-97238095D01*
X86166666Y-97380952D01*
X85595238Y-97952380D01*
X86214285Y-97952380D01*
X86833333Y-96952380D02*
X86928571Y-96952380D01*
X87023809Y-97000000D01*
X87071428Y-97047619D01*
X87119047Y-97142857D01*
X87166666Y-97333333D01*
X87166666Y-97571428D01*
X87119047Y-97761904D01*
X87071428Y-97857142D01*
X87023809Y-97904761D01*
X86928571Y-97952380D01*
X86833333Y-97952380D01*
X86738095Y-97904761D01*
X86690476Y-97857142D01*
X86642857Y-97761904D01*
X86595238Y-97571428D01*
X86595238Y-97333333D01*
X86642857Y-97142857D01*
X86690476Y-97047619D01*
X86738095Y-97000000D01*
X86833333Y-96952380D01*
X87547619Y-97047619D02*
X87595238Y-97000000D01*
X87690476Y-96952380D01*
X87928571Y-96952380D01*
X88023809Y-97000000D01*
X88071428Y-97047619D01*
X88119047Y-97142857D01*
X88119047Y-97238095D01*
X88071428Y-97380952D01*
X87500000Y-97952380D01*
X88119047Y-97952380D01*
X87785714Y-105100380D02*
X88357142Y-105100380D01*
X88071428Y-106100380D02*
X88071428Y-105100380D01*
X88690476Y-106100380D02*
X88690476Y-105100380D01*
X89071428Y-105100380D01*
X89166666Y-105148000D01*
X89214285Y-105195619D01*
X89261904Y-105290857D01*
X89261904Y-105433714D01*
X89214285Y-105528952D01*
X89166666Y-105576571D01*
X89071428Y-105624190D01*
X88690476Y-105624190D01*
X89642857Y-105195619D02*
X89690476Y-105148000D01*
X89785714Y-105100380D01*
X90023809Y-105100380D01*
X90119047Y-105148000D01*
X90166666Y-105195619D01*
X90214285Y-105290857D01*
X90214285Y-105386095D01*
X90166666Y-105528952D01*
X89595238Y-106100380D01*
X90214285Y-106100380D01*
X90833333Y-105100380D02*
X90928571Y-105100380D01*
X91023809Y-105148000D01*
X91071428Y-105195619D01*
X91119047Y-105290857D01*
X91166666Y-105481333D01*
X91166666Y-105719428D01*
X91119047Y-105909904D01*
X91071428Y-106005142D01*
X91023809Y-106052761D01*
X90928571Y-106100380D01*
X90833333Y-106100380D01*
X90738095Y-106052761D01*
X90690476Y-106005142D01*
X90642857Y-105909904D01*
X90595238Y-105719428D01*
X90595238Y-105481333D01*
X90642857Y-105290857D01*
X90690476Y-105195619D01*
X90738095Y-105148000D01*
X90833333Y-105100380D01*
X92119047Y-106100380D02*
X91547619Y-106100380D01*
X91833333Y-106100380D02*
X91833333Y-105100380D01*
X91738095Y-105243238D01*
X91642857Y-105338476D01*
X91547619Y-105386095D01*
X98452380Y-93119047D02*
X97976190Y-93452380D01*
X98452380Y-93690476D02*
X97452380Y-93690476D01*
X97452380Y-93309523D01*
X97500000Y-93214285D01*
X97547619Y-93166666D01*
X97642857Y-93119047D01*
X97785714Y-93119047D01*
X97880952Y-93166666D01*
X97928571Y-93214285D01*
X97976190Y-93309523D01*
X97976190Y-93690476D01*
X97452380Y-92785714D02*
X97452380Y-92119047D01*
X98452380Y-92547619D01*
X98452380Y-91214285D02*
X98452380Y-91785714D01*
X98452380Y-91500000D02*
X97452380Y-91500000D01*
X97595238Y-91595238D01*
X97690476Y-91690476D01*
X97738095Y-91785714D01*
X97452380Y-90880952D02*
X97452380Y-90214285D01*
X98452380Y-90642857D01*
X70802380Y-83094047D02*
X70326190Y-83427380D01*
X70802380Y-83665476D02*
X69802380Y-83665476D01*
X69802380Y-83284523D01*
X69850000Y-83189285D01*
X69897619Y-83141666D01*
X69992857Y-83094047D01*
X70135714Y-83094047D01*
X70230952Y-83141666D01*
X70278571Y-83189285D01*
X70326190Y-83284523D01*
X70326190Y-83665476D01*
X69802380Y-82760714D02*
X69802380Y-82094047D01*
X70802380Y-82522619D01*
X70802380Y-81189285D02*
X70802380Y-81760714D01*
X70802380Y-81475000D02*
X69802380Y-81475000D01*
X69945238Y-81570238D01*
X70040476Y-81665476D01*
X70088095Y-81760714D01*
X69802380Y-80332142D02*
X69802380Y-80522619D01*
X69850000Y-80617857D01*
X69897619Y-80665476D01*
X70040476Y-80760714D01*
X70230952Y-80808333D01*
X70611904Y-80808333D01*
X70707142Y-80760714D01*
X70754761Y-80713095D01*
X70802380Y-80617857D01*
X70802380Y-80427380D01*
X70754761Y-80332142D01*
X70707142Y-80284523D01*
X70611904Y-80236904D01*
X70373809Y-80236904D01*
X70278571Y-80284523D01*
X70230952Y-80332142D01*
X70183333Y-80427380D01*
X70183333Y-80617857D01*
X70230952Y-80713095D01*
X70278571Y-80760714D01*
X70373809Y-80808333D01*
X82452380Y-93119047D02*
X81976190Y-93452380D01*
X82452380Y-93690476D02*
X81452380Y-93690476D01*
X81452380Y-93309523D01*
X81500000Y-93214285D01*
X81547619Y-93166666D01*
X81642857Y-93119047D01*
X81785714Y-93119047D01*
X81880952Y-93166666D01*
X81928571Y-93214285D01*
X81976190Y-93309523D01*
X81976190Y-93690476D01*
X81452380Y-92785714D02*
X81452380Y-92119047D01*
X82452380Y-92547619D01*
X82452380Y-91214285D02*
X82452380Y-91785714D01*
X82452380Y-91500000D02*
X81452380Y-91500000D01*
X81595238Y-91595238D01*
X81690476Y-91690476D01*
X81738095Y-91785714D01*
X81452380Y-90309523D02*
X81452380Y-90785714D01*
X81928571Y-90833333D01*
X81880952Y-90785714D01*
X81833333Y-90690476D01*
X81833333Y-90452380D01*
X81880952Y-90357142D01*
X81928571Y-90309523D01*
X82023809Y-90261904D01*
X82261904Y-90261904D01*
X82357142Y-90309523D01*
X82404761Y-90357142D01*
X82452380Y-90452380D01*
X82452380Y-90690476D01*
X82404761Y-90785714D01*
X82357142Y-90833333D01*
X94452380Y-83119047D02*
X93976190Y-83452380D01*
X94452380Y-83690476D02*
X93452380Y-83690476D01*
X93452380Y-83309523D01*
X93500000Y-83214285D01*
X93547619Y-83166666D01*
X93642857Y-83119047D01*
X93785714Y-83119047D01*
X93880952Y-83166666D01*
X93928571Y-83214285D01*
X93976190Y-83309523D01*
X93976190Y-83690476D01*
X93452380Y-82785714D02*
X93452380Y-82119047D01*
X94452380Y-82547619D01*
X94452380Y-81214285D02*
X94452380Y-81785714D01*
X94452380Y-81500000D02*
X93452380Y-81500000D01*
X93595238Y-81595238D01*
X93690476Y-81690476D01*
X93738095Y-81785714D01*
X93785714Y-80357142D02*
X94452380Y-80357142D01*
X93404761Y-80595238D02*
X94119047Y-80833333D01*
X94119047Y-80214285D01*
X77452380Y-91119047D02*
X76976190Y-91452380D01*
X77452380Y-91690476D02*
X76452380Y-91690476D01*
X76452380Y-91309523D01*
X76500000Y-91214285D01*
X76547619Y-91166666D01*
X76642857Y-91119047D01*
X76785714Y-91119047D01*
X76880952Y-91166666D01*
X76928571Y-91214285D01*
X76976190Y-91309523D01*
X76976190Y-91690476D01*
X76452380Y-90785714D02*
X76452380Y-90119047D01*
X77452380Y-90547619D01*
X77452380Y-89214285D02*
X77452380Y-89785714D01*
X77452380Y-89500000D02*
X76452380Y-89500000D01*
X76595238Y-89595238D01*
X76690476Y-89690476D01*
X76738095Y-89785714D01*
X76452380Y-88880952D02*
X76452380Y-88261904D01*
X76833333Y-88595238D01*
X76833333Y-88452380D01*
X76880952Y-88357142D01*
X76928571Y-88309523D01*
X77023809Y-88261904D01*
X77261904Y-88261904D01*
X77357142Y-88309523D01*
X77404761Y-88357142D01*
X77452380Y-88452380D01*
X77452380Y-88738095D01*
X77404761Y-88833333D01*
X77357142Y-88880952D01*
X86952380Y-93119047D02*
X86476190Y-93452380D01*
X86952380Y-93690476D02*
X85952380Y-93690476D01*
X85952380Y-93309523D01*
X86000000Y-93214285D01*
X86047619Y-93166666D01*
X86142857Y-93119047D01*
X86285714Y-93119047D01*
X86380952Y-93166666D01*
X86428571Y-93214285D01*
X86476190Y-93309523D01*
X86476190Y-93690476D01*
X85952380Y-92785714D02*
X85952380Y-92119047D01*
X86952380Y-92547619D01*
X86952380Y-91214285D02*
X86952380Y-91785714D01*
X86952380Y-91500000D02*
X85952380Y-91500000D01*
X86095238Y-91595238D01*
X86190476Y-91690476D01*
X86238095Y-91785714D01*
X86047619Y-90833333D02*
X86000000Y-90785714D01*
X85952380Y-90690476D01*
X85952380Y-90452380D01*
X86000000Y-90357142D01*
X86047619Y-90309523D01*
X86142857Y-90261904D01*
X86238095Y-90261904D01*
X86380952Y-90309523D01*
X86952380Y-90880952D01*
X86952380Y-90261904D01*
X99452380Y-83119047D02*
X98976190Y-83452380D01*
X99452380Y-83690476D02*
X98452380Y-83690476D01*
X98452380Y-83309523D01*
X98500000Y-83214285D01*
X98547619Y-83166666D01*
X98642857Y-83119047D01*
X98785714Y-83119047D01*
X98880952Y-83166666D01*
X98928571Y-83214285D01*
X98976190Y-83309523D01*
X98976190Y-83690476D01*
X98452380Y-82785714D02*
X98452380Y-82119047D01*
X99452380Y-82547619D01*
X99452380Y-81214285D02*
X99452380Y-81785714D01*
X99452380Y-81500000D02*
X98452380Y-81500000D01*
X98595238Y-81595238D01*
X98690476Y-81690476D01*
X98738095Y-81785714D01*
X99452380Y-80261904D02*
X99452380Y-80833333D01*
X99452380Y-80547619D02*
X98452380Y-80547619D01*
X98595238Y-80642857D01*
X98690476Y-80738095D01*
X98738095Y-80833333D01*
X77452380Y-79369047D02*
X76976190Y-79702380D01*
X77452380Y-79940476D02*
X76452380Y-79940476D01*
X76452380Y-79559523D01*
X76500000Y-79464285D01*
X76547619Y-79416666D01*
X76642857Y-79369047D01*
X76785714Y-79369047D01*
X76880952Y-79416666D01*
X76928571Y-79464285D01*
X76976190Y-79559523D01*
X76976190Y-79940476D01*
X76452380Y-79035714D02*
X76452380Y-78369047D01*
X77452380Y-78797619D01*
X77452380Y-77464285D02*
X77452380Y-78035714D01*
X77452380Y-77750000D02*
X76452380Y-77750000D01*
X76595238Y-77845238D01*
X76690476Y-77940476D01*
X76738095Y-78035714D01*
X76452380Y-76845238D02*
X76452380Y-76750000D01*
X76500000Y-76654761D01*
X76547619Y-76607142D01*
X76642857Y-76559523D01*
X76833333Y-76511904D01*
X77071428Y-76511904D01*
X77261904Y-76559523D01*
X77357142Y-76607142D01*
X77404761Y-76654761D01*
X77452380Y-76750000D01*
X77452380Y-76845238D01*
X77404761Y-76940476D01*
X77357142Y-76988095D01*
X77261904Y-77035714D01*
X77071428Y-77083333D01*
X76833333Y-77083333D01*
X76642857Y-77035714D01*
X76547619Y-76988095D01*
X76500000Y-76940476D01*
X76452380Y-76845238D01*
X89880952Y-84452380D02*
X89547619Y-83976190D01*
X89309523Y-84452380D02*
X89309523Y-83452380D01*
X89690476Y-83452380D01*
X89785714Y-83500000D01*
X89833333Y-83547619D01*
X89880952Y-83642857D01*
X89880952Y-83785714D01*
X89833333Y-83880952D01*
X89785714Y-83928571D01*
X89690476Y-83976190D01*
X89309523Y-83976190D01*
X90214285Y-83452380D02*
X90880952Y-83452380D01*
X90452380Y-84452380D01*
X91452380Y-83452380D02*
X91547619Y-83452380D01*
X91642857Y-83500000D01*
X91690476Y-83547619D01*
X91738095Y-83642857D01*
X91785714Y-83833333D01*
X91785714Y-84071428D01*
X91738095Y-84261904D01*
X91690476Y-84357142D01*
X91642857Y-84404761D01*
X91547619Y-84452380D01*
X91452380Y-84452380D01*
X91357142Y-84404761D01*
X91309523Y-84357142D01*
X91261904Y-84261904D01*
X91214285Y-84071428D01*
X91214285Y-83833333D01*
X91261904Y-83642857D01*
X91309523Y-83547619D01*
X91357142Y-83500000D01*
X91452380Y-83452380D01*
X92261904Y-84452380D02*
X92452380Y-84452380D01*
X92547619Y-84404761D01*
X92595238Y-84357142D01*
X92690476Y-84214285D01*
X92738095Y-84023809D01*
X92738095Y-83642857D01*
X92690476Y-83547619D01*
X92642857Y-83500000D01*
X92547619Y-83452380D01*
X92357142Y-83452380D01*
X92261904Y-83500000D01*
X92214285Y-83547619D01*
X92166666Y-83642857D01*
X92166666Y-83880952D01*
X92214285Y-83976190D01*
X92261904Y-84023809D01*
X92357142Y-84071428D01*
X92547619Y-84071428D01*
X92642857Y-84023809D01*
X92690476Y-83976190D01*
X92738095Y-83880952D01*
X77880952Y-59102380D02*
X77547619Y-58626190D01*
X77309523Y-59102380D02*
X77309523Y-58102380D01*
X77690476Y-58102380D01*
X77785714Y-58150000D01*
X77833333Y-58197619D01*
X77880952Y-58292857D01*
X77880952Y-58435714D01*
X77833333Y-58530952D01*
X77785714Y-58578571D01*
X77690476Y-58626190D01*
X77309523Y-58626190D01*
X78214285Y-58102380D02*
X78880952Y-58102380D01*
X78452380Y-59102380D01*
X79452380Y-58102380D02*
X79547619Y-58102380D01*
X79642857Y-58150000D01*
X79690476Y-58197619D01*
X79738095Y-58292857D01*
X79785714Y-58483333D01*
X79785714Y-58721428D01*
X79738095Y-58911904D01*
X79690476Y-59007142D01*
X79642857Y-59054761D01*
X79547619Y-59102380D01*
X79452380Y-59102380D01*
X79357142Y-59054761D01*
X79309523Y-59007142D01*
X79261904Y-58911904D01*
X79214285Y-58721428D01*
X79214285Y-58483333D01*
X79261904Y-58292857D01*
X79309523Y-58197619D01*
X79357142Y-58150000D01*
X79452380Y-58102380D01*
X80166666Y-58197619D02*
X80214285Y-58150000D01*
X80309523Y-58102380D01*
X80547619Y-58102380D01*
X80642857Y-58150000D01*
X80690476Y-58197619D01*
X80738095Y-58292857D01*
X80738095Y-58388095D01*
X80690476Y-58530952D01*
X80119047Y-59102380D01*
X80738095Y-59102380D01*
X69130952Y-51452380D02*
X68797619Y-50976190D01*
X68559523Y-51452380D02*
X68559523Y-50452380D01*
X68940476Y-50452380D01*
X69035714Y-50500000D01*
X69083333Y-50547619D01*
X69130952Y-50642857D01*
X69130952Y-50785714D01*
X69083333Y-50880952D01*
X69035714Y-50928571D01*
X68940476Y-50976190D01*
X68559523Y-50976190D01*
X69464285Y-50452380D02*
X70130952Y-50452380D01*
X69702380Y-51452380D01*
X70702380Y-50452380D02*
X70797619Y-50452380D01*
X70892857Y-50500000D01*
X70940476Y-50547619D01*
X70988095Y-50642857D01*
X71035714Y-50833333D01*
X71035714Y-51071428D01*
X70988095Y-51261904D01*
X70940476Y-51357142D01*
X70892857Y-51404761D01*
X70797619Y-51452380D01*
X70702380Y-51452380D01*
X70607142Y-51404761D01*
X70559523Y-51357142D01*
X70511904Y-51261904D01*
X70464285Y-51071428D01*
X70464285Y-50833333D01*
X70511904Y-50642857D01*
X70559523Y-50547619D01*
X70607142Y-50500000D01*
X70702380Y-50452380D01*
X71988095Y-51452380D02*
X71416666Y-51452380D01*
X71702380Y-51452380D02*
X71702380Y-50452380D01*
X71607142Y-50595238D01*
X71511904Y-50690476D01*
X71416666Y-50738095D01*
X32880952Y-99802380D02*
X32547619Y-99326190D01*
X32309523Y-99802380D02*
X32309523Y-98802380D01*
X32690476Y-98802380D01*
X32785714Y-98850000D01*
X32833333Y-98897619D01*
X32880952Y-98992857D01*
X32880952Y-99135714D01*
X32833333Y-99230952D01*
X32785714Y-99278571D01*
X32690476Y-99326190D01*
X32309523Y-99326190D01*
X33738095Y-99135714D02*
X33738095Y-99802380D01*
X33500000Y-98754761D02*
X33261904Y-99469047D01*
X33880952Y-99469047D01*
X34452380Y-98802380D02*
X34547619Y-98802380D01*
X34642857Y-98850000D01*
X34690476Y-98897619D01*
X34738095Y-98992857D01*
X34785714Y-99183333D01*
X34785714Y-99421428D01*
X34738095Y-99611904D01*
X34690476Y-99707142D01*
X34642857Y-99754761D01*
X34547619Y-99802380D01*
X34452380Y-99802380D01*
X34357142Y-99754761D01*
X34309523Y-99707142D01*
X34261904Y-99611904D01*
X34214285Y-99421428D01*
X34214285Y-99183333D01*
X34261904Y-98992857D01*
X34309523Y-98897619D01*
X34357142Y-98850000D01*
X34452380Y-98802380D01*
X35119047Y-98802380D02*
X35785714Y-98802380D01*
X35357142Y-99802380D01*
X38102380Y-51619047D02*
X37626190Y-51952380D01*
X38102380Y-52190476D02*
X37102380Y-52190476D01*
X37102380Y-51809523D01*
X37150000Y-51714285D01*
X37197619Y-51666666D01*
X37292857Y-51619047D01*
X37435714Y-51619047D01*
X37530952Y-51666666D01*
X37578571Y-51714285D01*
X37626190Y-51809523D01*
X37626190Y-52190476D01*
X37435714Y-50761904D02*
X38102380Y-50761904D01*
X37054761Y-51000000D02*
X37769047Y-51238095D01*
X37769047Y-50619047D01*
X37102380Y-50047619D02*
X37102380Y-49952380D01*
X37150000Y-49857142D01*
X37197619Y-49809523D01*
X37292857Y-49761904D01*
X37483333Y-49714285D01*
X37721428Y-49714285D01*
X37911904Y-49761904D01*
X38007142Y-49809523D01*
X38054761Y-49857142D01*
X38102380Y-49952380D01*
X38102380Y-50047619D01*
X38054761Y-50142857D01*
X38007142Y-50190476D01*
X37911904Y-50238095D01*
X37721428Y-50285714D01*
X37483333Y-50285714D01*
X37292857Y-50238095D01*
X37197619Y-50190476D01*
X37150000Y-50142857D01*
X37102380Y-50047619D01*
X37102380Y-48857142D02*
X37102380Y-49047619D01*
X37150000Y-49142857D01*
X37197619Y-49190476D01*
X37340476Y-49285714D01*
X37530952Y-49333333D01*
X37911904Y-49333333D01*
X38007142Y-49285714D01*
X38054761Y-49238095D01*
X38102380Y-49142857D01*
X38102380Y-48952380D01*
X38054761Y-48857142D01*
X38007142Y-48809523D01*
X37911904Y-48761904D01*
X37673809Y-48761904D01*
X37578571Y-48809523D01*
X37530952Y-48857142D01*
X37483333Y-48952380D01*
X37483333Y-49142857D01*
X37530952Y-49238095D01*
X37578571Y-49285714D01*
X37673809Y-49333333D01*
X30552380Y-82844047D02*
X30076190Y-83177380D01*
X30552380Y-83415476D02*
X29552380Y-83415476D01*
X29552380Y-83034523D01*
X29600000Y-82939285D01*
X29647619Y-82891666D01*
X29742857Y-82844047D01*
X29885714Y-82844047D01*
X29980952Y-82891666D01*
X30028571Y-82939285D01*
X30076190Y-83034523D01*
X30076190Y-83415476D01*
X29885714Y-81986904D02*
X30552380Y-81986904D01*
X29504761Y-82225000D02*
X30219047Y-82463095D01*
X30219047Y-81844047D01*
X29552380Y-81272619D02*
X29552380Y-81177380D01*
X29600000Y-81082142D01*
X29647619Y-81034523D01*
X29742857Y-80986904D01*
X29933333Y-80939285D01*
X30171428Y-80939285D01*
X30361904Y-80986904D01*
X30457142Y-81034523D01*
X30504761Y-81082142D01*
X30552380Y-81177380D01*
X30552380Y-81272619D01*
X30504761Y-81367857D01*
X30457142Y-81415476D01*
X30361904Y-81463095D01*
X30171428Y-81510714D01*
X29933333Y-81510714D01*
X29742857Y-81463095D01*
X29647619Y-81415476D01*
X29600000Y-81367857D01*
X29552380Y-81272619D01*
X29552380Y-80034523D02*
X29552380Y-80510714D01*
X30028571Y-80558333D01*
X29980952Y-80510714D01*
X29933333Y-80415476D01*
X29933333Y-80177380D01*
X29980952Y-80082142D01*
X30028571Y-80034523D01*
X30123809Y-79986904D01*
X30361904Y-79986904D01*
X30457142Y-80034523D01*
X30504761Y-80082142D01*
X30552380Y-80177380D01*
X30552380Y-80415476D01*
X30504761Y-80510714D01*
X30457142Y-80558333D01*
X42452380Y-86619047D02*
X41976190Y-86952380D01*
X42452380Y-87190476D02*
X41452380Y-87190476D01*
X41452380Y-86809523D01*
X41500000Y-86714285D01*
X41547619Y-86666666D01*
X41642857Y-86619047D01*
X41785714Y-86619047D01*
X41880952Y-86666666D01*
X41928571Y-86714285D01*
X41976190Y-86809523D01*
X41976190Y-87190476D01*
X41785714Y-85761904D02*
X42452380Y-85761904D01*
X41404761Y-86000000D02*
X42119047Y-86238095D01*
X42119047Y-85619047D01*
X41452380Y-85047619D02*
X41452380Y-84952380D01*
X41500000Y-84857142D01*
X41547619Y-84809523D01*
X41642857Y-84761904D01*
X41833333Y-84714285D01*
X42071428Y-84714285D01*
X42261904Y-84761904D01*
X42357142Y-84809523D01*
X42404761Y-84857142D01*
X42452380Y-84952380D01*
X42452380Y-85047619D01*
X42404761Y-85142857D01*
X42357142Y-85190476D01*
X42261904Y-85238095D01*
X42071428Y-85285714D01*
X41833333Y-85285714D01*
X41642857Y-85238095D01*
X41547619Y-85190476D01*
X41500000Y-85142857D01*
X41452380Y-85047619D01*
X41785714Y-83857142D02*
X42452380Y-83857142D01*
X41404761Y-84095238D02*
X42119047Y-84333333D01*
X42119047Y-83714285D01*
X33952380Y-70094047D02*
X33476190Y-70427380D01*
X33952380Y-70665476D02*
X32952380Y-70665476D01*
X32952380Y-70284523D01*
X33000000Y-70189285D01*
X33047619Y-70141666D01*
X33142857Y-70094047D01*
X33285714Y-70094047D01*
X33380952Y-70141666D01*
X33428571Y-70189285D01*
X33476190Y-70284523D01*
X33476190Y-70665476D01*
X33285714Y-69236904D02*
X33952380Y-69236904D01*
X32904761Y-69475000D02*
X33619047Y-69713095D01*
X33619047Y-69094047D01*
X32952380Y-68522619D02*
X32952380Y-68427380D01*
X33000000Y-68332142D01*
X33047619Y-68284523D01*
X33142857Y-68236904D01*
X33333333Y-68189285D01*
X33571428Y-68189285D01*
X33761904Y-68236904D01*
X33857142Y-68284523D01*
X33904761Y-68332142D01*
X33952380Y-68427380D01*
X33952380Y-68522619D01*
X33904761Y-68617857D01*
X33857142Y-68665476D01*
X33761904Y-68713095D01*
X33571428Y-68760714D01*
X33333333Y-68760714D01*
X33142857Y-68713095D01*
X33047619Y-68665476D01*
X33000000Y-68617857D01*
X32952380Y-68522619D01*
X32952380Y-67855952D02*
X32952380Y-67236904D01*
X33333333Y-67570238D01*
X33333333Y-67427380D01*
X33380952Y-67332142D01*
X33428571Y-67284523D01*
X33523809Y-67236904D01*
X33761904Y-67236904D01*
X33857142Y-67284523D01*
X33904761Y-67332142D01*
X33952380Y-67427380D01*
X33952380Y-67713095D01*
X33904761Y-67808333D01*
X33857142Y-67855952D01*
X33905952Y-80702380D02*
X33572619Y-80226190D01*
X33334523Y-80702380D02*
X33334523Y-79702380D01*
X33715476Y-79702380D01*
X33810714Y-79750000D01*
X33858333Y-79797619D01*
X33905952Y-79892857D01*
X33905952Y-80035714D01*
X33858333Y-80130952D01*
X33810714Y-80178571D01*
X33715476Y-80226190D01*
X33334523Y-80226190D01*
X34763095Y-80035714D02*
X34763095Y-80702380D01*
X34525000Y-79654761D02*
X34286904Y-80369047D01*
X34905952Y-80369047D01*
X35477380Y-79702380D02*
X35572619Y-79702380D01*
X35667857Y-79750000D01*
X35715476Y-79797619D01*
X35763095Y-79892857D01*
X35810714Y-80083333D01*
X35810714Y-80321428D01*
X35763095Y-80511904D01*
X35715476Y-80607142D01*
X35667857Y-80654761D01*
X35572619Y-80702380D01*
X35477380Y-80702380D01*
X35382142Y-80654761D01*
X35334523Y-80607142D01*
X35286904Y-80511904D01*
X35239285Y-80321428D01*
X35239285Y-80083333D01*
X35286904Y-79892857D01*
X35334523Y-79797619D01*
X35382142Y-79750000D01*
X35477380Y-79702380D01*
X36191666Y-79797619D02*
X36239285Y-79750000D01*
X36334523Y-79702380D01*
X36572619Y-79702380D01*
X36667857Y-79750000D01*
X36715476Y-79797619D01*
X36763095Y-79892857D01*
X36763095Y-79988095D01*
X36715476Y-80130952D01*
X36144047Y-80702380D01*
X36763095Y-80702380D01*
X40852380Y-82844047D02*
X40376190Y-83177380D01*
X40852380Y-83415476D02*
X39852380Y-83415476D01*
X39852380Y-83034523D01*
X39900000Y-82939285D01*
X39947619Y-82891666D01*
X40042857Y-82844047D01*
X40185714Y-82844047D01*
X40280952Y-82891666D01*
X40328571Y-82939285D01*
X40376190Y-83034523D01*
X40376190Y-83415476D01*
X40185714Y-81986904D02*
X40852380Y-81986904D01*
X39804761Y-82225000D02*
X40519047Y-82463095D01*
X40519047Y-81844047D01*
X39852380Y-81272619D02*
X39852380Y-81177380D01*
X39900000Y-81082142D01*
X39947619Y-81034523D01*
X40042857Y-80986904D01*
X40233333Y-80939285D01*
X40471428Y-80939285D01*
X40661904Y-80986904D01*
X40757142Y-81034523D01*
X40804761Y-81082142D01*
X40852380Y-81177380D01*
X40852380Y-81272619D01*
X40804761Y-81367857D01*
X40757142Y-81415476D01*
X40661904Y-81463095D01*
X40471428Y-81510714D01*
X40233333Y-81510714D01*
X40042857Y-81463095D01*
X39947619Y-81415476D01*
X39900000Y-81367857D01*
X39852380Y-81272619D01*
X40852380Y-79986904D02*
X40852380Y-80558333D01*
X40852380Y-80272619D02*
X39852380Y-80272619D01*
X39995238Y-80367857D01*
X40090476Y-80463095D01*
X40138095Y-80558333D01*
X47202380Y-104119047D02*
X46726190Y-104452380D01*
X47202380Y-104690476D02*
X46202380Y-104690476D01*
X46202380Y-104309523D01*
X46250000Y-104214285D01*
X46297619Y-104166666D01*
X46392857Y-104119047D01*
X46535714Y-104119047D01*
X46630952Y-104166666D01*
X46678571Y-104214285D01*
X46726190Y-104309523D01*
X46726190Y-104690476D01*
X46202380Y-103785714D02*
X46202380Y-103166666D01*
X46583333Y-103500000D01*
X46583333Y-103357142D01*
X46630952Y-103261904D01*
X46678571Y-103214285D01*
X46773809Y-103166666D01*
X47011904Y-103166666D01*
X47107142Y-103214285D01*
X47154761Y-103261904D01*
X47202380Y-103357142D01*
X47202380Y-103642857D01*
X47154761Y-103738095D01*
X47107142Y-103785714D01*
X46202380Y-102547619D02*
X46202380Y-102452380D01*
X46250000Y-102357142D01*
X46297619Y-102309523D01*
X46392857Y-102261904D01*
X46583333Y-102214285D01*
X46821428Y-102214285D01*
X47011904Y-102261904D01*
X47107142Y-102309523D01*
X47154761Y-102357142D01*
X47202380Y-102452380D01*
X47202380Y-102547619D01*
X47154761Y-102642857D01*
X47107142Y-102690476D01*
X47011904Y-102738095D01*
X46821428Y-102785714D01*
X46583333Y-102785714D01*
X46392857Y-102738095D01*
X46297619Y-102690476D01*
X46250000Y-102642857D01*
X46202380Y-102547619D01*
X46202380Y-101357142D02*
X46202380Y-101547619D01*
X46250000Y-101642857D01*
X46297619Y-101690476D01*
X46440476Y-101785714D01*
X46630952Y-101833333D01*
X47011904Y-101833333D01*
X47107142Y-101785714D01*
X47154761Y-101738095D01*
X47202380Y-101642857D01*
X47202380Y-101452380D01*
X47154761Y-101357142D01*
X47107142Y-101309523D01*
X47011904Y-101261904D01*
X46773809Y-101261904D01*
X46678571Y-101309523D01*
X46630952Y-101357142D01*
X46583333Y-101452380D01*
X46583333Y-101642857D01*
X46630952Y-101738095D01*
X46678571Y-101785714D01*
X46773809Y-101833333D01*
X42880952Y-107452380D02*
X42547619Y-106976190D01*
X42309523Y-107452380D02*
X42309523Y-106452380D01*
X42690476Y-106452380D01*
X42785714Y-106500000D01*
X42833333Y-106547619D01*
X42880952Y-106642857D01*
X42880952Y-106785714D01*
X42833333Y-106880952D01*
X42785714Y-106928571D01*
X42690476Y-106976190D01*
X42309523Y-106976190D01*
X43214285Y-106452380D02*
X43833333Y-106452380D01*
X43500000Y-106833333D01*
X43642857Y-106833333D01*
X43738095Y-106880952D01*
X43785714Y-106928571D01*
X43833333Y-107023809D01*
X43833333Y-107261904D01*
X43785714Y-107357142D01*
X43738095Y-107404761D01*
X43642857Y-107452380D01*
X43357142Y-107452380D01*
X43261904Y-107404761D01*
X43214285Y-107357142D01*
X44452380Y-106452380D02*
X44547619Y-106452380D01*
X44642857Y-106500000D01*
X44690476Y-106547619D01*
X44738095Y-106642857D01*
X44785714Y-106833333D01*
X44785714Y-107071428D01*
X44738095Y-107261904D01*
X44690476Y-107357142D01*
X44642857Y-107404761D01*
X44547619Y-107452380D01*
X44452380Y-107452380D01*
X44357142Y-107404761D01*
X44309523Y-107357142D01*
X44261904Y-107261904D01*
X44214285Y-107071428D01*
X44214285Y-106833333D01*
X44261904Y-106642857D01*
X44309523Y-106547619D01*
X44357142Y-106500000D01*
X44452380Y-106452380D01*
X45690476Y-106452380D02*
X45214285Y-106452380D01*
X45166666Y-106928571D01*
X45214285Y-106880952D01*
X45309523Y-106833333D01*
X45547619Y-106833333D01*
X45642857Y-106880952D01*
X45690476Y-106928571D01*
X45738095Y-107023809D01*
X45738095Y-107261904D01*
X45690476Y-107357142D01*
X45642857Y-107404761D01*
X45547619Y-107452380D01*
X45309523Y-107452380D01*
X45214285Y-107404761D01*
X45166666Y-107357142D01*
X73355952Y-96452380D02*
X73022619Y-95976190D01*
X72784523Y-96452380D02*
X72784523Y-95452380D01*
X73165476Y-95452380D01*
X73260714Y-95500000D01*
X73308333Y-95547619D01*
X73355952Y-95642857D01*
X73355952Y-95785714D01*
X73308333Y-95880952D01*
X73260714Y-95928571D01*
X73165476Y-95976190D01*
X72784523Y-95976190D01*
X73689285Y-95452380D02*
X74308333Y-95452380D01*
X73975000Y-95833333D01*
X74117857Y-95833333D01*
X74213095Y-95880952D01*
X74260714Y-95928571D01*
X74308333Y-96023809D01*
X74308333Y-96261904D01*
X74260714Y-96357142D01*
X74213095Y-96404761D01*
X74117857Y-96452380D01*
X73832142Y-96452380D01*
X73736904Y-96404761D01*
X73689285Y-96357142D01*
X74927380Y-95452380D02*
X75022619Y-95452380D01*
X75117857Y-95500000D01*
X75165476Y-95547619D01*
X75213095Y-95642857D01*
X75260714Y-95833333D01*
X75260714Y-96071428D01*
X75213095Y-96261904D01*
X75165476Y-96357142D01*
X75117857Y-96404761D01*
X75022619Y-96452380D01*
X74927380Y-96452380D01*
X74832142Y-96404761D01*
X74784523Y-96357142D01*
X74736904Y-96261904D01*
X74689285Y-96071428D01*
X74689285Y-95833333D01*
X74736904Y-95642857D01*
X74784523Y-95547619D01*
X74832142Y-95500000D01*
X74927380Y-95452380D01*
X76117857Y-95785714D02*
X76117857Y-96452380D01*
X75879761Y-95404761D02*
X75641666Y-96119047D01*
X76260714Y-96119047D01*
X70952380Y-95869047D02*
X70476190Y-96202380D01*
X70952380Y-96440476D02*
X69952380Y-96440476D01*
X69952380Y-96059523D01*
X70000000Y-95964285D01*
X70047619Y-95916666D01*
X70142857Y-95869047D01*
X70285714Y-95869047D01*
X70380952Y-95916666D01*
X70428571Y-95964285D01*
X70476190Y-96059523D01*
X70476190Y-96440476D01*
X69952380Y-95535714D02*
X69952380Y-94916666D01*
X70333333Y-95250000D01*
X70333333Y-95107142D01*
X70380952Y-95011904D01*
X70428571Y-94964285D01*
X70523809Y-94916666D01*
X70761904Y-94916666D01*
X70857142Y-94964285D01*
X70904761Y-95011904D01*
X70952380Y-95107142D01*
X70952380Y-95392857D01*
X70904761Y-95488095D01*
X70857142Y-95535714D01*
X69952380Y-94297619D02*
X69952380Y-94202380D01*
X70000000Y-94107142D01*
X70047619Y-94059523D01*
X70142857Y-94011904D01*
X70333333Y-93964285D01*
X70571428Y-93964285D01*
X70761904Y-94011904D01*
X70857142Y-94059523D01*
X70904761Y-94107142D01*
X70952380Y-94202380D01*
X70952380Y-94297619D01*
X70904761Y-94392857D01*
X70857142Y-94440476D01*
X70761904Y-94488095D01*
X70571428Y-94535714D01*
X70333333Y-94535714D01*
X70142857Y-94488095D01*
X70047619Y-94440476D01*
X70000000Y-94392857D01*
X69952380Y-94297619D01*
X69952380Y-93630952D02*
X69952380Y-93011904D01*
X70333333Y-93345238D01*
X70333333Y-93202380D01*
X70380952Y-93107142D01*
X70428571Y-93059523D01*
X70523809Y-93011904D01*
X70761904Y-93011904D01*
X70857142Y-93059523D01*
X70904761Y-93107142D01*
X70952380Y-93202380D01*
X70952380Y-93488095D01*
X70904761Y-93583333D01*
X70857142Y-93630952D01*
X66952380Y-96869047D02*
X66476190Y-97202380D01*
X66952380Y-97440476D02*
X65952380Y-97440476D01*
X65952380Y-97059523D01*
X66000000Y-96964285D01*
X66047619Y-96916666D01*
X66142857Y-96869047D01*
X66285714Y-96869047D01*
X66380952Y-96916666D01*
X66428571Y-96964285D01*
X66476190Y-97059523D01*
X66476190Y-97440476D01*
X65952380Y-96535714D02*
X65952380Y-95916666D01*
X66333333Y-96250000D01*
X66333333Y-96107142D01*
X66380952Y-96011904D01*
X66428571Y-95964285D01*
X66523809Y-95916666D01*
X66761904Y-95916666D01*
X66857142Y-95964285D01*
X66904761Y-96011904D01*
X66952380Y-96107142D01*
X66952380Y-96392857D01*
X66904761Y-96488095D01*
X66857142Y-96535714D01*
X65952380Y-95297619D02*
X65952380Y-95202380D01*
X66000000Y-95107142D01*
X66047619Y-95059523D01*
X66142857Y-95011904D01*
X66333333Y-94964285D01*
X66571428Y-94964285D01*
X66761904Y-95011904D01*
X66857142Y-95059523D01*
X66904761Y-95107142D01*
X66952380Y-95202380D01*
X66952380Y-95297619D01*
X66904761Y-95392857D01*
X66857142Y-95440476D01*
X66761904Y-95488095D01*
X66571428Y-95535714D01*
X66333333Y-95535714D01*
X66142857Y-95488095D01*
X66047619Y-95440476D01*
X66000000Y-95392857D01*
X65952380Y-95297619D01*
X66047619Y-94583333D02*
X66000000Y-94535714D01*
X65952380Y-94440476D01*
X65952380Y-94202380D01*
X66000000Y-94107142D01*
X66047619Y-94059523D01*
X66142857Y-94011904D01*
X66238095Y-94011904D01*
X66380952Y-94059523D01*
X66952380Y-94630952D01*
X66952380Y-94011904D01*
X68952380Y-95619047D02*
X68476190Y-95952380D01*
X68952380Y-96190476D02*
X67952380Y-96190476D01*
X67952380Y-95809523D01*
X68000000Y-95714285D01*
X68047619Y-95666666D01*
X68142857Y-95619047D01*
X68285714Y-95619047D01*
X68380952Y-95666666D01*
X68428571Y-95714285D01*
X68476190Y-95809523D01*
X68476190Y-96190476D01*
X67952380Y-95285714D02*
X67952380Y-94666666D01*
X68333333Y-95000000D01*
X68333333Y-94857142D01*
X68380952Y-94761904D01*
X68428571Y-94714285D01*
X68523809Y-94666666D01*
X68761904Y-94666666D01*
X68857142Y-94714285D01*
X68904761Y-94761904D01*
X68952380Y-94857142D01*
X68952380Y-95142857D01*
X68904761Y-95238095D01*
X68857142Y-95285714D01*
X67952380Y-94047619D02*
X67952380Y-93952380D01*
X68000000Y-93857142D01*
X68047619Y-93809523D01*
X68142857Y-93761904D01*
X68333333Y-93714285D01*
X68571428Y-93714285D01*
X68761904Y-93761904D01*
X68857142Y-93809523D01*
X68904761Y-93857142D01*
X68952380Y-93952380D01*
X68952380Y-94047619D01*
X68904761Y-94142857D01*
X68857142Y-94190476D01*
X68761904Y-94238095D01*
X68571428Y-94285714D01*
X68333333Y-94285714D01*
X68142857Y-94238095D01*
X68047619Y-94190476D01*
X68000000Y-94142857D01*
X67952380Y-94047619D01*
X68952380Y-92761904D02*
X68952380Y-93333333D01*
X68952380Y-93047619D02*
X67952380Y-93047619D01*
X68095238Y-93142857D01*
X68190476Y-93238095D01*
X68238095Y-93333333D01*
X93355952Y-95302380D02*
X93022619Y-94826190D01*
X92784523Y-95302380D02*
X92784523Y-94302380D01*
X93165476Y-94302380D01*
X93260714Y-94350000D01*
X93308333Y-94397619D01*
X93355952Y-94492857D01*
X93355952Y-94635714D01*
X93308333Y-94730952D01*
X93260714Y-94778571D01*
X93165476Y-94826190D01*
X92784523Y-94826190D01*
X93736904Y-94397619D02*
X93784523Y-94350000D01*
X93879761Y-94302380D01*
X94117857Y-94302380D01*
X94213095Y-94350000D01*
X94260714Y-94397619D01*
X94308333Y-94492857D01*
X94308333Y-94588095D01*
X94260714Y-94730952D01*
X93689285Y-95302380D01*
X94308333Y-95302380D01*
X94927380Y-94302380D02*
X95022619Y-94302380D01*
X95117857Y-94350000D01*
X95165476Y-94397619D01*
X95213095Y-94492857D01*
X95260714Y-94683333D01*
X95260714Y-94921428D01*
X95213095Y-95111904D01*
X95165476Y-95207142D01*
X95117857Y-95254761D01*
X95022619Y-95302380D01*
X94927380Y-95302380D01*
X94832142Y-95254761D01*
X94784523Y-95207142D01*
X94736904Y-95111904D01*
X94689285Y-94921428D01*
X94689285Y-94683333D01*
X94736904Y-94492857D01*
X94784523Y-94397619D01*
X94832142Y-94350000D01*
X94927380Y-94302380D01*
X95832142Y-94730952D02*
X95736904Y-94683333D01*
X95689285Y-94635714D01*
X95641666Y-94540476D01*
X95641666Y-94492857D01*
X95689285Y-94397619D01*
X95736904Y-94350000D01*
X95832142Y-94302380D01*
X96022619Y-94302380D01*
X96117857Y-94350000D01*
X96165476Y-94397619D01*
X96213095Y-94492857D01*
X96213095Y-94540476D01*
X96165476Y-94635714D01*
X96117857Y-94683333D01*
X96022619Y-94730952D01*
X95832142Y-94730952D01*
X95736904Y-94778571D01*
X95689285Y-94826190D01*
X95641666Y-94921428D01*
X95641666Y-95111904D01*
X95689285Y-95207142D01*
X95736904Y-95254761D01*
X95832142Y-95302380D01*
X96022619Y-95302380D01*
X96117857Y-95254761D01*
X96165476Y-95207142D01*
X96213095Y-95111904D01*
X96213095Y-94921428D01*
X96165476Y-94826190D01*
X96117857Y-94778571D01*
X96022619Y-94730952D01*
X89380952Y-102452380D02*
X89047619Y-101976190D01*
X88809523Y-102452380D02*
X88809523Y-101452380D01*
X89190476Y-101452380D01*
X89285714Y-101500000D01*
X89333333Y-101547619D01*
X89380952Y-101642857D01*
X89380952Y-101785714D01*
X89333333Y-101880952D01*
X89285714Y-101928571D01*
X89190476Y-101976190D01*
X88809523Y-101976190D01*
X89761904Y-101547619D02*
X89809523Y-101500000D01*
X89904761Y-101452380D01*
X90142857Y-101452380D01*
X90238095Y-101500000D01*
X90285714Y-101547619D01*
X90333333Y-101642857D01*
X90333333Y-101738095D01*
X90285714Y-101880952D01*
X89714285Y-102452380D01*
X90333333Y-102452380D01*
X90952380Y-101452380D02*
X91047619Y-101452380D01*
X91142857Y-101500000D01*
X91190476Y-101547619D01*
X91238095Y-101642857D01*
X91285714Y-101833333D01*
X91285714Y-102071428D01*
X91238095Y-102261904D01*
X91190476Y-102357142D01*
X91142857Y-102404761D01*
X91047619Y-102452380D01*
X90952380Y-102452380D01*
X90857142Y-102404761D01*
X90809523Y-102357142D01*
X90761904Y-102261904D01*
X90714285Y-102071428D01*
X90714285Y-101833333D01*
X90761904Y-101642857D01*
X90809523Y-101547619D01*
X90857142Y-101500000D01*
X90952380Y-101452380D01*
X91619047Y-101452380D02*
X92285714Y-101452380D01*
X91857142Y-102452380D01*
X93355952Y-100602380D02*
X93022619Y-100126190D01*
X92784523Y-100602380D02*
X92784523Y-99602380D01*
X93165476Y-99602380D01*
X93260714Y-99650000D01*
X93308333Y-99697619D01*
X93355952Y-99792857D01*
X93355952Y-99935714D01*
X93308333Y-100030952D01*
X93260714Y-100078571D01*
X93165476Y-100126190D01*
X92784523Y-100126190D01*
X93736904Y-99697619D02*
X93784523Y-99650000D01*
X93879761Y-99602380D01*
X94117857Y-99602380D01*
X94213095Y-99650000D01*
X94260714Y-99697619D01*
X94308333Y-99792857D01*
X94308333Y-99888095D01*
X94260714Y-100030952D01*
X93689285Y-100602380D01*
X94308333Y-100602380D01*
X94927380Y-99602380D02*
X95022619Y-99602380D01*
X95117857Y-99650000D01*
X95165476Y-99697619D01*
X95213095Y-99792857D01*
X95260714Y-99983333D01*
X95260714Y-100221428D01*
X95213095Y-100411904D01*
X95165476Y-100507142D01*
X95117857Y-100554761D01*
X95022619Y-100602380D01*
X94927380Y-100602380D01*
X94832142Y-100554761D01*
X94784523Y-100507142D01*
X94736904Y-100411904D01*
X94689285Y-100221428D01*
X94689285Y-99983333D01*
X94736904Y-99792857D01*
X94784523Y-99697619D01*
X94832142Y-99650000D01*
X94927380Y-99602380D01*
X96117857Y-99602380D02*
X95927380Y-99602380D01*
X95832142Y-99650000D01*
X95784523Y-99697619D01*
X95689285Y-99840476D01*
X95641666Y-100030952D01*
X95641666Y-100411904D01*
X95689285Y-100507142D01*
X95736904Y-100554761D01*
X95832142Y-100602380D01*
X96022619Y-100602380D01*
X96117857Y-100554761D01*
X96165476Y-100507142D01*
X96213095Y-100411904D01*
X96213095Y-100173809D01*
X96165476Y-100078571D01*
X96117857Y-100030952D01*
X96022619Y-99983333D01*
X95832142Y-99983333D01*
X95736904Y-100030952D01*
X95689285Y-100078571D01*
X95641666Y-100173809D01*
X93355952Y-106202380D02*
X93022619Y-105726190D01*
X92784523Y-106202380D02*
X92784523Y-105202380D01*
X93165476Y-105202380D01*
X93260714Y-105250000D01*
X93308333Y-105297619D01*
X93355952Y-105392857D01*
X93355952Y-105535714D01*
X93308333Y-105630952D01*
X93260714Y-105678571D01*
X93165476Y-105726190D01*
X92784523Y-105726190D01*
X93736904Y-105297619D02*
X93784523Y-105250000D01*
X93879761Y-105202380D01*
X94117857Y-105202380D01*
X94213095Y-105250000D01*
X94260714Y-105297619D01*
X94308333Y-105392857D01*
X94308333Y-105488095D01*
X94260714Y-105630952D01*
X93689285Y-106202380D01*
X94308333Y-106202380D01*
X94927380Y-105202380D02*
X95022619Y-105202380D01*
X95117857Y-105250000D01*
X95165476Y-105297619D01*
X95213095Y-105392857D01*
X95260714Y-105583333D01*
X95260714Y-105821428D01*
X95213095Y-106011904D01*
X95165476Y-106107142D01*
X95117857Y-106154761D01*
X95022619Y-106202380D01*
X94927380Y-106202380D01*
X94832142Y-106154761D01*
X94784523Y-106107142D01*
X94736904Y-106011904D01*
X94689285Y-105821428D01*
X94689285Y-105583333D01*
X94736904Y-105392857D01*
X94784523Y-105297619D01*
X94832142Y-105250000D01*
X94927380Y-105202380D01*
X96165476Y-105202380D02*
X95689285Y-105202380D01*
X95641666Y-105678571D01*
X95689285Y-105630952D01*
X95784523Y-105583333D01*
X96022619Y-105583333D01*
X96117857Y-105630952D01*
X96165476Y-105678571D01*
X96213095Y-105773809D01*
X96213095Y-106011904D01*
X96165476Y-106107142D01*
X96117857Y-106154761D01*
X96022619Y-106202380D01*
X95784523Y-106202380D01*
X95689285Y-106154761D01*
X95641666Y-106107142D01*
X101355952Y-92952380D02*
X101022619Y-92476190D01*
X100784523Y-92952380D02*
X100784523Y-91952380D01*
X101165476Y-91952380D01*
X101260714Y-92000000D01*
X101308333Y-92047619D01*
X101355952Y-92142857D01*
X101355952Y-92285714D01*
X101308333Y-92380952D01*
X101260714Y-92428571D01*
X101165476Y-92476190D01*
X100784523Y-92476190D01*
X101736904Y-92047619D02*
X101784523Y-92000000D01*
X101879761Y-91952380D01*
X102117857Y-91952380D01*
X102213095Y-92000000D01*
X102260714Y-92047619D01*
X102308333Y-92142857D01*
X102308333Y-92238095D01*
X102260714Y-92380952D01*
X101689285Y-92952380D01*
X102308333Y-92952380D01*
X102927380Y-91952380D02*
X103022619Y-91952380D01*
X103117857Y-92000000D01*
X103165476Y-92047619D01*
X103213095Y-92142857D01*
X103260714Y-92333333D01*
X103260714Y-92571428D01*
X103213095Y-92761904D01*
X103165476Y-92857142D01*
X103117857Y-92904761D01*
X103022619Y-92952380D01*
X102927380Y-92952380D01*
X102832142Y-92904761D01*
X102784523Y-92857142D01*
X102736904Y-92761904D01*
X102689285Y-92571428D01*
X102689285Y-92333333D01*
X102736904Y-92142857D01*
X102784523Y-92047619D01*
X102832142Y-92000000D01*
X102927380Y-91952380D01*
X104117857Y-92285714D02*
X104117857Y-92952380D01*
X103879761Y-91904761D02*
X103641666Y-92619047D01*
X104260714Y-92619047D01*
X100380952Y-108202380D02*
X100047619Y-107726190D01*
X99809523Y-108202380D02*
X99809523Y-107202380D01*
X100190476Y-107202380D01*
X100285714Y-107250000D01*
X100333333Y-107297619D01*
X100380952Y-107392857D01*
X100380952Y-107535714D01*
X100333333Y-107630952D01*
X100285714Y-107678571D01*
X100190476Y-107726190D01*
X99809523Y-107726190D01*
X100761904Y-107297619D02*
X100809523Y-107250000D01*
X100904761Y-107202380D01*
X101142857Y-107202380D01*
X101238095Y-107250000D01*
X101285714Y-107297619D01*
X101333333Y-107392857D01*
X101333333Y-107488095D01*
X101285714Y-107630952D01*
X100714285Y-108202380D01*
X101333333Y-108202380D01*
X101952380Y-107202380D02*
X102047619Y-107202380D01*
X102142857Y-107250000D01*
X102190476Y-107297619D01*
X102238095Y-107392857D01*
X102285714Y-107583333D01*
X102285714Y-107821428D01*
X102238095Y-108011904D01*
X102190476Y-108107142D01*
X102142857Y-108154761D01*
X102047619Y-108202380D01*
X101952380Y-108202380D01*
X101857142Y-108154761D01*
X101809523Y-108107142D01*
X101761904Y-108011904D01*
X101714285Y-107821428D01*
X101714285Y-107583333D01*
X101761904Y-107392857D01*
X101809523Y-107297619D01*
X101857142Y-107250000D01*
X101952380Y-107202380D01*
X102619047Y-107202380D02*
X103238095Y-107202380D01*
X102904761Y-107583333D01*
X103047619Y-107583333D01*
X103142857Y-107630952D01*
X103190476Y-107678571D01*
X103238095Y-107773809D01*
X103238095Y-108011904D01*
X103190476Y-108107142D01*
X103142857Y-108154761D01*
X103047619Y-108202380D01*
X102761904Y-108202380D01*
X102666666Y-108154761D01*
X102619047Y-108107142D01*
X106355952Y-93802380D02*
X106022619Y-93326190D01*
X105784523Y-93802380D02*
X105784523Y-92802380D01*
X106165476Y-92802380D01*
X106260714Y-92850000D01*
X106308333Y-92897619D01*
X106355952Y-92992857D01*
X106355952Y-93135714D01*
X106308333Y-93230952D01*
X106260714Y-93278571D01*
X106165476Y-93326190D01*
X105784523Y-93326190D01*
X106736904Y-92897619D02*
X106784523Y-92850000D01*
X106879761Y-92802380D01*
X107117857Y-92802380D01*
X107213095Y-92850000D01*
X107260714Y-92897619D01*
X107308333Y-92992857D01*
X107308333Y-93088095D01*
X107260714Y-93230952D01*
X106689285Y-93802380D01*
X107308333Y-93802380D01*
X107927380Y-92802380D02*
X108022619Y-92802380D01*
X108117857Y-92850000D01*
X108165476Y-92897619D01*
X108213095Y-92992857D01*
X108260714Y-93183333D01*
X108260714Y-93421428D01*
X108213095Y-93611904D01*
X108165476Y-93707142D01*
X108117857Y-93754761D01*
X108022619Y-93802380D01*
X107927380Y-93802380D01*
X107832142Y-93754761D01*
X107784523Y-93707142D01*
X107736904Y-93611904D01*
X107689285Y-93421428D01*
X107689285Y-93183333D01*
X107736904Y-92992857D01*
X107784523Y-92897619D01*
X107832142Y-92850000D01*
X107927380Y-92802380D01*
X108641666Y-92897619D02*
X108689285Y-92850000D01*
X108784523Y-92802380D01*
X109022619Y-92802380D01*
X109117857Y-92850000D01*
X109165476Y-92897619D01*
X109213095Y-92992857D01*
X109213095Y-93088095D01*
X109165476Y-93230952D01*
X108594047Y-93802380D01*
X109213095Y-93802380D01*
X116952380Y-101119047D02*
X116476190Y-101452380D01*
X116952380Y-101690476D02*
X115952380Y-101690476D01*
X115952380Y-101309523D01*
X116000000Y-101214285D01*
X116047619Y-101166666D01*
X116142857Y-101119047D01*
X116285714Y-101119047D01*
X116380952Y-101166666D01*
X116428571Y-101214285D01*
X116476190Y-101309523D01*
X116476190Y-101690476D01*
X116047619Y-100738095D02*
X116000000Y-100690476D01*
X115952380Y-100595238D01*
X115952380Y-100357142D01*
X116000000Y-100261904D01*
X116047619Y-100214285D01*
X116142857Y-100166666D01*
X116238095Y-100166666D01*
X116380952Y-100214285D01*
X116952380Y-100785714D01*
X116952380Y-100166666D01*
X115952380Y-99547619D02*
X115952380Y-99452380D01*
X116000000Y-99357142D01*
X116047619Y-99309523D01*
X116142857Y-99261904D01*
X116333333Y-99214285D01*
X116571428Y-99214285D01*
X116761904Y-99261904D01*
X116857142Y-99309523D01*
X116904761Y-99357142D01*
X116952380Y-99452380D01*
X116952380Y-99547619D01*
X116904761Y-99642857D01*
X116857142Y-99690476D01*
X116761904Y-99738095D01*
X116571428Y-99785714D01*
X116333333Y-99785714D01*
X116142857Y-99738095D01*
X116047619Y-99690476D01*
X116000000Y-99642857D01*
X115952380Y-99547619D01*
X116952380Y-98261904D02*
X116952380Y-98833333D01*
X116952380Y-98547619D02*
X115952380Y-98547619D01*
X116095238Y-98642857D01*
X116190476Y-98738095D01*
X116238095Y-98833333D01*
X77952380Y-51247619D02*
X77857142Y-51200000D01*
X77761904Y-51104761D01*
X77619047Y-50961904D01*
X77523809Y-50914285D01*
X77428571Y-50914285D01*
X77476190Y-51152380D02*
X77380952Y-51104761D01*
X77285714Y-51009523D01*
X77238095Y-50819047D01*
X77238095Y-50485714D01*
X77285714Y-50295238D01*
X77380952Y-50200000D01*
X77476190Y-50152380D01*
X77666666Y-50152380D01*
X77761904Y-50200000D01*
X77857142Y-50295238D01*
X77904761Y-50485714D01*
X77904761Y-50819047D01*
X77857142Y-51009523D01*
X77761904Y-51104761D01*
X77666666Y-51152380D01*
X77476190Y-51152380D01*
X78238095Y-50152380D02*
X78904761Y-50152380D01*
X78476190Y-51152380D01*
X79476190Y-50152380D02*
X79571428Y-50152380D01*
X79666666Y-50200000D01*
X79714285Y-50247619D01*
X79761904Y-50342857D01*
X79809523Y-50533333D01*
X79809523Y-50771428D01*
X79761904Y-50961904D01*
X79714285Y-51057142D01*
X79666666Y-51104761D01*
X79571428Y-51152380D01*
X79476190Y-51152380D01*
X79380952Y-51104761D01*
X79333333Y-51057142D01*
X79285714Y-50961904D01*
X79238095Y-50771428D01*
X79238095Y-50533333D01*
X79285714Y-50342857D01*
X79333333Y-50247619D01*
X79380952Y-50200000D01*
X79476190Y-50152380D01*
X80761904Y-51152380D02*
X80190476Y-51152380D01*
X80476190Y-51152380D02*
X80476190Y-50152380D01*
X80380952Y-50295238D01*
X80285714Y-50390476D01*
X80190476Y-50438095D01*
X33047619Y-86547619D02*
X33000000Y-86642857D01*
X32904761Y-86738095D01*
X32761904Y-86880952D01*
X32714285Y-86976190D01*
X32714285Y-87071428D01*
X32952380Y-87023809D02*
X32904761Y-87119047D01*
X32809523Y-87214285D01*
X32619047Y-87261904D01*
X32285714Y-87261904D01*
X32095238Y-87214285D01*
X32000000Y-87119047D01*
X31952380Y-87023809D01*
X31952380Y-86833333D01*
X32000000Y-86738095D01*
X32095238Y-86642857D01*
X32285714Y-86595238D01*
X32619047Y-86595238D01*
X32809523Y-86642857D01*
X32904761Y-86738095D01*
X32952380Y-86833333D01*
X32952380Y-87023809D01*
X32285714Y-85738095D02*
X32952380Y-85738095D01*
X31904761Y-85976190D02*
X32619047Y-86214285D01*
X32619047Y-85595238D01*
X31952380Y-85023809D02*
X31952380Y-84928571D01*
X32000000Y-84833333D01*
X32047619Y-84785714D01*
X32142857Y-84738095D01*
X32333333Y-84690476D01*
X32571428Y-84690476D01*
X32761904Y-84738095D01*
X32857142Y-84785714D01*
X32904761Y-84833333D01*
X32952380Y-84928571D01*
X32952380Y-85023809D01*
X32904761Y-85119047D01*
X32857142Y-85166666D01*
X32761904Y-85214285D01*
X32571428Y-85261904D01*
X32333333Y-85261904D01*
X32142857Y-85214285D01*
X32047619Y-85166666D01*
X32000000Y-85119047D01*
X31952380Y-85023809D01*
X32952380Y-83738095D02*
X32952380Y-84309523D01*
X32952380Y-84023809D02*
X31952380Y-84023809D01*
X32095238Y-84119047D01*
X32190476Y-84214285D01*
X32238095Y-84309523D01*
X124324285Y-100082380D02*
X124324285Y-100796666D01*
X124276666Y-100939523D01*
X124181428Y-101034761D01*
X124038571Y-101082380D01*
X123943333Y-101082380D01*
X125229047Y-100082380D02*
X125038571Y-100082380D01*
X124943333Y-100130000D01*
X124895714Y-100177619D01*
X124800476Y-100320476D01*
X124752857Y-100510952D01*
X124752857Y-100891904D01*
X124800476Y-100987142D01*
X124848095Y-101034761D01*
X124943333Y-101082380D01*
X125133809Y-101082380D01*
X125229047Y-101034761D01*
X125276666Y-100987142D01*
X125324285Y-100891904D01*
X125324285Y-100653809D01*
X125276666Y-100558571D01*
X125229047Y-100510952D01*
X125133809Y-100463333D01*
X124943333Y-100463333D01*
X124848095Y-100510952D01*
X124800476Y-100558571D01*
X124752857Y-100653809D01*
X125943333Y-100082380D02*
X126038571Y-100082380D01*
X126133809Y-100130000D01*
X126181428Y-100177619D01*
X126229047Y-100272857D01*
X126276666Y-100463333D01*
X126276666Y-100701428D01*
X126229047Y-100891904D01*
X126181428Y-100987142D01*
X126133809Y-101034761D01*
X126038571Y-101082380D01*
X125943333Y-101082380D01*
X125848095Y-101034761D01*
X125800476Y-100987142D01*
X125752857Y-100891904D01*
X125705238Y-100701428D01*
X125705238Y-100463333D01*
X125752857Y-100272857D01*
X125800476Y-100177619D01*
X125848095Y-100130000D01*
X125943333Y-100082380D01*
X127229047Y-101082380D02*
X126657619Y-101082380D01*
X126943333Y-101082380D02*
X126943333Y-100082380D01*
X126848095Y-100225238D01*
X126752857Y-100320476D01*
X126657619Y-100368095D01*
X84059523Y-44452380D02*
X84059523Y-43452380D01*
X84297619Y-43452380D01*
X84440476Y-43500000D01*
X84535714Y-43595238D01*
X84583333Y-43690476D01*
X84630952Y-43880952D01*
X84630952Y-44023809D01*
X84583333Y-44214285D01*
X84535714Y-44309523D01*
X84440476Y-44404761D01*
X84297619Y-44452380D01*
X84059523Y-44452380D01*
X84964285Y-43452380D02*
X85630952Y-43452380D01*
X85202380Y-44452380D01*
X86202380Y-43452380D02*
X86297619Y-43452380D01*
X86392857Y-43500000D01*
X86440476Y-43547619D01*
X86488095Y-43642857D01*
X86535714Y-43833333D01*
X86535714Y-44071428D01*
X86488095Y-44261904D01*
X86440476Y-44357142D01*
X86392857Y-44404761D01*
X86297619Y-44452380D01*
X86202380Y-44452380D01*
X86107142Y-44404761D01*
X86059523Y-44357142D01*
X86011904Y-44261904D01*
X85964285Y-44071428D01*
X85964285Y-43833333D01*
X86011904Y-43642857D01*
X86059523Y-43547619D01*
X86107142Y-43500000D01*
X86202380Y-43452380D01*
X86916666Y-43547619D02*
X86964285Y-43500000D01*
X87059523Y-43452380D01*
X87297619Y-43452380D01*
X87392857Y-43500000D01*
X87440476Y-43547619D01*
X87488095Y-43642857D01*
X87488095Y-43738095D01*
X87440476Y-43880952D01*
X86869047Y-44452380D01*
X87488095Y-44452380D01*
X90988095Y-44202380D02*
X90988095Y-43202380D01*
X91559523Y-44202380D02*
X91130952Y-43630952D01*
X91559523Y-43202380D02*
X90988095Y-43773809D01*
X86152380Y-66590476D02*
X85152380Y-66590476D01*
X85152380Y-66352380D01*
X85200000Y-66209523D01*
X85295238Y-66114285D01*
X85390476Y-66066666D01*
X85580952Y-66019047D01*
X85723809Y-66019047D01*
X85914285Y-66066666D01*
X86009523Y-66114285D01*
X86104761Y-66209523D01*
X86152380Y-66352380D01*
X86152380Y-66590476D01*
X85152380Y-65685714D02*
X85152380Y-65019047D01*
X86152380Y-65447619D01*
X85152380Y-64447619D02*
X85152380Y-64352380D01*
X85200000Y-64257142D01*
X85247619Y-64209523D01*
X85342857Y-64161904D01*
X85533333Y-64114285D01*
X85771428Y-64114285D01*
X85961904Y-64161904D01*
X86057142Y-64209523D01*
X86104761Y-64257142D01*
X86152380Y-64352380D01*
X86152380Y-64447619D01*
X86104761Y-64542857D01*
X86057142Y-64590476D01*
X85961904Y-64638095D01*
X85771428Y-64685714D01*
X85533333Y-64685714D01*
X85342857Y-64638095D01*
X85247619Y-64590476D01*
X85200000Y-64542857D01*
X85152380Y-64447619D01*
X86152380Y-63161904D02*
X86152380Y-63733333D01*
X86152380Y-63447619D02*
X85152380Y-63447619D01*
X85295238Y-63542857D01*
X85390476Y-63638095D01*
X85438095Y-63733333D01*
X83952380Y-66761904D02*
X82952380Y-66761904D01*
X83952380Y-66190476D02*
X83380952Y-66619047D01*
X82952380Y-66190476D02*
X83523809Y-66761904D01*
X114072380Y-97940476D02*
X113072380Y-97940476D01*
X113072380Y-97702380D01*
X113120000Y-97559523D01*
X113215238Y-97464285D01*
X113310476Y-97416666D01*
X113500952Y-97369047D01*
X113643809Y-97369047D01*
X113834285Y-97416666D01*
X113929523Y-97464285D01*
X114024761Y-97559523D01*
X114072380Y-97702380D01*
X114072380Y-97940476D01*
X113167619Y-96988095D02*
X113120000Y-96940476D01*
X113072380Y-96845238D01*
X113072380Y-96607142D01*
X113120000Y-96511904D01*
X113167619Y-96464285D01*
X113262857Y-96416666D01*
X113358095Y-96416666D01*
X113500952Y-96464285D01*
X114072380Y-97035714D01*
X114072380Y-96416666D01*
X113072380Y-95797619D02*
X113072380Y-95702380D01*
X113120000Y-95607142D01*
X113167619Y-95559523D01*
X113262857Y-95511904D01*
X113453333Y-95464285D01*
X113691428Y-95464285D01*
X113881904Y-95511904D01*
X113977142Y-95559523D01*
X114024761Y-95607142D01*
X114072380Y-95702380D01*
X114072380Y-95797619D01*
X114024761Y-95892857D01*
X113977142Y-95940476D01*
X113881904Y-95988095D01*
X113691428Y-96035714D01*
X113453333Y-96035714D01*
X113262857Y-95988095D01*
X113167619Y-95940476D01*
X113120000Y-95892857D01*
X113072380Y-95797619D01*
X113167619Y-95083333D02*
X113120000Y-95035714D01*
X113072380Y-94940476D01*
X113072380Y-94702380D01*
X113120000Y-94607142D01*
X113167619Y-94559523D01*
X113262857Y-94511904D01*
X113358095Y-94511904D01*
X113500952Y-94559523D01*
X114072380Y-95130952D01*
X114072380Y-94511904D01*
X113952380Y-93761904D02*
X112952380Y-93761904D01*
X113952380Y-93190476D02*
X113380952Y-93619047D01*
X112952380Y-93190476D02*
X113523809Y-93761904D01*
X109059523Y-108202380D02*
X109059523Y-107202380D01*
X109297619Y-107202380D01*
X109440476Y-107250000D01*
X109535714Y-107345238D01*
X109583333Y-107440476D01*
X109630952Y-107630952D01*
X109630952Y-107773809D01*
X109583333Y-107964285D01*
X109535714Y-108059523D01*
X109440476Y-108154761D01*
X109297619Y-108202380D01*
X109059523Y-108202380D01*
X110011904Y-107297619D02*
X110059523Y-107250000D01*
X110154761Y-107202380D01*
X110392857Y-107202380D01*
X110488095Y-107250000D01*
X110535714Y-107297619D01*
X110583333Y-107392857D01*
X110583333Y-107488095D01*
X110535714Y-107630952D01*
X109964285Y-108202380D01*
X110583333Y-108202380D01*
X111202380Y-107202380D02*
X111297619Y-107202380D01*
X111392857Y-107250000D01*
X111440476Y-107297619D01*
X111488095Y-107392857D01*
X111535714Y-107583333D01*
X111535714Y-107821428D01*
X111488095Y-108011904D01*
X111440476Y-108107142D01*
X111392857Y-108154761D01*
X111297619Y-108202380D01*
X111202380Y-108202380D01*
X111107142Y-108154761D01*
X111059523Y-108107142D01*
X111011904Y-108011904D01*
X110964285Y-107821428D01*
X110964285Y-107583333D01*
X111011904Y-107392857D01*
X111059523Y-107297619D01*
X111107142Y-107250000D01*
X111202380Y-107202380D01*
X112488095Y-108202380D02*
X111916666Y-108202380D01*
X112202380Y-108202380D02*
X112202380Y-107202380D01*
X112107142Y-107345238D01*
X112011904Y-107440476D01*
X111916666Y-107488095D01*
X106488095Y-108202380D02*
X106488095Y-107202380D01*
X107059523Y-108202380D02*
X106630952Y-107630952D01*
X107059523Y-107202380D02*
X106488095Y-107773809D01*
X96357142Y-93119047D02*
X96404761Y-93166666D01*
X96452380Y-93309523D01*
X96452380Y-93404761D01*
X96404761Y-93547619D01*
X96309523Y-93642857D01*
X96214285Y-93690476D01*
X96023809Y-93738095D01*
X95880952Y-93738095D01*
X95690476Y-93690476D01*
X95595238Y-93642857D01*
X95500000Y-93547619D01*
X95452380Y-93404761D01*
X95452380Y-93309523D01*
X95500000Y-93166666D01*
X95547619Y-93119047D01*
X95452380Y-92785714D02*
X95452380Y-92119047D01*
X96452380Y-92547619D01*
X95452380Y-91547619D02*
X95452380Y-91452380D01*
X95500000Y-91357142D01*
X95547619Y-91309523D01*
X95642857Y-91261904D01*
X95833333Y-91214285D01*
X96071428Y-91214285D01*
X96261904Y-91261904D01*
X96357142Y-91309523D01*
X96404761Y-91357142D01*
X96452380Y-91452380D01*
X96452380Y-91547619D01*
X96404761Y-91642857D01*
X96357142Y-91690476D01*
X96261904Y-91738095D01*
X96071428Y-91785714D01*
X95833333Y-91785714D01*
X95642857Y-91738095D01*
X95547619Y-91690476D01*
X95500000Y-91642857D01*
X95452380Y-91547619D01*
X95452380Y-90880952D02*
X95452380Y-90261904D01*
X95833333Y-90595238D01*
X95833333Y-90452380D01*
X95880952Y-90357142D01*
X95928571Y-90309523D01*
X96023809Y-90261904D01*
X96261904Y-90261904D01*
X96357142Y-90309523D01*
X96404761Y-90357142D01*
X96452380Y-90452380D01*
X96452380Y-90738095D01*
X96404761Y-90833333D01*
X96357142Y-90880952D01*
X72380952Y-88607142D02*
X72333333Y-88654761D01*
X72190476Y-88702380D01*
X72095238Y-88702380D01*
X71952380Y-88654761D01*
X71857142Y-88559523D01*
X71809523Y-88464285D01*
X71761904Y-88273809D01*
X71761904Y-88130952D01*
X71809523Y-87940476D01*
X71857142Y-87845238D01*
X71952380Y-87750000D01*
X72095238Y-87702380D01*
X72190476Y-87702380D01*
X72333333Y-87750000D01*
X72380952Y-87797619D01*
X72714285Y-87702380D02*
X73380952Y-87702380D01*
X72952380Y-88702380D01*
X73952380Y-87702380D02*
X74047619Y-87702380D01*
X74142857Y-87750000D01*
X74190476Y-87797619D01*
X74238095Y-87892857D01*
X74285714Y-88083333D01*
X74285714Y-88321428D01*
X74238095Y-88511904D01*
X74190476Y-88607142D01*
X74142857Y-88654761D01*
X74047619Y-88702380D01*
X73952380Y-88702380D01*
X73857142Y-88654761D01*
X73809523Y-88607142D01*
X73761904Y-88511904D01*
X73714285Y-88321428D01*
X73714285Y-88083333D01*
X73761904Y-87892857D01*
X73809523Y-87797619D01*
X73857142Y-87750000D01*
X73952380Y-87702380D01*
X74666666Y-87797619D02*
X74714285Y-87750000D01*
X74809523Y-87702380D01*
X75047619Y-87702380D01*
X75142857Y-87750000D01*
X75190476Y-87797619D01*
X75238095Y-87892857D01*
X75238095Y-87988095D01*
X75190476Y-88130952D01*
X74619047Y-88702380D01*
X75238095Y-88702380D01*
X84857142Y-93119047D02*
X84904761Y-93166666D01*
X84952380Y-93309523D01*
X84952380Y-93404761D01*
X84904761Y-93547619D01*
X84809523Y-93642857D01*
X84714285Y-93690476D01*
X84523809Y-93738095D01*
X84380952Y-93738095D01*
X84190476Y-93690476D01*
X84095238Y-93642857D01*
X84000000Y-93547619D01*
X83952380Y-93404761D01*
X83952380Y-93309523D01*
X84000000Y-93166666D01*
X84047619Y-93119047D01*
X83952380Y-92785714D02*
X83952380Y-92119047D01*
X84952380Y-92547619D01*
X83952380Y-91547619D02*
X83952380Y-91452380D01*
X84000000Y-91357142D01*
X84047619Y-91309523D01*
X84142857Y-91261904D01*
X84333333Y-91214285D01*
X84571428Y-91214285D01*
X84761904Y-91261904D01*
X84857142Y-91309523D01*
X84904761Y-91357142D01*
X84952380Y-91452380D01*
X84952380Y-91547619D01*
X84904761Y-91642857D01*
X84857142Y-91690476D01*
X84761904Y-91738095D01*
X84571428Y-91785714D01*
X84333333Y-91785714D01*
X84142857Y-91738095D01*
X84047619Y-91690476D01*
X84000000Y-91642857D01*
X83952380Y-91547619D01*
X84952380Y-90261904D02*
X84952380Y-90833333D01*
X84952380Y-90547619D02*
X83952380Y-90547619D01*
X84095238Y-90642857D01*
X84190476Y-90738095D01*
X84238095Y-90833333D01*
X81357142Y-69619047D02*
X81404761Y-69666666D01*
X81452380Y-69809523D01*
X81452380Y-69904761D01*
X81404761Y-70047619D01*
X81309523Y-70142857D01*
X81214285Y-70190476D01*
X81023809Y-70238095D01*
X80880952Y-70238095D01*
X80690476Y-70190476D01*
X80595238Y-70142857D01*
X80500000Y-70047619D01*
X80452380Y-69904761D01*
X80452380Y-69809523D01*
X80500000Y-69666666D01*
X80547619Y-69619047D01*
X80452380Y-68714285D02*
X80452380Y-69190476D01*
X80928571Y-69238095D01*
X80880952Y-69190476D01*
X80833333Y-69095238D01*
X80833333Y-68857142D01*
X80880952Y-68761904D01*
X80928571Y-68714285D01*
X81023809Y-68666666D01*
X81261904Y-68666666D01*
X81357142Y-68714285D01*
X81404761Y-68761904D01*
X81452380Y-68857142D01*
X81452380Y-69095238D01*
X81404761Y-69190476D01*
X81357142Y-69238095D01*
X80452380Y-68047619D02*
X80452380Y-67952380D01*
X80500000Y-67857142D01*
X80547619Y-67809523D01*
X80642857Y-67761904D01*
X80833333Y-67714285D01*
X81071428Y-67714285D01*
X81261904Y-67761904D01*
X81357142Y-67809523D01*
X81404761Y-67857142D01*
X81452380Y-67952380D01*
X81452380Y-68047619D01*
X81404761Y-68142857D01*
X81357142Y-68190476D01*
X81261904Y-68238095D01*
X81071428Y-68285714D01*
X80833333Y-68285714D01*
X80642857Y-68238095D01*
X80547619Y-68190476D01*
X80500000Y-68142857D01*
X80452380Y-68047619D01*
X80452380Y-67380952D02*
X80452380Y-66714285D01*
X81452380Y-67142857D01*
X96357142Y-75619047D02*
X96404761Y-75666666D01*
X96452380Y-75809523D01*
X96452380Y-75904761D01*
X96404761Y-76047619D01*
X96309523Y-76142857D01*
X96214285Y-76190476D01*
X96023809Y-76238095D01*
X95880952Y-76238095D01*
X95690476Y-76190476D01*
X95595238Y-76142857D01*
X95500000Y-76047619D01*
X95452380Y-75904761D01*
X95452380Y-75809523D01*
X95500000Y-75666666D01*
X95547619Y-75619047D01*
X95452380Y-74714285D02*
X95452380Y-75190476D01*
X95928571Y-75238095D01*
X95880952Y-75190476D01*
X95833333Y-75095238D01*
X95833333Y-74857142D01*
X95880952Y-74761904D01*
X95928571Y-74714285D01*
X96023809Y-74666666D01*
X96261904Y-74666666D01*
X96357142Y-74714285D01*
X96404761Y-74761904D01*
X96452380Y-74857142D01*
X96452380Y-75095238D01*
X96404761Y-75190476D01*
X96357142Y-75238095D01*
X95452380Y-74047619D02*
X95452380Y-73952380D01*
X95500000Y-73857142D01*
X95547619Y-73809523D01*
X95642857Y-73761904D01*
X95833333Y-73714285D01*
X96071428Y-73714285D01*
X96261904Y-73761904D01*
X96357142Y-73809523D01*
X96404761Y-73857142D01*
X96452380Y-73952380D01*
X96452380Y-74047619D01*
X96404761Y-74142857D01*
X96357142Y-74190476D01*
X96261904Y-74238095D01*
X96071428Y-74285714D01*
X95833333Y-74285714D01*
X95642857Y-74238095D01*
X95547619Y-74190476D01*
X95500000Y-74142857D01*
X95452380Y-74047619D01*
X95452380Y-72857142D02*
X95452380Y-73047619D01*
X95500000Y-73142857D01*
X95547619Y-73190476D01*
X95690476Y-73285714D01*
X95880952Y-73333333D01*
X96261904Y-73333333D01*
X96357142Y-73285714D01*
X96404761Y-73238095D01*
X96452380Y-73142857D01*
X96452380Y-72952380D01*
X96404761Y-72857142D01*
X96357142Y-72809523D01*
X96261904Y-72761904D01*
X96023809Y-72761904D01*
X95928571Y-72809523D01*
X95880952Y-72857142D01*
X95833333Y-72952380D01*
X95833333Y-73142857D01*
X95880952Y-73238095D01*
X95928571Y-73285714D01*
X96023809Y-73333333D01*
X83380952Y-70677142D02*
X83333333Y-70724761D01*
X83190476Y-70772380D01*
X83095238Y-70772380D01*
X82952380Y-70724761D01*
X82857142Y-70629523D01*
X82809523Y-70534285D01*
X82761904Y-70343809D01*
X82761904Y-70200952D01*
X82809523Y-70010476D01*
X82857142Y-69915238D01*
X82952380Y-69820000D01*
X83095238Y-69772380D01*
X83190476Y-69772380D01*
X83333333Y-69820000D01*
X83380952Y-69867619D01*
X84285714Y-69772380D02*
X83809523Y-69772380D01*
X83761904Y-70248571D01*
X83809523Y-70200952D01*
X83904761Y-70153333D01*
X84142857Y-70153333D01*
X84238095Y-70200952D01*
X84285714Y-70248571D01*
X84333333Y-70343809D01*
X84333333Y-70581904D01*
X84285714Y-70677142D01*
X84238095Y-70724761D01*
X84142857Y-70772380D01*
X83904761Y-70772380D01*
X83809523Y-70724761D01*
X83761904Y-70677142D01*
X84952380Y-69772380D02*
X85047619Y-69772380D01*
X85142857Y-69820000D01*
X85190476Y-69867619D01*
X85238095Y-69962857D01*
X85285714Y-70153333D01*
X85285714Y-70391428D01*
X85238095Y-70581904D01*
X85190476Y-70677142D01*
X85142857Y-70724761D01*
X85047619Y-70772380D01*
X84952380Y-70772380D01*
X84857142Y-70724761D01*
X84809523Y-70677142D01*
X84761904Y-70581904D01*
X84714285Y-70391428D01*
X84714285Y-70153333D01*
X84761904Y-69962857D01*
X84809523Y-69867619D01*
X84857142Y-69820000D01*
X84952380Y-69772380D01*
X86142857Y-70105714D02*
X86142857Y-70772380D01*
X85904761Y-69724761D02*
X85666666Y-70439047D01*
X86285714Y-70439047D01*
X66607142Y-53369047D02*
X66654761Y-53416666D01*
X66702380Y-53559523D01*
X66702380Y-53654761D01*
X66654761Y-53797619D01*
X66559523Y-53892857D01*
X66464285Y-53940476D01*
X66273809Y-53988095D01*
X66130952Y-53988095D01*
X65940476Y-53940476D01*
X65845238Y-53892857D01*
X65750000Y-53797619D01*
X65702380Y-53654761D01*
X65702380Y-53559523D01*
X65750000Y-53416666D01*
X65797619Y-53369047D01*
X65702380Y-52464285D02*
X65702380Y-52940476D01*
X66178571Y-52988095D01*
X66130952Y-52940476D01*
X66083333Y-52845238D01*
X66083333Y-52607142D01*
X66130952Y-52511904D01*
X66178571Y-52464285D01*
X66273809Y-52416666D01*
X66511904Y-52416666D01*
X66607142Y-52464285D01*
X66654761Y-52511904D01*
X66702380Y-52607142D01*
X66702380Y-52845238D01*
X66654761Y-52940476D01*
X66607142Y-52988095D01*
X65702380Y-51797619D02*
X65702380Y-51702380D01*
X65750000Y-51607142D01*
X65797619Y-51559523D01*
X65892857Y-51511904D01*
X66083333Y-51464285D01*
X66321428Y-51464285D01*
X66511904Y-51511904D01*
X66607142Y-51559523D01*
X66654761Y-51607142D01*
X66702380Y-51702380D01*
X66702380Y-51797619D01*
X66654761Y-51892857D01*
X66607142Y-51940476D01*
X66511904Y-51988095D01*
X66321428Y-52035714D01*
X66083333Y-52035714D01*
X65892857Y-51988095D01*
X65797619Y-51940476D01*
X65750000Y-51892857D01*
X65702380Y-51797619D01*
X65702380Y-51130952D02*
X65702380Y-50511904D01*
X66083333Y-50845238D01*
X66083333Y-50702380D01*
X66130952Y-50607142D01*
X66178571Y-50559523D01*
X66273809Y-50511904D01*
X66511904Y-50511904D01*
X66607142Y-50559523D01*
X66654761Y-50607142D01*
X66702380Y-50702380D01*
X66702380Y-50988095D01*
X66654761Y-51083333D01*
X66607142Y-51130952D01*
X79357142Y-75619047D02*
X79404761Y-75666666D01*
X79452380Y-75809523D01*
X79452380Y-75904761D01*
X79404761Y-76047619D01*
X79309523Y-76142857D01*
X79214285Y-76190476D01*
X79023809Y-76238095D01*
X78880952Y-76238095D01*
X78690476Y-76190476D01*
X78595238Y-76142857D01*
X78500000Y-76047619D01*
X78452380Y-75904761D01*
X78452380Y-75809523D01*
X78500000Y-75666666D01*
X78547619Y-75619047D01*
X78452380Y-74714285D02*
X78452380Y-75190476D01*
X78928571Y-75238095D01*
X78880952Y-75190476D01*
X78833333Y-75095238D01*
X78833333Y-74857142D01*
X78880952Y-74761904D01*
X78928571Y-74714285D01*
X79023809Y-74666666D01*
X79261904Y-74666666D01*
X79357142Y-74714285D01*
X79404761Y-74761904D01*
X79452380Y-74857142D01*
X79452380Y-75095238D01*
X79404761Y-75190476D01*
X79357142Y-75238095D01*
X78452380Y-74047619D02*
X78452380Y-73952380D01*
X78500000Y-73857142D01*
X78547619Y-73809523D01*
X78642857Y-73761904D01*
X78833333Y-73714285D01*
X79071428Y-73714285D01*
X79261904Y-73761904D01*
X79357142Y-73809523D01*
X79404761Y-73857142D01*
X79452380Y-73952380D01*
X79452380Y-74047619D01*
X79404761Y-74142857D01*
X79357142Y-74190476D01*
X79261904Y-74238095D01*
X79071428Y-74285714D01*
X78833333Y-74285714D01*
X78642857Y-74238095D01*
X78547619Y-74190476D01*
X78500000Y-74142857D01*
X78452380Y-74047619D01*
X78547619Y-73333333D02*
X78500000Y-73285714D01*
X78452380Y-73190476D01*
X78452380Y-72952380D01*
X78500000Y-72857142D01*
X78547619Y-72809523D01*
X78642857Y-72761904D01*
X78738095Y-72761904D01*
X78880952Y-72809523D01*
X79452380Y-73380952D01*
X79452380Y-72761904D01*
X77880952Y-60357142D02*
X77833333Y-60404761D01*
X77690476Y-60452380D01*
X77595238Y-60452380D01*
X77452380Y-60404761D01*
X77357142Y-60309523D01*
X77309523Y-60214285D01*
X77261904Y-60023809D01*
X77261904Y-59880952D01*
X77309523Y-59690476D01*
X77357142Y-59595238D01*
X77452380Y-59500000D01*
X77595238Y-59452380D01*
X77690476Y-59452380D01*
X77833333Y-59500000D01*
X77880952Y-59547619D01*
X78785714Y-59452380D02*
X78309523Y-59452380D01*
X78261904Y-59928571D01*
X78309523Y-59880952D01*
X78404761Y-59833333D01*
X78642857Y-59833333D01*
X78738095Y-59880952D01*
X78785714Y-59928571D01*
X78833333Y-60023809D01*
X78833333Y-60261904D01*
X78785714Y-60357142D01*
X78738095Y-60404761D01*
X78642857Y-60452380D01*
X78404761Y-60452380D01*
X78309523Y-60404761D01*
X78261904Y-60357142D01*
X79452380Y-59452380D02*
X79547619Y-59452380D01*
X79642857Y-59500000D01*
X79690476Y-59547619D01*
X79738095Y-59642857D01*
X79785714Y-59833333D01*
X79785714Y-60071428D01*
X79738095Y-60261904D01*
X79690476Y-60357142D01*
X79642857Y-60404761D01*
X79547619Y-60452380D01*
X79452380Y-60452380D01*
X79357142Y-60404761D01*
X79309523Y-60357142D01*
X79261904Y-60261904D01*
X79214285Y-60071428D01*
X79214285Y-59833333D01*
X79261904Y-59642857D01*
X79309523Y-59547619D01*
X79357142Y-59500000D01*
X79452380Y-59452380D01*
X80738095Y-60452380D02*
X80166666Y-60452380D01*
X80452380Y-60452380D02*
X80452380Y-59452380D01*
X80357142Y-59595238D01*
X80261904Y-59690476D01*
X80166666Y-59738095D01*
X40857142Y-99619047D02*
X40904761Y-99666666D01*
X40952380Y-99809523D01*
X40952380Y-99904761D01*
X40904761Y-100047619D01*
X40809523Y-100142857D01*
X40714285Y-100190476D01*
X40523809Y-100238095D01*
X40380952Y-100238095D01*
X40190476Y-100190476D01*
X40095238Y-100142857D01*
X40000000Y-100047619D01*
X39952380Y-99904761D01*
X39952380Y-99809523D01*
X40000000Y-99666666D01*
X40047619Y-99619047D01*
X40285714Y-98761904D02*
X40952380Y-98761904D01*
X39904761Y-99000000D02*
X40619047Y-99238095D01*
X40619047Y-98619047D01*
X39952380Y-98047619D02*
X39952380Y-97952380D01*
X40000000Y-97857142D01*
X40047619Y-97809523D01*
X40142857Y-97761904D01*
X40333333Y-97714285D01*
X40571428Y-97714285D01*
X40761904Y-97761904D01*
X40857142Y-97809523D01*
X40904761Y-97857142D01*
X40952380Y-97952380D01*
X40952380Y-98047619D01*
X40904761Y-98142857D01*
X40857142Y-98190476D01*
X40761904Y-98238095D01*
X40571428Y-98285714D01*
X40333333Y-98285714D01*
X40142857Y-98238095D01*
X40047619Y-98190476D01*
X40000000Y-98142857D01*
X39952380Y-98047619D01*
X40285714Y-96857142D02*
X40952380Y-96857142D01*
X39904761Y-97095238D02*
X40619047Y-97333333D01*
X40619047Y-96714285D01*
X29707142Y-101119047D02*
X29754761Y-101166666D01*
X29802380Y-101309523D01*
X29802380Y-101404761D01*
X29754761Y-101547619D01*
X29659523Y-101642857D01*
X29564285Y-101690476D01*
X29373809Y-101738095D01*
X29230952Y-101738095D01*
X29040476Y-101690476D01*
X28945238Y-101642857D01*
X28850000Y-101547619D01*
X28802380Y-101404761D01*
X28802380Y-101309523D01*
X28850000Y-101166666D01*
X28897619Y-101119047D01*
X29135714Y-100261904D02*
X29802380Y-100261904D01*
X28754761Y-100500000D02*
X29469047Y-100738095D01*
X29469047Y-100119047D01*
X28802380Y-99547619D02*
X28802380Y-99452380D01*
X28850000Y-99357142D01*
X28897619Y-99309523D01*
X28992857Y-99261904D01*
X29183333Y-99214285D01*
X29421428Y-99214285D01*
X29611904Y-99261904D01*
X29707142Y-99309523D01*
X29754761Y-99357142D01*
X29802380Y-99452380D01*
X29802380Y-99547619D01*
X29754761Y-99642857D01*
X29707142Y-99690476D01*
X29611904Y-99738095D01*
X29421428Y-99785714D01*
X29183333Y-99785714D01*
X28992857Y-99738095D01*
X28897619Y-99690476D01*
X28850000Y-99642857D01*
X28802380Y-99547619D01*
X28802380Y-98880952D02*
X28802380Y-98261904D01*
X29183333Y-98595238D01*
X29183333Y-98452380D01*
X29230952Y-98357142D01*
X29278571Y-98309523D01*
X29373809Y-98261904D01*
X29611904Y-98261904D01*
X29707142Y-98309523D01*
X29754761Y-98357142D01*
X29802380Y-98452380D01*
X29802380Y-98738095D01*
X29754761Y-98833333D01*
X29707142Y-98880952D01*
X40007142Y-66094047D02*
X40054761Y-66141666D01*
X40102380Y-66284523D01*
X40102380Y-66379761D01*
X40054761Y-66522619D01*
X39959523Y-66617857D01*
X39864285Y-66665476D01*
X39673809Y-66713095D01*
X39530952Y-66713095D01*
X39340476Y-66665476D01*
X39245238Y-66617857D01*
X39150000Y-66522619D01*
X39102380Y-66379761D01*
X39102380Y-66284523D01*
X39150000Y-66141666D01*
X39197619Y-66094047D01*
X39435714Y-65236904D02*
X40102380Y-65236904D01*
X39054761Y-65475000D02*
X39769047Y-65713095D01*
X39769047Y-65094047D01*
X39102380Y-64522619D02*
X39102380Y-64427380D01*
X39150000Y-64332142D01*
X39197619Y-64284523D01*
X39292857Y-64236904D01*
X39483333Y-64189285D01*
X39721428Y-64189285D01*
X39911904Y-64236904D01*
X40007142Y-64284523D01*
X40054761Y-64332142D01*
X40102380Y-64427380D01*
X40102380Y-64522619D01*
X40054761Y-64617857D01*
X40007142Y-64665476D01*
X39911904Y-64713095D01*
X39721428Y-64760714D01*
X39483333Y-64760714D01*
X39292857Y-64713095D01*
X39197619Y-64665476D01*
X39150000Y-64617857D01*
X39102380Y-64522619D01*
X39197619Y-63808333D02*
X39150000Y-63760714D01*
X39102380Y-63665476D01*
X39102380Y-63427380D01*
X39150000Y-63332142D01*
X39197619Y-63284523D01*
X39292857Y-63236904D01*
X39388095Y-63236904D01*
X39530952Y-63284523D01*
X40102380Y-63855952D01*
X40102380Y-63236904D01*
X31357142Y-70119047D02*
X31404761Y-70166666D01*
X31452380Y-70309523D01*
X31452380Y-70404761D01*
X31404761Y-70547619D01*
X31309523Y-70642857D01*
X31214285Y-70690476D01*
X31023809Y-70738095D01*
X30880952Y-70738095D01*
X30690476Y-70690476D01*
X30595238Y-70642857D01*
X30500000Y-70547619D01*
X30452380Y-70404761D01*
X30452380Y-70309523D01*
X30500000Y-70166666D01*
X30547619Y-70119047D01*
X30785714Y-69261904D02*
X31452380Y-69261904D01*
X30404761Y-69500000D02*
X31119047Y-69738095D01*
X31119047Y-69119047D01*
X30452380Y-68547619D02*
X30452380Y-68452380D01*
X30500000Y-68357142D01*
X30547619Y-68309523D01*
X30642857Y-68261904D01*
X30833333Y-68214285D01*
X31071428Y-68214285D01*
X31261904Y-68261904D01*
X31357142Y-68309523D01*
X31404761Y-68357142D01*
X31452380Y-68452380D01*
X31452380Y-68547619D01*
X31404761Y-68642857D01*
X31357142Y-68690476D01*
X31261904Y-68738095D01*
X31071428Y-68785714D01*
X30833333Y-68785714D01*
X30642857Y-68738095D01*
X30547619Y-68690476D01*
X30500000Y-68642857D01*
X30452380Y-68547619D01*
X31452380Y-67261904D02*
X31452380Y-67833333D01*
X31452380Y-67547619D02*
X30452380Y-67547619D01*
X30595238Y-67642857D01*
X30690476Y-67738095D01*
X30738095Y-67833333D01*
X81857142Y-100619047D02*
X81904761Y-100666666D01*
X81952380Y-100809523D01*
X81952380Y-100904761D01*
X81904761Y-101047619D01*
X81809523Y-101142857D01*
X81714285Y-101190476D01*
X81523809Y-101238095D01*
X81380952Y-101238095D01*
X81190476Y-101190476D01*
X81095238Y-101142857D01*
X81000000Y-101047619D01*
X80952380Y-100904761D01*
X80952380Y-100809523D01*
X81000000Y-100666666D01*
X81047619Y-100619047D01*
X80952380Y-100285714D02*
X80952380Y-99666666D01*
X81333333Y-100000000D01*
X81333333Y-99857142D01*
X81380952Y-99761904D01*
X81428571Y-99714285D01*
X81523809Y-99666666D01*
X81761904Y-99666666D01*
X81857142Y-99714285D01*
X81904761Y-99761904D01*
X81952380Y-99857142D01*
X81952380Y-100142857D01*
X81904761Y-100238095D01*
X81857142Y-100285714D01*
X80952380Y-99047619D02*
X80952380Y-98952380D01*
X81000000Y-98857142D01*
X81047619Y-98809523D01*
X81142857Y-98761904D01*
X81333333Y-98714285D01*
X81571428Y-98714285D01*
X81761904Y-98761904D01*
X81857142Y-98809523D01*
X81904761Y-98857142D01*
X81952380Y-98952380D01*
X81952380Y-99047619D01*
X81904761Y-99142857D01*
X81857142Y-99190476D01*
X81761904Y-99238095D01*
X81571428Y-99285714D01*
X81333333Y-99285714D01*
X81142857Y-99238095D01*
X81047619Y-99190476D01*
X81000000Y-99142857D01*
X80952380Y-99047619D01*
X80952380Y-97809523D02*
X80952380Y-98285714D01*
X81428571Y-98333333D01*
X81380952Y-98285714D01*
X81333333Y-98190476D01*
X81333333Y-97952380D01*
X81380952Y-97857142D01*
X81428571Y-97809523D01*
X81523809Y-97761904D01*
X81761904Y-97761904D01*
X81857142Y-97809523D01*
X81904761Y-97857142D01*
X81952380Y-97952380D01*
X81952380Y-98190476D01*
X81904761Y-98285714D01*
X81857142Y-98333333D01*
X56107142Y-109119047D02*
X56154761Y-109166666D01*
X56202380Y-109309523D01*
X56202380Y-109404761D01*
X56154761Y-109547619D01*
X56059523Y-109642857D01*
X55964285Y-109690476D01*
X55773809Y-109738095D01*
X55630952Y-109738095D01*
X55440476Y-109690476D01*
X55345238Y-109642857D01*
X55250000Y-109547619D01*
X55202380Y-109404761D01*
X55202380Y-109309523D01*
X55250000Y-109166666D01*
X55297619Y-109119047D01*
X55202380Y-108785714D02*
X55202380Y-108166666D01*
X55583333Y-108500000D01*
X55583333Y-108357142D01*
X55630952Y-108261904D01*
X55678571Y-108214285D01*
X55773809Y-108166666D01*
X56011904Y-108166666D01*
X56107142Y-108214285D01*
X56154761Y-108261904D01*
X56202380Y-108357142D01*
X56202380Y-108642857D01*
X56154761Y-108738095D01*
X56107142Y-108785714D01*
X55202380Y-107547619D02*
X55202380Y-107452380D01*
X55250000Y-107357142D01*
X55297619Y-107309523D01*
X55392857Y-107261904D01*
X55583333Y-107214285D01*
X55821428Y-107214285D01*
X56011904Y-107261904D01*
X56107142Y-107309523D01*
X56154761Y-107357142D01*
X56202380Y-107452380D01*
X56202380Y-107547619D01*
X56154761Y-107642857D01*
X56107142Y-107690476D01*
X56011904Y-107738095D01*
X55821428Y-107785714D01*
X55583333Y-107785714D01*
X55392857Y-107738095D01*
X55297619Y-107690476D01*
X55250000Y-107642857D01*
X55202380Y-107547619D01*
X55535714Y-106357142D02*
X56202380Y-106357142D01*
X55154761Y-106595238D02*
X55869047Y-106833333D01*
X55869047Y-106214285D01*
X60880952Y-102857142D02*
X60833333Y-102904761D01*
X60690476Y-102952380D01*
X60595238Y-102952380D01*
X60452380Y-102904761D01*
X60357142Y-102809523D01*
X60309523Y-102714285D01*
X60261904Y-102523809D01*
X60261904Y-102380952D01*
X60309523Y-102190476D01*
X60357142Y-102095238D01*
X60452380Y-102000000D01*
X60595238Y-101952380D01*
X60690476Y-101952380D01*
X60833333Y-102000000D01*
X60880952Y-102047619D01*
X61214285Y-101952380D02*
X61833333Y-101952380D01*
X61500000Y-102333333D01*
X61642857Y-102333333D01*
X61738095Y-102380952D01*
X61785714Y-102428571D01*
X61833333Y-102523809D01*
X61833333Y-102761904D01*
X61785714Y-102857142D01*
X61738095Y-102904761D01*
X61642857Y-102952380D01*
X61357142Y-102952380D01*
X61261904Y-102904761D01*
X61214285Y-102857142D01*
X62452380Y-101952380D02*
X62547619Y-101952380D01*
X62642857Y-102000000D01*
X62690476Y-102047619D01*
X62738095Y-102142857D01*
X62785714Y-102333333D01*
X62785714Y-102571428D01*
X62738095Y-102761904D01*
X62690476Y-102857142D01*
X62642857Y-102904761D01*
X62547619Y-102952380D01*
X62452380Y-102952380D01*
X62357142Y-102904761D01*
X62309523Y-102857142D01*
X62261904Y-102761904D01*
X62214285Y-102571428D01*
X62214285Y-102333333D01*
X62261904Y-102142857D01*
X62309523Y-102047619D01*
X62357142Y-102000000D01*
X62452380Y-101952380D01*
X63119047Y-101952380D02*
X63738095Y-101952380D01*
X63404761Y-102333333D01*
X63547619Y-102333333D01*
X63642857Y-102380952D01*
X63690476Y-102428571D01*
X63738095Y-102523809D01*
X63738095Y-102761904D01*
X63690476Y-102857142D01*
X63642857Y-102904761D01*
X63547619Y-102952380D01*
X63261904Y-102952380D01*
X63166666Y-102904761D01*
X63119047Y-102857142D01*
X67607142Y-106119047D02*
X67654761Y-106166666D01*
X67702380Y-106309523D01*
X67702380Y-106404761D01*
X67654761Y-106547619D01*
X67559523Y-106642857D01*
X67464285Y-106690476D01*
X67273809Y-106738095D01*
X67130952Y-106738095D01*
X66940476Y-106690476D01*
X66845238Y-106642857D01*
X66750000Y-106547619D01*
X66702380Y-106404761D01*
X66702380Y-106309523D01*
X66750000Y-106166666D01*
X66797619Y-106119047D01*
X66702380Y-105785714D02*
X66702380Y-105166666D01*
X67083333Y-105500000D01*
X67083333Y-105357142D01*
X67130952Y-105261904D01*
X67178571Y-105214285D01*
X67273809Y-105166666D01*
X67511904Y-105166666D01*
X67607142Y-105214285D01*
X67654761Y-105261904D01*
X67702380Y-105357142D01*
X67702380Y-105642857D01*
X67654761Y-105738095D01*
X67607142Y-105785714D01*
X66702380Y-104547619D02*
X66702380Y-104452380D01*
X66750000Y-104357142D01*
X66797619Y-104309523D01*
X66892857Y-104261904D01*
X67083333Y-104214285D01*
X67321428Y-104214285D01*
X67511904Y-104261904D01*
X67607142Y-104309523D01*
X67654761Y-104357142D01*
X67702380Y-104452380D01*
X67702380Y-104547619D01*
X67654761Y-104642857D01*
X67607142Y-104690476D01*
X67511904Y-104738095D01*
X67321428Y-104785714D01*
X67083333Y-104785714D01*
X66892857Y-104738095D01*
X66797619Y-104690476D01*
X66750000Y-104642857D01*
X66702380Y-104547619D01*
X66797619Y-103833333D02*
X66750000Y-103785714D01*
X66702380Y-103690476D01*
X66702380Y-103452380D01*
X66750000Y-103357142D01*
X66797619Y-103309523D01*
X66892857Y-103261904D01*
X66988095Y-103261904D01*
X67130952Y-103309523D01*
X67702380Y-103880952D01*
X67702380Y-103261904D01*
X70380952Y-109357142D02*
X70333333Y-109404761D01*
X70190476Y-109452380D01*
X70095238Y-109452380D01*
X69952380Y-109404761D01*
X69857142Y-109309523D01*
X69809523Y-109214285D01*
X69761904Y-109023809D01*
X69761904Y-108880952D01*
X69809523Y-108690476D01*
X69857142Y-108595238D01*
X69952380Y-108500000D01*
X70095238Y-108452380D01*
X70190476Y-108452380D01*
X70333333Y-108500000D01*
X70380952Y-108547619D01*
X70714285Y-108452380D02*
X71333333Y-108452380D01*
X71000000Y-108833333D01*
X71142857Y-108833333D01*
X71238095Y-108880952D01*
X71285714Y-108928571D01*
X71333333Y-109023809D01*
X71333333Y-109261904D01*
X71285714Y-109357142D01*
X71238095Y-109404761D01*
X71142857Y-109452380D01*
X70857142Y-109452380D01*
X70761904Y-109404761D01*
X70714285Y-109357142D01*
X71952380Y-108452380D02*
X72047619Y-108452380D01*
X72142857Y-108500000D01*
X72190476Y-108547619D01*
X72238095Y-108642857D01*
X72285714Y-108833333D01*
X72285714Y-109071428D01*
X72238095Y-109261904D01*
X72190476Y-109357142D01*
X72142857Y-109404761D01*
X72047619Y-109452380D01*
X71952380Y-109452380D01*
X71857142Y-109404761D01*
X71809523Y-109357142D01*
X71761904Y-109261904D01*
X71714285Y-109071428D01*
X71714285Y-108833333D01*
X71761904Y-108642857D01*
X71809523Y-108547619D01*
X71857142Y-108500000D01*
X71952380Y-108452380D01*
X73238095Y-109452380D02*
X72666666Y-109452380D01*
X72952380Y-109452380D02*
X72952380Y-108452380D01*
X72857142Y-108595238D01*
X72761904Y-108690476D01*
X72666666Y-108738095D01*
X116630952Y-104107142D02*
X116583333Y-104154761D01*
X116440476Y-104202380D01*
X116345238Y-104202380D01*
X116202380Y-104154761D01*
X116107142Y-104059523D01*
X116059523Y-103964285D01*
X116011904Y-103773809D01*
X116011904Y-103630952D01*
X116059523Y-103440476D01*
X116107142Y-103345238D01*
X116202380Y-103250000D01*
X116345238Y-103202380D01*
X116440476Y-103202380D01*
X116583333Y-103250000D01*
X116630952Y-103297619D01*
X117011904Y-103297619D02*
X117059523Y-103250000D01*
X117154761Y-103202380D01*
X117392857Y-103202380D01*
X117488095Y-103250000D01*
X117535714Y-103297619D01*
X117583333Y-103392857D01*
X117583333Y-103488095D01*
X117535714Y-103630952D01*
X116964285Y-104202380D01*
X117583333Y-104202380D01*
X118202380Y-103202380D02*
X118297619Y-103202380D01*
X118392857Y-103250000D01*
X118440476Y-103297619D01*
X118488095Y-103392857D01*
X118535714Y-103583333D01*
X118535714Y-103821428D01*
X118488095Y-104011904D01*
X118440476Y-104107142D01*
X118392857Y-104154761D01*
X118297619Y-104202380D01*
X118202380Y-104202380D01*
X118107142Y-104154761D01*
X118059523Y-104107142D01*
X118011904Y-104011904D01*
X117964285Y-103821428D01*
X117964285Y-103583333D01*
X118011904Y-103392857D01*
X118059523Y-103297619D01*
X118107142Y-103250000D01*
X118202380Y-103202380D01*
X119392857Y-103535714D02*
X119392857Y-104202380D01*
X119154761Y-103154761D02*
X118916666Y-103869047D01*
X119535714Y-103869047D01*
X116630952Y-109607142D02*
X116583333Y-109654761D01*
X116440476Y-109702380D01*
X116345238Y-109702380D01*
X116202380Y-109654761D01*
X116107142Y-109559523D01*
X116059523Y-109464285D01*
X116011904Y-109273809D01*
X116011904Y-109130952D01*
X116059523Y-108940476D01*
X116107142Y-108845238D01*
X116202380Y-108750000D01*
X116345238Y-108702380D01*
X116440476Y-108702380D01*
X116583333Y-108750000D01*
X116630952Y-108797619D01*
X117011904Y-108797619D02*
X117059523Y-108750000D01*
X117154761Y-108702380D01*
X117392857Y-108702380D01*
X117488095Y-108750000D01*
X117535714Y-108797619D01*
X117583333Y-108892857D01*
X117583333Y-108988095D01*
X117535714Y-109130952D01*
X116964285Y-109702380D01*
X117583333Y-109702380D01*
X118202380Y-108702380D02*
X118297619Y-108702380D01*
X118392857Y-108750000D01*
X118440476Y-108797619D01*
X118488095Y-108892857D01*
X118535714Y-109083333D01*
X118535714Y-109321428D01*
X118488095Y-109511904D01*
X118440476Y-109607142D01*
X118392857Y-109654761D01*
X118297619Y-109702380D01*
X118202380Y-109702380D01*
X118107142Y-109654761D01*
X118059523Y-109607142D01*
X118011904Y-109511904D01*
X117964285Y-109321428D01*
X117964285Y-109083333D01*
X118011904Y-108892857D01*
X118059523Y-108797619D01*
X118107142Y-108750000D01*
X118202380Y-108702380D01*
X118869047Y-108702380D02*
X119488095Y-108702380D01*
X119154761Y-109083333D01*
X119297619Y-109083333D01*
X119392857Y-109130952D01*
X119440476Y-109178571D01*
X119488095Y-109273809D01*
X119488095Y-109511904D01*
X119440476Y-109607142D01*
X119392857Y-109654761D01*
X119297619Y-109702380D01*
X119011904Y-109702380D01*
X118916666Y-109654761D01*
X118869047Y-109607142D01*
X116630952Y-105857142D02*
X116583333Y-105904761D01*
X116440476Y-105952380D01*
X116345238Y-105952380D01*
X116202380Y-105904761D01*
X116107142Y-105809523D01*
X116059523Y-105714285D01*
X116011904Y-105523809D01*
X116011904Y-105380952D01*
X116059523Y-105190476D01*
X116107142Y-105095238D01*
X116202380Y-105000000D01*
X116345238Y-104952380D01*
X116440476Y-104952380D01*
X116583333Y-105000000D01*
X116630952Y-105047619D01*
X117011904Y-105047619D02*
X117059523Y-105000000D01*
X117154761Y-104952380D01*
X117392857Y-104952380D01*
X117488095Y-105000000D01*
X117535714Y-105047619D01*
X117583333Y-105142857D01*
X117583333Y-105238095D01*
X117535714Y-105380952D01*
X116964285Y-105952380D01*
X117583333Y-105952380D01*
X118202380Y-104952380D02*
X118297619Y-104952380D01*
X118392857Y-105000000D01*
X118440476Y-105047619D01*
X118488095Y-105142857D01*
X118535714Y-105333333D01*
X118535714Y-105571428D01*
X118488095Y-105761904D01*
X118440476Y-105857142D01*
X118392857Y-105904761D01*
X118297619Y-105952380D01*
X118202380Y-105952380D01*
X118107142Y-105904761D01*
X118059523Y-105857142D01*
X118011904Y-105761904D01*
X117964285Y-105571428D01*
X117964285Y-105333333D01*
X118011904Y-105142857D01*
X118059523Y-105047619D01*
X118107142Y-105000000D01*
X118202380Y-104952380D01*
X118916666Y-105047619D02*
X118964285Y-105000000D01*
X119059523Y-104952380D01*
X119297619Y-104952380D01*
X119392857Y-105000000D01*
X119440476Y-105047619D01*
X119488095Y-105142857D01*
X119488095Y-105238095D01*
X119440476Y-105380952D01*
X118869047Y-105952380D01*
X119488095Y-105952380D01*
X116630952Y-107607142D02*
X116583333Y-107654761D01*
X116440476Y-107702380D01*
X116345238Y-107702380D01*
X116202380Y-107654761D01*
X116107142Y-107559523D01*
X116059523Y-107464285D01*
X116011904Y-107273809D01*
X116011904Y-107130952D01*
X116059523Y-106940476D01*
X116107142Y-106845238D01*
X116202380Y-106750000D01*
X116345238Y-106702380D01*
X116440476Y-106702380D01*
X116583333Y-106750000D01*
X116630952Y-106797619D01*
X117011904Y-106797619D02*
X117059523Y-106750000D01*
X117154761Y-106702380D01*
X117392857Y-106702380D01*
X117488095Y-106750000D01*
X117535714Y-106797619D01*
X117583333Y-106892857D01*
X117583333Y-106988095D01*
X117535714Y-107130952D01*
X116964285Y-107702380D01*
X117583333Y-107702380D01*
X118202380Y-106702380D02*
X118297619Y-106702380D01*
X118392857Y-106750000D01*
X118440476Y-106797619D01*
X118488095Y-106892857D01*
X118535714Y-107083333D01*
X118535714Y-107321428D01*
X118488095Y-107511904D01*
X118440476Y-107607142D01*
X118392857Y-107654761D01*
X118297619Y-107702380D01*
X118202380Y-107702380D01*
X118107142Y-107654761D01*
X118059523Y-107607142D01*
X118011904Y-107511904D01*
X117964285Y-107321428D01*
X117964285Y-107083333D01*
X118011904Y-106892857D01*
X118059523Y-106797619D01*
X118107142Y-106750000D01*
X118202380Y-106702380D01*
X119488095Y-107702380D02*
X118916666Y-107702380D01*
X119202380Y-107702380D02*
X119202380Y-106702380D01*
X119107142Y-106845238D01*
X119011904Y-106940476D01*
X118916666Y-106988095D01*
M02*
